<svg xmlns="http://www.w3.org/2000/svg" width="263" height="262" viewBox="0 0 263 262">
  <g fill="none" fill-rule="evenodd" transform="translate(0 -.516)">
    <path fill="#E2F2FF" d="M131.367219,262.494791 C203.677311,262.494791 262.296222,203.918209 262.296222,131.660333 C262.296222,59.4024574 203.677311,0.825875222 131.367219,0.825875222 C59.0571268,0.825875222 0.438215271,59.4024574 0.438215271,131.660333 C0.438215271,203.918209 59.0571268,262.494791 131.367219,262.494791 Z" opacity=".284"/>
    <path fill="#E2F2FF" d="M131.367219,238.266188 C190.286553,238.266188 238.05011,190.537121 238.05011,131.660333 C238.05011,72.7835455 190.286553,25.0544786 131.367219,25.0544786 C72.4478846,25.0544786 24.684327,72.7835455 24.684327,131.660333 C24.684327,190.537121 72.4478846,238.266188 131.367219,238.266188 Z" opacity=".389"/>
    <path fill="#9013FE" d="M131.367219,208.528194 C173.850844,208.528194 208.290627,174.113281 208.290627,131.660333 C208.290627,89.207386 173.850844,54.7924725 131.367219,54.7924725 C88.8835935,54.7924725 54.4438106,89.207386 54.4438106,131.660333 C54.4438106,174.113281 88.8835935,208.528194 131.367219,208.528194 Z" opacity=".3"/>
    <g transform="translate(49.473 49.766)">
      <path fill="#E2F2FF" d="M81.6835524,163.367105 C126.796133,163.367105 163.367105,126.796133 163.367105,81.6835524 C163.367105,36.5709721 126.796133,-2.84217094e-14 81.6835524,-2.84217094e-14 C36.5709721,-2.84217094e-14 -2.84217094e-14,36.5709721 -2.84217094e-14,81.6835524 C-2.84217094e-14,126.796133 36.5709721,163.367105 81.6835524,163.367105 Z"/>
      <path fill="#1B50D9" d="M63.9381889,55.9611452 C67.9255405,60.3050663 70.6484966,57.7052903 81.3206927,60.8181642 C91.9928887,63.9310381 82.1986366,63.723033 82.1986366,63.723033 C82.1986366,63.723033 59.7712133,58.6525769 52.1713707,63.6050809 C50.6447776,64.5998987 49.0917181,67.8114064 48.1038078,70.630268 C47.7672976,71.590452 46.406069,79.4939906 46.4354427,84.2917434 C46.4648163,89.0894962 49.1739155,101.996893 56.4609232,101.359363 C56.4609232,101.359363 60.0758113,101.439583 61.3702054,99.2793108 C62.6645994,97.1190391 59.7301718,78.7241985 71.2028833,77.7204663 C82.6755949,76.7167341 98.2276411,82.1670586 100.574228,72.5943184 C102.920814,63.0215783 104.546136,43.3916531 89.5949763,43.3916531 C87.9161346,43.3916531 72.7986859,42.2545143 67.2537802,45.4933157 C61.7088745,48.7321171 59.9508373,51.617224 63.9381889,55.9611452 Z"/>
      <path fill="#D7EDFF" d="M65.132021,54.8726978 C67.6826587,58.028424 71.1677279,56.5100545 81.8399239,59.6229285 C92.51212,62.7358024 85.5628356,66.2162457 85.5628356,66.2162457 C85.5628356,66.2162457 61.5136374,60.5185554 53.9137948,65.4710595 C52.3872017,66.4658773 50.586069,69.1783485 49.5981586,71.9972101 C49.2616484,72.957394 48.6708055,78.4225718 48.7001791,83.2203246 C48.7295527,88.0180773 48.9335718,99.2497521 56.2205795,98.6122215 C56.2205795,98.6122215 58.4400514,98.6923763 59.7344454,96.5321045 C60.6947536,94.9294036 60.2597928,84.8881118 62.5458947,80.7585354 C64.8319967,76.6289591 66.8987747,75.5405388 69.8599063,75.2814734 C76.5832578,74.6932563 80.4528303,76.37572 86.4736767,76.6272069 C92.4945231,76.8786937 98.1694731,76.6825479 99.1408899,72.7197192 C100.333648,67.8539444 101.212298,60.7212776 100.314352,54.5254763 C99.4164058,48.3296751 97.1436927,45.1501102 89.7921311,45.1501102 C88.1132894,45.1501102 74.5980664,43.7257336 69.0531607,46.964535 C63.508255,50.2033364 62.5813833,51.7169715 65.132021,54.8726978 Z"/>
      <path fill="#F8FCFF" stroke="#1B50D9" stroke-width="3.314" d="M73.1024815,54.1346959 C74.476224,54.1346959 76.0284926,52.9228668 76.0284926,51.428 C76.0284926,49.9331331 74.476224,48.7213041 73.1024815,48.7213041 C71.7287391,48.7213041 70.6151008,49.9331331 70.6151008,51.428 C70.6151008,52.9228668 71.7287391,54.1346959 73.1024815,54.1346959 Z"/>
      <path fill="#F8FCFF" d="M73.1024815,54.1346959 C74.476224,54.1346959 76.0284926,52.9228668 76.0284926,51.428 C76.0284926,49.9331331 74.7338839,49.4189046 73.3601414,49.4189046 C71.986399,49.4189046 71.0940932,50.3648371 71.0940932,51.859704 C71.0940932,53.3545708 71.7287391,54.1346959 73.1024815,54.1346959 Z"/>
      <path fill="#1B50D9" d="M80.3231699,69.3464224 C84.3105214,73.6903435 87.0334776,71.0905675 97.7056736,74.2034414 C108.37787,77.3163153 98.5836175,77.1083102 98.5836175,77.1083102 C98.5836175,77.1083102 76.1561942,72.0378541 68.5563516,76.9903581 C67.0297585,77.9851759 65.4766991,81.1966836 64.4887887,84.0155452 C64.1522785,84.9757291 62.79105,92.8792678 62.8204236,97.6770206 C62.8497972,102.474773 65.5588964,115.38217 72.8459041,114.74464 C72.8459041,114.74464 76.4607923,114.82486 77.7551863,112.664588 C79.0495804,110.504316 76.1151528,92.1094756 87.5878643,91.1057434 C99.0605758,90.1020112 114.612622,95.5523358 116.959209,85.9795956 C119.305795,76.4068555 120.931117,56.7769303 105.979957,56.7769303 C104.301116,56.7769303 89.1836669,55.6397915 83.6387612,58.8785929 C78.0938555,62.1173943 76.3358183,65.0025012 80.3231699,69.3464224 Z" transform="rotate(180 90.65 85.675)"/>
      <path fill="#D7EDFF" d="M80.6643086,69.3618161 C83.2149464,72.5175423 86.7000155,70.9991729 97.3722116,74.1120468 C108.044408,77.2249207 101.095123,80.705364 101.095123,80.705364 C101.095123,80.705364 77.0459251,75.0076738 69.4460825,79.9601778 C67.9194893,80.9549956 66.1183566,83.6674669 65.1304463,86.4863284 C64.7939361,87.4465124 64.2030931,92.9116902 64.2324667,97.7094429 C64.2618403,102.507196 64.4658594,113.73887 71.7528672,113.10134 C71.7528672,113.10134 73.972339,113.181495 75.2667331,111.021223 C76.2270412,109.418522 75.7920804,99.3772302 78.0781824,95.2476538 C80.3642844,91.1180774 82.4310624,90.0296572 85.392194,89.7705917 C92.1155454,89.1823747 95.985118,90.8648384 102.005964,91.1163252 C108.026811,91.3678121 113.701761,91.1716662 114.673178,87.2088376 C115.865935,82.3430627 116.744585,75.2103959 115.846639,69.0145947 C114.948693,62.8187934 112.67598,59.6392286 105.324419,59.6392286 C103.645577,59.6392286 90.130354,58.214852 84.5854484,61.4536534 C79.0405427,64.6924548 78.1136709,66.2060899 80.6643086,69.3618161 Z" transform="rotate(180 90.223 86.227)"/>
      <path fill="#F8FCFF" stroke="#1B50D9" stroke-width="3.314" d="M91.3733475,109.244271 C92.74709,109.244271 94.2993586,108.032442 94.2993586,106.537575 C94.2993586,105.042708 92.74709,103.830879 91.3733475,103.830879 C89.9996051,103.830879 88.8859668,105.042708 88.8859668,106.537575 C88.8859668,108.032442 89.9996051,109.244271 91.3733475,109.244271 Z" transform="rotate(180 91.593 106.538)"/>
      <path fill="#F8FCFF" d="M90.8943552,108.54667 C92.2680976,108.54667 93.8203663,107.334841 93.8203663,105.839974 C93.8203663,104.345108 92.5257575,103.830879 91.1520151,103.830879 C89.7782726,103.830879 88.8859668,104.776812 88.8859668,106.271678 C88.8859668,107.766545 89.5206127,108.54667 90.8943552,108.54667 Z" transform="rotate(180 91.353 106.189)"/>
    </g>
  </g>
</svg>
