<svg width="64" height="64" viewBox="0 0 64 64">
  <g fill="none" fill-rule="evenodd" transform="translate(.05 .773)">
    <circle cx="31.644" cy="31.644" r="31.493" fill="#ed3e44"/>
    <path fill="#FFF" d="M24.1237681,34.3627702 L24.1237681,41.5329933 C24.4762051,42.0011343 24.691086,42.454997 24.691086,43.0216231 C24.691086,43.7274042 24.3719164,44.3606819 23.8704479,44.7829451 L23.2456146,44.1586206 C23.5897494,43.8998557 23.8125074,43.4879501 23.8125074,43.0234372 C23.8125074,42.2395351 23.177384,41.6039166 22.3939892,41.6039166 C21.6105944,41.6039166 20.975471,42.2396521 20.975471,43.0236127 C20.975471,43.484205 21.194721,43.8938283 21.5344708,44.1532955 L20.9102807,44.777386 C20.4130802,44.3553568 20.0856669,43.7259413 20.0856669,43.0236127 C20.0856669,42.4563429 20.2615758,41.934366 20.6123757,41.5329936 L20.6123757,30.3984937 C20.6708424,29.969618 21.0021318,29.6228426 21.4289385,29.6228426 L41.8532733,29.6253588 C42.2801384,29.6253588 42.6171576,29.9695595 42.6756243,30.3984937 L42.6756243,41.5385525 C42.9679576,41.9397493 43.2023331,42.4589177 43.2023331,43.0263631 C43.2023331,43.7281649 42.8801233,44.3579901 42.3828644,44.7800778 L41.7555755,44.1561043 C42.0953838,43.8965787 42.3131136,43.4869553 42.3131136,43.0263631 C42.3131136,42.2422854 41.6772302,41.606667 40.8938354,41.606667 C40.110499,41.606667 39.4749079,42.2422269 39.4749079,43.0263631 C39.4749079,43.4907004 39.6974905,43.9026645 40.0415668,44.1617805 L39.4166751,44.7865732 C38.9152066,44.3644856 38.596037,43.7288086 38.596037,43.0230276 C38.596037,42.4564599 38.8230789,42.0011343 39.1642319,41.5329933 L39.1642319,34.4217454 L38.1693374,34.4217454 L38.1693374,49.4765268 L38.7545695,49.8630942 L38.7545695,51.100859 L31.9076262,51.100859 L31.9076262,49.8631527 L32.6681561,49.4913903 L32.6681561,44.838876 L30.6783671,44.838876 L30.6798263,49.4765268 L31.3814262,49.8630942 L31.3814262,51.100859 L24.4749073,51.100859 L24.4749073,49.8630942 L25.1771858,49.4775216 L25.1771858,34.3627702 L24.1237681,34.3627702 Z M32.1127124,17.7268891 C30.6897791,17.7268891 29.4010396,18.2356898 28.6097474,19.0006467 L27.9843099,18.1074655 C28.9731179,17.2177372 30.4555693,16.652169 32.1126538,16.652169 C33.7653492,16.652169 35.2444061,17.2149281 36.2333313,18.1007353 L35.6073671,18.992746 C34.815431,18.232237 33.5309052,17.7268891 32.1127124,17.7268891 Z M32.1800726,15.448054 C30.6303196,15.448054 29.1847964,15.8957565 28.1100762,16.7090535 C27.8558514,16.9011267 27.6310053,17.1080647 27.4375276,17.3264148 L26.8075252,16.4265035 C28.022584,15.1810711 29.9764398,14.3732753 32.1800726,14.3732753 C34.3317953,14.3732753 36.2455626,15.1436163 37.4657714,16.3394209 L36.8389294,17.2347675 C36.6651155,17.0501267 36.4682434,16.8742645 36.2499518,16.709112 C35.1751732,15.8957565 33.7297085,15.448054 32.1800726,15.448054 Z M32.1127124,13.2620367 C29.6481831,13.2620367 27.4699494,14.1616554 26.1787519,15.528816 L25.5569429,14.6406093 C27.0636228,13.1491454 29.4394308,12.1870239 32.1127124,12.187141 C34.7814291,12.187141 37.1541939,13.1462778 38.6610494,14.6338792 L38.0387721,15.5206228 C36.7465212,14.158144 34.5723256,13.2620367 32.1127124,13.2620367 Z M37.1906539,20.1420833 C37.6177562,20.1420833 37.9937678,20.4926958 37.9937678,20.9199737 L37.9937678,27.6904063 C37.9937678,28.1150507 37.6177562,28.4523785 37.1906539,28.4523785 L26.8124997,28.4523785 C26.386919,28.4523785 26.0550339,28.1150507 26.0550339,27.6904063 L26.0550339,20.9199737 C26.0550339,20.4926958 26.386919,20.1420833 26.8124997,20.1420833 L37.1906539,20.1420833 Z M29.3575569,25.1107619 C28.6288844,25.1107619 28.0373319,24.5173952 28.0373319,23.7900102 C28.0373319,23.0590554 28.6288844,22.4673858 29.3575569,22.4673858 C30.0871657,22.4673858 30.6787182,23.0589969 30.6787182,23.7900102 C30.6787182,24.5174537 30.0871657,25.1107619 29.3575569,25.1107619 L29.3575569,25.1107619 Z M34.6623929,25.1107619 C33.9310869,25.1107619 33.3385394,24.5173952 33.3385394,23.7900102 C33.3385394,23.0590554 33.9310869,22.4673858 34.6623929,22.4673858 C35.3921772,22.4673858 35.9837298,23.0589969 35.9837298,23.7900102 C35.9837298,24.5174537 35.3921772,25.1107619 34.6623929,25.1107619 L34.6623929,25.1107619 Z M30.0344948,23.7900102 C30.0344948,24.1622764 29.7321639,24.4656021 29.3576154,24.4656021 C28.9858175,24.4656021 28.6825502,24.1622764 28.6825502,23.7900102 C28.6825502,23.4141742 28.9858175,23.1127797 29.3576154,23.1127797 C29.7321639,23.1127797 30.0344948,23.4141742 30.0344948,23.7900102 L30.0344948,23.7900102 Z M34.6623929,24.4656021 C34.2888978,24.4656021 33.9863913,24.1622764 33.9863913,23.7900102 C33.9863913,23.4141742 34.2888978,23.1127797 34.6623929,23.1127797 C35.0343663,23.1127797 35.3410279,23.4141742 35.3410279,23.7900102 C35.3410279,24.1622764 35.0343663,24.4656021 34.6623929,24.4656021 Z"/>
  </g>
</svg>
