<?xml version="1.0" encoding="UTF-8"?>
<svg width="181px" height="14px" viewBox="0 0 181 14" version="1.1" xmlns="http://www.w3.org/2000/svg" xmlns:xlink="http://www.w3.org/1999/xlink">
    <!-- Generator: Sketch 42 (36781) - http://www.bohemiancoding.com/sketch -->
    <title>ruby-tapas-logo</title>
    <desc>Created with Sketch.</desc>
    <defs></defs>
    <g stroke="none" stroke-width="1" fill="none" fill-rule="evenodd">
        <g transform="translate(-726.000000, -697.000000)">
            <g transform="translate(16.000000, 520.000000)">
                <g transform="translate(584.000000, 0.000000)">
                    <g transform="translate(126.100000, 177.100000)">
                        <path d="M2.9798,8.89973333 C6.0598,8.89973333 7.1998,7.31973333 7.1998,5.17973333 C7.1998,3.03973333 6.0398,1.43973333 2.9798,1.43973333 L1.4398,1.43973333 L1.4398,8.89973333 L2.9798,8.89973333 Z M8.8198,13.7597333 L7.11913333,13.7597333 L4.4998,10.0397333 C4.0398,10.1197333 3.5398,10.1597333 3.0598,10.1597333 L1.4398,10.1597333 L1.4398,13.7597333 L-0.0002,13.7597333 L-0.0002,0.159733333 L3.0598,0.159733333 C6.7798,0.159733333 8.6998,2.23973333 8.6998,5.17973333 C8.6998,7.21973333 7.7398,8.81973333 5.8598,9.57973333 L8.8198,13.7597333 Z" fill="#ED2E62"></path>
                        <path d="M19.6998667,9.11946667 L19.6998667,0.160133333 L21.1398667,0.160133333 L21.1398667,9.01946667 C21.1398667,11.4394667 22.4598667,12.6394667 24.5798667,12.6394667 C26.6798667,12.6394667 28.0192,11.4394667 28.0192,9.01946667 L28.0192,0.160133333 L29.4598667,0.160133333 L29.4598667,9.11946667 C29.4598667,12.2994667 27.3392,13.9194667 24.5798667,13.9194667 C21.7998667,13.9194667 19.6998667,12.2994667 19.6998667,9.11946667" fill="#ED2E62"></path>
                        <path d="M46.0596,12.4794667 C48.1396,12.4794667 48.9996,11.2994667 48.9996,9.71946667 C48.9996,8.11946667 48.0596,6.95946667 45.9796,6.95946667 L42.4996,6.95946667 L42.4996,12.4794667 L46.0596,12.4794667 Z M45.7796,5.71946667 C47.3596,5.71946667 47.9796,4.81946667 47.9796,3.57946667 C47.9796,2.34013333 47.3196,1.43946667 45.5796,1.43946667 L42.4996,1.43946667 L42.4996,5.71946667 L45.7796,5.71946667 Z M41.0596,0.160133333 L45.6796,0.160133333 C48.2196,0.160133333 49.4196,1.66013333 49.4196,3.50013333 C49.4196,4.84013333 48.8196,5.81946667 47.6596,6.20013333 C49.4196,6.61946667 50.4596,7.95946667 50.4596,9.75946667 C50.4596,12.0194667 49.0596,13.7594667 46.1596,13.7594667 L41.0596,13.7594667 L41.0596,0.160133333 Z" fill="#ED2E62"></path>
                        <path d="M64.6595333,9.49966667 L59.5195333,0.159666667 L61.1395333,0.159666667 L64.8395333,6.91966667 C65.1395333,7.43966667 65.4195333,8.29966667 65.4195333,8.29966667 C65.4195333,8.29966667 65.7195333,7.45966667 65.9995333,6.91966667 L69.6795333,0.159666667 L71.1788667,0.159666667 L66.1395333,9.43966667 L66.1395333,13.7596667 L64.6595333,13.7596667 L64.6595333,9.49966667 Z" fill="#ED2E62"></path>
                        <polygon fill="#ED2E62" points="97.4791333 1.4398 93.2991333 1.4398 93.2991333 0.1598 103.099133 0.1598 103.099133 1.4398 98.9191333 1.4398 98.9191333 13.7591333 97.4791333 13.7591333"></polygon>
                        <path d="M119.5794,10.2396 L117.1794,4.1996 C116.9194,3.5596 116.6594,2.5796 116.6594,2.5796 C116.6594,2.5796 116.3794,3.5596 116.120067,4.1996 L113.7194,10.2396 L119.5794,10.2396 Z M116.5394,0.0196 L116.7794,0.0196 L122.538733,13.7596 L121.0194,13.7596 L120.0994,11.4796 L113.2194,11.4796 L112.3194,13.7596 L110.8994,13.7596 L116.5394,0.0196 Z" fill="#ED2E62"></path>
                        <path d="M136.139333,9.11946667 C139.199333,9.11946667 140.339333,7.52013333 140.339333,5.27946667 C140.339333,3.04013333 139.199333,1.43946667 136.139333,1.43946667 L134.579333,1.43946667 L134.579333,9.11946667 L136.139333,9.11946667 Z M133.139333,0.160133333 L136.219333,0.160133333 C139.939333,0.160133333 141.839333,2.22013333 141.839333,5.27946667 C141.839333,8.27946667 139.939333,10.3794667 136.219333,10.3794667 L134.579333,10.3794667 L134.579333,13.7594667 L133.139333,13.7594667 L133.139333,0.160133333 Z" fill="#ED2E62"></path>
                        <path d="M159.179067,10.2396 L156.779067,4.1996 C156.519733,3.5596 156.259067,2.5796 156.259067,2.5796 C156.259067,2.5796 155.979067,3.5596 155.719733,4.1996 L153.319733,10.2396 L159.179067,10.2396 Z M156.139067,0.0196 L156.379733,0.0196 L162.139067,13.7596 L160.619067,13.7596 L159.699067,11.4796 L152.819733,11.4796 L151.919067,13.7596 L150.499067,13.7596 L156.139067,0.0196 Z" fill="#ED2E62"></path>
                        <path d="M171.459667,11.1595333 L172.659667,10.5195333 C173.299667,11.6595333 174.239667,12.6395333 176.159667,12.6395333 C177.739,12.6395333 178.979,11.7595333 178.979,10.3195333 C178.979,8.93953333 178.119,8.23953333 176.419,7.47953333 L175.339,6.97953333 C173.399,6.09953333 172.339,5.15953333 172.339,3.25953333 C172.339,1.29953333 173.879667,0.0002 175.919,0.0002 C177.739,0.0002 178.879,0.8402 179.599,2.0402 L178.439,2.75953333 C177.919,1.9202 177.199,1.2802 175.919,1.2802 C174.579667,1.2802 173.759,2.0602 173.759,3.21953333 C173.759,4.4202 174.399,4.9602 175.919,5.65953333 L176.999667,6.15953333 C179.259,7.15953333 180.419,8.27953333 180.419,10.3195333 C180.419,12.5595333 178.639667,13.9195333 176.199,13.9195333 C173.599667,13.9195333 172.179,12.5995333 171.459667,11.1595333" fill="#ED2E62"></path>
                        <polygon stroke="#ED2E62" stroke-width="0.8" points="79.7024667 4.86033333 83.8171333 4.86033333 85.8064667 6.83966667 81.8064667 10.9123333 77.7651333 6.89166667"></polygon>
                        <path d="M77.765,6.83953333 L85.807,6.83953333" stroke="#ED2E62" stroke-width="0.8"></path>
                        <path d="M81.7858,10.9124667 L81.7858,4.86046667" stroke="#ED2E62" stroke-width="0.8"></path>
                    </g>
                </g>
            </g>
        </g>
    </g>
</svg>