<svg width="200" height="200" viewBox="0 0 200 200">
  <g fill="none" fill-rule="evenodd">
    <path fill="#E2F5FF" d="M100,200 C155.228475,200 200,155.228475 200,100 C200,44.771525 155.228475,0 100,0 C44.771525,0 5.68434189e-14,44.771525 5.68434189e-14,100 C5.68434189e-14,155.228475 44.771525,200 100,200 Z" opacity=".397"/>
    <path fill="#0480C3" d="M141.885537,112.631862 C136.648248,110.130169 136.549372,91.4222241 139.616079,87.1460995 C140.836711,85.4440866 144.749087,85.805707 150.139105,85.0962255 C158.290928,84.0232109 168.763651,83.213911 170.020783,90.6246876 C171.421102,98.8795492 171.81541,113.189032 160.396792,115.091028 C160.184022,115.156614 155.289592,114.620622 150.500591,114.396763 C145.71159,114.172903 147.122826,115.133555 141.885537,112.631862 Z"/>
    <path fill="#89D6FF" d="M143.042794,109.654212 C150.387001,113.621638 164.046077,113.894292 167.500803,106.483748 C169.723569,101.715816 169.380773,89.4446851 166.485698,87.4363134 C163.590623,85.4279418 156.739407,85.8925571 156.739407,85.8925571 C156.739407,85.8925571 147.477488,87.4369772 143.009332,87.5681494 C142.441948,87.5025633 140.78048,89.568303 140.709557,90.0929915 C140.709557,90.0929915 138.779371,107.351061 143.042794,109.654212 Z"/>
    <path fill="#0480C3" d="M159.120696 106.390991C161.315231 106.390991 150.628827 107.252514 150.375528 106.082772 149.567108 102.295875 151.664509 96.7426609 152.325943 93.0986658 152.546421 91.8125499 155.408705 93.0048923 155.849661 93.4335976 155.188227 95.3627715 154.465363 97.7080214 154.318377 99.7086462 153.58345 107.996949 155.860036 101.932432 159.964728 104.024979 159.229801 104.668037 159.468827 106.312204 159.120696 106.390991zM134.741943 100.008571C135.431332 112.018673 136.135733 110.529157 132.663401 113.869419 130.326255 116.140797 120.936049 116.586237 118.064697 116.319016 116.395307 116.185405 106.052303 116.211741 105.906022 112.166184 105.75974 108.120627 106.647308 102.641129 106.380206 97.8311518 106.179879 94.6245003 103.891126 90.3520359 107.336515 88.2252525 110.781904 86.098469 118.823318 85.4303479 118.622991 85.4303479 118.756542 85.4303479 127.928388 85.2228354 132.519705 85.4303479 137.111022 85.6378604 134.446962 94.8695888 134.741943 100.008571z"/>
    <path fill="#89D6FF" d="M118.937859,86.8272815 C112.393849,86.693671 109.694244,87.9273505 108.759385,88.4617924 C105.888034,89.9315076 107.707213,100.957832 107.773988,104.164483 C107.90754,109.642513 106.824911,110.812532 112.100184,112.349053 C116.440599,113.618352 126.166012,113.226783 129.542929,110.593721 C132.919846,107.96066 132.719692,107.437295 132.839761,100.75875 C132.959829,94.0802059 133.9571,88.1002392 130.802198,87.3382283 C127.647297,86.5762173 118.937859,86.8272815 118.937859,86.8272815 Z"/>
    <path fill="#0480C3" d="M120.459274 100.545483C120.957395 100.265222 120.55734 104.900463 119.562736 105.842795 118.568133 106.785128 117.173038 107.09903 116.730124 105.842795 116.160331 104.226692 117.822289 104.423288 117.25986 99.3113823 116.697431 94.1994762 115.902859 94.5770269 116.226968 93.6201099 116.730124 92.1345635 118.534555 92.966298 118.97236 92.6789183 120.609044 92.8891146 119.826282 98.0234893 120.893685 97.6030967 122.421863 97.0458122 124.663416 93.8126335 126.665397 93.2296523 127.180437 93.0796716 127.686072 94.0972369 128.152023 94.2119328 129.219426 96.5240922 121.249486 97.7152046 123.384291 100.23756 124.522854 101.638869 129.788707 103.810897 128.152023 105.842795 123.384291 105.842795 121.028555 100.195156 120.459274 100.545483zM98.121857 87.4181122C100.620073 88.2431756 103.98646 87.7592554 103.782215 98.8187088 103.577971 109.878162 101.931152 113.251191 99.6470042 115.113355 96.8113795 117.450027 94.2262616 114.89074 84.8558625 115.183525 75.4854634 115.476311 73.0004112 115.955817 68.6432318 113.902378 64.7701834 111.990555 66.988325 94.7101149 68.0342833 90.6290367 69.0802415 86.5479585 77.4432975 86.0082105 77.4432975 86.0082105 85.4660406 86.5746764 92.8655771 85.7187143 98.121857 87.4181122z"/>
    <path fill="#89D6FF" d="M80.427538,86.9118341 C75.7240192,86.9674768 72.4077742,87.4551419 70.4020884,89.6501974 C68.1889179,92.128486 66.7433058,110.838256 74.4897303,111.575048 C82.2361549,112.311841 86.6126061,111.401429 92.519358,111.302871 C97.200866,111.224757 98.2276777,114.896673 100.462356,108.030275 C102.697035,101.163877 102.131622,99.2020486 101.909607,94.2248567 C101.687591,89.2476648 99.6362762,88.8171439 96.5931668,87.9674449 C92.3743105,86.9053212 85.1310567,86.8561914 80.427538,86.9118341 Z"/>
    <path fill="#0480C3" d="M81.5170851,106.754575 C79.4415128,106.826958 76.7342445,102.773499 79.3512705,102.12205 C80.3439355,101.904901 83.3219307,106.537425 83.4121729,103.280181 C83.4121729,101.108685 83.3219307,97.7790583 84.0438689,95.6799455 C84.0438689,95.6075623 83.3219307,88.0073264 87.2925908,90.9750376 C89.0071941,92.3503184 87.3828331,99.0819559 87.6535599,100.167704 C87.021864,102.990649 86.1194412,106.537425 81.5170851,106.754575 Z"/>
    <path fill="#89D6FF" d="M40.410938,86.0103058 C35.7074192,86.0659485 33.3603453,87.4883164 31.3546595,89.683372 C29.141489,92.1616606 27.6734738,115.338429 39.1710724,114.559819 C50.6686711,113.781209 49.3749643,114.820739 55.2817162,114.722181 C59.9632242,114.644067 60.3678401,117.933624 62.6025189,111.067226 C64.8371977,104.200828 62.8245344,96.8048088 62.6025189,91.8276169 C62.3805035,86.850425 60.1237724,87.9589689 57.080663,87.1092699 C52.8618067,86.0471463 45.1144567,85.9546631 40.410938,86.0103058 Z"/>
    <path fill="#0380C3" d="M63.1141865,89.871162 C63.6738706,93.9499802 64.5133968,102.436554 63.8137916,106.449584 C62.6244629,113.028324 65.4469323,113.259837 56.841789,116.286057 C51.944553,117.996529 46.4203415,116.689809 41.1033424,116.558234 C39.9839741,116.558234 34.0184824,115.785591 32.6892326,114.864568 C28.7014833,112.03571 29.4694636,104.138833 29.3295426,99.7310778 C29.0497005,90.9155674 32.8735685,83.5621452 43.3676457,86.9830895 C42.066018,86.9830895 40.9184704,86.9882538 39.9006675,87.0192542 C37.4720326,87.0932259 35.7821297,87.3143011 34.500336,87.9633276 C29.3932184,90.4632485 30.8623892,95.3973028 31.7718759,99.7392706 C32.2615995,101.910255 32.051718,104.410175 32.2615995,106.581159 C32.5414416,109.015293 34.0805729,110.067891 35.0600201,111.252064 C36.948954,113.554623 46.8833471,113.488835 49.1920441,113.686197 C53.0398724,114.080922 57.8671479,113.686197 61.015371,111.844151 C63.6738706,110.265253 62.9043049,100.133995 62.5545023,97.8314363 C62.2046998,95.3973028 63.5339495,89.7395872 60.5256474,88.0949024 C59.0175091,87.2884873 46.055948,86.902304 45.0642077,86.7767656 C43.9812326,86.6396783 40.4312163,85.989224 40.4037105,85.9906338 C38.650297,86.0805034 62.4145813,84.7397455 63.1141865,89.871162 Z"/>
    <path fill="#0480C3" d="M50.6273388,92.1707691 C51.0975253,92.3858976 51.0975253,102.712066 50.6945083,107.014636 C50.6273388,108.018569 49.7541353,107.014636 48.8137624,107.516602 C46.7315079,108.592245 48.8137624,101.421295 46.2613215,101.206166 C43.6417111,100.991038 44.9179315,104.576513 44.582084,107.014636 C44.3805755,108.233697 42.9028466,107.660021 42.1639821,107.80344 C42.0296431,107.80344 40.2832362,95.6128251 41.7609651,92.0990596 C42.0968126,91.3102551 43.2386941,91.2385456 44.044728,91.4536741 C44.447745,91.5253836 43.4402026,97.6206911 44.3805755,98.7680432 C44.7835925,99.1983002 45.522457,99.0548812 46.328491,99.2700097 C47.3360334,99.5568477 48.2764064,99.9153952 48.2764064,97.4772721 C48.2764064,96.2582106 48.2092369,92.4576071 49.1496098,92.2424786"/>
  </g>
</svg>
