<svg width="200" height="200" viewBox="0 0 200 200">
  <g fill="none" fill-rule="evenodd">
    <path fill="#D7EDFF" d="M100,200 C155.228475,200 200,155.228475 200,100 C200,44.771525 155.228475,-1.42108547e-14 100,-1.42108547e-14 C44.771525,-1.42108547e-14 5.68434189e-14,44.771525 5.68434189e-14,100 C5.68434189e-14,155.228475 44.771525,200 100,200 Z" opacity=".397"/>
    <path fill="#24415D" d="M67.6111403,57.4346967 C66.6429794,61.7331963 72.8272754,120.211172 73.1910576,123.260012 C73.3925567,124.948767 74.0278405,140.876213 75.4266815,147.001126 C76.8255225,153.12604 85.5684151,152.386015 92.8159888,153.325287 C95.0032893,153.608757 109.085156,154.25143 116.301923,152.981876 C118.29231,152.631732 127.473002,153.540655 130.576353,150.541848 C133.679704,147.543041 133.764955,138.382551 133.683003,135.338187 C133.669771,134.846639 133.935221,129.224088 133.327706,114.515768 C132.740636,100.302433 131.679621,84.4262952 131.264349,73.6287753 C131.061893,68.3646935 130.993182,61.4501305 130.826464,60.1409277 C129.9639,53.3674136 126.286543,53.4469169 122.485459,53.1463023 C120.106766,52.9581796 117.307217,51.9475042 111.010924,52.7084164 C107.24592,53.1634203 68.5793012,53.1361972 67.6111403,57.4346967 Z"/>
    <path fill="#7AA1C7" d="M69.8014075,58.0777047 C69.8014075,58.0777047 120.288863,51.3950978 126.959108,56.9398715 C129.203469,58.805541 128.201588,63.8867287 128.540009,68.1500755 C129.207374,76.5574039 129.304993,85.3941089 129.304993,85.3941089 L130.645074,99.9683631 L130.903695,117.509094 C130.903695,117.509094 131.376433,141.672102 130.595625,142.980536 C129.851827,144.226951 129.551301,146.981879 122.665426,147.560273 C115.77955,148.138667 113.168595,148.319596 113.168595,148.319596 C113.168595,148.319596 107.337495,150.274203 92.8670507,148.576553 C78.3966064,146.878903 80.8680151,147.860538 78.846041,145.328498 C76.8240668,142.796459 75.715998,132.379215 75.4520031,126.118748 C75.3407605,123.480701 75.1997761,120.691137 74.5287807,117.68365 C74.2998996,116.657776 73.8194824,115.895862 73.8814866,114.556958 C74.1663158,108.406428 72.7584883,106.404217 72.1215786,90.0789555 C71.4846689,73.7536941 69.8014075,58.0777047 69.8014075,58.0777047 Z"/>
    <path fill="#396797" d="M75.6759396,66.5802562 C75.6759396,66.5802562 84.976494,65.9529461 89.6863631,65.5543521 C94.3962322,65.1557582 111.128726,64.0269527 116.435897,64.0135712 C121.743069,64.0001898 121.557648,64.426553 122.753965,66.8920694 C123.950282,69.3575859 123.319328,82.6307276 124.32458,100.506307 C125.329832,118.381886 129.125927,130.345102 124.861592,135.468848 C120.597257,140.592594 93.2183218,138.367557 87.9444434,138.538861 C82.6705651,138.710166 81.2914652,135.030962 81.2914652,135.030962 C81.2914652,135.030962 79.4205305,120.121539 79.8161266,119.428752 C80.2117227,118.735964 78.6285416,101.950849 78.6285416,101.950849 C78.6285416,101.950849 76.1794054,86.5942485 76.5750015,77.2799387 C76.9705976,67.9656288 75.6759396,66.5802562 75.6759396,66.5802562 Z"/>
    <path fill="#172B3F" d="M102.6433,144.783466 C100.697956,144.601986 98.8732693,143.093281 102.291714,141.730453 C105.710159,140.367624 105.094512,143.576898 105.094512,143.576898 C105.094512,143.576898 104.588644,144.964945 102.6433,144.783466 Z M101.612498,59.4352578 C102.563107,59.3166152 103.562597,59.5936943 103.562597,59.5936943 L103.530053,61.146742 C103.530053,61.146742 102.33494,60.8884781 101.214792,61.0637362 C100.079903,61.2413005 99.8687952,61.8589226 98.0063152,62.0300926 C96.1438352,62.2012625 92.9477709,62.0100027 92.9477709,62.0100027 L92.7486809,60.3498769 C92.7486809,60.3498769 96.0367177,60.5963727 97.9626469,60.3976444 C99.888576,60.198916 100.0567,59.6294322 101.612498,59.4352578 Z"/>
  </g>
</svg>
