<svg width="135" height="134" viewBox="0 0 135 134">
  <defs>
    <filter id="symbol-vim-a" width="200%" height="200%" x="-50%" y="-50%" filterUnits="objectBoundingBox">
      <feOffset dy="2" in="SourceAlpha" result="shadowOffsetOuter1"/>
      <feGaussianBlur in="shadowOffsetOuter1" result="shadowBlurOuter1" stdDeviation="11"/>
      <feColorMatrix in="shadowBlurOuter1" result="shadowMatrixOuter1" values="0 0 0 0 0.30212279   0 0 0 0 0.6178743   0 0 0 0 1  0 0 0 0.0823143116 0"/>
      <feMerge>
        <feMergeNode in="shadowMatrixOuter1"/>
        <feMergeNode in="SourceGraphic"/>
      </feMerge>
    </filter>
  </defs>
  <g fill="none" fill-rule="evenodd" filter="url(#symbol-vim-a)" transform="translate(21.252 18.122)">
    <path fill="#E2F5FF" d="M46.3654533,93.31499 C71.9283474,93.31499 92.6511676,72.6071341 92.6511676,47.0626992 C92.6511676,21.5182643 71.9283474,0.810408367 46.3654533,0.810408367 C20.8025592,0.810408367 0.079739011,21.5182643 0.079739011,47.0626992 C0.079739011,72.6071341 20.8025592,93.31499 46.3654533,93.31499 Z" opacity=".397"/>
    <g transform="translate(13.162 38.981)">
      <g transform="translate(49.625)">
        <path fill="#0480C3" d="M2.9567749,13.8925659 C0.521435547,12.7292786 0.475457764,4.03008423 1.90147666,2.04168626 C2.46907062,1.25025028 4.28832565,1.41840376 6.79468384,1.08849487 C10.5852816,0.589543088 15.4550976,0.213218626 16.0396641,3.65922973 C16.6908125,7.49774038 16.8741657,14.1516498 11.5645081,15.0360779 C11.4655703,15.0665754 9.18966011,14.8173392 6.96277466,14.7132446 C4.7358892,14.60915 5.39211426,15.0558533 2.9567749,13.8925659 Z"/>
        <path fill="#89D6FF" d="M3.49489921,12.5079584 C6.90995541,14.3528117 13.2614258,14.4795956 14.8678735,11.0336929 C15.9014596,8.81660424 15.7420593,3.11052856 14.3958496,2.17663574 C13.0496399,1.24274292 9.86382446,1.45878906 9.86382446,1.45878906 C9.86382446,1.45878906 5.55703172,2.17694442 3.4793396,2.23793945 C3.21550568,2.20744193 2.44292324,3.1680109 2.409944,3.41199105 C2.409944,3.41199105 1.51240768,11.4369933 3.49489921,12.5079584 Z"/>
        <path fill="#0480C3" d="M10.9711235,10.9905609 C11.9915824,10.9905609 7.02240461,11.391169 6.90462063,10.8472388 C6.5287054,9.08633179 7.50399646,6.5040873 7.81156346,4.80962959 C7.9140858,4.2115857 9.24504781,4.76602494 9.45009248,4.9653729 C9.14252547,5.86243875 8.80639362,6.95297996 8.73804539,7.88327047 C8.39630428,11.7373311 9.45491665,8.91733072 11.3635984,9.89036525 C11.0218573,10.1893872 11.1330048,10.9539249 10.9711235,10.9905609 Z"/>
      </g>
      <g transform="translate(35.438 1)">
        <path fill="#0480C3" d="M13.8225037,7.0227356 C14.1430696,12.6074328 14.4706157,11.914808 12.8559814,13.4680298 C11.7692084,14.5242206 7.40276259,14.73135 6.06758423,14.6070923 C5.29131774,14.5449634 0.481820807,14.5572094 0.413800049,12.6760254 C0.345779291,10.7948414 0.758498293,8.246875 0.634295654,6.0102356 C0.541143676,4.51914266 -0.523126374,2.53244668 1.07897957,1.54349239 C2.68108552,0.554538104 6.42034287,0.243861779 6.32719089,0.243861779 C6.38929221,0.243861779 10.6542004,0.147368467 12.7891629,0.243861781 C14.9241255,0.340355094 13.6853372,4.63310877 13.8225037,7.0227356 Z"/>
        <path fill="#89D6FF" d="M6.47360455,0.893435903 C3.43063991,0.831307031 2.17532329,1.40496796 1.74061406,1.65348345 C0.405435695,2.33690105 1.25135398,7.46414176 1.28240464,8.95523469 C1.34450596,11.5025185 0.841083585,12.0465775 3.29408569,12.7610596 C5.31237857,13.3512839 9.83469572,13.169204 11.4049622,11.9448303 C12.9752286,10.7204567 12.8821569,10.477092 12.9379887,7.3715689 C12.9938204,4.26604576 13.4575515,1.48536123 11.9905222,1.13102614 C10.523493,0.776691056 6.47360455,0.893435903 6.47360455,0.893435903 Z"/>
        <path fill="#0480C3" d="M7.18106229,7.27239982 C7.41268867,7.14207811 7.22666305,9.29746512 6.76417233,9.73564971 C6.30168161,10.1738343 5.65296258,10.3197991 5.44700775,9.73564971 C5.18205394,8.9841616 5.95486447,9.07557913 5.69333495,6.69854278 C5.43180544,4.32150643 5.06232956,4.49706753 5.21304015,4.05210111 C5.44700776,3.36132202 6.2860682,3.74807858 6.48964745,3.61444702 C7.25070558,3.7121883 6.88672135,6.09967255 7.38306361,5.90418998 C8.09366637,5.64505269 9.13598858,4.14162458 10.0669097,3.87053833 C10.3064032,3.80079729 10.5415232,4.27396517 10.7581909,4.32729876 C11.2545331,5.40245286 7.54851094,5.95632012 8.54119545,7.1292155 C9.07062719,7.78082404 11.519249,8.79081728 10.7581909,9.73564967 C8.54119541,9.73564971 7.44577816,7.10949768 7.18106229,7.27239982 Z"/>
      </g>
      <g transform="translate(16.719 1.506)">
        <path fill="#0480C3" d="M15.5129135,0.661922187 C16.6745842,1.04557665 18.2399538,0.820553759 18.1449801,5.9631996 C18.0500064,11.1058454 17.2842357,12.6743038 16.2221069,13.54021 C14.9035414,14.6267625 13.7014616,13.4366941 9.34422607,13.5728394 C4.9869905,13.7089846 3.83144122,13.9319549 1.80535278,12.9771057 C0.00438528804,12.0881082 1.03582114,4.05270342 1.52219172,2.15500207 C2.00856229,0.257300714 5.89738334,0.00631787523 5.89738334,0.00631787523 C9.62795887,0.269724547 13.0687434,-0.128297827 15.5129135,0.661922187 Z"/>
        <path fill="#89D6FF" d="M7.28505515,0.426502866 C5.09791894,0.452376721 3.55586501,0.679140961 2.62322113,1.69984181 C1.59409685,2.852246 0.921887207,11.5522888 4.52397461,11.8948975 C8.12606201,12.2375061 10.1611118,11.8141645 12.9077515,11.768335 C15.0846527,11.7320119 15.5621201,13.4394528 16.6012457,10.2465777 C17.6403714,7.05370263 17.3774543,6.1414526 17.2742171,3.82705836 C17.1709799,1.51266412 16.2171185,1.31247189 14.8020726,0.917361884 C12.8403044,0.423474376 9.47219136,0.400629012 7.28505515,0.426502866 Z"/>
        <path fill="#0480C3" d="M7.79169458,9.65337738 C6.82655343,9.68703557 5.56767367,7.80217706 6.78459077,7.49925337 C7.24618002,7.39827881 8.63094776,9.55240282 8.67291042,8.03778438 C8.67291042,7.02803875 8.63094776,5.47976211 8.96664903,4.50367467 C8.96664903,4.47001648 8.63094776,0.935906779 10.4773047,2.31589247 C11.2745953,2.95539804 10.5192674,6.08560949 10.6451554,6.59048231 C10.3514168,7.90315163 9.93179018,9.55240282 7.79169458,9.65337738 Z"/>
      </g>
      <g transform="translate(0 .506)">
        <path fill="#89D6FF" d="M5.39608616,1.00729217 C3.20894995,1.03316603 2.11756056,1.69456712 1.18491668,2.71526797 C0.155792395,3.86767216 -0.526834672,14.6448696 4.81954868,14.2828159 C10.165932,13.9207621 9.56435839,14.4041437 12.310998,14.3583141 C14.4878992,14.321991 14.6760457,15.8516351 15.7151713,12.65876 C16.7542969,9.46588492 15.8184085,6.02673609 15.7151713,3.71234185 C15.6119341,1.39794761 14.5625542,1.91342053 13.1475083,1.51831052 C11.1857401,1.02442301 7.58322237,0.98141832 5.39608616,1.00729217 Z"/>
        <path fill="#0380C3" d="M15.9530967,2.80259032 C16.2133498,4.6992408 16.6037295,8.64549744 16.2784131,10.5115568 C15.7253752,13.5706705 17.0378235,13.6783241 13.0364319,15.0855164 C10.7592171,15.8808859 8.19045878,15.2732611 5.7180542,15.2120789 C5.19754797,15.2120789 2.42359431,14.8527998 1.80549316,14.4245239 C-0.0488102746,13.109105 0.308300583,9.43705734 0.243237305,7.38745117 C0.113110748,3.28823884 1.89120936,-0.1311025 6.77095525,1.45963661 C6.16569837,1.45963661 5.63208871,1.46203804 5.15881037,1.47645321 C4.02949516,1.51085005 3.24369031,1.61364999 2.64765624,1.91544735 C0.272846574,3.07791055 0.956010998,5.37224581 1.37892231,7.39126083 C1.60664378,8.40076835 1.50904887,9.56323154 1.60664378,10.5727391 C1.73677034,11.7046111 2.4524664,12.1940693 2.90790935,12.7447098 C3.78626362,13.8153996 8.40575639,13.7848084 9.47930049,13.8765818 C11.2685406,14.0601287 13.5132238,13.8765818 14.9771475,13.02003 C16.2133498,12.2858427 15.8555018,7.57480765 15.6928436,6.50411787 C15.5301854,5.37224581 16.1482865,2.74140804 14.7494261,1.97662962 C14.0481417,1.60164659 8.02101581,1.42207135 7.55985659,1.36369599 C7.05627316,1.2999504 5.40551559,0.997489163 5.3927254,0.998144712 C4.57738808,1.03993406 15.6277803,0.416481647 15.9530967,2.80259032 Z"/>
        <path fill="#0480C3" d="M10.1467125,3.87190762 C10.3653493,3.97194237 10.3653493,8.77361056 10.1779464,10.7743056 C10.1467125,11.2411345 9.74067292,10.7743056 9.3033995,11.0077201 C8.33515119,11.5078938 9.3033995,8.17340203 8.11651448,8.07336728 C6.89839564,7.97333252 7.49183815,9.64057842 7.33566907,10.7743056 C7.24196762,11.3411692 6.55482366,11.0744099 6.21125168,11.1410997 C6.14878405,11.1410997 5.33670482,5.47246368 6.02384878,3.8385627 C6.18001786,3.4717686 6.71099274,3.43842368 7.08579854,3.53845844 C7.27320143,3.57180335 6.80469419,6.40612138 7.24196762,6.93964007 C7.42937052,7.13970958 7.7729425,7.07301974 8.14774829,7.17305449 C8.61625554,7.30643417 9.05352897,7.47315876 9.05352897,6.33943154 C9.05352897,5.77256794 9.02229515,4.00528729 9.45956858,3.90525253"/>
      </g>
    </g>
  </g>
</svg>
