<svg width="135" height="134" viewBox="0 0 135 134">
  <defs>
    <filter id="symbol-ios-a" width="200%" height="200%" x="-50%" y="-50%" filterUnits="objectBoundingBox">
      <feOffset dy="2" in="SourceAlpha" result="shadowOffsetOuter1"/>
      <feGaussianBlur in="shadowOffsetOuter1" result="shadowBlurOuter1" stdDeviation="11"/>
      <feColorMatrix in="shadowBlurOuter1" result="shadowMatrixOuter1" values="0 0 0 0 0.30212279   0 0 0 0 0.6178743   0 0 0 0 1  0 0 0 0.0823143116 0"/>
      <feMerge>
        <feMergeNode in="shadowMatrixOuter1"/>
        <feMergeNode in="SourceGraphic"/>
      </feMerge>
    </filter>
  </defs>
  <g fill="none" fill-rule="evenodd" filter="url(#symbol-ios-a)" transform="translate(21.252 18.222)">
    <path fill="#D7EDFF" d="M46.3654533,93.21499 C71.9283474,93.21499 92.6511676,72.5071341 92.6511676,46.9626992 C92.6511676,21.4182643 71.9283474,0.710408367 46.3654533,0.710408367 C20.8025592,0.710408367 0.079739011,21.4182643 0.079739011,46.9626992 C0.079739011,72.5071341 20.8025592,93.21499 46.3654533,93.21499 Z" opacity=".397"/>
    <path fill="#24415D" d="M31.2066802,27.207134 C30.7564854,29.2059363 33.6321831,56.3981949 33.8013418,57.8159058 C33.8950389,58.6011767 34.1904458,66.007439 34.8409069,68.8555237 C35.491368,71.7036085 39.556813,71.3594969 42.9269348,71.7962585 C43.9440295,71.9280722 50.4920973,72.2269151 53.8478943,71.6365723 C54.7734242,71.4737555 59.0424457,71.8964044 60.4855042,70.5019592 C61.9285626,69.107514 61.9682042,64.8478863 61.9300964,63.4322571 C61.9239435,63.203687 62.0473778,60.5892009 61.7648834,53.7498322 C61.4918959,47.1406312 60.9985237,39.7582273 60.8054225,34.7373805 C60.7112805,32.2895825 60.6793297,29.0743107 60.6018056,28.4655314 C60.2007134,25.3158473 58.4907425,25.3528163 56.7232386,25.2130305 C55.6171464,25.1255535 54.3153557,24.6555895 51.3875799,25.0094136 C49.6368529,25.2209904 31.656875,25.2083317 31.2066802,27.207134 Z"/>
    <path fill="#7AA1C7" d="M32.2251545,27.5061327 C32.2251545,27.5061327 55.7018215,24.3987205 58.8034852,26.9770402 C59.8471129,27.8445766 59.3812386,30.2073289 59.5386041,32.1897851 C59.848929,36.0991928 59.8943216,40.2082606 59.8943216,40.2082606 L60.5174596,46.9852889 L60.6377183,55.1417285 C60.6377183,55.1417285 60.8575412,66.3775276 60.4944656,66.9859495 C60.1485998,67.565532 60.0088552,68.8465735 56.8069229,69.1155269 C53.6049907,69.3844803 52.3908967,69.4686121 52.3908967,69.4686121 C52.3908967,69.4686121 49.6794351,70.3775044 42.9506786,69.5880972 C36.221922,68.79869 37.371127,69.2551499 36.430909,68.0777518 C35.4906911,66.9003537 34.9754391,62.0563348 34.8526814,59.1452177 C34.8009536,57.9185262 34.7353959,56.6213786 34.423383,55.2228974 C34.3169533,54.7458659 34.0935593,54.3915759 34.1223913,53.7689854 C34.2548369,50.9089888 33.600197,49.9779609 33.304034,42.3867143 C33.007871,34.7954677 32.2251545,27.5061327 32.2251545,27.5061327 Z"/>
    <path fill="#396797" d="M34.9568119,31.4598191 C34.9568119,31.4598191 39.2815697,31.1681199 41.4716588,30.9827737 C43.661748,30.7974276 51.4423577,30.272533 53.9101923,30.2663106 C56.3780269,30.2600883 56.2918062,30.4583471 56.8480938,31.6048123 C57.4043814,32.7512774 57.1109877,38.9232883 57.5784297,47.2354328 C58.0458717,55.5475772 59.8110558,61.1104725 57.8281402,63.4930144 C55.8452245,65.8755563 43.1140196,64.8409138 40.6616662,64.9205705 C38.2093128,65.0002273 37.5680313,63.2893975 37.5680313,63.2893975 C37.5680313,63.2893975 36.6980467,56.3565157 36.8819989,56.0343694 C37.065951,55.7122232 36.3297718,47.9071449 36.3297718,47.9071449 C36.3297718,47.9071449 35.1909235,40.7663255 35.3748757,36.4351715 C35.5588279,32.1040174 34.9568119,31.4598191 34.9568119,31.4598191 Z"/>
    <path fill="#172B3F" d="M47.4966345,67.8243115 C46.5920497,67.7399234 45.7435702,67.0383758 47.333147,66.4046606 C48.9227238,65.7709453 48.6364482,67.2632574 48.6364482,67.2632574 C48.6364482,67.2632574 48.4012193,67.9086996 47.4966345,67.8243115 Z M47.0173115,28.1373949 C47.4593447,28.0822261 47.9241074,28.2110678 47.9241074,28.2110678 L47.9089747,28.933235 C47.9089747,28.933235 47.3532469,28.8131423 46.8323781,28.8946373 C46.304655,28.9772047 46.2064898,29.264399 45.3404366,29.343993 C44.4743834,29.4235871 42.9882134,29.3346513 42.9882134,29.3346513 L42.8956366,28.5626928 C42.8956366,28.5626928 44.4245738,28.6773133 45.3201308,28.5849046 C46.2156879,28.4924959 46.2938654,28.227686 47.0173115,28.1373949 Z"/>
  </g>
</svg>
