<svg width="200" height="200" viewBox="0 0 200 200">
  <g fill="none" fill-rule="evenodd">
    <path fill="#FFC4FA" fill-opacity=".148" d="M100,200 C155.228475,200 200,155.228475 200,100 C200,44.771525 155.228475,-1.42108547e-14 100,-1.42108547e-14 C44.771525,-1.42108547e-14 0,44.771525 0,100 C0,155.228475 44.771525,200 100,200 Z"/>
    <path fill="#FFC4FB" stroke="#D47ACC" stroke-width="3.226" d="M58.18608,62.1581359 C62.9117547,62.1076099 70.3087718,62.7218992 70.3087718,62.7218992 C70.3087718,62.7218992 95.3123229,89.6389401 95.1436439,90.992504 C94.974965,92.3460679 87.6791553,103.785323 87.6791553,103.785323 C87.6791553,103.785323 81.1157675,114.705135 80.1045814,115.839753 C79.0933954,116.974371 71.1246454,129.222928 72.0257462,130.635882 C72.8727882,131.96407 58.3611891,130.304517 57.8487221,130.408958 C55.1355702,130.961904 59.952054,124.445735 63.49858,119.143442 C71.1181602,107.751662 81.5268116,90.3994888 81.5268116,90.3994888 C81.5268116,90.3994888 81.9435908,89.1421363 73.8270601,80.2038817 C65.7105294,71.2656271 53.4604053,62.2086618 58.18608,62.1581359 Z"/>
    <path fill="#FFC4FB" stroke="#D47ACC" stroke-width="3.226" d="M84.458876 62.8254672C85.6973348 62.8254672 92.7845152 62.8414227 93.5178248 62.1686297 93.8972425 61.8205236 98.1782318 68.2864984 103.952839 75.055409 109.338954 81.3689351 114.842645 87.6199351 115.391049 87.7294474 116.527413 87.956371 144.708343 126.042308 146.459941 126.379148 148.211539 126.715988 149.903656 129.290153 149.903656 129.290153 149.903656 129.290153 134.461539 128.50833 134.461539 129.970924 134.461539 130.765806 130.777806 123.87655 126.721838 118.51394 123.314776 114.009285 120.194278 109.401858 119.190765 108.008973 116.992612 104.957914 111.718286 98.4046079 111.718286 98.4046079 111.718286 98.4046079 102.804046 111.871106 102.804046 114.124387 102.804046 116.377667 93.5728674 130.551529 94.4153745 131.283712 94.8320074 131.645788 91.5243625 130.536392 87.7268092 130.602941 83.8450228 130.670967 79.4685669 131.906038 79.6390961 131.451246 79.9764541 130.551529 103.352697 90.900173 103.975921 90.4463258 104.599146 89.9924786 91.2806089 75.0633868 91.2806089 75.0633868L80.9210564 63.1702847C80.9210564 63.1702847 83.2204171 62.8254672 84.458876 62.8254672zM129.496188 91.6510641C127.789791 89.7434909 124.150288 85.8282689 123.736245 84.323027 123.423785 83.1870869 127.78582 83.8672151 129.288447 83.8186538 134.006131 83.6661895 137.183198 84.5572678 146.195407 84.1395379 146.686008 84.1167978 153.728851 83.4090209 155.067033 84.0296218 156.752183 84.8111338 155.992104 94.8900442 155.992104 94.8900442 155.992104 94.8900442 149.433398 94.1813772 143.010038 94.2677771 139.100348 94.3203658 134.02145 93.8931985 132.724171 94.5106562 131.253894 95.2104551 131.744116 94.164012 129.496188 91.6510641zM140.699767 107.85247C135.468943 101.773399 135.254096 102.997034 135.703318 101.576614 136.152541 100.156194 142.582023 101.319747 146.510314 101.208749 149.326815 101.129166 156.078851 101.560658 156.078851 101.560658 156.078851 101.560658 156.123503 104.638989 156.874306 107.128265 157.454587 109.052181 157.203673 112.182633 157.203673 112.182633 157.203673 112.182633 144.530556 113.446669 144.80932 113.125785 145.088084 112.804901 145.930591 113.931541 140.699767 107.85247z"/>
  </g>
</svg>
