<svg width="200" height="200" viewBox="0 0 200 200">
  <g fill="none" fill-rule="evenodd">
    <path fill="#FFE9CA" d="M100,200 C155.228476,200 200,155.228475 200,99.9999999 C200,44.7715249 155.228476,0 100,0 C44.7715251,0 0,44.7715249 0,99.9999999 C0,155.228475 44.7715251,200 100,200 L100,200 Z" opacity=".397"/>
    <path fill="#FFB34D" stroke="#F89A1D" stroke-width="2.937" d="M124.097158,87.6094629 C124.097158,87.6094629 132.317712,83.780934 136.101828,84.2130734 C139.885944,84.6452128 140.978079,86.2445187 142.187867,89.67539 C143.145698,92.3917289 143.065511,96.5879261 143.353798,100.638453 C144.040237,110.283162 142.988234,120.682363 135.415056,119.706205 C124.661339,118.320086 117.930709,112.837892 117.930709,112.837892 L119.546799,100.309813 C119.546799,100.309813 129.727107,112.318429 134.398739,109.764842 C136.698732,108.50763 137.303073,105.773567 137.248645,102.624871 C137.192522,99.3780909 136.425671,95.7125498 135.403851,94.2577994 C133.391081,91.3922453 123.395886,94.8329195 123.395886,94.8329195 L124.097158,87.6094629 L124.097158,87.6094629 Z" transform="rotate(3 130.73 101.975)"/>
    <path fill="#FFB34D" stroke="#F89A1D" stroke-width="2.937" d="M70.5409593,87.3178772 C70.5409593,87.3178772 69.140326,95.3342301 74.2272511,111.621343 C76.3126127,118.298171 78.8636111,122.019205 80.5367222,124.782187 C85.210039,132.499721 91.3731171,132.784618 103.761745,132.222308 C135.643259,130.775231 126.471359,85.7011799 126.471359,80.5012452 C126.471359,75.3013106 70.5409593,87.3178772 70.5409593,87.3178772 L70.5409593,87.3178772 Z" transform="rotate(3 99.03 105.801)"/>
    <path fill="#F79A1E" stroke="#F79A1E" stroke-width="2.682" d="M76.9774424,91.2187995 C81.3617108,92.901755 94.0505164,94.672171 104.166234,92.69768 C114.281951,90.723189 127.289756,92.5121574 127.880301,80.612205 C128.470846,68.7122527 110.854682,69.3218271 99.1835113,69.5577059 C83.1687325,69.8813706 61.415221,85.2450493 76.9774424,91.2187995 L76.9774424,91.2187995 Z" transform="rotate(3 99.76 81.518)"/>
    <path fill="#EE6F02" d="M104.696491,72.5572652 C114.130262,72.3150428 121.151482,75.4175721 125.505288,78.1249322 C128.345967,79.8913728 127.839827,83.6735494 121.433429,87.4540707 C115.027031,91.2345922 86.7564027,93.683616 78.7705164,90.9365958 C70.78463,88.1895756 70.9906149,83.0611597 80.790628,78.303829 C85.4148626,76.0590347 96.2680057,72.7736757 104.696491,72.5572652 Z" transform="rotate(3 100.12 82.327)"/>
  </g>
</svg>
