<svg width="132" height="132" viewBox="0 0 132 132">
  <defs>
    <filter id="symbol-javascript-a" width="200%" height="200%" x="-50%" y="-50%" filterUnits="objectBoundingBox">
      <feOffset dy="2" in="SourceAlpha" result="shadowOffsetOuter1"/>
      <feGaussianBlur in="shadowOffsetOuter1" result="shadowBlurOuter1" stdDeviation="11"/>
      <feColorMatrix in="shadowBlurOuter1" result="shadowMatrixOuter1" values="0 0 0 0 0.30212279   0 0 0 0 0.6178743   0 0 0 0 1  0 0 0 0.0823143116 0"/>
      <feMerge>
        <feMergeNode in="shadowMatrixOuter1"/>
        <feMergeNode in="SourceGraphic"/>
      </feMerge>
    </filter>
  </defs>
  <g fill="none" fill-rule="evenodd" filter="url(#symbol-javascript-a)" transform="translate(20.332 18.932)">
    <path fill="#FFE9CA" d="M45.3857142,90.5507571 C70.3805442,90.5507571 90.6428568,70.3030756 90.6428568,45.3262949 C90.6428568,20.3495141 70.3805442,0.10183271 45.3857142,0.10183271 C20.3908844,0.10183271 0.128571342,20.3495141 0.128571342,45.3262949 C0.128571342,70.3030756 20.3908844,90.5507571 45.3857142,90.5507571 L45.3857142,90.5507571 Z" opacity=".397"/>
    <g transform="rotate(3 -577.436 632.295)">
      <path fill="#FFB34D" stroke="#F89A1D" stroke-width="1.337" d="M24.7125993,7.57062249 C24.7125993,7.57062249 28.4529514,5.82864185 30.1747241,6.02526524 C31.8964968,6.22188868 32.3934186,6.94957288 32.9438721,8.51061933 C33.3796851,9.74655352 33.3432002,11.6558232 33.4743705,13.498813 C33.7867002,17.8871554 33.3080391,22.6187922 29.8622428,22.1746402 C24.9693018,21.543956 21.9068652,19.0495577 21.9068652,19.0495577 L22.6421859,13.3492817 C22.6421859,13.3492817 27.2742261,18.8132018 29.3998185,17.6513199 C30.4463154,17.0792884 30.7212905,15.8352899 30.6965259,14.4026329 C30.6709898,12.9253482 30.3220727,11.257527 29.8571448,10.5956156 C28.9413341,9.29178847 24.3935205,10.8572952 24.3935205,10.8572952 L24.7125993,7.57062249 L24.7125993,7.57062249 Z"/>
      <path fill="#FFB34D" stroke="#F89A1D" stroke-width="1.337" d="M0.455415039,8.19045362 C0.455415039,8.19045362 -0.181873077,11.8378942 2.13267782,19.2485308 C3.08151734,22.2864872 4.24222164,23.9795578 5.00348716,25.2367147 C7.1298463,28.7481926 9.93404686,28.8778205 15.5708724,28.6219695 C30.0769613,27.9635496 25.9037468,7.45485636 25.9037468,5.08888608 C25.9037468,2.72291583 0.455415039,8.19045362 0.455415039,8.19045362 L0.455415039,8.19045362 Z"/>
      <path fill="#F79A1E" stroke="#F79A1E" stroke-width="1.22" d="M2.80532227,9.96312247 C4.80016439,10.7288672 10.573571,11.5344065 15.1762223,10.6360131 C19.7788737,9.73761969 25.6974251,10.5516003 25.966123,5.13712197 C26.2348209,-0.277356351 18.2194661,-4.71844785e-15 12.9090837,0.107324849 C5.62235929,0.254592318 -4.27548847,7.24506611 2.80532227,9.96312247 L2.80532227,9.96312247 Z"/>
      <path fill="#EE6F02" d="M15.4365235,1.46305475 C19.7288892,1.35284356 22.9235443,2.76449439 24.9045264,3.99634325 C26.1970353,4.80007371 25.9667414,6.52096407 23.0518302,8.24110129 C20.1369191,9.96123856 7.27378335,11.0755444 3.64020508,9.8256502 C0.00662680708,8.575756 0.100349935,6.24232675 4.55935588,4.0777413 C6.66338264,3.05635991 11.6015627,1.56152156 15.4365235,1.46305475 Z"/>
    </g>
  </g>
</svg>
