<svg width="199" height="199" viewBox="0 0 199 199">
  <g fill="none" fill-rule="evenodd">
    <path fill="#FFD3BC" d="M99.314801,198.764994 C154.07052,198.764994 198.458801,154.408766 198.458801,99.6925865 C198.458801,44.976407 154.07052,0.62017957 99.314801,0.62017957 C44.5590817,0.62017957 0.170800962,44.976407 0.170800962,99.6925865 C0.170800962,154.408766 44.5590817,198.764994 99.314801,198.764994 Z" opacity=".397"/>
    <path fill="#FF6C29" d="M48.5666217,100.547064 C48.5666217,100.547064 68.3289478,137.251053 95.8944176,131.84113 C123.459887,126.431207 119.762812,126.059116 126.430463,127.033932 C133.098115,128.008749 134.038336,135.738089 134.038336,135.738089 C134.038336,135.738089 140.684462,121.301889 129.893829,113.0098 C127.659747,107.945828 141.280269,78.2185419 107.207823,55.647084 C107.207823,55.647084 118.276755,87.0264844 112.320227,95.5838038 C112.320227,95.5838038 97.2663956,83.6814623 89.8571677,76.3350244 C82.4479397,68.9885866 72.0421679,55.647084 72.0421679,55.647084 C72.0421679,55.647084 77.6846786,67.8337589 81.3198366,73.974093 C84.9549946,80.1144271 92.1120071,89.5480914 92.1120071,89.5480914 C92.1120071,89.5480914 83.017561,82.0401313 78.86742,78.2408366 C74.7172791,74.4415418 58.9374993,59.1781026 58.9374993,59.1781026 C58.9374993,59.1781026 70.5863374,78.5185631 78.86742,89.5480914 C87.1485027,100.57762 97.5857394,110.653481 97.5857394,110.653481 C76.2097385,118.528121 48.5666217,100.547064 48.5666217,100.547064 Z"/>
    <path fill="#FF9963" d="M57.7805355,108.504362 C57.7805355,108.504362 62.3183201,117.79004 73.5231222,124.122401 C84.7279243,130.454761 87.6854266,131.463385 97.2442687,129.587393 C124.809739,124.17747 118.049154,123.722435 124.716806,124.697251 C131.384458,125.672068 133.834902,128.413088 133.834902,128.413088 C133.834902,128.413088 137.543813,123.751989 126.75318,115.459899 C125.279716,112.120014 130.762914,99.5454379 127.138065,85.3249572 C123.513215,71.1044766 120.609062,70.6851527 112.070064,62.9819637 C112.070064,62.9819637 114.842022,72.9381661 115.869678,83.1927772 C116.897333,93.4473883 116.591885,97.0253104 114.244722,100.397312 C114.244722,100.397312 109.940105,96.2740538 106.179838,93.3736823 C102.41957,90.4733109 99.0709851,88.6878522 95.3403759,84.9888584 C87.9311479,77.6424205 80.7934624,67.9576081 80.7934624,67.9576081 C80.7934624,67.9576081 85.0622722,74.7075907 87.9705308,79.6200812 C91.6056888,85.7604154 95.9894428,92.4077276 95.9894428,92.4077276 C95.9894428,92.4077276 94.4529074,94.1657997 92.6376022,92.7009757 C90.822297,91.2361516 80.9503206,83.118497 78.074578,80.4858649 C73.9244371,76.6865702 70.6337436,73.7185166 70.6337436,73.7185166 C70.6337436,73.7185166 72.6488513,78.3381165 80.929934,89.3676448 C82.4864344,91.4407392 88.09749,96.3395089 89.6043745,98.2949996 C91.1112589,100.25049 102.584056,110.881893 102.584056,110.881893 C99.931186,111.859176 97.1384086,114.03761 91.0284417,114.572163 C88.848048,114.762922 80.7943194,114.258667 75.4470955,113.256069 C70.0998717,112.253471 57.7805355,108.504362 57.7805355,108.504362 Z"/>
  </g>
</svg>
