<svg width="135" height="135" viewBox="0 0 135 135">
  <defs>
    <filter id="symbol-haskell-a" width="200%" height="200%" x="-50%" y="-50%" filterUnits="objectBoundingBox">
      <feOffset dy="2" in="SourceAlpha" result="shadowOffsetOuter1"/>
      <feGaussianBlur in="shadowOffsetOuter1" result="shadowBlurOuter1" stdDeviation="11"/>
      <feColorMatrix in="shadowBlurOuter1" result="shadowMatrixOuter1" values="0 0 0 0 0.30212279   0 0 0 0 0.6178743   0 0 0 0 1  0 0 0 0.0823143116 0"/>
      <feMerge>
        <feMergeNode in="shadowMatrixOuter1"/>
        <feMergeNode in="SourceGraphic"/>
      </feMerge>
    </filter>
  </defs>
  <g fill="none" fill-rule="evenodd" filter="url(#symbol-haskell-a)" transform="translate(21.3 18.9)">
    <path fill="#FFF2FE" d="M46.2053622,92.7483779 C71.6546434,92.7483779 92.2853622,72.1325568 92.2853622,46.7016528 C92.2853622,21.2707487 71.6546434,0.654927684 46.2053622,0.654927684 C20.7560809,0.654927684 0.125362164,21.2707487 0.125362164,46.7016528 C0.125362164,72.1325568 20.7560809,92.7483779 46.2053622,92.7483779 Z"/>
    <path fill="#FFC4FB" stroke="#D47ACC" stroke-width="1.5" d="M26.8240272,29.1360332 C29.021466,29.1125386 32.4610789,29.3981831 32.4610789,29.3981831 C32.4610789,29.3981831 44.0877302,41.9146071 44.0092944,42.5440144 C43.9308587,43.1734216 40.5383072,48.4926751 40.5383072,48.4926751 C40.5383072,48.4926751 37.4863319,53.5703879 37.0161304,54.0979853 C36.5459288,54.6255827 32.8404601,60.3211615 33.259472,60.9781852 C33.6533465,61.5957927 26.9054529,60.8241002 26.6671558,60.8726657 C25.4055401,61.1297855 27.6452051,58.0997666 29.2943397,55.6342005 C32.8374445,50.3370229 37.6774674,42.2682623 37.6774674,42.2682623 C37.6774674,42.2682623 37.8712697,41.6835934 34.097083,37.527305 C30.3228962,33.3710166 24.6265885,29.1595277 26.8240272,29.1360332 Z"/>
    <path fill="#FFC4FB" stroke="#D47ACC" stroke-width="1.5" d="M39.0408773 29.4463422C39.6167607 29.4463422 42.9122995 29.4537616 43.2532885 29.1409128 43.4297178 28.9790435 45.4203778 31.9857217 48.1055701 35.1332652 50.6101138 38.0690548 53.16933 40.9757698 53.4243379 41.026693 53.952747 41.1322125 67.0568796 58.8421735 67.8713727 58.9988039 68.6858658 59.1554344 69.4726999 60.352421 69.4726999 60.352421 69.4726999 60.352421 62.2921158 59.9888734 62.2921158 60.6689795 62.2921158 61.0385999 60.5791796 57.8350958 58.6931545 55.3414822 57.108871 53.2468173 55.6578391 51.104364 55.1912058 50.4566722 54.1690645 49.0379298 51.7165032 45.9906427 51.7165032 45.9906427 51.7165032 45.9906427 47.5713816 52.2525643 47.5713816 53.3003398 47.5713816 54.3481153 43.2788834 60.9389609 43.6706492 61.2794261 43.8643835 61.4477915 42.3263286 60.9319222 40.5604663 60.9628677 38.7554356 60.9944996 36.7203836 61.5688078 36.7996797 61.3573292 36.9565511 60.9389609 47.8265041 42.5010805 48.1163035 42.2900415 48.4061028 42.0790025 42.2129831 35.1369748 42.2129831 35.1369748L37.3957912 29.6066824C37.3957912 29.6066824 38.464994 29.4463422 39.0408773 29.4463422zM59.9832275 42.8502448C59.189753 41.9632232 57.4973838 40.142645 57.3048539 39.4427075 57.15956 38.9144954 59.1879064 39.230755 59.8866277 39.208174 62.0803511 39.1372781 63.5576872 39.5516295 67.7483642 39.3573851 67.9764939 39.346811 71.2514158 39.0176947 71.8736705 39.3062741 72.6572651 39.6696772 72.3038285 44.3563705 72.3038285 44.3563705 72.3038285 44.3563705 69.2540301 44.0268404 66.2671675 44.0670163 64.449162 44.0914701 62.0874742 43.8928373 61.4842396 44.1799551 60.8005605 44.5053616 61.0285137 44.0187656 59.9832275 42.8502448zM65.1928918 50.3838985C62.7605587 47.5571306 62.6606544 48.1261208 62.869543 47.4656254 63.0784317 46.80513 66.0681407 47.3461823 67.8947961 47.2945684 69.2044688 47.2575624 72.3441657 47.4582061 72.3441657 47.4582061 72.3441657 47.4582061 72.3649289 48.8896299 72.7140521 50.047143 72.9838831 50.941764 72.8672082 52.3974246 72.8672082 52.3974246 72.8672082 52.3974246 66.9742083 52.9852011 67.1038337 52.8359899 67.2334591 52.6867788 67.6252249 53.2106665 65.1928918 50.3838985z"/>
  </g>
</svg>
