<svg width="200" height="200" viewBox="0 0 200 200">
  <g fill="none" fill-rule="evenodd">
    <path fill="#E9E9FF" d="M100,200 C155.228475,200 200,155.228475 200,100 C200,44.771525 155.228475,1.42108547e-14 100,1.42108547e-14 C44.771525,1.42108547e-14 5.68434189e-14,44.771525 5.68434189e-14,100 C5.68434189e-14,155.228475 44.771525,200 100,200 Z" opacity=".397"/>
    <path fill="#A8ACFF" d="M136.806468 56.4929762C136.806468 56.4929762 134.709117 58.3047246 134.200778 66.4770578 133.948994 70.5248733 133.84601 76.627885 134.200778 83.6353987 135.271805 104.790725 134.582392 117.415953 135.080626 122.074076 136.578049 136.073892 132.696947 136.746494 136.806468 137.787537 140.915988 138.828581 141.334075 135.05231 141.334075 135.05231L141.334075 68.112081C141.334075 68.112081 140.619952 62.7652513 139.541 58.1978064 138.959503 55.7361977 137.744986 52.8442821 137.670312 52.6218905 136.706874 49.7526198 136.806468 56.4929762 136.806468 56.4929762zM104.221728 57.9771936C93.6270097 57.9771936 81.0308281 58.8883501 81.0308281 58.8883501 81.0308281 58.8883501 80.5373676 59.1486109 70.1102418 58.8883501 69.2544983 58.8669907 69.3970543 59.4859637 68.9237181 59.5454035 68.7289936 59.5698563 68.7995462 56.5017758 68.0714848 57.9771936 65.7171797 62.7481973 62.5887664 64.6178973 65.4901362 70.0688885 65.9679813 70.9666471 65.4901362 67.5953709 65.4901362 73.0351971L65.4901362 84.9854859 67.3023487 101.226825C67.3023487 101.226825 68.386508 106.193376 68.0714849 110.669574 67.822312 114.210099 67.3023489 115.600663 68.9237182 120.330278 69.3691989 121.629766 69.2019464 126.085517 68.9237182 127.687038 68.2940144 131.311701 68.0714849 134.207601 70.1102417 140.925917 71.3867875 145.13252 71.6704777 145.988328 75.1566877 147.448881 78.6428977 148.909434 95.2207083 148.488941 103.503542 148.488941 111.455557 148.488941 120.766689 149.268487 124.238294 147.448877 125.797859 146.631444 126.004428 110.669574 126.004428 110.669574L124.238294 77.2863735C124.238294 77.2863735 124.82174 64.0910041 121.76654 62.1592634 115.629921 58.2792045 114.816447 57.9771936 104.221728 57.9771936z"/>
    <path fill="#05095E" d="M121.327635,63.2980142 C119.544568,57.1414425 106.081388,57.2487454 106.902232,57.9197884 C106.986439,57.9886278 122.884686,54.0398251 125.553192,65.5015774 C125.692225,66.0987507 126.26752,78.2140163 126.40704,79.1019428 C126.488583,79.5011363 129.663181,145.531886 127.543062,146.889144 C126.809175,148.885112 107.858355,150.242369 105.982866,150.16253 C104.188919,150.082692 71.5717059,150.082692 70.1854744,146.090756 C69.370044,144.893175 68.3915276,140.102853 68.1468985,138.825433 C68.0653555,137.947208 67.4945543,137.468175 66.760667,137.148821 C66.5222737,137.045083 64.0577242,136.563856 62.3573432,133.715759 C61.0199256,131.475616 60.3717701,126.999179 60.1799238,125.337548 C59.7441659,121.563335 65.2113494,119.344788 64.6405481,118.785917 C64.0697469,118.306885 61.786542,116.470595 61.3788268,115.911724 C60.8080256,115.033498 60.0741383,114.155272 59.4217941,113.277046 C57.3832183,108.72624 60.0741383,103.536724 60.6449396,102.738337 C60.9711117,102.339143 61.2157408,102.019788 61.4603699,101.620595 C61.868085,100.981885 62.0311711,100.343175 61.6234559,99.7044658 C58.9325357,99.464949 58.4432777,96.169078 58.1171056,95.1311748 C57.5921763,92.8389057 58.186533,90.0574481 58.9325357,87.9681754 C59.6785385,85.8789026 64.232833,86.2117238 61.786542,84.8544658 C60.4003105,84.1359174 59.9925953,82.2197883 59.9925953,82.1399496 C59.9925953,82.1399496 63.307428,84.6266709 64.6405482,83.7367231 C65.9736684,82.8467753 65.2928924,79.5052722 65.3744354,78.5472077 C65.3744354,77.908498 65.2928924,72.7189819 64.314376,72.1601109 C63.8251178,71.5214012 62.3573432,71.4415625 61.704999,72.0004335 C57.4647613,73.5972077 59.7479662,81.7407569 59.7479662,82.1399504 C58.9325358,81.3415634 56.0305728,79.7515724 56.4313965,76.4747928 C56.8322203,73.1980131 57.7909334,73.0383367 60.3187674,71.3617238 C60.7264826,70.8826916 60.5633965,70.4036593 60.4818535,69.924627 C60.2372244,68.8867238 58.1986486,66.5394806 58.1171055,65.5015774 C57.8724764,62.8668999 60.6449396,63.6173691 60.8080256,63.2980142 C61.2972838,63.8568852 59.7479662,67.3697882 61.868085,69.2060787 C63.9882038,71.0423691 63.8251178,69.4455948 63.9882039,68.4076916 C64.15129,67.449627 63.7504201,64.0222056 64.3143758,62.0205946 C64.8783316,60.0189835 65.8636936,60.2641432 66.5975809,59.1464012 C67.2499252,58.1883367 67.0052961,57.4697883 65.9452367,56.9109174 C64.5590051,56.192369 63.4174027,56.3520464 62.3573432,57.3101109 C61.786542,58.2681754 61.2972838,59.1464012 60.8080256,60.1843045 C60.5633965,60.7431754 60.4818535,61.3818851 60.2372244,62.0205948 C60.1556814,62.1802722 60.1556814,62.3399496 59.9925953,62.4197883 C59.7479662,61.8609174 59.5033371,61.3020464 59.7479662,60.6633367 C59.9925953,59.2262399 60.6449396,57.9488206 61.5419129,56.8310787 C63.4174027,55.3141432 64.6405481,54.6754335 67.0868391,55.9528528 C68.0653555,56.3520464 68.9623289,56.9109174 69.7777592,57.549627 C70.4301035,58.0286593 71.1639907,58.2681754 71.9794211,58.2681754 C73.7733678,58.4278528 75.4857715,58.5875303 77.2797182,58.667369 C77.4428043,58.667369 77.7689764,58.5875303 77.8505194,58.9867238 C77.6874334,58.9867238 77.5243473,59.0665625 77.3612612,59.0665625 C76.708917,59.0665625 76.1381157,59.0665625 75.4857715,58.9867238 C74.6703411,58.9068851 73.9364539,58.8270464 73.1210235,58.8270464 C72.6317653,58.8270464 72.0609641,58.9068851 71.5717059,59.0665625 C71.0009047,59.2262399 70.6747326,59.7851109 70.8378186,60.4238206 C70.9193617,60.9826916 71.0824477,61.5415625 71.1639907,62.1802722 C71.2455338,62.7391432 71.8163355,62.6209268 70.5931895,63.617369 C69.3700436,64.6138112 68.4730707,63.4576916 68.4730707,63.2980141 C68.1468985,62.5794658 68.0653555,60.8230141 68.0653555,60.7431754 C67.7391834,60.5036593 67.4945543,60.4238206 67.0868391,60.6633367 C66.5975809,60.9826916 66.1898658,61.3818851 66.0267797,61.9407561 C65.6190645,62.9786593 65.1298065,64.0044421 65.1298065,65.2020227 C65.1298065,65.6012163 65.2113494,67.0504335 65.1298063,67.3697883 C65.0482633,67.9286593 65.2113494,68.4076916 65.6190645,68.7270464 C66.3529518,69.4455948 67.6576404,69.7649496 68.7176998,69.0464012 C69.206958,68.7270464 71.6532485,67.3697882 71.6532485,71.361724 C71.6532485,75.3536598 68.3099846,73.4375303 67.4945543,73.1980141 C66.679124,72.958498 66.0267797,73.4375303 65.9452367,74.3157561 C66.1083227,75.6730141 66.5435956,79.5495034 66.5975808,79.8666444 C66.5975808,80.8247089 66.84221,84.2955948 67.7391834,84.4552722 C69.7777594,84.9343042 71.3270768,83.8964012 71.4086198,83.7367238 C72.6317653,82.858498 73.9364539,83.417369 74.0995399,84.9343045 C74.262626,86.3714012 73.2025666,87.4093045 72.1425071,87.7286593 C71.0824477,88.0480141 68.3099846,87.9681754 67.9838125,87.9681754 C67.3314682,87.8883367 66.679124,88.367369 66.5975809,89.0859174 C66.5160379,89.2455948 66.760667,92.2794658 66.9237531,93.3972077 C67.0868391,94.674627 67.2499252,95.9520464 67.3314682,97.2294658 C67.4130113,98.267369 68.2284416,98.7464012 69.206958,98.9060787 C70.1039313,98.9859174 72.3871362,99.3851109 72.7133084,99.4649496 C73.4471957,99.7044658 73.9364539,100.263337 74.181083,100.981885 C74.5072551,102.099627 74.344169,103.456885 73.2841096,104.175433 C72.6317653,104.654466 70.2670174,104.015756 69.7777592,103.856079 C68.2284416,104.255272 67.8207264,105.293175 68.4730707,106.88995 C68.5546137,108.007692 69.0438719,115.991563 69.1254149,116.390756 C70.1854744,117.588337 71.4086198,117.748014 72.7133084,116.869788 C73.6102817,116.630272 75.7856134,118.202411 75.4857719,119.850945 C75.1859304,121.499479 73.0394805,123.177046 71.6532489,122.698014 C71.2455338,122.458498 69.5331301,121.899627 69.370044,122.458498 C69.1995804,123.393142 69.7777592,133.556079 69.7777592,133.875433 C69.7777592,134.593982 73.4471958,131.001244 74.5072551,131.160917 C75.0780563,131.00124 75.6488575,131.240756 76.0565727,131.560111 C76.9535461,132.198821 76.9959421,134.232221 76.5458309,135.152853 C76.0565727,136.510111 73.6918248,136.58995 73.4471957,136.58995 C72.5502223,136.510111 70.3485604,137.947208 70.5931895,138.585917 C71.0009047,139.943175 71.6532489,141.220595 72.6317653,142.338337 C73.5287387,143.37624 74.4688708,145.518675 80.7476845,146.090752 C87.0264982,146.66283 91.6202205,147.29471 92.843366,147.214871 C94.0665115,147.135033 109.961308,147.880696 116.991175,146.889143 C124.021042,145.89759 123.529777,146.444057 124.162909,145.490904 C124.79604,144.537751 124.737765,120.178802 124.656222,119.220737 C124.574679,117.943318 123.110703,69.454586 121.327635,63.2980142 Z M67.4945543,113.516563 C67.4945543,112.638337 67.4945543,111.680272 67.4130113,110.802046 C67.3314682,109.36495 67.0868391,107.848014 67.0052961,106.410917 C66.9237531,105.772208 66.9237531,105.133498 66.84221,104.41495 C66.679124,103.297208 65.5375215,102.658498 64.7220912,102.498821 C63.9066609,102.339143 63.076353,102.498821 61.3603595,108.337625 C59.6443659,114.17643 67.4130113,117.748014 67.4130113,117.029466 C67.4130113,115.911724 67.4130113,114.714143 67.4130113,113.516563 L67.4945543,113.516563 Z M65.4559785,88.6068851 C65.3744354,87.6488206 64.395919,87.249627 63.6620318,87.7286593 C62.6835154,88.367369 61.868085,89.1657561 61.5419129,90.283498 C61.2972838,90.9222077 61.1341977,91.5609174 60.9711117,92.199627 C60.4818535,93.4770464 60.7264826,94.7544658 61.2157408,95.9520464 C61.704999,96.9899496 62.2758002,97.9480141 63.0096875,98.9060787 C63.3358596,99.3052722 63.8251178,99.5447883 64.314376,99.7044658 C65.1298063,99.8641432 65.7821506,99.624627 66.1898658,99.0657561 C66.5160379,98.6665625 66.4344949,98.1875303 66.3529518,97.708498 C66.3529518,97.3891432 66.2714088,96.9899496 66.2714088,96.6705948 C66.1898658,96.2714012 66.1898658,95.8722077 66.1083227,95.4730141 C65.9452367,94.2754335 66.0267797,93.0778528 65.8636936,91.8802722 C65.8636936,91.8004335 65.5375215,89.6447883 65.4559785,88.6068851 L65.4559785,88.6068851 Z M67.4945543,127.089143 L67.4945543,127.089143 C67.4130113,126.769788 67.4130113,126.370595 67.4130113,126.05124 L67.4130113,123.256885 C67.4130113,122.777853 67.2499252,122.618175 66.84221,122.538337 C66.4344949,122.458498 66.2714088,122.538337 65.9452367,122.93753 C65.3744354,123.735917 65.2113494,124.614143 65.0482633,125.492369 C64.8851772,126.210917 64.8851772,127.009304 64.7220912,127.727853 C64.5590051,128.52624 64.4774621,129.244788 64.6405481,130.043175 C64.8036342,131.320595 65.4559785,132.438337 66.2714088,133.396401 C66.3529518,133.556079 66.5160379,133.635917 66.679124,133.715756 C67.3314682,133.715756 67.5760973,133.47624 67.4945543,132.997208 L67.4945543,130.282692 C67.4945543,129.244788 67.4945543,128.127046 67.4945543,127.089143 C67.4945543,127.089143 67.4945543,128.127046 67.4945543,127.089143 L67.4945543,127.089143 Z M69.1254149,100.902046 C67.4130113,100.822208 69.9408453,103.297208 69.8593022,101.460917 C69.7777592,101.141563 69.4515871,100.902046 69.1254149,100.902046 L69.1254149,100.902046 Z"/>
    <path fill="#04085E" d="M143.164559,66.2520465 C143.319139,66.6455541 143.31644,129.52564 143.164559,130.269174 C143.001473,131.307077 143.329575,138.97895 140.883284,138.899111 C140.394026,139.058789 140.067853,138.819273 138.844708,138.899111 C137.376933,139.058789 134.098712,138.97895 134.098712,138.899111 C133.854082,137.701531 134.098712,128.032215 134.098712,128.032215 C134.098712,128.032215 133.34795,104.91821 132.97279,86.9291723 C132.740139,75.7734572 132.847941,68.7391892 132.97279,68.4030314 C133.543591,67.125612 136.419985,51.80124 136.501528,50.8431754 C136.501528,50.2843045 137.458476,50.124627 137.703105,50.124627 C138.029277,50.0447883 138.436993,50.3641432 138.518536,50.8431754 C138.681622,51.3222077 138.763165,51.8012399 138.844708,52.3601109 C138.844708,52.3601109 142.593758,64.735111 143.164559,66.2520465 Z M141.067942,74.4754334 C141.067942,68.9600946 140.904856,70.2474659 141.067942,69.129724 C141.149485,68.3313369 140.154544,68.4882841 138.317252,68.3073442 C136.47996,68.1264042 134.674962,69.4441669 134.674962,70.0828766 C134.593419,71.0409411 134.674962,79.3988864 134.674962,81.7142089 C134.674962,82.9916283 135.391554,100.226766 135.391554,101.743702 L135.391554,112.060929 C135.391554,113.498026 135.814819,127.618271 135.977905,128.33682 C135.733276,129.773917 139.904767,128.017463 140.312482,128.336818 C140.80174,126.819883 141.067942,109.93474 141.067942,109.775062 L141.067942,100.216425 C141.067942,100.216425 141.251902,94.0356852 141.067942,91.4030864 C140.883982,88.7704876 141.067942,79.9907723 141.067942,74.4754334 Z M139.252423,58.9068851 C139.089337,58.2681754 137.784648,58.1883367 136.806132,58.4278528 C136.316874,58.5875303 136.398417,59.5455948 136.398417,60.024627 C136.072245,61.2222077 135.990702,62.5794658 135.664529,63.617369 C135.501443,64.1762399 134.522927,67.0504335 135.338357,66.8907561 C135.827616,66.8109174 139.333966,66.2520464 140.557111,66.8907561 C140.638654,66.4117238 140.312482,64.0964012 140.312482,63.5375303 C140.394025,63.2181754 139.578595,59.1464012 139.252423,58.9068851 L139.252423,58.9068851 Z M136.356934,131.719788 C136.112304,131.799627 136.356934,135.484303 136.356934,136.202852 C136.356934,137.081078 140.638655,135.492972 140.801741,135.652649 C141.454085,136.291359 140.801741,132.118982 140.801741,131.719788 C140.720197,130.602046 137.416993,131.480272 136.356934,131.719788 Z"/>
    <path fill="#05095E" d="M104.433548 132.118982C103.618118 132.039143 102.802687 131.719788 101.987257 131.879466 101.171827 132.039143 100.274853 131.959304 99.459423 131.959304 97.9916484 131.959304 96.6054169 132.039143 95.2191853 132.598014 95.0560993 132.677853 94.8930132 132.677853 94.7299271 132.677853 94.240669 132.598014 93.6698677 132.438337 93.1806095 132.358498 92.8544374 132.278659 92.4467222 132.358498 92.1205501 132.358498 91.3051198 132.438337 90.4896895 132.438337 89.6742591 132.598014 88.0433985 132.917369 87.2279682 131.63995 87.7172264 130.282692 87.7987694 130.123014 87.7987694 129.963337 87.9618554 129.803659 88.2064845 129.404466 88.6957427 129.324627 89.1850009 129.484304 89.42963 129.643982 89.5927161 129.803659 89.8373452 129.963337 91.3866628 130.841563 93.0990665 131.00124 94.8930132 130.36253 95.5453575 130.282692 96.1977017 130.282692 96.931589 130.282692 97.9916484 130.202853 99.0517079 130.123014 100.111767 130.043175 101.090284 129.963337 102.150343 129.963337 103.128859 129.883498 104.188919 129.963337 104.922806 129.404466 105.248978 128.047208 105.167435 127.248821 105.004349 126.450433 104.922806 125.652046 104.75972 124.853659 104.678177 123.975433 104.515091 123.177046 104.352005 122.378659 103.862747 122.059304 102.965773 122.139143 101.334913 122.298821 99.6225091 122.458498 97.9916484 122.298821 96.4423308 122.139143 94.9745562 122.298821 93.5067817 122.538337 93.4252386 122.538337 93.2621526 122.618175 93.1806095 122.618175 92.2836362 122.777853 91.957464 123.256885 92.0390071 124.135111 92.1205501 124.933498 92.2836362 125.731885 92.2836362 126.450433 92.4467222 127.089143 92.4467222 127.727853 92.1205501 128.286724 91.5497489 127.967369 91.2235767 127.648014 91.0604907 127.089143 90.4896895 125.41253 90.0819743 123.735917 89.6742591 121.979466 89.5111731 121.181079 89.7558022 120.382692 90.8158616 120.382692 91.1420337 120.382692 91.4682058 120.302853 91.794378 120.382692 92.5282653 120.46253 93.3436956 120.46253 94.0775829 120.302853 95.5453575 119.983498 97.0131321 120.063337 98.4809066 119.983498L101.416456 119.983498C102.394972 119.983498 103.291946 119.743982 104.188919 119.664143 104.515091 119.584304 104.841263 119.584304 105.085892 119.504466 105.982866 119.504466 106.63521 120.063337 106.716753 120.941563L106.716753 121.580272C106.63521 123.416563 106.879839 125.173014 107.287554 126.929466 107.532183 128.127046 107.613726 129.324627 107.776812 130.522208 107.776812 130.841563 107.776812 131.240756 107.613726 131.560111 107.45064 131.879466 107.532183 132.278659 107.695269 132.518175 108.347614 133.236724 108.347614 134.11495 108.266071 134.993175 108.184528 136.270595 108.429157 137.388337 108.999958 138.506079 109.407673 139.224627 109.489216 139.943175 109.32613 140.741563 109.163044 141.300433 109.32613 141.939143 109.244587 142.577853 109.244587 142.977046 109.163044 143.296401 109.081501 143.695595 108.836872 144.334304 108.102984 144.573821 107.369097 144.174627 106.63521 143.775433 105.901323 143.615756 105.167435 143.535917 104.841263 143.535917 104.515091 143.37624 104.188919 143.296401 102.88423 143.136724 101.579542 143.056885 100.274853 142.977046 99.5409661 142.977046 98.8070788 143.056885 98.1547345 143.136724 97.7470194 143.136724 97.4208472 143.216563 97.0131321 143.216563 95.7084435 143.37624 94.322212 143.535917 93.0175235 143.615756 91.2235767 144.414143 89.9188882 144.01495 89.1034579 142.418175 89.1850009 140.741563 89.1034579 138.985111 88.5326567 137.388337 88.2064845 136.669788 88.3695706 135.871401 88.6141997 135.152853 88.6957427 134.993175 88.7772858 134.833498 88.7772858 134.673821 88.9403718 134.194788 89.266544 133.875433 89.7558022 133.875433 90.0819743 133.875433 90.4896895 133.715756 90.8158616 133.715756 91.794378 133.635917 92.6913513 133.556079 93.6698677 133.396401 94.1591259 133.316563 94.5668411 133.236724 95.0560993 133.156885 95.3822714 133.077046 95.7084435 133.077046 95.9530726 133.156885 97.4208472 133.316563 98.7255357 133.156885 100.030224 132.518175 100.437939 132.278659 100.927198 132.358498 101.334913 132.518175 102.231886 132.83753 103.128859 132.83753 104.025833 132.598014 104.188919 132.518175 104.352005 132.358498 104.515091 132.278659 104.433548 132.278659 104.433548 132.198821 104.433548 132.118982 103.618118 132.039143 104.433548 132.198821 104.433548 132.118982L104.433548 132.118982zM99.37788 140.821401L99.37788 140.90124C99.7855952 140.90124 100.19331 140.821401 100.601025 140.90124 102.150343 141.140756 103.699661 141.060917 105.248978 140.581885 105.901323 140.342369 106.227495 139.863337 106.145952 139.224627 106.553667 137.228659 105.901323 135.791563 103.94429 135.073014 102.802687 135.073014 101.742628 135.152853 100.601025 135.232692 99.1332509 135.31253 97.6654763 135.472208 96.2792448 135.552046 94.7299271 135.631885 93.2621526 136.270595 91.7128349 136.270595 90.9789477 136.270595 90.7343186 136.669788 90.7343186 137.388337 90.7343186 138.42624 90.8158616 139.464143 91.3051198 140.422208 91.6312919 141.140756 92.0390071 141.380272 92.8544374 141.300433 93.2621526 141.300433 93.7514108 141.220595 94.1591259 141.220595 95.3007284 141.140756 96.4423308 141.140756 97.6654763 141.060917 98.2362775 140.981079 98.8070788 140.90124 99.37788 140.821401 99.37788 140.821401 98.8070788 140.90124 99.37788 140.821401L99.37788 140.821401zM109.652302 109.604466C108.999958 108.885917 108.5107 108.167369 108.021441 107.368982 107.776812 106.969788 107.613726 106.650433 107.042925 106.570595 106.472124 106.570595 106.064409 106.88995 105.901323 107.289143 105.248978 108.566563 104.352005 109.764143 103.455032 110.961724 102.965773 111.600433 102.394972 112.079466 101.661085 112.478659 101.25337 112.718175 100.682569 112.798014 100.19331 112.798014 99.2147939 112.798014 98.3178206 112.558498 97.4208472 112.079466 97.1762181 111.919788 96.931589 111.83995 96.6869599 111.83995 96.1161587 111.680272 95.7084435 111.83995 95.3822714 112.318982 95.2191853 112.638337 94.9745562 112.877853 94.8114702 113.197208 94.403755 114.075433 93.8329538 114.793982 93.0990665 115.432692 91.957464 116.470595 90.7343186 116.470595 89.6742591 115.352853 89.1850009 114.793982 88.8588288 114.155272 88.3695706 113.516563 88.2880276 113.436724 88.2880276 113.356885 88.2064845 113.277046 86.5756239 112.638337 85.5971075 113.197208 85.4340214 115.113337 85.1893923 115.672208 84.9447632 116.071401 84.292419 116.15124 84.0477899 116.231079 83.7216178 116.15124 83.5585317 115.911724 83.3954456 115.672208 83.3139026 115.432692 83.4769887 115.113337 83.6400747 114.953659 83.7216178 114.714143 83.8847038 114.554466 84.455505 113.995595 84.7001341 113.356885 85.0263063 112.638337 85.2709354 111.600433 85.7601936 110.722208 86.4940809 110.003659 86.820253 109.684304 87.3910542 109.684304 87.7987694 109.923821 88.4511136 110.323014 88.7772858 110.881885 89.0219149 111.520595 89.348087 112.159304 89.5927161 112.718175 89.9188882 113.356885 90.5712325 114.554466 92.0390071 114.554466 92.7728944 113.436724 93.3436956 112.558498 93.8329538 111.680272 94.0775829 110.722208 94.1591259 110.402853 94.240669 110.083498 94.322212 109.764143 94.485298 109.045595 94.9745562 108.806079 95.7084435 109.045595 95.8715296 109.125433 96.0346157 109.125433 96.1977017 109.285111 97.3393042 110.083498 98.5624497 110.802046 99.8671382 111.281079 100.927198 111.360917 101.742628 110.881885 102.313429 110.163337 103.047316 109.36495 103.618118 108.406885 104.270462 107.448821 104.922806 105.293175 106.227495 104.494788 108.184528 105.053659 108.5107 105.373014 108.755329 105.692369 108.918415 106.091563 109.32613 106.88995 109.652302 107.608498 110.223103 108.327046 111.120077 109.444788 112.098593 109.604466 113.077109 108.806079 113.89254 108.167369 114.70797 107.528659 115.5234 106.88995 115.604943 106.810111 115.76803 106.730272 115.849573 106.650433 116.665003 106.331079 117.561976 106.091563 118.377407 105.852046 118.948208 105.61253 119.355923 105.772208 119.845181 106.171401 120.008267 106.490756 119.926724 106.730272 119.763638 107.049627 119.519009 107.448821 119.111294 107.608498 118.622036 107.768175 117.806605 108.007692 116.991175 108.247208 116.257288 108.566563 115.278771 109.205272 114.300255 109.923821 113.321739 110.642369 112.995566 110.56253 112.424765 110.642369 111.935507 110.881885 110.875448 110.802046 110.223103 110.243175 109.652302 109.604466zM99.5409661 78.7068851C99.296337 78.2278528 99.9486812 77.9883367 100.19331 77.5093045 100.601025 76.6310787 102.0688 74.4754335 101.905714 74.1560787 101.824171 74.0762399 99.6225091 72.4794658 99.1332509 72.0802722 98.5624497 71.6810787 98.3993636 71.5214012 98.3993636 71.5214012L99.0517079 70.5633367 102.313429 73.1181754C102.313429 73.1181754 102.965773 71.6012399 103.291946 71.042369 103.536575 70.6431754 104.025833 69.7649496 104.270462 69.3657561 104.596634 69.4455948 105.004349 69.8447883 105.330521 69.8447883 105.57515 69.8447883 103.455032 73.8367238 103.455032 73.8367238 103.455032 73.8367238 105.656694 75.2738206 106.390581 75.8326916 107.124468 76.3915625 108.347614 76.9504335 108.5107 77.0302722 108.755329 77.2697883 108.184528 78.0681754 107.858355 77.908498 107.613726 77.8286593 105.982866 76.5512399 104.841263 75.9125303 103.536575 75.1939819 102.965773 74.7947883 102.965773 74.7947883 102.965773 74.7947883 101.579542 77.6689819 101.25337 78.3076916 101.090284 78.7068851 101.25337 79.0262399 100.845655 78.9464012 100.519482 78.6270464 100.030224 78.7867238 99.5409661 78.7068851L99.5409661 78.7068851zM94.322212 58.108498C94.5668411 58.0286593 97.0131321 57.3899496 97.9916484 57.4697883 98.2362775 57.4697883 100.927198 57.3101109 102.0688 57.4697883 103.455032 57.6294658 110.467732 57.7093045 111.527792 57.7891432 117.561976 58.7472077 118.948208 60.024627 120.334439 60.5036593 120.742155 60.6633367 120.497525 61.2222077 120.742155 61.7012399 120.334439 61.7012399 120.08981 61.5415625 119.845181 61.3818851 119.355923 61.142369 118.948208 60.8230141 118.45895 60.583498 116.746546 59.8649496 114.952599 59.2262399 113.077109 58.9867238 111.446249 58.7472077 109.815388 58.5076916 108.102984 58.5875303 107.776812 58.5875303 100.030224 58.4278528 99.459423 58.3480141 98.8070788 58.1883367 98.1547345 58.1883367 97.5023903 58.2681754 96.6054169 58.3480141 94.485298 58.3480141 94.240669 58.2681754 94.322212 58.2681754 94.322212 58.1883367 94.322212 58.108498 94.5668411 58.0286593 94.322212 58.1883367 94.322212 58.108498L94.322212 58.108498z"/>
    <path fill="#05095E" d="M95.6269005 123.895595C95.8715296 123.895595 96.1977017 123.975433 96.5238739 124.21495 97.0131321 124.693982 97.3393042 125.173014 97.3393042 125.891563 97.3393042 126.530272 97.3393042 127.168982 96.850046 127.727853 96.3607878 128.286724 95.4638144 128.52624 94.8114702 128.127046 94.1591259 127.727853 93.8329538 127.089143 93.6698677 126.370595 93.5883247 126.05124 93.6698677 125.731885 93.6698677 125.492369 93.8329538 124.454466 94.485298 123.895595 95.6269005 123.895595 95.8715296 123.815756 94.485298 123.895595 95.6269005 123.895595L95.6269005 123.895595zM98.7255357 126.370595C98.7255357 125.891563 98.8070788 125.572208 99.1332509 125.332692 99.9486812 124.614143 101.008741 124.614143 101.661085 125.41253 101.905714 125.652046 102.150343 125.971401 102.231886 126.370595 102.476515 127.488337 101.661085 128.446401 100.519482 128.366563 99.9486812 128.366563 99.5409661 128.127046 99.2147939 127.648014 98.9701648 127.248821 98.6439927 126.769788 98.7255357 126.370595 98.6439927 125.891563 98.6439927 126.769788 98.7255357 126.370595L98.7255357 126.370595zM70.287194 58.2681754C71.6734256 57.7093045 97.1762181 57.8689819 93.6698677 58.2681754 93.0175235 58.5076916 83.9662469 59.2262399 83.3139026 59.1464012 82.6615583 59.0665625 72.2151041 59.4657561 71.5627599 59.1464012L70.287194 58.2681754zM83.8031608 80.2238206C83.5585317 79.7447883 84.210876 79.5052722 84.455505 79.0262399 84.8632202 78.1480141 86.3309948 75.992369 86.1679087 75.6730141 86.0863657 75.5931754 83.8847038 73.9964012 83.3954456 73.5972077 82.8246444 73.1980141 82.6615583 73.0383367 82.6615583 73.0383367L83.3139026 72.0802722 86.5756239 74.6351109C86.5756239 74.6351109 87.2279682 73.1181754 87.5541403 72.5593045 87.7987694 72.1601109 88.2880276 71.2818851 88.5326567 70.8826916 88.8588288 70.9625303 89.266544 71.3617238 89.5927161 71.3617238 89.8373452 71.3617238 87.7172264 75.3536593 87.7172264 75.3536593 87.7172264 75.3536593 89.9188882 76.7907561 90.6527755 77.349627 91.3866628 77.908498 92.6098083 78.467369 92.7728944 78.5472077 93.0175235 78.7867238 92.4467222 79.5851109 92.1205501 79.4254335 91.875921 79.3455948 90.2450604 78.0681754 89.1034579 77.4294658 87.7987694 76.7109174 87.2279682 76.3117238 87.2279682 76.3117238 87.2279682 76.3117238 85.8417366 79.1859174 85.5155645 79.824627 85.3524784 80.2238206 85.5155645 80.5431754 85.1078493 80.4633367 84.7001341 80.1439819 84.292419 80.3036593 83.8031608 80.2238206L83.8031608 80.2238206zM81.1122407 99.3052722C80.8676116 98.8262399 81.5199559 98.5867238 81.764585 98.1076916 82.1723001 97.2294658 83.6400747 95.0738206 83.4769887 94.7544658 83.3954456 94.674627 81.1937837 93.0778528 80.7045256 92.6786593 80.1337243 92.2794658 79.9706383 92.1197883 79.9706383 92.1197883L80.6229825 91.1617238 83.8847038 93.7165625C83.8847038 93.7165625 84.5370481 92.199627 84.8632202 91.6407561 85.1078493 91.2415625 85.5971075 90.3633367 85.8417366 89.9641432 86.1679087 90.0439819 86.5756239 90.4431754 86.901796 90.4431754 87.1464251 90.4431754 85.0263063 94.4351109 85.0263063 94.4351109 85.0263063 94.4351109 87.2279682 95.8722077 87.9618554 96.4310787 88.6957427 96.9899496 89.9188882 97.5488206 90.0819743 97.6286593 90.3266034 97.8681754 89.7558022 98.6665625 89.42963 98.5068851 89.1850009 98.4270464 87.5541403 97.149627 86.4125378 96.5109174 85.1078493 95.792369 84.5370481 95.3931754 84.5370481 95.3931754 84.5370481 95.3931754 83.1508165 98.267369 82.8246444 98.9060787 82.6615583 99.3052722 82.8246444 99.624627 82.4169292 99.5447883 82.0907571 99.2254335 81.6014989 99.3851109 81.1122407 99.3052722L81.1122407 99.3052722zM94.485298 97.4689819C94.240669 96.9899496 94.8930132 96.7504335 95.1376423 96.2714012 95.5453575 95.3931754 97.0131321 93.2375303 96.850046 92.9181754 96.768503 92.8383367 94.5668411 91.2415625 94.0775829 90.842369 93.5067817 90.4431754 93.3436956 90.283498 93.3436956 90.283498L93.9960399 89.3254335 97.2577612 91.8802722C97.2577612 91.8802722 97.9101054 90.3633367 98.2362775 89.8044658 98.4809066 89.4052722 98.9701648 88.5270464 99.2147939 88.1278528 99.5409661 88.2076916 99.9486812 88.6068851 100.274853 88.6068851 100.519482 88.6068851 98.3993636 92.5988206 98.3993636 92.5988206 98.3993636 92.5988206 100.601025 94.0359174 101.334913 94.5947883 102.0688 95.1536593 103.291946 95.7125303 103.455032 95.792369 103.699661 96.0318851 103.128859 96.8302722 102.802687 96.6705948 102.558058 96.5907561 100.927198 95.3133367 99.7855952 94.674627 98.4809066 93.9560787 97.9101054 93.5568851 97.9101054 93.5568851 97.9101054 93.5568851 96.5238739 96.4310787 96.1977017 97.0697883 96.0346157 97.4689819 96.1977017 97.7883367 95.7899866 97.708498 95.4638144 97.3891432 94.9745562 97.5488206 94.485298 97.4689819L94.485298 97.4689819zM107.858355 95.1536593C107.613726 94.674627 108.266071 94.4351109 108.5107 93.9560787 108.918415 93.0778528 110.386189 90.9222077 110.223103 90.6028528 110.14156 90.5230141 107.939898 88.9262399 107.45064 88.5270464 106.879839 88.1278528 106.716753 87.9681754 106.716753 87.9681754L107.369097 87.0101109 110.630818 89.5649496C110.630818 89.5649496 111.283163 88.0480141 111.609335 87.4891432 111.853964 87.0899496 112.343222 86.2117238 112.587851 85.8125303 112.914023 85.892369 113.321739 86.2915625 113.647911 86.2915625 113.89254 86.2915625 111.772421 90.283498 111.772421 90.283498 111.772421 90.283498 113.974083 91.7205948 114.70797 92.2794658 115.441857 92.8383367 116.665003 93.3972077 116.828089 93.4770464 117.072718 93.7165625 116.501917 94.5149496 116.175745 94.3552722 115.931116 94.2754335 114.300255 92.9980141 113.158652 92.3593045 111.853964 91.6407561 111.283163 91.2415625 111.283163 91.2415625 111.283163 91.2415625 109.896931 94.1157561 109.570759 94.7544658 109.407673 95.1536593 109.570759 95.4730141 109.163044 95.3931754 108.836872 95.0738206 108.347614 95.233498 107.858355 95.1536593L107.858355 95.1536593z"/>
  </g>
</svg>
