<svg width="200" height="200" viewBox="0 0 200 200">
  <g fill="none" fill-rule="evenodd">
    <path fill="#E1F8FF" d="M100,200 C155.228475,200 200,155.228475 200,100 C200,44.771525 155.228475,-2.84217094e-14 100,-2.84217094e-14 C44.771525,-2.84217094e-14 2.84217094e-14,44.771525 2.84217094e-14,100 C2.84217094e-14,155.228475 44.771525,200 100,200 Z" opacity=".397"/>
    <path fill="#D6F7FF" d="M100.307688,69.2478114 C91.0706209,60.7329107 79.6140522,52.8733712 72.571724,57.8414261 C68.470619,60.7345766 69.2659695,71.7123072 73.4906141,84.9937605 C58.0952583,88.5436317 49.1470537,95.1184303 51.7056655,103.021604 C54.5673961,111.861066 63.2762079,116.817059 73.1550295,119.549459 C70.3669613,131.129877 69.4131062,143.566956 76.6509014,147.222824 C78.9345967,148.376337 85.5719084,146.818147 89.7859344,144.283197 C91.621652,143.17892 95.909468,139.04548 100.974077,133.311553 C111.87521,145.148994 122.203476,149.775355 127.82868,143.541272 C134.098817,136.592449 133.982339,126.774933 131.344447,117.159491 C142.289055,113.404528 153.35323,107.516883 152.594153,99.1781244 C152.151906,94.3198634 143.078058,89.290075 130.314313,85.9751965 C135.368687,71.4856895 134.588141,60.9970983 126.606012,58.9979149 C116.988112,56.5890408 107.85752,61.8973858 100.307688,69.2478114 Z"/>
    <path fill="#5ADAFD" d="M72.571724,57.8414261 C85.8954834,48.4420958 115.019969,84.9590003 115.019969,84.9590003 C115.019969,84.9590003 144.789152,124.74498 127.82868,143.541272 C119.994797,152.223104 103.039581,139.841695 88.118478,116.253792 C73.1973748,92.6658879 65.4020843,62.8992938 72.571724,57.8414261 Z M75.4127762,61.4224899 C68.2431365,66.4803575 75.3220959,88.2009544 90.2431991,111.788858 C105.164302,135.376762 117.122368,149.322851 124.956252,140.641019 C141.916724,121.844727 110.869984,85.904439 110.869984,85.904439 C110.869984,85.904439 88.7365357,52.0231595 75.4127762,61.4224899 Z"/>
    <path fill="#5ADAFD" d="M73.0675663,58.5052727 C86.3913258,49.1059423 114.083059,83.1825298 114.083059,83.1825298 C114.083059,83.1825298 143.800833,125.159233 126.840361,143.955526 C119.006478,152.637358 102.051262,140.255949 87.1301586,116.668045 C72.2090554,93.0801417 65.8979266,63.5631403 73.0675663,58.5052727 Z M74.4244568,61.8367436 C67.254817,66.8946113 74.3337765,88.6152082 89.2548797,112.203112 C104.175983,135.791015 116.134049,149.737105 123.967932,141.055273 C140.928404,122.25898 109.881665,86.3186928 109.881665,86.3186928 C109.881665,86.3186928 87.7482162,52.4374133 74.4244568,61.8367436 Z" transform="rotate(120 101.09 101.799)"/>
    <path fill="#5ADAFD" d="M73.6865918,58.6632578 C87.0103513,49.2639275 116.134837,85.780832 116.134837,85.780832 C116.134837,85.780832 145.092531,125.393795 128.132059,144.190088 C120.298176,152.87192 104.154449,140.663527 89.2333459,117.075623 C78.663141,100.365802 70.3754664,76.5517258 70.1156037,71.6408747 C69.855741,66.7300237 71.5959707,60.1380997 73.6865918,58.6632578 Z M76.5276441,62.2443216 C69.3580043,67.3021893 76.4369638,89.0227861 91.358067,112.61069 C106.27917,136.198593 118.237236,150.144682 126.071119,141.462851 C129.436925,137.732726 129.611127,131.279202 129.813495,126.613611 C129.890765,124.832154 127.431529,112.903981 124.21096,105.87449 C120.990391,98.8449988 111.984852,86.7262707 111.984852,86.7262707 C111.984852,86.7262707 89.8514035,52.8449912 76.5276441,62.2443216 Z" transform="rotate(-118 101.775 102.052)"/>
    <path fill="#5ADAFD" d="M100.309743,104.715446 C103.303573,104.715446 106.686471,102.074477 106.686471,98.8166767 C106.686471,95.5588766 103.865098,94.4382058 100.871267,94.4382058 C97.8774365,94.4382058 95.9328125,96.4996997 95.9328125,99.7574999 C95.9328125,103.0153 97.315912,104.715446 100.309743,104.715446 Z"/>
  </g>
</svg>
