<svg width="200" height="200" viewBox="0 0 200 200">
  <g fill="none" fill-rule="evenodd">
    <path fill="#EDCAFF" d="M100,200 C155.228475,200 200,155.228475 200,100 C200,44.771525 155.228475,0 100,0 C44.771525,0 0,44.771525 0,100 C0,155.228475 44.771525,200 100,200 Z" opacity=".397"/>
    <path fill="#B879D8" d="M105.664016,37.2194074 C105.664016,37.2194074 75.4561739,60.7600092 69.9104444,87.9347023 C64.3647148,115.109395 67.7626334,124.080247 67.7626334,124.080247 C67.7626334,124.080247 72.291955,145.301163 92.5892015,145.301163 C112.886448,145.301163 123.917318,142.310055 133.83286,132.106407 C136.882063,128.968607 142.989707,117.006969 139.463909,104.411145 C135.938111,91.815321 113.855,81.1694474 108.300247,70.9747855 C102.745494,60.7801237 105.664016,37.2194074 105.664016,37.2194074 Z" transform="rotate(10 103.63 91.26)"/>
    <path fill="#EECAFF" d="M100.838849,46.9791556 C100.838849,46.9791556 92.2295239,54.5771995 84.0495703,65.1891799 C75.8696167,75.8011602 76.0805715,81.7545568 73.3587392,92.0312528 C70.1895742,103.996922 72.0839014,119.984945 72.0839014,119.984945 C72.0839014,119.984945 76.2497211,141.424723 92.8374187,141.424723 C105.297403,141.424723 110.349326,141.160511 116.333506,138.485548 C122.317687,135.810585 125.519099,134.080246 129.347732,130.140369 C132.396935,127.002568 137.943205,119.347681 134.417407,106.751857 C132.899318,101.328521 123.277867,94.5956137 118.637117,89.2874459 C113.996367,83.9792781 106.591157,77.5886518 103.428093,71.7834666 C97.8733396,61.5888047 100.838849,46.9791556 100.838849,46.9791556 Z" transform="rotate(10 103.537 94.202)"/>
    <path stroke="#B879D7" stroke-width="4.091" d="M66.564155,111.786632 C66.564155,111.786632 127.297622,103.646571 127.297622,99.9259239 C127.297622,96.2052772 136.266,106.150495 134.851437,114.121013 C133.436874,122.091531 68.2099445,127.674356 68.2099445,127.674356 C68.2099445,127.674356 66.7090899,123.324976 66.564155,121.925839 C66.4192201,120.526702 66.564155,111.786632 66.564155,111.786632 Z" transform="rotate(10 100.751 113.398)"/>
    <path fill="#EDCAFF" stroke="#B879D7" stroke-width="4.091" d="M80.1010799,67.344838 C80.1010799,67.344838 76.7378986,73.6009436 75.8264785,81.4138036 C74.9150585,89.2266635 76.4870249,97.5321052 78.7050646,100.468362 C80.8370432,103.29069 85.7716709,114.636891 92.4599577,122.935676 C99.1482445,131.234461 108.33811,138.583589 114.58847,140.100853 C117.880035,140.899875 130.501066,130.21746 130.501066,130.21746 C129.746124,128.53763 122.210513,131.281084 114.58847,125.613948 C106.966426,119.946813 97.6680253,104.641187 92.4599577,98.111581 C82.4734886,85.5910625 80.1010799,67.344838 80.1010799,67.344838 Z" transform="rotate(10 103.032 103.744)"/>
  </g>
</svg>
