<svg width="200" height="200" viewBox="0 0 200 200">
  <g fill="none" fill-rule="evenodd">
    <path fill="#FFECEE" d="M100,200 C155.228475,200 200,155.228475 200,100 C200,44.771525 155.228475,1.42108547e-14 100,1.42108547e-14 C44.771525,1.42108547e-14 0,44.771525 0,100 C0,155.228475 44.771525,200 100,200 Z" opacity=".397"/>
    <path fill="#C10B1A" d="M67.1778902,99.3286792 C67.1778902,99.3286792 80.8061774,113.138055 88.5879062,119.801468 C96.536028,126.607362 113.722638,138.307236 113.722638,138.307236 C113.722638,138.307236 122.368513,128.254953 127.761062,111.832405 C129.000827,108.056805 136.22229,83.3820857 133.348661,79.457566 C131.281699,76.6347117 130.378928,74.0296027 127.761062,72.4378283 C124.85922,70.6733845 115.82949,66.7115034 115.305721,66.546761 C111.415391,65.3231258 104.967899,63.0543676 99.1183017,61.9900058 C93.2687045,60.925644 86.3757974,64.181077 86.3757974,64.181077 L75.7644069,72.4378285 L67.1778902,99.3286792 Z"/>
    <polygon fill="#FF4150" points="77.507 74.732 91.101 81.245 69.953 99.059"/>
    <path fill="#FF4150" d="M69.9536241,99.0620356 C69.9536241,99.0620356 74.2485955,93.1621924 79.2905434,88.1588999 C84.3324912,83.1556074 90.0977117,81.2581582 90.0977117,81.2581582 C90.0977117,81.2581582 93.5344325,81.3646209 95.4413494,81.2581582 C97.0824187,81.1665377 100.74167,80.6639087 100.74167,80.6639087 C100.74167,80.6639087 102.676756,85.8740384 103.417823,88.6591374 C104.342456,92.1341205 105.738771,99.444155 105.738771,99.444155 L69.9536241,99.0620356 Z"/>
    <path fill="#FF4150" d="M106.725687,78.7455188 C103.971157,79.9579265 100.520172,80.6008856 100.520172,80.6008856 C100.520172,80.6008856 102.307918,85.0466169 103.500379,89.3739591 C104.692841,93.7013013 105.312935,98.8903939 105.312935,98.8903939 C105.312935,98.8903939 127.055875,92.2702578 128.560687,86.5710448 C130.065498,80.8718318 112.505966,73.7038231 112.505966,73.7038231 C112.505966,73.7038231 109.480217,77.5331111 106.725687,78.7455188 Z"/>
    <path fill="#FF4150" d="M112.801027,67.1581995 C112.801027,67.1581995 112.371077,70.9119784 112.299977,71.905653 C112.180541,73.5748702 112.299977,74.481461 112.299977,74.481461 L128.970242,86.784279 C128.970242,86.784279 133.755757,81.07671 128.970242,76.0119765 C124.184726,70.9472431 112.801027,67.1581995 112.801027,67.1581995 Z"/>
    <path fill="#FF4150" d="M89.7315253 65.1658548L83.0300344 69.3626231 77.5096177 74.7293738 89.7315256 81.3218356C89.7315256 81.3218356 96.5832249 81.5896294 100.511241 80.8896145 104.439257 80.1895995 108.730165 79.2424132 111.450381 76.130385 114.170596 73.0183569 112.872925 67.1558007 112.872925 67.1558007L99.8148508 63.4047068 89.7315253 65.1658548zM69.9611042 99.054185C69.9611042 99.054185 82.4731432 111.795203 89.0488245 117.253756 97.2055657 124.024766 114.158372 135.742874 114.158372 135.742874L105.686076 98.7646383 69.9611042 99.054185z"/>
    <path fill="#FF4150" d="M126.249103,106.275661 C130.685943,90.450379 131.168369,80.4632199 131.168369,80.4632199 C131.168369,80.4632199 127.122854,86.4070869 124.944801,88.3863224 C119.49261,93.340823 105.431927,98.4616843 105.431927,98.4616843 L114.220891,136.209551 C114.220891,136.209551 121.812262,122.100943 126.249103,106.275661 Z"/>
    <polygon fill="#C10B1A" points="113.104 135.099 99.892 81.879 89.516 83.003 76.96 76.737 76.96 73.763 89.105 79.922 99.775 79.419 112.811 74.382 115.047 67.59 117.647 67.59 114.426 75.812 101.825 80.766 115.224 134.642"/>
    <polygon fill="#C10B1A" points="88.247 81.134 68.875 98.422 70.175 100.963 91.046 80.279"/>
    <polygon fill="#C10B1A" points="112.923 76.194 126.262 86.383 128.675 84.989 114.468 73.782"/>
    <polygon fill="#C10B1A" points="130.15 75.691 126.835 85.142 105.965 96.187 71.812 97.979 70.7 100.204 106.293 98.354 129.109 86.642 131.814 77.858"/>
  </g>
</svg>
