<svg width="200" height="200" viewBox="0 0 200 200">
  <g fill="none" fill-rule="evenodd">
    <path fill="#FCF5C9" d="M100,200 C155.228475,200 200,155.228475 200,100 C200,44.771525 155.228475,1.42108547e-14 100,1.42108547e-14 C44.771525,1.42108547e-14 1.42108547e-14,44.771525 1.42108547e-14,100 C1.42108547e-14,155.228475 44.771525,200 100,200 Z" opacity=".397"/>
    <path fill="#FFCE39" d="M94.2217981 127.458167C92.8871352 133.35176 94.9814899 138.387801 99.0762659 139.986802 103.171042 141.585804 114.499623 141.091588 112.728142 128.871362 110.956661 116.651136 95.556461 121.564574 94.2217981 127.458167zM130.946077 110.246733C129.611414 116.140326 131.705769 121.176367 135.800545 122.775368 139.895321 124.37437 151.223902 123.880154 149.452421 111.659928 147.68094 99.4397017 132.28074 104.353141 130.946077 110.246733zM49.6523484 114.521648C48.3176855 120.415241 50.4120402 125.451282 54.5068162 127.050284 58.6015923 128.649285 69.9301729 128.155069 68.1586921 115.934843 66.3872113 103.714617 50.9870113 108.628056 49.6523484 114.521648zM90.4257541 71.9298169C89.0910912 77.8234095 91.1854459 82.8594507 95.2802219 84.4584523 99.374998 86.0574539 110.703579 85.5632381 108.932098 73.3430118 107.160617 61.1227855 91.760417 66.0362244 90.4257541 71.9298169z"/>
    <path fill="#FFE673" d="M92.0185868 72.6350684C90.9677607 77.2752968 92.6167183 81.2403453 95.8406764 82.4992944 99.0646346 83.7582434 107.984016 83.3691303 106.589268 73.7477254 105.19452 64.1263205 93.0694128 67.9948401 92.0185868 72.6350684zM132.887922 110.933886C131.837096 115.574114 133.486054 119.539163 136.710012 120.798112 139.93397 122.057061 148.853352 121.667948 147.458604 112.046543 146.063856 102.425138 133.938749 106.293658 132.887922 110.933886zM96.166838 128.206487C95.1160119 132.846715 96.7649695 136.811764 99.9889276 138.070713 103.212886 139.329662 112.132267 138.940549 110.737519 129.319144 109.342772 119.697739 97.217664 123.566258 96.166838 128.206487zM51.0547478 114.824407C50.0039218 119.464635 51.6528793 123.429684 54.8768375 124.688633 58.1007957 125.947582 67.0201772 125.558469 65.6254294 115.937064 64.2306815 106.315659 52.1055739 110.184178 51.0547478 114.824407z"/>
    <path fill="#FFCE39" d="M143.812525,83.5616628 C144.355137,79.9953884 142.959675,74.7272885 137.940615,69.891587 C132.229137,64.3887642 112.727693,69.3049296 112.727693,71.2569345 C112.727693,73.1435535 111.263671,79.1825996 112.727693,77.4790483 C114.191715,75.775497 121.683933,73.2503569 122.541854,73.0959081 C130.466322,71.6692917 131.902019,79.2244343 132.045025,83.929587 C126.933835,84.5670972 122.944525,85.8096143 122.944525,85.8096143 C122.944525,85.8096143 122.498013,85.9816369 127.946429,92.0797398 C133.394845,98.1778427 140.090449,101.52227 140.090449,101.52227 C140.090449,101.52227 142.000566,94.5449904 146.002042,89.9434485 C150.003517,85.3419065 152.302299,83.5616628 152.302299,83.5616628 C152.302299,83.5616628 148.626355,83.5616628 143.812525,83.5616628 Z"/>
    <path fill="#FFE773" d="M142.127981,85.0577676 C141.37646,79.8150228 140.713343,79.0430673 137.07437,72.5728325 C133.127375,65.5549226 116.087321,70.3910799 114.698505,71.9285146 C113.309688,73.4659492 114.078777,74.7854868 114.078777,74.7854868 C114.078777,74.7854868 119.20583,72.3992813 119.987256,72.1743757 C120.272075,72.0924008 120.55089,72.0187313 120.823824,71.9530924 C132.027178,69.2587679 133.323461,80.0953783 133.299989,85.4552287 C129.321426,85.9097004 126.499227,86.5876028 126.499227,86.5876028 C126.499227,86.5876028 126.073992,86.755587 131.262776,92.7105324 C136.45156,98.6654778 139.986653,99.506028 139.986653,99.506028 C139.986653,99.506028 139.181426,98.8351009 139.402954,97.5694624 C139.687119,95.9459728 141.197781,93.4207966 143.339184,90.8957515 C147.149978,86.4022342 148.056222,85.1723 148.056222,85.1723 C148.056222,85.1723 147.2909,85.0785405 142.127981,85.0577676 Z"/>
    <path fill="#FFCE39" d="M78.5520568,86.094614 C79.094668,82.5283396 77.6992066,77.2602397 72.6801462,72.4245382 C66.9686689,66.9217154 47.4672246,71.8378808 47.4672245,73.7898857 C47.4672245,75.6765047 46.0032022,81.7155508 47.4672245,80.0119995 C48.9312468,78.3084482 56.4234645,75.7833081 57.2813855,75.6288594 C65.2058536,74.2022429 66.6415502,81.7573855 66.7845568,86.4625382 C61.6733669,87.1000484 57.6840566,88.3425655 57.6840566,88.3425655 C57.6840566,88.3425655 57.2375442,88.5145881 62.6859604,94.612691 C68.1343766,100.710794 74.8299809,104.055221 74.8299809,104.055221 C74.8299809,104.055221 76.7400973,97.0779417 80.741573,92.4763997 C84.7430486,87.8748577 87.0418306,86.094614 87.0418306,86.094614 C87.0418306,86.094614 83.3658864,86.094614 78.5520568,86.094614 Z" transform="matrix(-1 0 0 1 133.858 0)"/>
    <path fill="#FFE773" d="M79.6603822,87.5884482 C78.934859,81.8160562 78.8737953,80.1862038 75.0800769,75.190679 C71.5896734,70.5945556 68.8472985,70.0903593 55.551454,72.617258 C51.7306871,73.3434014 52.4042231,73.3047017 51.7962611,73.8851065 C50.1624466,75.4448646 50.292195,78.6795847 51.3083348,77.467177 C52.7025924,75.8036178 57.2864695,74.9322325 58.0678952,74.7073269 C70.0802475,71.2499991 71.4128396,82.5661492 71.3803708,88.0380472 C66.9915556,88.5846908 63.6129068,89.4331804 63.6129068,89.4331804 C63.6129068,89.4331804 64.1546308,89.2885382 69.3434151,95.2434836 C74.5321994,101.198429 76.7949317,101.458862 76.7949317,101.458862 C76.7949317,101.458862 78.1129776,96.9645418 81.923772,92.4710244 C85.7345664,87.9775071 86.1035753,87.68362 86.1035753,87.68362 C86.1035753,87.68362 85.3129433,87.6016092 79.6603822,87.5884482 Z" transform="matrix(-1 0 0 1 136.658 0)"/>
    <path fill="#FFCE39" d="M107.009876,98.5343368 L105.938464,86.9038304 C105.938464,86.9038304 103.844369,90.1108749 100.149952,89.8963564 C96.4555341,89.681838 94.372721,87.9690743 94.372721,87.9690743 C94.372721,87.9690743 93.7855158,94.8065351 94.6125576,101.300532 C87.730592,103.273904 85.0363329,104.04647 85.0363329,104.04647 L103.916502,118.154689 C103.916502,118.154689 108.330035,111.752675 110.795461,106.951577 C113.260886,102.15048 114.4285,97.6839313 114.4285,97.6839313 L108.32629,98.3405547 C108.32629,98.3405547 107.850703,98.4017644 107.009876,98.5343368 Z"/>
    <path fill="#FFE773" d="M104.692179,101.347576 C103.64777,95.151138 100.975982,88.9233216 100.975982,88.9233216 C100.975982,88.9233216 99.7608706,91.0152752 97.4694117,91.7673931 C95.1779528,92.519511 92.3110198,91.7673932 92.3110198,91.7673932 L94.3375371,101.832903 C90.7328985,102.282281 88.238463,102.881454 88.238463,102.881454 C88.238463,102.881454 87.8132281,103.049438 93.0020124,109.004383 C98.1907967,114.959329 101.72589,115.799879 101.72589,115.799879 L112.029305,101.347576 C112.029305,101.347576 109.725641,101.347576 104.692179,101.347576 Z" transform="scale(-1 1) rotate(16 0 -610.098)"/>
  </g>
</svg>
