<svg width="200" height="200" viewBox="0 0 200 200">
  <g fill="none" fill-rule="evenodd">
    <path fill="#40DFE5" fill-opacity=".079" d="M100,200 C155.228475,200 200,155.228475 200,100 C200,44.771525 155.228475,1.42108547e-14 100,1.42108547e-14 C44.771525,1.42108547e-14 0,44.771525 0,100 C0,155.228475 44.771525,200 100,200 Z"/>
    <path fill="#40E0E5" d="M112.565854,104.973366 C112.787315,100.230242 111.069026,96.8917522 107.845006,95.3412775 C104.620986,93.7908028 99.9195948,91.4687721 95.8677435,94.0227427 C91.8158922,96.5767134 73.7845238,111.579714 73.7845238,111.579714 C73.7845238,111.579714 65.6855209,119.402048 62.8496795,125.744363 C59.8916985,132.359841 61.018878,138.374079 61.018878,140.525416 C61.018878,144.739257 67.490059,153.161154 67.490059,153.161154 L69.3818696,147.089689 C69.3818696,147.089689 65.2705877,159.62074 84.1045438,159.615505 C86.9143751,159.614724 91.4005427,158.998483 90.7129947,158.650929 C89.5429434,158.05947 89.2677358,155.663581 88.6102816,154.44971 C87.9528274,153.235839 88.6102816,153.161154 88.6102816,153.161154 C88.6102816,153.161154 86.9740792,161.302725 104.905518,159.615505 C110.754869,159.065123 109.384959,156.523497 109.384959,156.523497 C109.384959,156.523497 112.819349,156.659215 114.304614,155.926553 C115.789878,155.193891 118.891351,153.781765 115.944498,153.161154 C112.997646,152.540544 109.384959,143.964546 109.384959,143.964546 C109.384959,143.964546 107.845005,139.013766 107.845006,124.966496 C107.845006,116.925985 112.344394,109.716489 112.565854,104.973366 Z"/>
    <path fill="#C3FDFF" d="M81.3763541,110.300361 C81.3763541,110.300361 69.4320855,144.706804 68.5076825,146.901215 C67.5832794,149.095625 61.3088857,139.877457 65.6732035,127.46454 C70.0375214,115.051623 81.3763541,110.300361 81.3763541,110.300361 Z"/>
    <path fill="#C3FDFF" d="M81.2396504,114.51159 C83.572109,109.107291 58.2196002,147.535666 77.7261466,155.298163 C82.2357061,157.092712 88.0943737,157.07205 88.0943738,157.072047 C88.0943738,157.072044 83.4645439,140.963908 90.9865448,121.070545 C93.2144889,115.178323 78.9071918,119.915889 81.2396504,114.51159 Z"/>
    <path fill="#C3FDFF" d="M88.475975,120.981256 C88.475975,120.981256 74.4808492,160.458006 103.219132,156.837406 C113.795219,155.504975 100.142295,154.742932 99.580308,143.073491 C99.0183206,131.40405 101.392889,118.916199 101.392889,118.916199 L88.475975,120.981256 Z"/>
    <path fill="#C3FDFF" d="M100.593575,150.546838 C94.4573592,144.96138 98.9875181,125.537372 98.9874305,120.68333 C98.9874104,119.566 108.042912,106.935322 106.88471,119.566 C103.873188,152.407903 114.608872,153.602489 114.608872,153.602489 C114.608872,153.602489 108.006299,157.29423 100.593575,150.546838 Z"/>
    <path fill="#C3FDFF" d="M103.08847,105.201447 C98.4696073,103.246676 96.8744846,96.7611873 96.8744846,96.7611873 C96.8744846,96.7611873 83.2472064,105.643166 82.6509332,109.834904 C82.0546601,114.026642 87.6527889,118.230786 93.4147265,119.9891 C99.1766641,121.747414 106.062734,121.93187 107.303935,119.9891 C109.683891,116.263913 110.91637,102.870145 110.91637,102.870145 C110.91637,102.870145 107.707333,107.156219 103.08847,105.201447 Z"/>
    <path fill="#C3FDFF" d="M96.3948601,100.654562 C97.0576627,102.515529 98.9388669,104.400978 101.533576,105.556217 C105.466236,107.30715 109.548728,106.717614 110.652077,104.239451 C111.755426,101.761288 109.461816,98.332929 105.529156,96.5819959 C101.596496,94.8310629 97.1491856,95.2581714 96.0458365,97.736334 C95.6704603,98.5794429 96.0530886,99.6949613 96.3948601,100.654562 Z"/>
    <path fill="#40E0E5" d="M86.5386201 109.200699C84.2969701 105.594494 85.8433046 105.124836 85.8433046 105.124836L80.5655424 109.200699 70.9744198 117.152749C70.9744198 117.152749 75.8546053 126.47548 85.8433046 128.348298 95.8320038 130.221116 107.515765 128.348298 107.515765 128.348298 107.515765 128.348298 112.134253 110.30993 110.104448 111.611796 108.074643 112.913661 102.839158 114.242773 99.0207319 114.60828 94.3548019 115.054912 88.7802702 112.806903 86.5386201 109.200699zM105.908489 95.0151939C105.908489 95.0151939 105.979205 100.92817 109.104108 96.7150359 112.229011 92.5019015 140.132916 42.6658192 140.132916 42.6658192 140.132916 42.6658192 141.934413 35.7615059 137.034574 40.6801062 132.134735 45.5987065 105.908489 95.0151939 105.908489 95.0151939z"/>
  </g>
</svg>
