<svg width="200" height="200" viewBox="0 0 200 200">
  <g fill="none" fill-rule="evenodd">
    <path fill="#E2F2FF" d="M100,200 C155.228475,200 200,155.228475 200,100 C200,44.771525 155.228475,-2.84217094e-14 100,-2.84217094e-14 C44.771525,-2.84217094e-14 -2.84217094e-14,44.771525 -2.84217094e-14,100 C-2.84217094e-14,155.228475 44.771525,200 100,200 Z" opacity=".397"/>
    <path fill="#4FA0E5" d="M78.2754753,68.5096859 C83.1569373,73.8276734 86.4904801,70.6449323 99.5557738,74.4558267 C112.621067,78.2667211 100.630585,78.0120735 100.630585,78.0120735 C100.630585,78.0120735 73.174111,71.8046352 63.870105,77.8676723 C62.0011937,79.0855647 60.0998814,83.0172102 58.8904453,86.4681639 C58.4784772,87.6436563 56.8120113,97.3194582 56.8479716,103.193043 C56.8839318,109.066628 60.2005104,124.868336 69.1215324,124.087848 C69.1215324,124.087848 73.5470111,124.186056 75.1316557,121.541373 C76.7163004,118.896689 73.1238665,96.3770503 87.1691806,95.1482446 C101.214495,93.9194388 120.25388,100.591926 123.126657,88.8726265 C125.999434,77.153327 127.989213,53.1216528 109.685455,53.1216528 C107.630156,53.1216528 89.1228206,51.7295258 82.3345438,55.6945852 C75.5462669,59.6596447 73.3940133,63.1916983 78.2754753,68.5096859 Z"/>
    <path fill="#D8EDFF" d="M79.7370083,67.1771686 C82.8595925,71.0405244 87.126142,69.1816808 100.191436,72.9925752 C113.256729,76.8034696 104.749161,81.0643559 104.749161,81.0643559 C104.749161,81.0643559 75.3072504,74.0890346 66.0032445,80.1520716 C64.1343332,81.3699641 61.9293205,84.6906708 60.7198844,88.1416245 C60.3079163,89.3171169 59.5845847,96.0077879 59.6205449,101.881373 C59.6565052,107.754958 59.9062728,121.505186 68.8272949,120.724697 C68.8272949,120.724697 71.5444537,120.822826 73.1290984,118.178142 C74.3047428,116.216057 73.7722479,103.923139 76.5709777,98.8675603 C79.3697076,93.8119815 81.899933,92.4794975 85.5250589,92.1623401 C93.7560323,91.4422232 98.4933049,93.5019569 105.864246,93.8098364 C113.235187,94.1177158 120.182669,93.8775868 121.371913,89.0261467 C122.832131,83.0692867 123.907806,74.3372145 122.808508,66.7520874 C121.709209,59.1669603 118.926871,55.2744205 109.926819,55.2744205 C107.87152,55.2744205 91.3256882,53.5306464 84.5374113,57.4957058 C77.7491345,61.4607653 76.6144241,63.3138129 79.7370083,67.1771686 Z"/>
    <path fill="#F8FCFF" stroke="#4FA0E5" stroke-width="3.314" d="M89.4947384,66.2736796 C91.1765242,66.2736796 93.0768684,64.7901141 93.0768684,62.9600433 C93.0768684,61.1299725 91.1765242,59.6464069 89.4947384,59.6464069 C87.8129525,59.6464069 86.4495957,61.1299725 86.4495957,62.9600433 C86.4495957,64.7901141 87.8129525,66.2736796 89.4947384,66.2736796 Z"/>
    <path fill="#F8FCFF" d="M89.4947384,66.2736796 C91.1765242,66.2736796 93.0768684,64.7901141 93.0768684,62.9600433 C93.0768684,61.1299725 91.4919609,60.5004351 89.810175,60.5004351 C88.1283892,60.5004351 87.0359957,61.6584803 87.0359957,63.4885512 C87.0359957,65.318622 87.8129525,66.2736796 89.4947384,66.2736796 Z"/>
    <path fill="#4FA0E5" d="M98.3345698,84.896433 C103.216032,90.2144206 106.549575,87.0316794 119.614868,90.8425738 C132.680162,94.6534682 120.689679,94.3988207 120.689679,94.3988207 C120.689679,94.3988207 93.2332054,88.1913824 83.9291995,94.2544194 C82.0602882,95.4723119 80.1589759,99.4039573 78.9495398,102.854911 C78.5375717,104.030403 76.8711058,113.706205 76.907066,119.57979 C76.9430263,125.453375 80.2596049,141.255084 89.1806269,140.474595 C89.1806269,140.474595 93.6061055,140.572804 95.1907502,137.92812 C96.7753949,135.283436 93.182961,112.763797 107.228275,111.534992 C121.273589,110.306186 140.312974,116.978673 143.185752,105.259374 C146.058529,93.5400741 148.048307,69.5083999 129.74455,69.5083999 C127.68925,69.5083999 109.181915,68.116273 102.393638,72.0813324 C95.6053614,76.0463918 93.4531078,79.5784454 98.3345698,84.896433 Z" transform="rotate(180 110.977 104.887)"/>
    <path fill="#D8EDFF" d="M98.7522044,84.9152786 C101.874789,88.7786343 106.141338,86.9197908 119.206632,90.7306852 C132.271926,94.5415796 123.764357,98.8024659 123.764357,98.8024659 C123.764357,98.8024659 94.3224465,91.8271445 85.0184405,97.8901816 C83.1495292,99.1080741 80.9445166,102.428781 79.7350805,105.879734 C79.3231124,107.055227 78.5997807,113.745898 78.635741,119.619483 C78.6717013,125.493068 78.9214689,139.243296 87.8424909,138.462807 C87.8424909,138.462807 90.5596498,138.560936 92.1442945,135.916252 C93.3199389,133.954167 92.7874439,121.661249 95.5861738,116.60567 C98.3849037,111.550091 100.915129,110.217607 104.540255,109.90045 C112.771228,109.180333 117.508501,111.240067 124.879442,111.547946 C132.250383,111.855826 139.197865,111.615697 140.387109,106.764257 C141.847327,100.807397 142.923002,92.0753245 141.823704,84.4901974 C140.724405,76.9050703 137.942067,73.0125304 128.942015,73.0125304 C126.886716,73.0125304 110.340884,71.2687564 103.552607,75.2338158 C96.7643306,79.1988752 95.6296202,81.0519229 98.7522044,84.9152786 Z" transform="rotate(180 110.455 105.563)"/>
    <path fill="#F8FCFF" stroke="#4FA0E5" stroke-width="3.314" d="M111.862602,133.740842 C113.544388,133.740842 115.444732,132.257277 115.444732,130.427206 C115.444732,128.597135 113.544388,127.113569 111.862602,127.113569 C110.180817,127.113569 108.81746,128.597135 108.81746,130.427206 C108.81746,132.257277 110.180817,133.740842 111.862602,133.740842 Z" transform="rotate(180 112.131 130.427)"/>
    <path fill="#F8FCFF" d="M111.276202,132.886814 C112.957988,132.886814 114.858333,131.403248 114.858333,129.573178 C114.858333,127.743107 113.273425,127.113569 111.591639,127.113569 C109.909853,127.113569 108.81746,128.271615 108.81746,130.101685 C108.81746,131.931756 109.594417,132.886814 111.276202,132.886814 Z" transform="rotate(180 111.838 130)"/>
  </g>
</svg>
