<?xml version="1.0" encoding="UTF-8"?>
<svg width="393px" height="383px" viewBox="0 0 393 383" version="1.1" xmlns="http://www.w3.org/2000/svg" xmlns:xlink="http://www.w3.org/1999/xlink">
    <!-- Generator: Sketch 42 (36781) - http://www.bohemiancoding.com/sketch -->
    <title>tapas-background--light</title>
    <desc>Created with Sketch.</desc>
    <defs></defs>
    <g stroke="none" stroke-width="1" fill="none" fill-rule="evenodd" opacity="0.0899999961">
        <g stroke-width="1.6335" stroke="#EF3E6A">
            <g transform="translate(34.000000, 35.000000)">
                <g transform="translate(323.050223, 9.357252) rotate(90.000000) translate(-323.050223, -9.357252) translate(313.892723, 2.427252)">
                    <polygon points="4.46365484 0.0381410767 0.186573084 4.356 9.14739207 13.6991456 18.1082111 4.356 13.6607412 0.0381410767"></polygon>
                    <path d="M0.515841891,4.40234539 L17.7789423,4.40234539"></path>
                    <path d="M9.14739207,0.141727927 L9.14739207,13.7373684"></path>
                </g>
                <g transform="translate(250.892723, 65.427252)">
                    <polygon points="4.46365484 0.0381410767 0.186573084 4.356 9.14739207 13.6991456 18.1082111 4.356 13.6607412 0.0381410767"></polygon>
                    <path d="M0.515841891,4.40234539 L17.7789423,4.40234539"></path>
                    <path d="M9.14739207,0.141727927 L9.14739207,13.7373684"></path>
                </g>
                <g transform="translate(0.892723, 65.427252)">
                    <polygon points="4.46365484 0.0381410767 0.186573084 4.356 9.14739207 13.6991456 18.1082111 4.356 13.6607412 0.0381410767"></polygon>
                    <path d="M0.515841891,4.40234539 L17.7789423,4.40234539"></path>
                    <path d="M9.14739207,0.141727927 L9.14739207,13.7373684"></path>
                </g>
                <g transform="translate(73.050223, 9.357252) rotate(90.000000) translate(-73.050223, -9.357252) translate(63.892723, 2.427252)">
                    <polygon points="4.46365484 0.0381410767 0.186573084 4.356 9.14739207 13.6991456 18.1082111 4.356 13.6607412 0.0381410767"></polygon>
                    <path d="M0.515841891,4.40234539 L17.7789423,4.40234539"></path>
                    <path d="M9.14739207,0.141727927 L9.14739207,13.7373684"></path>
                </g>
                <g transform="translate(184.892723, 2.427252)">
                    <polygon points="4.46365484 0.0381410767 0.186573084 4.356 9.14739207 13.6991456 18.1082111 4.356 13.6607412 0.0381410767"></polygon>
                    <path d="M0.515841891,4.40234539 L17.7789423,4.40234539"></path>
                    <path d="M9.14739207,0.141727927 L9.14739207,13.7373684"></path>
                </g>
                <g transform="translate(127.892723, 65.427252)">
                    <polygon points="4.46365484 0.0381410767 0.186573084 4.356 9.14739207 13.6991456 18.1082111 4.356 13.6607412 0.0381410767"></polygon>
                    <path d="M0.515841891,4.40234539 L17.7789423,4.40234539"></path>
                    <path d="M9.14739207,0.141727927 L9.14739207,13.7373684"></path>
                </g>
                <g transform="translate(313.892723, 127.427252)">
                    <polygon points="4.46365484 0.0381410767 0.186573084 4.356 9.14739207 13.6991456 18.1082111 4.356 13.6607412 0.0381410767"></polygon>
                    <path d="M0.515841891,4.40234539 L17.7789423,4.40234539"></path>
                    <path d="M9.14739207,0.141727927 L9.14739207,13.7373684"></path>
                </g>
                <g transform="translate(250.892723, 190.427252)">
                    <polygon points="4.46365484 0.0381410767 0.186573084 4.356 9.14739207 13.6991456 18.1082111 4.356 13.6607412 0.0381410767"></polygon>
                    <path d="M0.515841891,4.40234539 L17.7789423,4.40234539"></path>
                    <path d="M9.14739207,0.141727927 L9.14739207,13.7373684"></path>
                </g>
                <g transform="translate(0.892723, 190.427252)">
                    <polygon points="4.46365484 0.0381410767 0.186573084 4.356 9.14739207 13.6991456 18.1082111 4.356 13.6607412 0.0381410767"></polygon>
                    <path d="M0.515841891,4.40234539 L17.7789423,4.40234539"></path>
                    <path d="M9.14739207,0.141727927 L9.14739207,13.7373684"></path>
                </g>
                <g transform="translate(73.050223, 134.357252) rotate(45.000000) translate(-73.050223, -134.357252) translate(63.892723, 127.427252)">
                    <polygon points="4.46365484 0.0381410767 0.186573084 4.356 9.14739207 13.6991456 18.1082111 4.356 13.6607412 0.0381410767"></polygon>
                    <path d="M0.515841891,4.40234539 L17.7789423,4.40234539"></path>
                    <path d="M9.14739207,0.141727927 L9.14739207,13.7373684"></path>
                </g>
                <g transform="translate(184.892723, 127.427252)">
                    <polygon points="4.46365484 0.0381410767 0.186573084 4.356 9.14739207 13.6991456 18.1082111 4.356 13.6607412 0.0381410767"></polygon>
                    <path d="M0.515841891,4.40234539 L17.7789423,4.40234539"></path>
                    <path d="M9.14739207,0.141727927 L9.14739207,13.7373684"></path>
                </g>
                <g transform="translate(127.892723, 190.427252)">
                    <polygon points="4.46365484 0.0381410767 0.186573084 4.356 9.14739207 13.6991456 18.1082111 4.356 13.6607412 0.0381410767"></polygon>
                    <path d="M0.515841891,4.40234539 L17.7789423,4.40234539"></path>
                    <path d="M9.14739207,0.141727927 L9.14739207,13.7373684"></path>
                </g>
                <g transform="translate(313.892723, 251.427252)">
                    <polygon points="4.46365484 0.0381410767 0.186573084 4.356 9.14739207 13.6991456 18.1082111 4.356 13.6607412 0.0381410767"></polygon>
                    <path d="M0.515841891,4.40234539 L17.7789423,4.40234539"></path>
                    <path d="M9.14739207,0.141727927 L9.14739207,13.7373684"></path>
                </g>
                <g transform="translate(250.892723, 314.427252)">
                    <polygon points="4.46365484 0.0381410767 0.186573084 4.356 9.14739207 13.6991456 18.1082111 4.356 13.6607412 0.0381410767"></polygon>
                    <path d="M0.515841891,4.40234539 L17.7789423,4.40234539"></path>
                    <path d="M9.14739207,0.141727927 L9.14739207,13.7373684"></path>
                </g>
                <g transform="translate(0.892723, 314.427252)">
                    <polygon points="4.46365484 0.0381410767 0.186573084 4.356 9.14739207 13.6991456 18.1082111 4.356 13.6607412 0.0381410767"></polygon>
                    <path d="M0.515841891,4.40234539 L17.7789423,4.40234539"></path>
                    <path d="M9.14739207,0.141727927 L9.14739207,13.7373684"></path>
                </g>
                <g transform="translate(73.050223, 258.357252) rotate(90.000000) translate(-73.050223, -258.357252) translate(63.892723, 251.427252)">
                    <polygon points="4.46365484 0.0381410767 0.186573084 4.356 9.14739207 13.6991456 18.1082111 4.356 13.6607412 0.0381410767"></polygon>
                    <path d="M0.515841891,4.40234539 L17.7789423,4.40234539"></path>
                    <path d="M9.14739207,0.141727927 L9.14739207,13.7373684"></path>
                </g>
                <g transform="translate(194.050223, 258.357252) rotate(45.000000) translate(-194.050223, -258.357252) translate(184.892723, 251.427252)">
                    <polygon points="4.46365484 0.0381410767 0.186573084 4.356 9.14739207 13.6991456 18.1082111 4.356 13.6607412 0.0381410767"></polygon>
                    <path d="M0.515841891,4.40234539 L17.7789423,4.40234539"></path>
                    <path d="M9.14739207,0.141727927 L9.14739207,13.7373684"></path>
                </g>
                <g transform="translate(127.892723, 314.427252)">
                    <polygon points="4.46365484 0.0381410767 0.186573084 4.356 9.14739207 13.6991456 18.1082111 4.356 13.6607412 0.0381410767"></polygon>
                    <path d="M0.515841891,4.40234539 L17.7789423,4.40234539"></path>
                    <path d="M9.14739207,0.141727927 L9.14739207,13.7373684"></path>
                </g>
            </g>
        </g>
    </g>
</svg>