<?xml version="1.0" encoding="UTF-8"?>
<svg width="79px" height="17px" viewBox="0 0 79 17" version="1.1" xmlns="http://www.w3.org/2000/svg" xmlns:xlink="http://www.w3.org/1999/xlink">
    <!-- Generator: Sketch 42 (36781) - http://www.bohemiancoding.com/sketch -->
    <title>logo</title>
    <defs>
        <linearGradient x1="50%" y1="0%" x2="50%" y2="84.2873011%" id="linearGradient-1">
            <stop stop-color="#3FBCFF" offset="0%"></stop>
            <stop stop-color="#A2F6F9" offset="100%"></stop>
        </linearGradient>
        <path d="M7.29428215,0.282274641 C5.81403362,2.42927266 1.57507977,8.59095302 0.209666673,10.7168956 C0.0410643751,10.9794307 0.0961588269,11.3228978 0.33943734,11.5199637 C0.666353214,11.7854597 1.1260268,12.1384675 1.47849854,12.4062665 C1.72808304,12.5960946 2.07657204,12.5842509 2.31454025,12.3799472 C4.74002371,10.2961156 5.24383924,9.9111956 6.73304891,8.56265976 C7.31784664,8.03298357 8.21562069,8.02936466 8.80606063,8.55246102 C10.7522887,10.2760471 11.6231793,10.9540984 13.2471381,12.3819212 C13.4811236,12.5875408 13.8276212,12.6026744 14.0788652,12.4177812 C14.4439489,12.1489953 14.9261913,11.7907236 15.2687062,11.5239116 C15.5199502,11.3284906 15.5806868,10.9791018 15.4090975,10.7122897 C14.0367146,8.57713538 9.80572623,2.42696972 8.32713717,0.282274641 C8.07788456,-0.0792869329 7.54353476,-0.0792869329 7.29428215,0.282274641 L7.29428215,0.282274641 Z" id="path-2"></path>
    </defs>
    <g stroke="none" stroke-width="1" fill="none" fill-rule="evenodd">
        <g transform="translate(-401.000000, -696.000000)">
            <g transform="translate(16.000000, 520.000000)">
                <g>
                    <g transform="translate(385.000000, 176.000000)">
                        <path d="M0,10.5575897 L0,3.3286537 C0,3.10909629 0.179522667,2.93101449 0.400856529,2.93101449 L2.55977423,2.93101449 C2.78077625,2.93101449 2.96029892,3.10909629 2.96029892,3.3286537 L2.96029892,10.4815511 C2.96029892,12.6550707 4.05568584,13.7795207 5.86252674,13.7795207 C7.66936763,13.7795207 8.76475456,12.6929254 8.76475456,10.5770108 L8.76475456,3.3286537 C8.76475456,3.10909629 8.94427722,2.93101449 9.16561108,2.93101449 L11.3235333,2.93101449 C11.5448671,2.93101449 11.724058,3.10909629 11.724058,3.3286537 L11.724058,10.46213 C11.724058,14.5043564 9.43705201,16.4869565 5.82436573,16.4869565 C2.21068394,16.4869565 0,14.4849353 0,10.5575897" fill="#737373"></path>
                        <path d="M15.0214493,3.33490099 C15.0214493,3.11189412 15.2002476,2.93101449 15.4210967,2.93101449 L20.5062548,2.93101449 C23.7090634,2.93134884 25.6463768,4.84880666 25.6463768,7.61750208 L25.6463768,7.65695457 C25.6463768,10.7940961 23.2296189,12.4206754 20.2191841,12.4206754 L17.9752646,12.4206754 L17.9752646,16.0834044 C17.9752646,16.3064112 17.7961351,16.4869565 17.575286,16.4869565 L15.4210967,16.4869565 C15.2002476,16.4869565 15.0214493,16.3064112 15.0214493,16.0834044 L15.0214493,3.33490099 L15.0214493,3.33490099 Z M20.3142121,9.76766273 C21.7916164,9.76766273 22.654153,8.8766383 22.654153,7.71446159 L22.654153,7.67601213 C22.654153,6.33964266 21.7336725,5.622811 20.2572615,5.622811 L18.374912,5.622811 C18.1540629,5.622811 17.9752646,5.80369063 17.9752646,6.02669749 L17.9752646,9.36377623 C17.9752646,9.58678309 18.1540629,9.76766273 18.374912,9.76766273 L20.3142121,9.76766273 L20.3142121,9.76766273 Z" fill="#737373"></path>
                        <path d="M27.8446377,9.56381264 L27.8446377,9.52529908 C27.8446377,5.69851237 30.7640577,2.56463768 34.9491087,2.56463768 C37.3274597,2.56463768 38.6035088,3.32992862 39.9171974,4.29110748 C40.0936329,4.4202607 40.128584,4.67126285 40.0015504,4.84855801 L38.7779279,6.555107 C38.64955,6.73406224 38.4005239,6.76892365 38.2170309,6.64607868 C37.1886638,5.95582278 36.1609688,5.29445204 34.9302889,5.29445204 C32.6329302,5.29445204 30.9781328,7.17896023 30.9781328,9.48711754 L30.9781328,9.57709318 C30.9781328,11.8835904 32.875235,13.8650465 35.2068726,13.7495059 C36.4691429,13.6870873 37.3210745,13.3145683 38.1656126,12.4978153 C38.3181873,12.3504013 38.5604921,12.3364567 38.7201243,12.4765664 L40.163535,13.7428656 C40.3298885,13.8886195 40.3493804,14.1455979 40.2021828,14.3109406 C38.9590684,15.7050649 37.2864595,16.4869565 34.8328293,16.4869565 C30.8228696,16.4869565 27.8446377,13.4291129 27.8446377,9.56381264" fill="#737373"></path>
                        <path d="M55.8182087,13.9033336 L57.2290396,12.5619463 C57.385502,12.4130516 57.6290363,12.4217316 57.7841643,12.5722954 C58.8036722,13.5608091 59.9889836,13.8565954 61.406153,13.8565954 C62.6231572,13.8565954 63.358097,13.3731885 63.358097,12.5806416 L63.358097,12.5419156 C63.358097,11.7877608 62.8940474,11.4011688 60.6338491,10.8212808 C57.9086003,10.125215 56.1504829,9.37106016 56.1504829,6.68261008 L56.1504829,6.64388411 C56.1504829,4.18879137 58.121109,2.56463768 60.8847227,2.56463768 C62.706893,2.56463768 64.2815256,3.09378128 65.5932747,4.04457053 C65.7710881,4.17376836 65.8084522,4.43049481 65.6836826,4.61143855 L64.5834414,6.20788314 C64.4603398,6.38682382 64.2168056,6.42621747 64.0343216,6.30870419 C62.9490928,5.60929988 61.8818789,5.19399728 60.8460241,5.19399728 C59.7054163,5.19399728 59.1069224,5.71579629 59.1069224,6.37313619 L59.1069224,6.41252985 C59.1069224,7.30155786 59.6867342,7.59200261 62.0246634,8.19091971 C64.7685942,8.9066824 66.3142029,9.89285917 66.3142029,12.2514708 L66.3142029,12.2908645 C66.3142029,14.9786469 64.265846,16.4869565 61.3481051,16.4869565 C59.4308564,16.4869565 57.2163624,15.9324407 55.8021955,14.4898985 C55.644065,14.3283177 55.6544069,14.059239 55.8182087,13.9033336" fill="#737373"></path>
                        <path d="M68.5124638,3.33456665 C68.5124638,3.11155978 68.6922343,2.93101449 68.9135415,2.93101449 L78.2732395,2.93101449 C78.494879,2.93101449 78.6746495,3.11155978 78.6746495,3.33456665 L78.6746495,5.1801407 C78.6746495,5.40314756 78.494879,5.58402719 78.2732395,5.58402719 L71.8583224,5.58402719 C71.6366829,5.58402719 71.4572447,5.76457248 71.4572447,5.98757935 L71.4572447,7.93044725 C71.4572447,8.15311977 71.6366829,8.3339994 71.8583224,8.3339994 L77.4076162,8.3339994 C77.6292556,8.3339994 77.8086938,8.51454469 77.8086938,8.73755156 L77.8086938,10.5831256 C77.8086938,10.8061325 77.6292556,10.9870121 77.4076162,10.9870121 L71.8583224,10.9870121 C71.6366829,10.9870121 71.4572447,11.1675574 71.4572447,11.3905643 L71.4572447,13.4300573 C71.4572447,13.6530642 71.6366829,13.8339438 71.8583224,13.8339438 L78.3699368,13.8339438 C78.591244,13.8339438 78.7710145,14.0144891 78.7710145,14.237496 L78.7710145,16.08307 C78.7710145,16.3060769 78.591244,16.4869565 78.3699368,16.4869565 L68.9135415,16.4869565 C68.691902,16.4869565 68.5124638,16.3060769 68.5124638,16.08307 L68.5124638,3.33456665" fill="#737373"></path>
                        <g transform="translate(39.935072, 0.000000)">
                            <mask id="mask-3" fill="white">
                                <use xlink:href="#path-2"></use>
                            </mask>
                            <use fill="url(#linearGradient-1)" xlink:href="#path-2"></use>
                        </g>
                    </g>
                </g>
            </g>
        </g>
    </g>
</svg>