<?xml version="1.0" encoding="UTF-8"?>
<svg width="393px" height="383px" viewBox="0 0 393 383" version="1.1" xmlns="http://www.w3.org/2000/svg" xmlns:xlink="http://www.w3.org/1999/xlink">
    <!-- Generator: Sketch 42 (36781) - http://www.bohemiancoding.com/sketch -->
    <title>upcase-background--react</title>
    <desc>Created with Sketch.</desc>
    <defs></defs>
    <g stroke="none" stroke-width="1" fill="none" fill-rule="evenodd" fill-opacity="0.123669611">
        <g fill="#1AE8F7">
            <g transform="translate(203.000000, 201.000000) scale(-1, 1) translate(-203.000000, -201.000000) translate(38.000000, 35.000000)">
                <path d="M8.18869412,126.87068 C6.5726,129.214712 1.94462824,135.941863 0.453908235,138.262908 C0.269832941,138.549537 0.329983529,138.924524 0.595588235,139.139676 C0.952505882,139.429537 1.45436471,139.814941 1.83918353,140.107316 C2.11167294,140.314565 2.49214353,140.301635 2.75195059,140.078582 C5.40002588,137.803512 5.95007765,137.383267 7.57595529,135.910973 C8.21442118,135.332688 9.19458588,135.328737 9.83921176,135.899839 C11.9640494,137.781602 12.9148635,138.52188 14.6878565,140.080737 C14.9433153,140.305227 15.3216118,140.321749 15.5959129,140.119888 C15.9945012,139.826435 16.521,139.435284 16.8949482,139.143986 C17.1692494,138.930631 17.23556,138.549178 17.0482235,138.25788 C15.5498941,135.926778 10.9306188,129.212198 9.31633647,126.87068 C9.04420941,126.475937 8.46082118,126.475937 8.18869412,126.87068 L8.18869412,126.87068 Z"></path>
                <path d="M8.18869412,1.87067959 C6.5726,4.21471224 1.94462824,10.9418633 0.453908235,13.2629082 C0.269832941,13.5495367 0.329983529,13.9245245 0.595588235,14.1396755 C0.952505882,14.4295367 1.45436471,14.8149408 1.83918353,15.1073163 C2.11167294,15.3145653 2.49214353,15.3016347 2.75195059,15.0785816 C5.40002588,12.8035122 5.95007765,12.3832673 7.57595529,10.9109735 C8.21442118,10.3326878 9.19458588,10.3287367 9.83921176,10.8998388 C11.9640494,12.781602 12.9148635,13.5218796 14.6878565,15.0807367 C14.9433153,15.3052265 15.3216118,15.321749 15.5959129,15.1198878 C15.9945012,14.8264347 16.521,14.4352837 16.8949482,14.1439857 C17.1692494,13.9306306 17.23556,13.5491776 17.0482235,13.2578796 C15.5498941,10.9267776 10.9306188,4.21219796 9.31633647,1.87067959 C9.04420941,1.47593673 8.46082118,1.47593673 8.18869412,1.87067959 L8.18869412,1.87067959 Z" transform="translate(8.751048, 8.417749) rotate(90.000000) translate(-8.751048, -8.417749) "></path>
                <path d="M8.18869412,251.87068 C6.5726,254.214712 1.94462824,260.941863 0.453908235,263.262908 C0.269832941,263.549537 0.329983529,263.924524 0.595588235,264.139676 C0.952505882,264.429537 1.45436471,264.814941 1.83918353,265.107316 C2.11167294,265.314565 2.49214353,265.301635 2.75195059,265.078582 C5.40002588,262.803512 5.95007765,262.383267 7.57595529,260.910973 C8.21442118,260.332688 9.19458588,260.328737 9.83921176,260.899839 C11.9640494,262.781602 12.9148635,263.52188 14.6878565,265.080737 C14.9433153,265.305227 15.3216118,265.321749 15.5959129,265.119888 C15.9945012,264.826435 16.521,264.435284 16.8949482,264.143986 C17.1692494,263.930631 17.23556,263.549178 17.0482235,263.25788 C15.5498941,260.926778 10.9306188,254.212198 9.31633647,251.87068 C9.04420941,251.475937 8.46082118,251.475937 8.18869412,251.87068 L8.18869412,251.87068 Z" transform="translate(8.751048, 258.417749) rotate(90.000000) translate(-8.751048, -258.417749) "></path>
                <path d="M70.6886941,64.3706796 C69.0726,66.7147122 64.4446282,73.4418633 62.9539082,75.7629082 C62.7698329,76.0495367 62.8299835,76.4245245 63.0955882,76.6396755 C63.4525059,76.9295367 63.9543647,77.3149408 64.3391835,77.6073163 C64.6116729,77.8145653 64.9921435,77.8016347 65.2519506,77.5785816 C67.9000259,75.3035122 68.4500776,74.8832673 70.0759553,73.4109735 C70.7144212,72.8326878 71.6945859,72.8287367 72.3392118,73.3998388 C74.4640494,75.281602 75.4148635,76.0218796 77.1878565,77.5807367 C77.4433153,77.8052265 77.8216118,77.821749 78.0959129,77.6198878 C78.4945012,77.3264347 79.021,76.9352837 79.3949482,76.6439857 C79.6692494,76.4306306 79.73556,76.0491776 79.5482235,75.7578796 C78.0498941,73.4267776 73.4306188,66.712198 71.8163365,64.3706796 C71.5442094,63.9759367 70.9608212,63.9759367 70.6886941,64.3706796 L70.6886941,64.3706796 Z"></path>
                <path d="M133.188694,126.87068 C131.5726,129.214712 126.944628,135.941863 125.453908,138.262908 C125.269833,138.549537 125.329984,138.924524 125.595588,139.139676 C125.952506,139.429537 126.454365,139.814941 126.839184,140.107316 C127.111673,140.314565 127.492144,140.301635 127.751951,140.078582 C130.400026,137.803512 130.950078,137.383267 132.575955,135.910973 C133.214421,135.332688 134.194586,135.328737 134.839212,135.899839 C136.964049,137.781602 137.914864,138.52188 139.687856,140.080737 C139.943315,140.305227 140.321612,140.321749 140.595913,140.119888 C140.994501,139.826435 141.521,139.435284 141.894948,139.143986 C142.169249,138.930631 142.23556,138.549178 142.048224,138.25788 C140.549894,135.926778 135.930619,129.212198 134.316336,126.87068 C134.044209,126.475937 133.460821,126.475937 133.188694,126.87068 L133.188694,126.87068 Z" transform="translate(133.751048, 133.417749) rotate(90.000000) translate(-133.751048, -133.417749) "></path>
                <path d="M195.688694,189.37068 C194.0726,191.714712 189.444628,198.441863 187.953908,200.762908 C187.769833,201.049537 187.829984,201.424524 188.095588,201.639676 C188.452506,201.929537 188.954365,202.314941 189.339184,202.607316 C189.611673,202.814565 189.992144,202.801635 190.251951,202.578582 C192.900026,200.303512 193.450078,199.883267 195.075955,198.410973 C195.714421,197.832688 196.694586,197.828737 197.339212,198.399839 C199.464049,200.281602 200.414864,201.02188 202.187856,202.580737 C202.443315,202.805227 202.821612,202.821749 203.095913,202.619888 C203.494501,202.326435 204.021,201.935284 204.394948,201.643986 C204.669249,201.430631 204.73556,201.049178 204.548224,200.75788 C203.049894,198.426778 198.430619,191.712198 196.816336,189.37068 C196.544209,188.975937 195.960821,188.975937 195.688694,189.37068 L195.688694,189.37068 Z" transform="translate(196.251048, 195.917749) rotate(-45.000000) translate(-196.251048, -195.917749) "></path>
                <path d="M133.188694,1.87067959 C131.5726,4.21471224 126.944628,10.9418633 125.453908,13.2629082 C125.269833,13.5495367 125.329984,13.9245245 125.595588,14.1396755 C125.952506,14.4295367 126.454365,14.8149408 126.839184,15.1073163 C127.111673,15.3145653 127.492144,15.3016347 127.751951,15.0785816 C130.400026,12.8035122 130.950078,12.3832673 132.575955,10.9109735 C133.214421,10.3326878 134.194586,10.3287367 134.839212,10.8998388 C136.964049,12.781602 137.914864,13.5218796 139.687856,15.0807367 C139.943315,15.3052265 140.321612,15.321749 140.595913,15.1198878 C140.994501,14.8264347 141.521,14.4352837 141.894948,14.1439857 C142.169249,13.9306306 142.23556,13.5491776 142.048224,13.2578796 C140.549894,10.9267776 135.930619,4.21219796 134.316336,1.87067959 C134.044209,1.47593673 133.460821,1.47593673 133.188694,1.87067959 L133.188694,1.87067959 Z"></path>
                <path d="M195.688694,64.3706796 C194.0726,66.7147122 189.444628,73.4418633 187.953908,75.7629082 C187.769833,76.0495367 187.829984,76.4245245 188.095588,76.6396755 C188.452506,76.9295367 188.954365,77.3149408 189.339184,77.6073163 C189.611673,77.8145653 189.992144,77.8016347 190.251951,77.5785816 C192.900026,75.3035122 193.450078,74.8832673 195.075955,73.4109735 C195.714421,72.8326878 196.694586,72.8287367 197.339212,73.3998388 C199.464049,75.281602 200.414864,76.0218796 202.187856,77.5807367 C202.443315,77.8052265 202.821612,77.821749 203.095913,77.6198878 C203.494501,77.3264347 204.021,76.9352837 204.394948,76.6439857 C204.669249,76.4306306 204.73556,76.0491776 204.548224,75.7578796 C203.049894,73.4267776 198.430619,66.712198 196.816336,64.3706796 C196.544209,63.9759367 195.960821,63.9759367 195.688694,64.3706796 L195.688694,64.3706796 Z"></path>
                <path d="M70.6886941,189.37068 C69.0726,191.714712 64.4446282,198.441863 62.9539082,200.762908 C62.7698329,201.049537 62.8299835,201.424524 63.0955882,201.639676 C63.4525059,201.929537 63.9543647,202.314941 64.3391835,202.607316 C64.6116729,202.814565 64.9921435,202.801635 65.2519506,202.578582 C67.9000259,200.303512 68.4500776,199.883267 70.0759553,198.410973 C70.7144212,197.832688 71.6945859,197.828737 72.3392118,198.399839 C74.4640494,200.281602 75.4148635,201.02188 77.1878565,202.580737 C77.4433153,202.805227 77.8216118,202.821749 78.0959129,202.619888 C78.4945012,202.326435 79.021,201.935284 79.3949482,201.643986 C79.6692494,201.430631 79.73556,201.049178 79.5482235,200.75788 C78.0498941,198.426778 73.4306188,191.712198 71.8163365,189.37068 C71.5442094,188.975937 70.9608212,188.975937 70.6886941,189.37068 L70.6886941,189.37068 Z"></path>
                <path d="M133.188694,251.87068 C131.5726,254.214712 126.944628,260.941863 125.453908,263.262908 C125.269833,263.549537 125.329984,263.924524 125.595588,264.139676 C125.952506,264.429537 126.454365,264.814941 126.839184,265.107316 C127.111673,265.314565 127.492144,265.301635 127.751951,265.078582 C130.400026,262.803512 130.950078,262.383267 132.575955,260.910973 C133.214421,260.332688 134.194586,260.328737 134.839212,260.899839 C136.964049,262.781602 137.914864,263.52188 139.687856,265.080737 C139.943315,265.305227 140.321612,265.321749 140.595913,265.119888 C140.994501,264.826435 141.521,264.435284 141.894948,264.143986 C142.169249,263.930631 142.23556,263.549178 142.048224,263.25788 C140.549894,260.926778 135.930619,254.212198 134.316336,251.87068 C134.044209,251.475937 133.460821,251.475937 133.188694,251.87068 L133.188694,251.87068 Z" transform="translate(133.751048, 258.417749) rotate(90.000000) translate(-133.751048, -258.417749) "></path>
                <path d="M195.688694,314.37068 C194.0726,316.714712 189.444628,323.441863 187.953908,325.762908 C187.769833,326.049537 187.829984,326.424524 188.095588,326.639676 C188.452506,326.929537 188.954365,327.314941 189.339184,327.607316 C189.611673,327.814565 189.992144,327.801635 190.251951,327.578582 C192.900026,325.303512 193.450078,324.883267 195.075955,323.410973 C195.714421,322.832688 196.694586,322.828737 197.339212,323.399839 C199.464049,325.281602 200.414864,326.02188 202.187856,327.580737 C202.443315,327.805227 202.821612,327.821749 203.095913,327.619888 C203.494501,327.326435 204.021,326.935284 204.394948,326.643986 C204.669249,326.430631 204.73556,326.049178 204.548224,325.75788 C203.049894,323.426778 198.430619,316.712198 196.816336,314.37068 C196.544209,313.975937 195.960821,313.975937 195.688694,314.37068 L195.688694,314.37068 Z" transform="translate(196.251048, 320.917749) rotate(-90.000000) translate(-196.251048, -320.917749) "></path>
                <path d="M70.6886941,314.37068 C69.0726,316.714712 64.4446282,323.441863 62.9539082,325.762908 C62.7698329,326.049537 62.8299835,326.424524 63.0955882,326.639676 C63.4525059,326.929537 63.9543647,327.314941 64.3391835,327.607316 C64.6116729,327.814565 64.9921435,327.801635 65.2519506,327.578582 C67.9000259,325.303512 68.4500776,324.883267 70.0759553,323.410973 C70.7144212,322.832688 71.6945859,322.828737 72.3392118,323.399839 C74.4640494,325.281602 75.4148635,326.02188 77.1878565,327.580737 C77.4433153,327.805227 77.8216118,327.821749 78.0959129,327.619888 C78.4945012,327.326435 79.021,326.935284 79.3949482,326.643986 C79.6692494,326.430631 79.73556,326.049178 79.5482235,325.75788 C78.0498941,323.426778 73.4306188,316.712198 71.8163365,314.37068 C71.5442094,313.975937 70.9608212,313.975937 70.6886941,314.37068 L70.6886941,314.37068 Z" transform="translate(71.251048, 320.917749) rotate(-45.000000) translate(-71.251048, -320.917749) "></path>
                <path d="M258.188694,126.87068 C256.5726,129.214712 251.944628,135.941863 250.453908,138.262908 C250.269833,138.549537 250.329984,138.924524 250.595588,139.139676 C250.952506,139.429537 251.454365,139.814941 251.839184,140.107316 C252.111673,140.314565 252.492144,140.301635 252.751951,140.078582 C255.400026,137.803512 255.950078,137.383267 257.575955,135.910973 C258.214421,135.332688 259.194586,135.328737 259.839212,135.899839 C261.964049,137.781602 262.914864,138.52188 264.687856,140.080737 C264.943315,140.305227 265.321612,140.321749 265.595913,140.119888 C265.994501,139.826435 266.521,139.435284 266.894948,139.143986 C267.169249,138.930631 267.23556,138.549178 267.048224,138.25788 C265.549894,135.926778 260.930619,129.212198 259.316336,126.87068 C259.044209,126.475937 258.460821,126.475937 258.188694,126.87068 L258.188694,126.87068 Z" transform="translate(258.751048, 133.417749) rotate(90.000000) translate(-258.751048, -133.417749) "></path>
                <path d="M320.688694,189.37068 C319.0726,191.714712 314.444628,198.441863 312.953908,200.762908 C312.769833,201.049537 312.829984,201.424524 313.095588,201.639676 C313.452506,201.929537 313.954365,202.314941 314.339184,202.607316 C314.611673,202.814565 314.992144,202.801635 315.251951,202.578582 C317.900026,200.303512 318.450078,199.883267 320.075955,198.410973 C320.714421,197.832688 321.694586,197.828737 322.339212,198.399839 C324.464049,200.281602 325.414864,201.02188 327.187856,202.580737 C327.443315,202.805227 327.821612,202.821749 328.095913,202.619888 C328.494501,202.326435 329.021,201.935284 329.394948,201.643986 C329.669249,201.430631 329.73556,201.049178 329.548224,200.75788 C328.049894,198.426778 323.430619,191.712198 321.816336,189.37068 C321.544209,188.975937 320.960821,188.975937 320.688694,189.37068 L320.688694,189.37068 Z"></path>
                <path d="M258.188694,1.87067959 C256.5726,4.21471224 251.944628,10.9418633 250.453908,13.2629082 C250.269833,13.5495367 250.329984,13.9245245 250.595588,14.1396755 C250.952506,14.4295367 251.454365,14.8149408 251.839184,15.1073163 C252.111673,15.3145653 252.492144,15.3016347 252.751951,15.0785816 C255.400026,12.8035122 255.950078,12.3832673 257.575955,10.9109735 C258.214421,10.3326878 259.194586,10.3287367 259.839212,10.8998388 C261.964049,12.781602 262.914864,13.5218796 264.687856,15.0807367 C264.943315,15.3052265 265.321612,15.321749 265.595913,15.1198878 C265.994501,14.8264347 266.521,14.4352837 266.894948,14.1439857 C267.169249,13.9306306 267.23556,13.5491776 267.048224,13.2578796 C265.549894,10.9267776 260.930619,4.21219796 259.316336,1.87067959 C259.044209,1.47593673 258.460821,1.47593673 258.188694,1.87067959 L258.188694,1.87067959 Z" transform="translate(258.751048, 8.417749) rotate(90.000000) translate(-258.751048, -8.417749) "></path>
                <path d="M320.688694,64.3706796 C319.0726,66.7147122 314.444628,73.4418633 312.953908,75.7629082 C312.769833,76.0495367 312.829984,76.4245245 313.095588,76.6396755 C313.452506,76.9295367 313.954365,77.3149408 314.339184,77.6073163 C314.611673,77.8145653 314.992144,77.8016347 315.251951,77.5785816 C317.900026,75.3035122 318.450078,74.8832673 320.075955,73.4109735 C320.714421,72.8326878 321.694586,72.8287367 322.339212,73.3998388 C324.464049,75.281602 325.414864,76.0218796 327.187856,77.5807367 C327.443315,77.8052265 327.821612,77.821749 328.095913,77.6198878 C328.494501,77.3264347 329.021,76.9352837 329.394948,76.6439857 C329.669249,76.4306306 329.73556,76.0491776 329.548224,75.7578796 C328.049894,73.4267776 323.430619,66.712198 321.816336,64.3706796 C321.544209,63.9759367 320.960821,63.9759367 320.688694,64.3706796 L320.688694,64.3706796 Z" transform="translate(321.251048, 70.917749) rotate(-90.000000) translate(-321.251048, -70.917749) "></path>
                <path d="M258.188694,251.87068 C256.5726,254.214712 251.944628,260.941863 250.453908,263.262908 C250.269833,263.549537 250.329984,263.924524 250.595588,264.139676 C250.952506,264.429537 251.454365,264.814941 251.839184,265.107316 C252.111673,265.314565 252.492144,265.301635 252.751951,265.078582 C255.400026,262.803512 255.950078,262.383267 257.575955,260.910973 C258.214421,260.332688 259.194586,260.328737 259.839212,260.899839 C261.964049,262.781602 262.914864,263.52188 264.687856,265.080737 C264.943315,265.305227 265.321612,265.321749 265.595913,265.119888 C265.994501,264.826435 266.521,264.435284 266.894948,264.143986 C267.169249,263.930631 267.23556,263.549178 267.048224,263.25788 C265.549894,260.926778 260.930619,254.212198 259.316336,251.87068 C259.044209,251.475937 258.460821,251.475937 258.188694,251.87068 L258.188694,251.87068 Z"></path>
                <path d="M320.688694,314.37068 C319.0726,316.714712 314.444628,323.441863 312.953908,325.762908 C312.769833,326.049537 312.829984,326.424524 313.095588,326.639676 C313.452506,326.929537 313.954365,327.314941 314.339184,327.607316 C314.611673,327.814565 314.992144,327.801635 315.251951,327.578582 C317.900026,325.303512 318.450078,324.883267 320.075955,323.410973 C320.714421,322.832688 321.694586,322.828737 322.339212,323.399839 C324.464049,325.281602 325.414864,326.02188 327.187856,327.580737 C327.443315,327.805227 327.821612,327.821749 328.095913,327.619888 C328.494501,327.326435 329.021,326.935284 329.394948,326.643986 C329.669249,326.430631 329.73556,326.049178 329.548224,325.75788 C328.049894,323.426778 323.430619,316.712198 321.816336,314.37068 C321.544209,313.975937 320.960821,313.975937 320.688694,314.37068 L320.688694,314.37068 Z" transform="translate(321.251048, 320.917749) rotate(-90.000000) translate(-321.251048, -320.917749) "></path>
            </g>
        </g>
    </g>
</svg>