<svg id="Layer_1" data-name="Layer 1" xmlns="http://www.w3.org/2000/svg" viewBox="0 0 393 383">
  <defs>
    <style>
      .cls-2{fill:#999}
    </style>
  </defs>
  <g opacity=".1">
    <path class="cls-2" d="M359.81 161.87c1.62 2.34 6.25 9.07 7.74 11.39a.67.67 0 0 1-.15.88c-.35.29-.85.67-1.24 1a.74.74 0 0 1-.91 0c-2.65-2.28-3.2-2.7-4.83-4.17a1.7 1.7 0 0 0-2.26 0c-2.12 1.88-3.07 2.62-4.85 4.18a.72.72 0 0 1-.91 0c-.39-.29-.92-.68-1.29-1a.65.65 0 0 1-.16-.88c1.5-2.33 6.12-9 7.73-11.39a.69.69 0 0 1 1.13 0zM352.7 42.86c2.35-1.62 9.07-6.25 11.39-7.74a.68.68 0 0 1 .88.14c.29.36.68.86 1 1.25a.72.72 0 0 1 0 .91c-2.28 2.65-2.7 3.2-4.17 4.82a1.71 1.71 0 0 0 0 2.27c1.88 2.12 2.62 3.07 4.18 4.84a.72.72 0 0 1 0 .91c-.29.4-.68.93-1 1.3a.66.66 0 0 1-.89.15c-2.33-1.49-9-6.11-11.39-7.73a.68.68 0 0 1 0-1.12zM352.7 292.86c2.35-1.62 9.07-6.25 11.39-7.74a.68.68 0 0 1 .88.14c.29.36.68.86 1 1.25a.72.72 0 0 1 0 .91c-2.28 2.65-2.7 3.2-4.17 4.82a1.71 1.71 0 0 0 0 2.27c1.88 2.12 2.62 3.07 4.18 4.84a.72.72 0 0 1 0 .91c-.29.4-.68.93-1 1.3a.66.66 0 0 1-.89.15c-2.33-1.49-9-6.11-11.39-7.73a.68.68 0 0 1 0-1.12zM297.31 99.37c1.62 2.34 6.25 9.07 7.74 11.39a.67.67 0 0 1-.15.88c-.35.29-.85.67-1.24 1a.74.74 0 0 1-.91 0c-2.65-2.28-3.2-2.7-4.83-4.17a1.7 1.7 0 0 0-2.26 0c-2.12 1.88-3.07 2.62-4.85 4.18a.72.72 0 0 1-.91 0c-.39-.29-.92-.68-1.29-1a.65.65 0 0 1-.16-.88c1.5-2.33 6.12-9.05 7.73-11.39a.69.69 0 0 1 1.13 0zM227.7 167.86c2.35-1.62 9.07-6.25 11.39-7.74a.68.68 0 0 1 .88.14c.29.36.68.86 1 1.25a.72.72 0 0 1 0 .91c-2.28 2.65-2.7 3.2-4.17 4.82a1.71 1.71 0 0 0 0 2.27c1.88 2.12 2.62 3.07 4.18 4.84a.72.72 0 0 1 0 .91c-.29.4-.68.93-1 1.3a.66.66 0 0 1-.89.15c-2.33-1.49-9.05-6.11-11.39-7.73a.68.68 0 0 1 0-1.12zM176.78 226.69c-.52 2.8-2 10.83-2.59 13.52a.66.66 0 0 1-.72.52l-1.56-.19a.74.74 0 0 1-.63-.67c-.26-3.48-.35-4.17-.46-6.36a1.72 1.72 0 0 0-1.6-1.61c-2.83-.17-4-.32-6.38-.47a.72.72 0 0 1-.67-.61c-.07-.49-.17-1.14-.23-1.61a.67.67 0 0 1 .52-.74c2.71-.59 10.72-2.07 13.52-2.58a.69.69 0 0 1 .8.8zM234.81 36.87c1.62 2.34 6.25 9.07 7.74 11.39a.67.67 0 0 1-.15.88c-.35.29-.85.67-1.24 1a.74.74 0 0 1-.91 0c-2.65-2.28-3.2-2.7-4.83-4.17a1.7 1.7 0 0 0-2.26 0c-2.12 1.88-3.07 2.62-4.85 4.18a.72.72 0 0 1-.91 0c-.39-.29-.92-.68-1.29-1a.65.65 0 0 1-.16-.88c1.5-2.33 6.12-9 7.73-11.39a.69.69 0 0 1 1.13 0zM172.31 99.37c1.62 2.34 6.25 9.07 7.74 11.39a.67.67 0 0 1-.15.88c-.35.29-.85.67-1.24 1a.74.74 0 0 1-.91 0c-2.65-2.28-3.2-2.7-4.83-4.17a1.7 1.7 0 0 0-2.26 0c-2.12 1.88-3.07 2.62-4.85 4.18a.72.72 0 0 1-.91 0c-.39-.29-.92-.68-1.29-1a.65.65 0 0 1-.16-.88c1.5-2.33 6.12-9.05 7.73-11.39a.69.69 0 0 1 1.13 0zM297.31 224.37c1.62 2.34 6.25 9.07 7.74 11.39a.67.67 0 0 1-.15.88c-.35.29-.85.67-1.24 1a.74.74 0 0 1-.91 0c-2.65-2.28-3.2-2.7-4.83-4.17a1.7 1.7 0 0 0-2.26 0c-2.12 1.88-3.07 2.62-4.85 4.18a.72.72 0 0 1-.91 0c-.39-.29-.92-.68-1.29-1a.65.65 0 0 1-.16-.88c1.5-2.33 6.12-9 7.73-11.39a.69.69 0 0 1 1.13 0zM227.7 292.86c2.35-1.62 9.07-6.25 11.39-7.74a.68.68 0 0 1 .88.14c.29.36.68.86 1 1.25a.72.72 0 0 1 0 .91c-2.28 2.65-2.7 3.2-4.17 4.82a1.71 1.71 0 0 0 0 2.27c1.88 2.12 2.62 3.07 4.18 4.84a.72.72 0 0 1 0 .91c-.29.4-.68.93-1 1.3a.66.66 0 0 1-.89.15c-2.33-1.49-9.05-6.11-11.39-7.73a.68.68 0 0 1 0-1.12zM178.3 356.48c-2.35 1.62-9.08 6.24-11.4 7.73a.64.64 0 0 1-.87-.14c-.29-.35-.68-.86-1-1.24a.72.72 0 0 1 0-.91c2.27-2.65 2.69-3.2 4.17-4.83a1.71 1.71 0 0 0 0-2.26c-1.88-2.13-2.63-3.08-4.18-4.85a.71.71 0 0 1 0-.91c.29-.4.68-.92 1-1.3a.67.67 0 0 1 .89-.15c2.33 1.5 9 6.12 11.39 7.73a.69.69 0 0 1 0 1.13zM301.78 351.69c-.52 2.8-2 10.83-2.59 13.52a.66.66 0 0 1-.72.52l-1.56-.19a.74.74 0 0 1-.63-.67c-.26-3.48-.35-4.17-.46-6.36a1.72 1.72 0 0 0-1.6-1.61c-2.83-.17-4-.32-6.38-.47a.72.72 0 0 1-.67-.61c-.07-.49-.17-1.14-.23-1.61a.67.67 0 0 1 .52-.74c2.71-.59 10.72-2.07 13.52-2.58a.69.69 0 0 1 .8.8zM102.7 167.86c2.35-1.62 9.07-6.25 11.39-7.74a.68.68 0 0 1 .88.14c.29.36.68.86 1 1.25a.72.72 0 0 1 0 .91c-2.28 2.65-2.7 3.2-4.17 4.82a1.71 1.71 0 0 0 0 2.27c1.88 2.12 2.62 3.07 4.18 4.84a.72.72 0 0 1 0 .91c-.29.4-.68.93-1 1.3a.66.66 0 0 1-.89.15c-2.33-1.49-9-6.11-11.39-7.73a.68.68 0 0 1 0-1.12zM47.31 224.37c1.62 2.34 6.25 9.07 7.74 11.39a.67.67 0 0 1-.15.88c-.35.29-.85.67-1.24 1a.74.74 0 0 1-.91 0c-2.65-2.28-3.2-2.7-4.83-4.17a1.7 1.7 0 0 0-2.26 0c-2.12 1.88-3.07 2.62-4.85 4.18a.72.72 0 0 1-.91 0c-.39-.29-.92-.68-1.29-1a.65.65 0 0 1-.16-.88c1.5-2.33 6.12-9 7.73-11.39a.69.69 0 0 1 1.13 0zM102.7 42.86c2.35-1.62 9.07-6.25 11.39-7.74a.68.68 0 0 1 .88.14c.29.36.68.86 1 1.25a.72.72 0 0 1 0 .91c-2.28 2.65-2.7 3.2-4.17 4.82a1.71 1.71 0 0 0 0 2.27c1.88 2.12 2.62 3.07 4.18 4.84a.72.72 0 0 1 0 .91c-.29.4-.68.93-1 1.3a.66.66 0 0 1-.89.15c-2.33-1.49-9-6.11-11.39-7.73a.68.68 0 0 1 0-1.12zM53.3 106.48c-2.35 1.62-9.08 6.24-11.4 7.73a.64.64 0 0 1-.87-.14c-.29-.35-.68-.86-1-1.24a.72.72 0 0 1 0-.91c2.27-2.65 2.69-3.2 4.17-4.83a1.71 1.71 0 0 0 0-2.26c-1.88-2.13-2.63-3.08-4.18-4.85a.71.71 0 0 1 0-.91c.29-.4.68-.92 1-1.3a.67.67 0 0 1 .89-.15c2.33 1.5 9 6.12 11.39 7.73a.69.69 0 0 1 0 1.13zM109.81 286.87c1.62 2.34 6.25 9.07 7.74 11.39a.67.67 0 0 1-.15.88c-.35.29-.85.67-1.24 1a.74.74 0 0 1-.91 0c-2.65-2.28-3.2-2.7-4.83-4.17a1.7 1.7 0 0 0-2.26 0c-2.12 1.88-3.07 2.62-4.85 4.18a.72.72 0 0 1-.91 0c-.39-.29-.92-.68-1.29-1a.65.65 0 0 1-.16-.88c1.5-2.33 6.12-9.05 7.73-11.39a.69.69 0 0 1 1.13 0zM53.3 356.48c-2.35 1.62-9.08 6.24-11.4 7.73a.64.64 0 0 1-.87-.14c-.29-.35-.68-.86-1-1.24a.72.72 0 0 1 0-.91c2.27-2.65 2.69-3.2 4.17-4.83a1.71 1.71 0 0 0 0-2.26c-1.88-2.13-2.63-3.08-4.18-4.85a.71.71 0 0 1 0-.91c.29-.4.68-.92 1-1.3a.67.67 0 0 1 .89-.15c2.33 1.5 9 6.12 11.39 7.73a.69.69 0 0 1 0 1.13z"/>
  </g>
</svg>
