<svg width="94" height="94" viewBox="0 0 94 94">
  <defs>
    <linearGradient id="upcase-logo--hero-a" x1="50%" x2="50%" y1="0%" y2="84.287%">
      <stop offset="0%" stop-color="#3FBCFF"/>
      <stop offset="100%" stop-color="#A2F6F9"/>
    </linearGradient>
  </defs>
  <g fill="none" fill-rule="evenodd" transform="translate(.5 .625)">
    <rect width="93" height="93" fill="#9EF4F9" fill-opacity=".088" rx="46.5"/>
    <path fill="url(#upcase-logo--hero-a)" d="M19.8163397,61.3795101 C19.2272988,62.2967215 19.4197807,63.4966823 20.2697157,64.1851656 C21.4118522,65.1127215 23.0178004,66.3460146 24.2492207,67.2816162 C25.1211868,67.9448129 26.3386927,67.903435 27.1700753,67.1896652 C35.6439162,59.9094432 37.4040818,58.5646595 42.6068903,53.8533191 C44.6499811,52.0028048 47.7865082,51.9901615 49.849311,53.8176881 C56.6487915,59.8393305 59.6913967,62.2082187 65.3649741,67.1965615 C66.1824423,67.9149289 67.392991,67.9678007 68.2707548,67.3218448 C69.5462371,66.382795 71.2310334,65.1311117 72.4276677,64.1989583 C73.3054315,63.5162219 73.5176254,62.2955721 72.9181487,61.3634187 C68.1234946,53.9038921 53.3418136,32.4172374 48.1761101,24.9243787 C47.3053035,23.6612015 45.4384611,23.6612015 44.5676546,24.9243787 C39.3961534,32.4252832 24.5866437,53.9521664 19.8163397,61.3795101 Z"/>
  </g>
</svg>
