<?xml version="1.0" encoding="UTF-8"?>
<svg width="393px" height="383px" viewBox="0 0 393 383" version="1.1" xmlns="http://www.w3.org/2000/svg" xmlns:xlink="http://www.w3.org/1999/xlink">
    <!-- Generator: Sketch 42 (36781) - http://www.bohemiancoding.com/sketch -->
    <title>upcase-background--swift</title>
    <desc>Created with Sketch.</desc>
    <defs></defs>
    <g stroke="none" stroke-width="1" fill="none" fill-rule="evenodd" fill-opacity="0.123669611">
        <g fill="#F77C1A">
            <path d="M358.686598,161.87068 C357.070504,164.214712 352.442532,170.941863 350.951812,173.262908 C350.767737,173.549537 350.827887,173.924524 351.093492,174.139676 C351.45041,174.429537 351.952268,174.814941 352.337087,175.107316 C352.609577,175.314565 352.990047,175.301635 353.249854,175.078582 C355.89793,172.803512 356.447981,172.383267 358.073859,170.910973 C358.712325,170.332688 359.69249,170.328737 360.337115,170.899839 C362.461953,172.781602 363.412767,173.52188 365.18576,175.080737 C365.441219,175.305227 365.819515,175.321749 366.093817,175.119888 C366.492405,174.826435 367.018904,174.435284 367.392852,174.143986 C367.667153,173.930631 367.733464,173.549178 367.546127,173.25788 C366.047798,170.926778 361.428522,164.212198 359.81424,161.87068 C359.542113,161.475937 358.958725,161.475937 358.686598,161.87068 L358.686598,161.87068 Z" transform="translate(359.248952, 168.417749) scale(-1, 1) translate(-359.248952, -168.417749) "></path>
            <path d="M358.686598,36.8706796 C357.070504,39.2147122 352.442532,45.9418633 350.951812,48.2629082 C350.767737,48.5495367 350.827887,48.9245245 351.093492,49.1396755 C351.45041,49.4295367 351.952268,49.8149408 352.337087,50.1073163 C352.609577,50.3145653 352.990047,50.3016347 353.249854,50.0785816 C355.89793,47.8035122 356.447981,47.3832673 358.073859,45.9109735 C358.712325,45.3326878 359.69249,45.3287367 360.337115,45.8998388 C362.461953,47.781602 363.412767,48.5218796 365.18576,50.0807367 C365.441219,50.3052265 365.819515,50.321749 366.093817,50.1198878 C366.492405,49.8264347 367.018904,49.4352837 367.392852,49.1439857 C367.667153,48.9306306 367.733464,48.5491776 367.546127,48.2578796 C366.047798,45.9267776 361.428522,39.212198 359.81424,36.8706796 C359.542113,36.4759367 358.958725,36.4759367 358.686598,36.8706796 L358.686598,36.8706796 Z" transform="translate(359.248952, 43.417749) scale(-1, 1) rotate(90.000000) translate(-359.248952, -43.417749) "></path>
            <path d="M358.686598,286.87068 C357.070504,289.214712 352.442532,295.941863 350.951812,298.262908 C350.767737,298.549537 350.827887,298.924524 351.093492,299.139676 C351.45041,299.429537 351.952268,299.814941 352.337087,300.107316 C352.609577,300.314565 352.990047,300.301635 353.249854,300.078582 C355.89793,297.803512 356.447981,297.383267 358.073859,295.910973 C358.712325,295.332688 359.69249,295.328737 360.337115,295.899839 C362.461953,297.781602 363.412767,298.52188 365.18576,300.080737 C365.441219,300.305227 365.819515,300.321749 366.093817,300.119888 C366.492405,299.826435 367.018904,299.435284 367.392852,299.143986 C367.667153,298.930631 367.733464,298.549178 367.546127,298.25788 C366.047798,295.926778 361.428522,289.212198 359.81424,286.87068 C359.542113,286.475937 358.958725,286.475937 358.686598,286.87068 L358.686598,286.87068 Z" transform="translate(359.248952, 293.417749) scale(-1, 1) rotate(90.000000) translate(-359.248952, -293.417749) "></path>
            <path d="M296.186598,99.3706796 C294.570504,101.714712 289.942532,108.441863 288.451812,110.762908 C288.267737,111.049537 288.327887,111.424524 288.593492,111.639676 C288.95041,111.929537 289.452268,112.314941 289.837087,112.607316 C290.109577,112.814565 290.490047,112.801635 290.749854,112.578582 C293.39793,110.303512 293.947981,109.883267 295.573859,108.410973 C296.212325,107.832688 297.19249,107.828737 297.837115,108.399839 C299.961953,110.281602 300.912767,111.02188 302.68576,112.580737 C302.941219,112.805227 303.319515,112.821749 303.593817,112.619888 C303.992405,112.326435 304.518904,111.935284 304.892852,111.643986 C305.167153,111.430631 305.233464,111.049178 305.046127,110.75788 C303.547798,108.426778 298.928522,101.712198 297.31424,99.3706796 C297.042113,98.9759367 296.458725,98.9759367 296.186598,99.3706796 L296.186598,99.3706796 Z" transform="translate(296.748952, 105.917749) scale(-1, 1) translate(-296.748952, -105.917749) "></path>
            <path d="M233.686598,161.87068 C232.070504,164.214712 227.442532,170.941863 225.951812,173.262908 C225.767737,173.549537 225.827887,173.924524 226.093492,174.139676 C226.45041,174.429537 226.952268,174.814941 227.337087,175.107316 C227.609577,175.314565 227.990047,175.301635 228.249854,175.078582 C230.89793,172.803512 231.447981,172.383267 233.073859,170.910973 C233.712325,170.332688 234.69249,170.328737 235.337115,170.899839 C237.461953,172.781602 238.412767,173.52188 240.18576,175.080737 C240.441219,175.305227 240.819515,175.321749 241.093817,175.119888 C241.492405,174.826435 242.018904,174.435284 242.392852,174.143986 C242.667153,173.930631 242.733464,173.549178 242.546127,173.25788 C241.047798,170.926778 236.428522,164.212198 234.81424,161.87068 C234.542113,161.475937 233.958725,161.475937 233.686598,161.87068 L233.686598,161.87068 Z" transform="translate(234.248952, 168.417749) scale(-1, 1) rotate(90.000000) translate(-234.248952, -168.417749) "></path>
            <path d="M171.186598,224.37068 C169.570504,226.714712 164.942532,233.441863 163.451812,235.762908 C163.267737,236.049537 163.327887,236.424524 163.593492,236.639676 C163.95041,236.929537 164.452268,237.314941 164.837087,237.607316 C165.109577,237.814565 165.490047,237.801635 165.749854,237.578582 C168.39793,235.303512 168.947981,234.883267 170.573859,233.410973 C171.212325,232.832688 172.19249,232.828737 172.837115,233.399839 C174.961953,235.281602 175.912767,236.02188 177.68576,237.580737 C177.941219,237.805227 178.319515,237.821749 178.593817,237.619888 C178.992405,237.326435 179.518904,236.935284 179.892852,236.643986 C180.167153,236.430631 180.233464,236.049178 180.046127,235.75788 C178.547798,233.426778 173.928522,226.712198 172.31424,224.37068 C172.042113,223.975937 171.458725,223.975937 171.186598,224.37068 L171.186598,224.37068 Z" transform="translate(171.748952, 230.917749) scale(-1, 1) rotate(-45.000000) translate(-171.748952, -230.917749) "></path>
            <path d="M233.686598,36.8706796 C232.070504,39.2147122 227.442532,45.9418633 225.951812,48.2629082 C225.767737,48.5495367 225.827887,48.9245245 226.093492,49.1396755 C226.45041,49.4295367 226.952268,49.8149408 227.337087,50.1073163 C227.609577,50.3145653 227.990047,50.3016347 228.249854,50.0785816 C230.89793,47.8035122 231.447981,47.3832673 233.073859,45.9109735 C233.712325,45.3326878 234.69249,45.3287367 235.337115,45.8998388 C237.461953,47.781602 238.412767,48.5218796 240.18576,50.0807367 C240.441219,50.3052265 240.819515,50.321749 241.093817,50.1198878 C241.492405,49.8264347 242.018904,49.4352837 242.392852,49.1439857 C242.667153,48.9306306 242.733464,48.5491776 242.546127,48.2578796 C241.047798,45.9267776 236.428522,39.212198 234.81424,36.8706796 C234.542113,36.4759367 233.958725,36.4759367 233.686598,36.8706796 L233.686598,36.8706796 Z" transform="translate(234.248952, 43.417749) scale(-1, 1) translate(-234.248952, -43.417749) "></path>
            <path d="M171.186598,99.3706796 C169.570504,101.714712 164.942532,108.441863 163.451812,110.762908 C163.267737,111.049537 163.327887,111.424524 163.593492,111.639676 C163.95041,111.929537 164.452268,112.314941 164.837087,112.607316 C165.109577,112.814565 165.490047,112.801635 165.749854,112.578582 C168.39793,110.303512 168.947981,109.883267 170.573859,108.410973 C171.212325,107.832688 172.19249,107.828737 172.837115,108.399839 C174.961953,110.281602 175.912767,111.02188 177.68576,112.580737 C177.941219,112.805227 178.319515,112.821749 178.593817,112.619888 C178.992405,112.326435 179.518904,111.935284 179.892852,111.643986 C180.167153,111.430631 180.233464,111.049178 180.046127,110.75788 C178.547798,108.426778 173.928522,101.712198 172.31424,99.3706796 C172.042113,98.9759367 171.458725,98.9759367 171.186598,99.3706796 L171.186598,99.3706796 Z" transform="translate(171.748952, 105.917749) scale(-1, 1) translate(-171.748952, -105.917749) "></path>
            <path d="M296.186598,224.37068 C294.570504,226.714712 289.942532,233.441863 288.451812,235.762908 C288.267737,236.049537 288.327887,236.424524 288.593492,236.639676 C288.95041,236.929537 289.452268,237.314941 289.837087,237.607316 C290.109577,237.814565 290.490047,237.801635 290.749854,237.578582 C293.39793,235.303512 293.947981,234.883267 295.573859,233.410973 C296.212325,232.832688 297.19249,232.828737 297.837115,233.399839 C299.961953,235.281602 300.912767,236.02188 302.68576,237.580737 C302.941219,237.805227 303.319515,237.821749 303.593817,237.619888 C303.992405,237.326435 304.518904,236.935284 304.892852,236.643986 C305.167153,236.430631 305.233464,236.049178 305.046127,235.75788 C303.547798,233.426778 298.928522,226.712198 297.31424,224.37068 C297.042113,223.975937 296.458725,223.975937 296.186598,224.37068 L296.186598,224.37068 Z" transform="translate(296.748952, 230.917749) scale(-1, 1) translate(-296.748952, -230.917749) "></path>
            <path d="M233.686598,286.87068 C232.070504,289.214712 227.442532,295.941863 225.951812,298.262908 C225.767737,298.549537 225.827887,298.924524 226.093492,299.139676 C226.45041,299.429537 226.952268,299.814941 227.337087,300.107316 C227.609577,300.314565 227.990047,300.301635 228.249854,300.078582 C230.89793,297.803512 231.447981,297.383267 233.073859,295.910973 C233.712325,295.332688 234.69249,295.328737 235.337115,295.899839 C237.461953,297.781602 238.412767,298.52188 240.18576,300.080737 C240.441219,300.305227 240.819515,300.321749 241.093817,300.119888 C241.492405,299.826435 242.018904,299.435284 242.392852,299.143986 C242.667153,298.930631 242.733464,298.549178 242.546127,298.25788 C241.047798,295.926778 236.428522,289.212198 234.81424,286.87068 C234.542113,286.475937 233.958725,286.475937 233.686598,286.87068 L233.686598,286.87068 Z" transform="translate(234.248952, 293.417749) scale(-1, 1) rotate(90.000000) translate(-234.248952, -293.417749) "></path>
            <path d="M171.186598,349.37068 C169.570504,351.714712 164.942532,358.441863 163.451812,360.762908 C163.267737,361.049537 163.327887,361.424524 163.593492,361.639676 C163.95041,361.929537 164.452268,362.314941 164.837087,362.607316 C165.109577,362.814565 165.490047,362.801635 165.749854,362.578582 C168.39793,360.303512 168.947981,359.883267 170.573859,358.410973 C171.212325,357.832688 172.19249,357.828737 172.837115,358.399839 C174.961953,360.281602 175.912767,361.02188 177.68576,362.580737 C177.941219,362.805227 178.319515,362.821749 178.593817,362.619888 C178.992405,362.326435 179.518904,361.935284 179.892852,361.643986 C180.167153,361.430631 180.233464,361.049178 180.046127,360.75788 C178.547798,358.426778 173.928522,351.712198 172.31424,349.37068 C172.042113,348.975937 171.458725,348.975937 171.186598,349.37068 L171.186598,349.37068 Z" transform="translate(171.748952, 355.917749) scale(-1, 1) rotate(-90.000000) translate(-171.748952, -355.917749) "></path>
            <path d="M296.186598,349.37068 C294.570504,351.714712 289.942532,358.441863 288.451812,360.762908 C288.267737,361.049537 288.327887,361.424524 288.593492,361.639676 C288.95041,361.929537 289.452268,362.314941 289.837087,362.607316 C290.109577,362.814565 290.490047,362.801635 290.749854,362.578582 C293.39793,360.303512 293.947981,359.883267 295.573859,358.410973 C296.212325,357.832688 297.19249,357.828737 297.837115,358.399839 C299.961953,360.281602 300.912767,361.02188 302.68576,362.580737 C302.941219,362.805227 303.319515,362.821749 303.593817,362.619888 C303.992405,362.326435 304.518904,361.935284 304.892852,361.643986 C305.167153,361.430631 305.233464,361.049178 305.046127,360.75788 C303.547798,358.426778 298.928522,351.712198 297.31424,349.37068 C297.042113,348.975937 296.458725,348.975937 296.186598,349.37068 L296.186598,349.37068 Z" transform="translate(296.748952, 355.917749) scale(-1, 1) rotate(-45.000000) translate(-296.748952, -355.917749) "></path>
            <path d="M108.686598,161.87068 C107.070504,164.214712 102.442532,170.941863 100.951812,173.262908 C100.767737,173.549537 100.827887,173.924524 101.093492,174.139676 C101.45041,174.429537 101.952268,174.814941 102.337087,175.107316 C102.609577,175.314565 102.990047,175.301635 103.249854,175.078582 C105.89793,172.803512 106.447981,172.383267 108.073859,170.910973 C108.712325,170.332688 109.69249,170.328737 110.337115,170.899839 C112.461953,172.781602 113.412767,173.52188 115.18576,175.080737 C115.441219,175.305227 115.819515,175.321749 116.093817,175.119888 C116.492405,174.826435 117.018904,174.435284 117.392852,174.143986 C117.667153,173.930631 117.733464,173.549178 117.546127,173.25788 C116.047798,170.926778 111.428522,164.212198 109.81424,161.87068 C109.542113,161.475937 108.958725,161.475937 108.686598,161.87068 L108.686598,161.87068 Z" transform="translate(109.248952, 168.417749) scale(-1, 1) rotate(90.000000) translate(-109.248952, -168.417749) "></path>
            <path d="M46.1865978,224.37068 C44.5705037,226.714712 39.9425319,233.441863 38.4518119,235.762908 C38.2677366,236.049537 38.3278872,236.424524 38.5934919,236.639676 C38.9504096,236.929537 39.4522684,237.314941 39.8370872,237.607316 C40.1095766,237.814565 40.4900472,237.801635 40.7498543,237.578582 C43.3979296,235.303512 43.9479813,234.883267 45.573859,233.410973 C46.2123249,232.832688 47.1924896,232.828737 47.8371154,233.399839 C49.9619531,235.281602 50.9127672,236.02188 52.6857601,237.580737 C52.941219,237.805227 53.3195154,237.821749 53.5938166,237.619888 C53.9924049,237.326435 54.5189037,236.935284 54.8928519,236.643986 C55.1671531,236.430631 55.2334637,236.049178 55.0461272,235.75788 C53.5477978,233.426778 48.9285225,226.712198 47.3142401,224.37068 C47.0421131,223.975937 46.4587249,223.975937 46.1865978,224.37068 L46.1865978,224.37068 Z" transform="translate(46.748952, 230.917749) scale(-1, 1) translate(-46.748952, -230.917749) "></path>
            <path d="M108.686598,36.8706796 C107.070504,39.2147122 102.442532,45.9418633 100.951812,48.2629082 C100.767737,48.5495367 100.827887,48.9245245 101.093492,49.1396755 C101.45041,49.4295367 101.952268,49.8149408 102.337087,50.1073163 C102.609577,50.3145653 102.990047,50.3016347 103.249854,50.0785816 C105.89793,47.8035122 106.447981,47.3832673 108.073859,45.9109735 C108.712325,45.3326878 109.69249,45.3287367 110.337115,45.8998388 C112.461953,47.781602 113.412767,48.5218796 115.18576,50.0807367 C115.441219,50.3052265 115.819515,50.321749 116.093817,50.1198878 C116.492405,49.8264347 117.018904,49.4352837 117.392852,49.1439857 C117.667153,48.9306306 117.733464,48.5491776 117.546127,48.2578796 C116.047798,45.9267776 111.428522,39.212198 109.81424,36.8706796 C109.542113,36.4759367 108.958725,36.4759367 108.686598,36.8706796 L108.686598,36.8706796 Z" transform="translate(109.248952, 43.417749) scale(-1, 1) rotate(90.000000) translate(-109.248952, -43.417749) "></path>
            <path d="M46.1865978,99.3706796 C44.5705037,101.714712 39.9425319,108.441863 38.4518119,110.762908 C38.2677366,111.049537 38.3278872,111.424524 38.5934919,111.639676 C38.9504096,111.929537 39.4522684,112.314941 39.8370872,112.607316 C40.1095766,112.814565 40.4900472,112.801635 40.7498543,112.578582 C43.3979296,110.303512 43.9479813,109.883267 45.573859,108.410973 C46.2123249,107.832688 47.1924896,107.828737 47.8371154,108.399839 C49.9619531,110.281602 50.9127672,111.02188 52.6857601,112.580737 C52.941219,112.805227 53.3195154,112.821749 53.5938166,112.619888 C53.9924049,112.326435 54.5189037,111.935284 54.8928519,111.643986 C55.1671531,111.430631 55.2334637,111.049178 55.0461272,110.75788 C53.5477978,108.426778 48.9285225,101.712198 47.3142401,99.3706796 C47.0421131,98.9759367 46.4587249,98.9759367 46.1865978,99.3706796 L46.1865978,99.3706796 Z" transform="translate(46.748952, 105.917749) scale(-1, 1) rotate(-90.000000) translate(-46.748952, -105.917749) "></path>
            <path d="M108.686598,286.87068 C107.070504,289.214712 102.442532,295.941863 100.951812,298.262908 C100.767737,298.549537 100.827887,298.924524 101.093492,299.139676 C101.45041,299.429537 101.952268,299.814941 102.337087,300.107316 C102.609577,300.314565 102.990047,300.301635 103.249854,300.078582 C105.89793,297.803512 106.447981,297.383267 108.073859,295.910973 C108.712325,295.332688 109.69249,295.328737 110.337115,295.899839 C112.461953,297.781602 113.412767,298.52188 115.18576,300.080737 C115.441219,300.305227 115.819515,300.321749 116.093817,300.119888 C116.492405,299.826435 117.018904,299.435284 117.392852,299.143986 C117.667153,298.930631 117.733464,298.549178 117.546127,298.25788 C116.047798,295.926778 111.428522,289.212198 109.81424,286.87068 C109.542113,286.475937 108.958725,286.475937 108.686598,286.87068 L108.686598,286.87068 Z" transform="translate(109.248952, 293.417749) scale(-1, 1) translate(-109.248952, -293.417749) "></path>
            <path d="M46.1865978,349.37068 C44.5705037,351.714712 39.9425319,358.441863 38.4518119,360.762908 C38.2677366,361.049537 38.3278872,361.424524 38.5934919,361.639676 C38.9504096,361.929537 39.4522684,362.314941 39.8370872,362.607316 C40.1095766,362.814565 40.4900472,362.801635 40.7498543,362.578582 C43.3979296,360.303512 43.9479813,359.883267 45.573859,358.410973 C46.2123249,357.832688 47.1924896,357.828737 47.8371154,358.399839 C49.9619531,360.281602 50.9127672,361.02188 52.6857601,362.580737 C52.941219,362.805227 53.3195154,362.821749 53.5938166,362.619888 C53.9924049,362.326435 54.5189037,361.935284 54.8928519,361.643986 C55.1671531,361.430631 55.2334637,361.049178 55.0461272,360.75788 C53.5477978,358.426778 48.9285225,351.712198 47.3142401,349.37068 C47.0421131,348.975937 46.4587249,348.975937 46.1865978,349.37068 L46.1865978,349.37068 Z" transform="translate(46.748952, 355.917749) scale(-1, 1) rotate(-90.000000) translate(-46.748952, -355.917749) "></path>
        </g>
    </g>
</svg>