<?xml version="1.0" encoding="utf-8"?>
<!-- Generator: Adobe Illustrator 15.1.0, SVG Export Plug-In . SVG Version: 6.00 Build 0)  -->
<!DOCTYPE svg PUBLIC "-//W3C//DTD SVG 1.1//EN" "http://www.w3.org/Graphics/SVG/1.1/DTD/svg11.dtd">
<svg version="1.1" id="Layer_1" xmlns="http://www.w3.org/2000/svg" xmlns:xlink="http://www.w3.org/1999/xlink" x="0px" y="0px"
	 width="263px" height="262px" viewBox="0 0 263 262" enable-background="new 0 0 263 262" xml:space="preserve">
<g transform="translate(0 -.516)">
	<path opacity="0.05" fill="#16193E" enable-background="new    " d="M131.367,262.495c72.311,0,130.93-58.576,130.93-130.834
		S203.678,0.826,131.367,0.826c-72.31,0-130.929,58.577-130.929,130.834S59.057,262.495,131.367,262.495z"/>
	<path opacity="0.1" fill="#16193E" enable-background="new    " d="M131.367,238.266c58.92,0,106.684-47.729,106.684-106.605
		S190.287,25.055,131.367,25.055c-58.919,0-106.683,47.729-106.683,106.606S72.448,238.266,131.367,238.266z"/>
	<path fill="#16193E" enable-background="new    " d="M131.367,208.528c42.484,0,76.924-34.414,76.924-76.867
		s-34.439-76.868-76.924-76.868c-42.483,0-76.923,34.415-76.923,76.868S88.884,208.528,131.367,208.528z"/>
	<path fill="none" stroke="#D2CFE3" d="M163.5,147.132c0-7.228,0-14.455,0-21.683c4-0.025,7.097-0.748,9.29-2.478
		C175.399,133.168,175.5,147.932,163.5,147.132z"/>
	<path fill="#D2CFE3" d="M154.733,118.637c0.258,3.354-5.138,1.057-3.719,5.574c0.853,2.246,5.424,0.775,7.435,1.859
		c2.093,19.668-0.671,36.549-17.965,36.549c-7.616,0-31.387-0.23-39.647,0c-17.734,0.493-21.528-17.63-18.584-35.93
		c1.729-1.987,7.331-0.104,8.052-3.096c1.187-4.286-4.466-1.73-4.956-4.337c4.879-5.188,23.36-3.096,37.789-3.096
		C135.399,116.159,147.996,114.324,154.733,118.637z"/>
	<path fill="none" stroke="#D2CFE3" d="M161.548,120.494c-5.551-17.785-39.727-6.944-60.092-9.912
		c5.369-8.337,44.732-10.015,63.189-7.434C176.621,104.826,178.275,122.042,161.548,120.494z"/>
	<path fill="none" stroke="#D2CFE3" d="M94.022,110.582c8.44-13.036,24.548-12.391,47.703-12.391
		c16.881,0,33.428-1.702,37.167,9.913c3.279,10.169,2.428,37.194-5.575,42.125c-2.89,1.781-6.504,1.24-9.911,2.479
		c-5.705,8.929-15.202,18.067-29.734,14.248c-4.981-1.318-23.076-0.956-26.639,0c-23.954,6.478-34.795-18.146-30.354-39.03
		c0.463-2.219,2.297-4.669,3.716-8.052C83.182,113.266,83.337,110.427,94.022,110.582z"/>
	<g>
		<path fill="#16193E" enable-background="new    " d="M103.252,135.028h3.368v1.684h-1.699v3.368h-1.669v5.066h-1.699v3.368h-1.669
			v1.684h-1.699v-1.684h-1.699v-3.368h-1.668v-5.066h-1.699v-3.368H91.45v-1.684h3.368v3.367h1.668v5.067h1.699v3.367h1.699v-3.367
			h1.669v-5.067h1.699V135.028z"/>
		<path fill="#16193E" enable-background="new    " d="M121.804,148.514h1.669v1.684h-1.669h-1.699v-5.052h-1.669v-1.684h-5.066
			v5.052h1.668v1.684h-5.036v-1.684h1.668v-5.052h-1.668v-1.699h1.668v-5.052h-1.668v-1.684h10.103v1.684h1.699v5.052h-1.699v1.699
			h1.699V148.514z M118.437,140.079h1.669v-1.685h-1.669v-1.684h-5.066v5.052h5.066V140.079z"/>
	</g>
</g>
</svg>
