<?xml version="1.0" encoding="utf-8"?>
<!DOCTYPE svg PUBLIC "-//W3C//DTD SVG 1.1//EN" "http://www.w3.org/Graphics/SVG/1.1/DTD/svg11.dtd">
<svg version="1.1" xmlns="http://www.w3.org/2000/svg" xmlns:xlink="http://www.w3.org/1999/xlink" width="24" height="24" viewBox="0 0 24 24">
<path d="M12 2c-5.525 0-10 4.475-10 10s4.475 10 10 10 10-4.475 10-10-4.475-10-10-10zM12 5c1.655 0 3 1.345 3 3 0 1.66-1.345 3-3 3s-3-1.34-3-3c0-1.655 1.345-3 3-3zM12 19.2c-2.505 0-4.705-1.28-6-3.22 0.025-1.985 4.005-3.080 6-3.080s5.97 1.095 6 3.080c-1.295 1.94-3.495 3.22-6 3.22z" fill="rgb(255, 255, 255)"></path>
</svg>
