<?xml version="1.0" encoding="utf-8"?>
<!-- Generator: Adobe Illustrator 16.2.1, SVG Export Plug-In . SVG Version: 6.00 Build 0)  -->
<!DOCTYPE svg PUBLIC "-//W3C//DTD SVG 1.1//EN" "http://www.w3.org/Graphics/SVG/1.1/DTD/svg11.dtd">
<svg version="1.1" id="Layer_1" xmlns="http://www.w3.org/2000/svg" xmlns:xlink="http://www.w3.org/1999/xlink" x="0px" y="0px"
   width="1000px" height="1000px" viewBox="0 0 1000 1000" enable-background="new 0 0 1000 1000" xml:space="preserve">
<path fill="#000" d="M0,499.968c0-138.012,48.825-255.843,146.475-353.493S361.956,0,499.968,0
  C637.98,0,755.811,48.825,853.46,146.475s146.475,215.481,146.476,353.493c0.002,138.013-48.823,255.843-146.476,353.492
  S637.979,999.936,499.97,999.938c-138.008,0.002-255.839-48.824-353.495-146.478S-0.005,637.977,0,499.97V499.968z M54.684,499.968
  c0,122.389,43.617,227.199,130.85,314.434c87.233,87.233,192.045,130.851,314.436,130.852S727.171,901.637,814.4,814.402
  c87.229-87.235,130.846-192.046,130.852-314.435c0.006-122.388-43.611-227.199-130.85-314.433
  C727.163,98.301,622.352,54.685,499.968,54.685s-227.195,43.617-314.433,130.85C98.297,272.768,54.68,377.579,54.684,499.968
  L54.684,499.968z M195.3,607.383c-2.604-2.604-2.604-5.208,0-7.812c5.208-5.207,11.718-7.159,19.53-5.858
  c7.812,1.302,12.369,2.604,13.67,3.906c9.115,3.906,19.205,12.695,30.272,26.366s19.855,23.11,26.366,28.319
  c31.248,26.04,63.147,27.993,95.697,5.858c2.604-9.113,6.835-16.926,12.694-23.437c5.858-6.51,11.392-11.066,16.6-13.67
  c5.208-2.603,14.322-6.509,27.342-11.72c-42.967-3.905-77.795-11.392-104.485-22.46c-26.691-11.068-47.849-25.063-63.473-41.988
  c-20.832-23.436-33.527-54.032-38.084-91.79c-4.558-37.757-1.628-72.26,8.788-103.51c7.812-19.53,18.879-37.106,33.2-52.73
  c-10.416-32.55-8.462-69.658,5.86-111.322c41.665,2.604,79.422,16.926,113.274,42.966c65.101-16.927,132.804-17.578,203.112-1.953
  c9.113-6.51,23.109-14.648,41.99-24.414c18.88-9.766,42.641-15.299,71.283-16.6c5.208,14.321,8.789,31.247,10.742,50.777
  c1.953,19.53,0.977,37.758-2.93,54.684c29.946,31.248,45.571,72.912,46.873,124.992c0,41.663-7.161,76.166-21.483,103.508
  c-14.321,27.342-39.711,50.127-76.167,68.354c-24.737,11.719-57.288,18.88-97.649,21.483c18.228,9.113,31.573,18.554,40.037,28.32
  c8.463,9.767,13.996,25.064,16.6,45.894v61.521l1.954,59.566c3.906,6.511,8.463,12.044,13.67,16.601s9.764,7.812,13.672,9.766
  s5.21,4.884,3.906,8.79c-1.305,3.906-6.513,5.858-15.624,5.858c-22.134,0-39.71-7.812-52.73-23.436
  c-3.906-6.51-5.859-14.322-5.859-23.436v-93.745c0-10.416-2.604-17.903-7.812-22.46c-5.208-4.558-10.416-7.487-15.624-8.79v123.04
  c0,22.133,2.604,36.455,7.812,42.966s8.463,13.021,9.765,19.53c1.302,1.303,0.325,2.279-2.93,2.93s-8.788-0.326-16.601-2.93
  c-16.927-3.905-28.645-12.694-35.154-26.365c-6.511-13.672-9.766-28.319-9.766-43.943V667.926h-25.39v121.086
  c0,15.624-3.255,30.598-9.765,44.92c-9.113,18.227-26.039,27.992-50.777,29.294c-3.906-1.302-5.86-2.604-5.86-3.905
  c1.303-1.303,5.21-7.812,11.72-19.53c1.302-2.604,2.93-7.812,4.883-15.624c1.953-7.812,2.93-16.926,2.93-27.342v-123.04
  c-5.209,1.303-10.092,4.232-14.65,8.79c-4.558,4.557-6.836,12.044-6.835,22.46v93.744c0,9.113-1.953,16.925-5.859,23.436
  c-11.718,15.624-29.294,23.437-52.73,23.437c-9.113,0-14.321-1.954-15.624-5.86c-1.301-2.604-0.975-4.882,0.979-6.835
  s4.883-4.232,8.79-6.836c3.906-2.604,6.51-4.558,7.81-5.86c5.209-3.906,9.115-9.114,11.72-15.624
  c3.905-5.208,4.882-18.879,2.929-41.013s-2.279-36.456-0.978-42.966c-33.854,11.718-68.356,5.858-103.51-17.577
  c-10.416-10.416-20.832-25.39-31.248-44.92c-7.812-14.321-23.436-31.247-46.872-50.777L195.3,607.383z"/>
</svg>
