<svg height="1000" width="1000" xmlns="http://www.w3.org/2000/svg"><path fill="#4dd1aa" d="M0 499.968Q0 292.95 146.475 146.475T499.968 0 853.46 146.475t146.476 353.493T853.46 853.46 499.97 999.937 146.475 853.46 0 499.97zm54.684 0q0 183.582 130.85 314.433T499.97 945.253 814.4 814.402t130.852-314.434-130.85-314.433-314.434-130.85-314.433 130.85-130.85 314.433zM195.3 607.383q-3.906-3.906 0-7.812 7.812-7.81 19.53-5.858t13.67 3.906q13.672 5.86 30.272 26.366t26.366 28.32q46.872 39.06 95.697 5.858 3.906-13.67 12.694-23.436t16.6-13.67 27.342-11.72q-64.45-5.858-104.486-22.46t-63.473-41.988q-31.248-35.154-38.084-91.79t8.788-103.51q11.718-29.295 33.2-52.73-15.623-48.826 5.86-111.322 62.496 3.906 113.274 42.966 97.65-25.39 203.112-1.953 13.67-9.766 41.99-24.414t71.284-16.6q7.812 21.482 10.742 50.777t-2.93 54.684q44.92 46.872 46.873 124.992 0 62.495-21.483 103.508t-76.167 68.355q-37.107 17.577-97.65 21.483 27.342 13.67 40.037 28.32t16.6 45.894v61.52l1.954 59.567q5.86 9.765 13.67 16.6t13.672 9.766 3.906 8.79-15.624 5.858q-33.2 0-52.73-23.435-5.86-9.765-5.86-23.436v-93.745q0-15.624-7.812-22.46t-15.624-8.79v123.04q0 33.2 7.812 42.966t9.765 19.53q1.952 1.954-2.93 2.93t-16.6-2.93q-25.39-5.858-35.155-26.365t-9.765-43.943V667.926h-25.39v121.086q0 23.436-9.764 44.92-13.67 27.34-50.778 29.294-5.86-1.953-5.86-3.906 1.954-1.953 11.72-19.53 1.952-3.906 4.882-15.624t2.93-27.342v-123.04q-7.813 1.954-14.65 8.79t-6.835 22.46v93.744q0 13.67-5.86 23.436-17.576 23.436-52.73 23.436-13.67 0-15.624-5.86-1.952-3.905.978-6.835t8.79-6.836 7.81-5.86q7.813-5.86 11.72-15.624 5.858-7.812 2.928-41.013t-.977-42.966q-50.78 17.577-103.51-17.577-15.624-15.624-31.248-44.92-11.718-21.482-46.872-50.777z"/></svg>
