<?xml version="1.0" encoding="UTF-8" standalone="no"?>
<svg width="21px" height="20px" viewBox="0 0 21 20" version="1.1" xmlns="http://www.w3.org/2000/svg" xmlns:xlink="http://www.w3.org/1999/xlink" xmlns:sketch="http://www.bohemiancoding.com/sketch/ns">
    <!-- Generator: Sketch 3.0.3 (7892) - http://www.bohemiancoding.com/sketch -->
    <title>Shape 3</title>
    <desc>Created with Sketch.</desc>
    <defs></defs>
    <g id="Page-1" stroke="none" stroke-width="1" fill="none" fill-rule="evenodd" sketch:type="MSPage">
        <path d="M19.7762531,0.250277577 C19.4348098,-0.0816764458 18.8741912,-0.0851706987 18.5263562,0.250277577 L6.35975826,12.1785649 L1.23563454,10.1691511 C0.842232483,10.0217373 0.393160318,10.1759213 0.166974751,10.5264385 C-0.07343762,10.8880937 -0.0526128777,11.37445 0.218933514,11.7177603 L5.84120156,18.7121626 C6.01852114,18.9296799 6.27295413,19.0587488 6.540583,19.0587488 L6.63810877,19.0545994 C6.88883042,19.0255534 7.1220263,18.8890592 7.27171702,18.6826799 L19.8735727,1.56651896 C20.16615,1.16839252 20.1245005,0.589656888 19.7762531,0.250277577 L19.7762531,0.250277577 Z M6.540583,18.7340017 L6.540583,18.7381511 L6.540583,18.7340017 L6.540583,18.7340017 Z" id="Shape-3" fill="#92D34A" sketch:type="MSShapeGroup"></path>
    </g>
</svg>