<?xml version="1.0" encoding="UTF-8" standalone="no"?>
<svg width="24px" height="23px" viewBox="0 0 24 23" version="1.1" xmlns="http://www.w3.org/2000/svg" xmlns:xlink="http://www.w3.org/1999/xlink" xmlns:sketch="http://www.bohemiancoding.com/sketch/ns">
    <!-- Generator: Sketch 3.0.3 (7892) - http://www.bohemiancoding.com/sketch -->
    <title>Shape 3</title>
    <desc>Created with Sketch.</desc>
    <defs></defs>
    <g id="Page-1" stroke="none" stroke-width="1" fill="none" fill-rule="evenodd" sketch:type="MSPage">
        <path d="M22.7426911,0.289795089 C22.3500313,-0.0945727268 21.7053199,-0.0986187038 21.3053096,0.289795089 L7.31372199,14.1014962 L1.42097973,11.7748066 C0.968567356,11.6041169 0.452134366,11.7826457 0.192020964,12.1885077 C-0.084453263,12.6072664 -0.0605048094,13.1704158 0.251773541,13.567933 L6.71738179,21.6667146 C6.92129931,21.9185767 7.21389725,22.068025 7.52167045,22.068025 L7.63382509,22.0632204 C7.92215498,22.0295882 8.19033024,21.8715422 8.36247457,21.6325767 L22.8546086,1.81386405 C23.1910725,1.35287555 23.1431756,0.682760607 22.7426911,0.289795089 L22.7426911,0.289795089 Z M7.52167045,21.692002 L7.52167045,21.6968066 L7.52167045,21.692002 L7.52167045,21.692002 Z" id="Shape-3" fill="#1BA734" sketch:type="MSShapeGroup"></path>
    </g>
</svg>