<svg xmlns="http://www.w3.org/2000/svg" width="258" height="258" viewBox="0 0 258 258"><title>robot_only_alternative</title><g fill="#FFF" fill-rule="evenodd"><path d="M183.78 190.4l-3.187-3.2c1.734-1.3 2.807-3.4 2.807-5.7.046-4-3.2-7.3-7.2-7.3-3.992 0-7.2 3.3-7.2 7.3-.033 2.3 1.1 4.4 2.9 5.8l-3.23 3.1c-2.558-2.1-4.17-5.3-4.17-8.9-.017-2.9 1-4.5 2.8-7.5h-.3v-37h-5v77.4l3 1.9v6.7h-35v-6.7l4.17-1.3h.83v-24h-12v23.4l5 1.9v6.3H93v-6.3l3.155-2.2-.243-77.1H91v37h-.28c1.74 3 2.78 4.6 2.78 7.5.017 3.6-1.6 6.8-4.2 9l-3.16-3.2c1.757-1.4 2.86-3.5 2.86-5.8.033-4-3.2-7.3-7.2-7.3-4.005 0-7.2 3.3-7.2 7.3-.046 2.3 1.1 4.4 2.8 5.7l-3.18 3.2c-2.536-2.2-4.12-5.4-4.12-8.9.034-2.9.9-5.6 2.9-7.6v-56.8c0-2.2 1.8-4 4-4h104.042c2.178 0 3.958 1.8 3.958 4v56.8c2 2 2.9 4.7 2.9 7.6-.034 3.6-1.6 6.8-4.1 8.9h-.02zM102.54 67h52.916c2.178 0 4.542 1.2 4.542 3.4v34.5c0 2.2-2.4 4.1-4.5 4.1h-52.958c-2.17 0-4.542-1.9-4.542-4.1V70.4c0-2.2 2.4-3.4 4.5-3.4h.042zm47.488-11l-3.192 4.6C142.8 56.7 136.2 54.1 129 54.1c-7.236 0-13.8 2.6-17.8 6.5l-3.23-4.5c5.042-4.6 12.63-7.5 21.03-7.5 8.446 0 16 2.9 21 7.4h.03zm-.057-7.1c-5.48-4.1-12.873-6.4-20.773-6.4-7.88 0-15.3 2.3-20.7 6.4-1.327 1-2.5 2.1-3.5 3.2l-3.172-4.6C108.024 41.1 118 37 129.2 37c10.992 0 20.7 3.9 27 10l-3.225 4.6c-.886-.9-1.875-1.8-2.975-2.7h-.027zm-20.954-23c13.606 0 25.68 4.9 33.38 12.4l-3.166 4.6c-6.588-7-17.634-11.5-30.234-11.5-12.547 0-23.7 4.5-30.2 11.5l-3.207-4.5C103.275 30.8 115.4 25.9 129 25.9h.02zM129 .7C58.134.7.7 58.1.7 129 .682 199.9 58.1 257.3 129 257.3c70.866 0 128.3-57.4 128.3-128.3C257.318 58.1 199.9.7 129 .7z"/><path d="M115.52 88.5c-1.896 0-3.42-1.6-3.42-3.5-.022-1.9 1.5-3.4 3.4-3.4 1.93 0 3.5 1.5 3.5 3.4-.03 1.9-1.6 3.5-3.5 3.5h.02zm0-10.2c-3.716 0-6.72 3-6.72 6.7-.012 3.7 3 6.8 6.7 6.8 3.74 0 6.8-3.1 6.8-6.8-.044-3.7-3.1-6.7-6.8-6.7h.02zM142.567 88.5c-1.904 0-3.467-1.6-3.467-3.5.02-1.9 1.6-3.4 3.5-3.4 1.864 0 3.4 1.5 3.4 3.4.027 1.9-1.5 3.5-3.4 3.5h-.033zm0-10.2c-3.73 0-6.767 3-6.767 6.7.017 3.7 3 6.8 6.8 6.8 3.688 0 6.7-3.1 6.7-6.8.005-3.7-3-6.7-6.7-6.7h-.033z"/></g></svg>