<svg width="68" height="68" viewBox="0 0 68 68" xmlns="http://www.w3.org/2000/svg"><title>Slice 2</title><g fill="none" fill-rule="evenodd"><circle fill="#C32F34" cx="34.009" cy="34.009" r="34.009"/><path d="M24.513 36.836v9.046c.445.59.716 1.163.716 1.878 0 .89-.405 1.69-1.037 2.222l-.79-.788c.436-.326.717-.846.717-1.432 0-.99-.8-1.79-1.79-1.79-.987 0-1.79.8-1.79 1.79 0 .58.278 1.098.707 1.426l-.788.787c-.63-.533-1.04-1.327-1.04-2.213 0-.715.22-1.374.662-1.88V31.835c.074-.54.492-.978 1.03-.978l25.767.003c.537 0 .963.434 1.036.975V45.89c.37.505.665 1.16.665 1.876 0 .885-.406 1.68-1.033 2.212l-.79-.787c.427-.325.702-.842.702-1.423 0-.99-.803-1.79-1.79-1.79-.99 0-1.79.8-1.79 1.79 0 .586.28 1.105.713 1.432l-.788.787c-.633-.532-1.035-1.334-1.035-2.224 0-.715.287-1.29.718-1.88v-8.97h-1.256V55.9l.74.49v1.56h-8.64v-1.56l.96-.47v-5.87h-2.51l.002 5.85.885.49v1.56h-8.715v-1.56l.886-.488V36.836h-1.33zm9.61-20.987c1.79 0 3.41.636 4.408 1.595l.79-1.125c-1.246-1.117-3.112-1.827-5.197-1.827-2.09 0-3.96.714-5.208 1.836l.79 1.125c.998-.965 2.623-1.607 4.418-1.607zm.084-2.877c1.955 0 3.78.565 5.135 1.59.275.21.524.432.743.664l.79-1.13c-1.54-1.508-3.953-2.48-6.668-2.48-2.78 0-5.244 1.02-6.777 2.59l.794 1.136c.245-.275.528-.536.85-.78 1.355-1.025 3.178-1.59 5.133-1.59zm-.085-2.757c3.103 0 5.846 1.13 7.476 2.85l.785-1.12c-1.9-1.876-4.894-3.086-8.26-3.086-3.373 0-6.37 1.214-8.27 3.096l.783 1.12c1.63-1.724 4.377-2.86 7.486-2.86zm6.406 8.68H27.436c-.537 0-.956.44-.956.98v8.542c0 .534.42.96.956.96h13.092c.54 0 1.014-.426 1.014-.96v-8.542c0-.54-.475-.982-1.014-.982zm-9.88 6.267c-.92 0-1.667-.748-1.667-1.666 0-.922.748-1.668 1.668-1.668s1.666.745 1.666 1.667c0 .918-.746 1.666-1.666 1.666zm6.69 0c-.922 0-1.67-.748-1.67-1.666 0-.922.748-1.668 1.67-1.668.922 0 1.668.745 1.668 1.667 0 .918-.746 1.666-1.667 1.666zM31.5 23.497c0 .47-.38.853-.852.853-.47 0-.852-.382-.852-.852 0-.474.383-.854.852-.854.472 0 .854.38.854.854zm5.84.853c-.47 0-.853-.382-.853-.852 0-.474.382-.854.853-.854.468 0 .855.38.855.854 0 .47-.387.853-.856.853z" fill="#fff"/></g></svg>