<?xml version="1.0" encoding="UTF-8" standalone="no"?>
<svg width="52px" height="67px" viewBox="0 0 52 67" version="1.1" xmlns="http://www.w3.org/2000/svg" xmlns:xlink="http://www.w3.org/1999/xlink" xmlns:sketch="http://www.bohemiancoding.com/sketch/ns">
    <!-- Generator: Sketch 3.0.4 (8054) - http://www.bohemiancoding.com/sketch -->
    <title>fork1</title>
    <desc>Created with Sketch.</desc>
    <defs></defs>
    <g id="Page-1" stroke="none" stroke-width="1" fill="none" fill-rule="evenodd" sketch:type="MSPage">
        <path d="M43.2125,44.6935484 L41.75,44.6935484 C36.55,44.6935484 33.4625,39.4516129 29.15625,30.8225806 C24.76875,22.1935484 19.89375,12.4354839 9.25,12.4354839 L8.19375,12.4354839 C6.8125,10.016129 4.13125,8.40322581 1.125,8.40322581 C-3.34375,8.40322581 -7,12.0322581 -7,16.4677419 C-7,20.9032258 -3.34375,24.5322581 1.125,24.5322581 C4.13125,24.5322581 6.73125,22.9193548 8.19375,20.5 L9.25,20.5 C14.45,20.5 17.5375,25.7419355 21.84375,34.3709677 C26.23125,43 31.10625,52.7580645 41.75,52.7580645 L43.2125,52.7580645 L43.2125,57.1935484 L58,48.7258065 L43.2125,40.2580645 L43.2125,44.6935484 L43.2125,44.6935484 Z M1.125,21.3064516 C-1.55625,21.3064516 -3.75,19.1290323 -3.75,16.4677419 C-3.75,13.8064516 -1.55625,11.6290323 1.125,11.6290323 C3.80625,11.6290323 6,13.8064516 6,16.4677419 C6,19.1290323 3.80625,21.3064516 1.125,21.3064516 L1.125,21.3064516 Z M25.175,20.5 L43.2125,20.5 L43.2125,24.9354839 L58,16.4677419 L43.2125,8 L43.2125,12.4354839 L16.48125,12.4354839 C20.05625,14.1290323 22.9,17.1129032 25.175,20.5 L25.175,20.5 Z" id="fork1" fill="#8D70C4" sketch:type="MSShapeGroup" transform="translate(25.500000, 32.596774) rotate(-90.000000) translate(-25.500000, -32.596774) "></path>
    </g>
</svg>