<svg width="52" height="67" viewBox="0 0 52 67" xmlns="http://www.w3.org/2000/svg">
    <title>
        fork1
    </title>
    <desc>
        Created with Sketch.
    </desc>
    <g fill="none" fill-rule="evenodd">
        <path d="M37.597 14.885v1.462c0 5.2-5.242 8.288-13.87 12.594-8.63 4.388-18.39 9.263-18.39 19.907v1.056c-2.418 1.382-4.03 4.063-4.03 7.07 0 4.468 3.628 8.124 8.064 8.124s8.065-3.656 8.065-8.125c0-3.006-1.613-5.606-4.032-7.07v-1.055c0-5.2 5.242-8.287 13.87-12.594 8.63-4.387 18.388-9.262 18.388-19.906v-1.462h4.437L41.63.097l-8.47 14.788h4.437zM14.21 56.972c0 2.68-2.178 4.875-4.84 4.875-2.66 0-4.838-2.194-4.838-4.875 0-2.68 2.177-4.875 4.84-4.875 2.66 0 4.837 2.194 4.837 4.875zm-.807-24.05V14.885h4.435L9.37.096.904 14.884h4.435v26.732c1.694-3.575 4.678-6.42 8.065-8.694z" fill="#8D70C4"/>
    </g>
</svg>
