<svg width="52" height="67" viewBox="0 0 52 67" xmlns="http://www.w3.org/2000/svg"><title>fork1</title><path d="M37.597 14.885v1.462c0 5.2-5.242 8.288-13.87 12.594-8.63 4.39-18.39 9.264-18.39 19.908v1.056c-2.418 1.382-4.03 4.063-4.03 7.07 0 4.468 3.628 8.124 8.064 8.124s8.066-3.656 8.066-8.125c0-3.006-1.613-5.606-4.032-7.07v-1.055c0-5.2 5.242-8.287 13.87-12.594 8.63-4.387 18.388-9.262 18.388-19.906v-1.462H50.1L41.63.096l-8.47 14.79h4.437zM14.21 56.972c0 2.68-2.178 4.875-4.84 4.875-2.66 0-4.838-2.194-4.838-4.875 0-2.68 2.177-4.875 4.84-4.875 2.66 0 4.837 2.194 4.837 4.875zm-.807-24.05V14.885h4.435L9.37.095.904 14.886H5.34v26.73c1.693-3.574 4.677-6.42 8.064-8.693z" fill="#8D70C4" fill-rule="evenodd"/></svg>