<svg xmlns="http://www.w3.org/2000/svg" viewBox="0 0 57 57"><title>trail-step-in-progress</title><path fill="none" stroke="#FEAE2A" stroke-width="2" d="M29 55c14.4 0 26-11.6 26-26S43.4 3 29 3 3 14.6 3 29s11.6 26 26 26z"/><path fill="#FEAE2A" d="M29 43c7.7 0 14-6.3 14-14s-6.3-14-14-14-14 6.3-14 14 6.3 14 14 14z"/><path fill="#FF9F00" fill-opacity=".292" stroke="#FEAE2A" stroke-width="2" d="M30 3c13.9.5 25 12 25 26 0 14.4-11.6 26-26 26C15.3 55 4.1 44.4 3.1 31h13.1c1 6.2 6.3 11 12.8 11 7.2 0 13-5.8 13-13 0-6.8-5.3-12.5-12-13V3z"/></svg>