<?xml version="1.0" encoding="UTF-8" standalone="no"?>
<svg width="54px" height="54px" viewBox="0 0 54 54" version="1.1" xmlns="http://www.w3.org/2000/svg" xmlns:xlink="http://www.w3.org/1999/xlink">
    <defs></defs>
    <g id="Page-1" stroke="none" stroke-width="1" fill="none" fill-rule="evenodd">
        <g id="trail-step-complete" transform="translate(1.000000, 1.000000)">
            <path d="M26,52 C40.3594035,52 52,40.3594035 52,26 C52,11.6405965 40.3594035,0 26,0 C11.6405965,0 0,11.6405965 0,26 C0,40.3594035 11.6405965,52 26,52 L26,52 Z" id="Oval-20" stroke="#57C75C" stroke-width="2"></path>
            <path d="M37.4664062,16.6279576 L21.2866939,32.8076699 L14.1179936,25.6389695 C13.6143725,25.1353485 12.7973586,25.1353485 12.2943824,25.6389695 C11.7907614,26.1425906 11.7907614,26.9589596 12.2943824,27.4625806 L20.3748884,35.5437314 C20.6167039,35.7855469 20.9449281,35.9209636 21.2866939,35.9209636 C21.6284598,35.9209636 21.956684,35.7855469 22.1984995,35.5437314 L39.2906622,18.4515687 C39.7942832,17.9479477 39.7942832,17.1315787 39.2906622,16.6279576 C38.7870412,16.1243366 37.9700273,16.1236918 37.4664062,16.6279576 L37.4664062,16.6279576 L37.4664062,16.6279576 Z" id="Shape" fill="#57C75C"></path>
        </g>
    </g>
</svg>