<?xml version="1.0" encoding="UTF-8" standalone="no"?>
<svg width="32px" height="32px" viewBox="0 0 32 32" version="1.1" xmlns="http://www.w3.org/2000/svg" xmlns:xlink="http://www.w3.org/1999/xlink" xmlns:sketch="http://www.bohemiancoding.com/sketch/ns">
    <!-- Generator: Sketch 3.1 (8751) - http://www.bohemiancoding.com/sketch -->
    <title>trail-complete-check</title>
    <desc>Created with Sketch.</desc>
    <defs></defs>
    <g id="Trails-horiz.-iterations" stroke="none" stroke-width="1" fill="none" fill-rule="evenodd" sketch:type="MSPage">
        <g id="02-dashboard_trails-completed-archived_v1" sketch:type="MSArtboardGroup" transform="translate(-495.000000, -1389.000000)">
            <g id="complete" sketch:type="MSLayerGroup" transform="translate(164.000000, 1306.000000)">
                <g id="complete-fancy" transform="translate(0.000000, 42.000000)" sketch:type="MSShapeGroup">
                    <g id="Group-6-+-Oval-22-+-Rectangle-28-+-Start-this-trail-+-Triangle-13-+-Triangle-13" transform="translate(196.500000, 50.000000) rotate(-180.000000) translate(-196.500000, -50.000000) ">
                        <g id="trail-complete-check" transform="translate(46.000000, 43.000000) rotate(-180.000000) translate(-46.000000, -43.000000) translate(30.000000, 27.000000)">
                            <path d="M16,32 C24.836556,32 32,24.836556 32,16 C32,7.163444 24.836556,0 16,0 C7.163444,0 7.10542736e-15,7.163444 7.10542736e-15,16 C7.10542736e-15,24.836556 7.163444,32 16,32 Z" id="Oval-20" fill="#28C17C"></path>
                            <path d="M23.0492187,10.9535156 L14.337066,19.6656684 L10.4769965,15.805599 C10.205816,15.5344184 9.76588542,15.5344184 9.49505208,15.805599 C9.22387153,16.0767795 9.22387153,16.5163629 9.49505208,16.7875434 L13.8460937,21.1389323 C13.9763021,21.2691406 14.1530382,21.3420573 14.337066,21.3420573 C14.5210937,21.3420573 14.6978299,21.2691406 14.8280382,21.1389323 L24.0315104,11.9354601 C24.302691,11.6642795 24.302691,11.2246962 24.0315104,10.9535156 C23.7603299,10.6823351 23.3203993,10.6819879 23.0492187,10.9535156 L23.0492187,10.9535156 Z" id="Shape" fill="#FFFFFF"></path>
                        </g>
                    </g>
                </g>
            </g>
        </g>
    </g>
</svg>