<?xml version="1.0" encoding="UTF-8"?>
<svg width="159px" height="126px" viewBox="0 0 159 126" version="1.1" xmlns="http://www.w3.org/2000/svg" xmlns:xlink="http://www.w3.org/1999/xlink">
    <!-- Generator: Sketch 41.2 (35397) - http://www.bohemiancoding.com/sketch -->
    <title>upcase-and-ruby-tapas</title>
    <desc>Created with Sketch.</desc>
    <defs>
        <linearGradient x1="50%" y1="0%" x2="50%" y2="84.2873011%" id="linearGradient-1">
            <stop stop-color="#3FBCFF" offset="0%"></stop>
            <stop stop-color="#A2F6F9" offset="100%"></stop>
        </linearGradient>
        <linearGradient x1="50%" y1="3.6591199%" x2="50%" y2="89.4989636%" id="linearGradient-2">
            <stop stop-color="#FFFFFF" offset="0%"></stop>
            <stop stop-color="#F94B43" offset="37.9862883%"></stop>
            <stop stop-color="#C71717" offset="100%"></stop>
        </linearGradient>
    </defs>
    <g stroke="none" stroke-width="1" fill="none" fill-rule="evenodd">
        <g transform="translate(-382.000000, -113.000000)">
            <g transform="translate(374.500000, 113.000000)">
                <g transform="translate(49.765216, 84.200408) rotate(-10.000000) translate(-49.765216, -84.200408) translate(7.265216, 42.200408)">
                    <rect fill-opacity="0.209210824" fill="#9EF4F9" x="0.886326978" y="0.15628336" width="83.7" height="83.7" rx="41.85"></rect>
                    <path d="M40.1108891,22.4319408 C35.456538,29.1827548 22.1279794,48.5569498 17.8347058,55.2415591 C17.3045689,56.0670494 17.4778026,57.1470141 18.2427442,57.766649 C19.270667,58.6014494 20.7160204,59.7114131 21.8242986,60.5534546 C22.6090681,61.1503317 23.7048234,61.1130915 24.4530677,60.4706987 C32.0795246,53.9184988 33.6636737,52.7081935 38.3462013,48.4679872 C40.184983,46.8025243 43.0078574,46.7911454 44.8643799,48.4359192 C50.9839123,53.8553975 53.722257,55.9873968 58.8284767,60.4769054 C59.5641981,61.123436 60.6536919,61.1710206 61.4436793,60.5896603 C62.5916134,59.7445155 64.10793,58.6180006 65.184901,57.7790624 C65.9748883,57.1645997 66.1658628,56.0660149 65.6263338,55.2270768 C61.3111451,48.5135029 48.0076323,29.1755137 43.3584991,22.4319408 C42.5747731,21.2950814 40.894615,21.2950814 40.1108891,22.4319408 L40.1108891,22.4319408 Z" fill="url(#linearGradient-1)"></path>
                </g>
                <g transform="translate(124.493221, 85.638304) rotate(10.000000) translate(-124.493221, -85.638304) translate(87.493221, 57.638304)" stroke-width="6.6" stroke="#EF3E6A">
                    <polygon points="18.0349691 0.154105361 0.753830643 17.6 36.9591599 55.3500832 73.1644891 17.6 55.1949138 0.154105361"></polygon>
                    <path d="M2.08420966,17.7872541 L71.8341101,17.7872541"></path>
                    <path d="M36.9591599,0.572638087 L36.9591599,55.5045187"></path>
                </g>
                <path d="M78.5545379,61.11269 C78.5545379,61.11269 63.8095681,47.6575415 63.8095681,41.2700424 C63.8095681,34.8825434 67.6021457,33.0155799 71.7150839,33.0155799 C75.8280221,33.0155799 78.4394545,37.7544536 78.4394545,37.7544536 C78.4394545,37.7544536 81.0977089,33.0155799 85.322034,33.0155799 C89.5463592,33.0155799 92.9712613,34.9338237 92.9712613,41.2700424 C92.9712613,47.6062612 78.5545379,61.11269 78.5545379,61.11269 Z" stroke="#C71717" stroke-width="2" fill="url(#linearGradient-2)" transform="translate(78.390415, 47.064135) rotate(-9.000000) translate(-78.390415, -47.064135) "></path>
                <path d="M104.929212,40.0595886 C104.929212,40.0595886 94.6077335,30.6409847 94.6077335,26.1697353 C94.6077335,21.698486 97.2625378,20.3916116 100.141595,20.3916116 C103.020651,20.3916116 104.848654,23.7088232 104.848654,23.7088232 C104.848654,23.7088232 106.709432,20.3916116 109.66646,20.3916116 C112.623487,20.3916116 115.020919,21.7343822 115.020919,26.1697353 C115.020919,30.6050884 104.929212,40.0595886 104.929212,40.0595886 Z" stroke="#C71717" stroke-width="1.4" fill="url(#linearGradient-2)" transform="translate(104.814326, 30.225600) rotate(21.000000) translate(-104.814326, -30.225600) "></path>
                <path d="M84.9886493,14.5565218 C84.9886493,14.5565218 78.537725,8.66989437 78.537725,5.87536354 C78.537725,3.0808327 80.1969777,2.26403619 81.9963882,2.26403619 C83.7957987,2.26403619 84.9383003,4.33729344 84.9383003,4.33729344 C84.9383003,4.33729344 86.1012866,2.26403619 87.9494289,2.26403619 C89.7975711,2.26403619 91.2959658,3.10326785 91.2959658,5.87536354 C91.2959658,8.64745923 84.9886493,14.5565218 84.9886493,14.5565218 Z" stroke="#C71717" stroke-width="0.875" fill="url(#linearGradient-2)" transform="translate(84.916845, 8.410279) rotate(-19.000000) translate(-84.916845, -8.410279) "></path>
            </g>
        </g>
    </g>
</svg>