<svg xmlns="http://www.w3.org/2000/svg" xmlns:xlink="http://www.w3.org/1999/xlink" xmlns:sketch="http://www.bohemiancoding.com/sketch/ns" width="394px" height="277px" viewBox="0 0 394 277" version="1.1"><!-- Generator: Sketch 3.3.3 (12081) - http://www.bohemiancoding.com/sketch --><title>Imported Layers</title><desc>Created with Sketch.</desc><defs/><g stroke="none" stroke-width="1" fill="none" fill-rule="evenodd" sketch:type="MSPage" opacity="0.05"><g sketch:type="MSLayerGroup" fill="#FFFFFF"><path d="M24.755 48.9 L4.327 37.1 L4.327 13.5 L24.755 1.7 L45.183 13.5 L45.183 37.1 L24.755 48.9 L24.755 48.9 Z M5.923 36.2 L24.755 47.1 L43.587 36.2 L43.587 14.4 L24.755 3.6 L5.923 14.4 L5.923 36.2 L5.923 36.2 Z M24.755 37.1 C18.277 37.1 13 31.8 13 25.3 C13.006 18.8 18.3 13.6 24.8 13.6 C31.233 13.6 36.5 18.8 36.5 25.3 C36.503 31.8 31.2 37.1 24.8 37.1 L24.755 37.1 Z M24.755 15.2 C19.156 15.2 14.6 19.7 14.6 25.3 C14.602 30.9 19.2 35.5 24.8 35.5 C30.353 35.5 34.9 30.9 34.9 25.3 C34.908 19.7 30.4 15.2 24.8 15.2 L24.755 15.2 Z" sketch:type="MSShapeGroup"/><path d="M222.977 275.5 L209.904 267.9 L209.904 252.8 L222.977 245.3 L236.049 252.8 L236.049 267.9 L222.977 275.5 L222.977 275.5 Z M211.5 267 L222.977 273.6 L234.453 267 L234.453 253.7 L222.977 247.1 L211.5 253.7 L211.5 267 L211.5 267 Z M222.977 268 C218.761 268 215.3 264.6 215.3 260.4 C215.332 256.1 218.8 252.7 223 252.7 C227.192 252.7 230.6 256.1 230.6 260.4 C230.622 264.6 227.2 268 223 268 L222.977 268 Z M222.977 254.3 C219.641 254.3 216.9 257 216.9 260.4 C216.927 263.7 219.6 266.4 223 266.4 C226.312 266.4 229 263.7 229 260.4 C229.026 257 226.3 254.3 223 254.3 L222.977 254.3 Z" sketch:type="MSShapeGroup"/><path d="M85.779 49 L85.554 48.3 C84.98 46.6 83.4 45.4 81.5 45.4 C79.698 45.4 78.1 46.6 77.5 48.3 L77.283 49 L76.58 48.9 C75.083 48.5 73.6 48 72.2 47.4 L71.553 47.1 L71.772 46.5 C72.331 44.7 71.7 42.8 70.2 41.7 C69.499 41.2 68.6 40.9 67.7 40.9 C66.859 40.9 66 41.2 65.3 41.7 L64.682 42.1 L64.204 41.6 C63.184 40.5 62.3 39.2 61.5 37.9 L61.138 37.3 L61.718 36.8 C63.195 35.8 63.8 33.9 63.2 32.1 C62.675 30.4 61.1 29.2 59.2 29.2 L58.513 29.2 L58.443 28.5 C58.368 27.7 58.3 26.9 58.3 26.2 C58.33 25.4 58.4 24.6 58.4 23.9 L58.513 23.2 L59.233 23.2 C61.065 23.2 62.7 22 63.2 20.2 C63.808 18.5 63.2 16.6 61.7 15.5 L61.138 15.1 L61.502 14.5 C62.275 13.1 63.2 11.9 64.2 10.8 L64.682 10.2 L65.265 10.6 C65.979 11.2 66.9 11.4 67.7 11.4 C68.64 11.4 69.5 11.2 70.2 10.6 C71.71 9.5 72.3 7.6 71.8 5.9 L71.553 5.2 L72.211 4.9 C73.613 4.3 75.1 3.8 76.6 3.5 L77.283 3.4 L77.507 4 C78.081 5.8 79.7 7 81.5 7 C83.363 7 85 5.8 85.6 4 L85.779 3.4 L86.481 3.5 C87.978 3.8 89.4 4.3 90.9 4.9 L91.509 5.2 L91.29 5.9 C90.731 7.6 91.4 9.5 92.8 10.6 C93.563 11.2 94.4 11.4 95.3 11.4 C96.202 11.4 97.1 11.2 97.8 10.6 L98.38 10.2 L98.858 10.8 C99.877 11.9 100.8 13.1 101.6 14.5 L101.924 15.1 L101.344 15.5 C99.866 16.6 99.3 18.5 99.8 20.2 C100.386 22 102 23.2 103.8 23.2 L104.549 23.2 L104.619 23.9 C104.694 24.6 104.7 25.4 104.7 26.2 C104.732 26.9 104.7 27.7 104.6 28.5 L104.549 29.2 L103.829 29.2 C101.997 29.2 100.4 30.4 99.8 32.1 C99.254 33.9 99.9 35.8 101.3 36.8 L101.924 37.3 L101.56 37.9 C100.786 39.2 99.9 40.5 98.9 41.6 L98.38 42.1 L97.796 41.7 C97.083 41.2 96.2 40.9 95.3 40.9 C94.422 40.9 93.6 41.2 92.8 41.7 C91.351 42.8 90.7 44.7 91.3 46.5 L91.509 47.1 L90.851 47.4 C89.449 48 88 48.5 86.5 48.9 L85.779 49 L85.779 49 Z M73.472 46.2 C74.38 46.6 75.3 46.9 76.3 47.1 C77.222 45.1 79.3 43.8 81.5 43.8 C83.806 43.8 85.8 45.1 86.8 47.1 C87.746 46.9 88.7 46.6 89.6 46.2 C89.18 44 90.1 41.8 91.9 40.4 C92.899 39.7 94.1 39.3 95.3 39.3 C96.304 39.3 97.3 39.6 98.1 40 C98.734 39.3 99.3 38.5 99.8 37.7 C98.215 36.1 97.6 33.8 98.3 31.6 C99.005 29.5 100.9 27.9 103.1 27.6 C103.119 27.2 103.1 26.7 103.1 26.2 C103.136 25.7 103.1 25.2 103.1 24.7 C100.877 24.4 99 22.9 98.3 20.7 C97.6 18.6 98.2 16.2 99.8 14.7 C99.313 13.9 98.7 13.1 98.1 12.3 C97.254 12.8 96.3 13 95.3 13 C94.083 13 92.9 12.6 91.9 11.9 C90.055 10.6 89.2 8.3 89.6 6.1 C88.681 5.8 87.7 5.5 86.8 5.2 C85.839 7.2 83.8 8.5 81.5 8.5 C79.256 8.5 77.2 7.2 76.3 5.2 C75.315 5.5 74.4 5.8 73.5 6.1 C73.882 8.3 73 10.6 71.2 11.9 C70.162 12.6 69 13 67.7 13 C66.758 13 65.8 12.8 65 12.3 C64.328 13.1 63.7 13.9 63.2 14.7 C64.846 16.2 65.5 18.6 64.8 20.7 C64.056 22.9 62.2 24.4 60 24.7 C59.942 25.2 59.9 25.7 59.9 26.2 C59.925 26.7 59.9 27.2 60 27.6 C62.185 27.9 64.1 29.5 64.8 31.6 C65.462 33.8 64.8 36.1 63.2 37.7 C63.749 38.5 64.3 39.3 65 40 C65.808 39.6 66.8 39.3 67.7 39.3 C68.979 39.3 70.2 39.7 71.2 40.4 C73.006 41.8 73.9 44 73.5 46.2 L73.472 46.2 Z M81.531 39.7 C74.103 39.7 68.1 33.6 68.1 26.2 C68.06 18.8 74.1 12.7 81.5 12.7 C88.959 12.7 95 18.8 95 26.2 C95.002 33.6 89 39.7 81.5 39.7 L81.531 39.7 Z M81.531 14.3 C74.983 14.3 69.7 19.6 69.7 26.2 C69.656 32.7 75 38.1 81.5 38.1 C88.079 38.1 93.4 32.7 93.4 26.2 C93.406 19.6 88.1 14.3 81.5 14.3 L81.531 14.3 Z" sketch:type="MSShapeGroup"/><path d="M134.473 98.7 C132.962 98.7 131.9 97.5 131.9 95.7 L131.948 82.9 C131.948 81.4 130.7 80.1 129.2 80.1 L120.378 80.1 C118.838 80.1 117.6 81.4 117.6 82.9 L117.585 95.7 C117.585 96.6 117.4 97.3 116.9 97.8 C116.472 98.4 115.8 98.7 115.1 98.7 C114.485 98.7 113.9 98.5 113.3 98.2 L109.883 96.2 C107.916 95.1 106.4 92.4 106.4 90.1 L106.375 77 C106.375 74.7 107.9 72.1 109.9 70.9 L114.899 68 C116.368 67.2 117.6 65 117.6 63.3 L117.609 7.6 C117.609 5.2 119.6 3.2 122 3.2 L127.184 3.2 C129.604 3.2 131.6 5.2 131.6 7.6 L131.573 63.1 C131.573 64.8 132.8 67 134.3 67.8 L139.649 70.9 C141.616 72.1 143.2 74.7 143.2 77 L143.157 90.1 C143.157 92.4 141.6 95.1 139.6 96.2 L136.254 98.2 C135.646 98.5 135 98.7 134.5 98.7 L134.473 98.7 Z M120.378 78.5 L129.154 78.5 C131.574 78.5 133.5 80.5 133.5 82.9 L133.543 95.7 C133.543 96.1 133.6 97.1 134.5 97.1 C134.76 97.1 135.1 97 135.5 96.8 L138.851 94.8 C140.32 94 141.6 91.8 141.6 90.1 L141.562 77 C141.562 75.3 140.3 73.2 138.9 72.3 L133.485 69.2 C131.518 68.1 130 65.4 130 63.1 L129.977 7.6 C129.977 6.1 128.7 4.8 127.2 4.8 L121.998 4.8 C120.458 4.8 119.2 6.1 119.2 7.6 L119.205 63.3 C119.205 65.6 117.7 68.3 115.7 69.4 L110.681 72.3 C109.212 73.2 108 75.3 108 77 L107.971 90.1 C107.971 91.8 109.2 94 110.7 94.8 L114.076 96.8 C114.433 97 114.8 97.1 115.1 97.1 C115.326 97.1 115.5 97 115.7 96.8 C115.881 96.6 116 96.2 116 95.7 L115.989 82.9 C115.989 80.5 118 78.5 120.4 78.5 L120.378 78.5 Z M124.846 14.2 C123.108 14.2 121.7 12.8 121.7 11.1 C121.694 9.3 123.1 7.9 124.8 7.9 C126.584 7.9 128 9.3 128 11.1 C127.997 12.8 126.6 14.2 124.8 14.2 L124.846 14.2 Z M124.846 9.5 C123.988 9.5 123.3 10.2 123.3 11.1 C123.29 11.9 124 12.6 124.8 12.6 C125.703 12.6 126.4 11.9 126.4 11.1 C126.401 10.2 125.7 9.5 124.8 9.5 L124.846 9.5 Z" sketch:type="MSShapeGroup"/><path d="M150.894 49.6 C150.587 49.6 150.3 49.4 150.1 49.2 C149.835 48.7 150 48.2 150.2 47.7 L156.402 33.1 C156.477 32.9 156.5 32.8 156.4 32.7 C156.388 32.6 156.2 32.6 156 32.6 L146.469 32.6 C145.74 32.6 145.1 32.3 144.7 31.8 C144.338 31.2 144.2 30.5 144.5 29.8 L152.929 4.2 C153.345 2.9 154.7 1.9 156 1.9 L181.476 1.9 C182.584 1.9 183 2.5 183.1 2.8 C183.242 3.1 183.3 3.8 182.6 4.6 L163.242 23.9 L173.397 23.9 C174.506 23.9 174.9 24.4 175 24.8 C175.164 25.1 175.3 25.7 174.5 26.5 L152.084 48.9 C151.62 49.4 151.3 49.6 150.9 49.6 L150.894 49.6 Z M156.044 3.5 C155.406 3.5 154.6 4.1 154.4 4.7 L145.994 30.3 C145.928 30.5 145.9 30.7 146 30.8 C146.091 30.9 146.3 31 146.5 31 L156.044 31 C156.787 31 157.4 31.3 157.8 31.8 C158.125 32.4 158.2 33.1 157.9 33.8 L152.594 46.2 L173.266 25.5 L163.112 25.5 C162.004 25.5 161.6 24.9 161.5 24.6 C161.345 24.3 161.2 23.6 162 22.9 L181.345 3.5 L156.044 3.5 L156.044 3.5 Z" sketch:type="MSShapeGroup"/><path d="M209.365 9.4 L194.006 9.4 L194.006 8.6 C194.006 4.3 197.5 0.9 201.7 0.9 C205.92 0.9 209.4 4.3 209.4 8.6 L209.365 9.4 L209.365 9.4 Z M195.653 7.8 L207.717 7.8 C207.325 4.8 204.8 2.5 201.7 2.5 C198.601 2.5 196 4.8 195.7 7.8 L195.653 7.8 Z" sketch:type="MSShapeGroup"/><path d="M198.045 7.8 L205.325 7.8 L205.325 41.7 L198.045 41.7 L198.045 7.8 Z M199.641 40.1 L203.73 40.1 L203.73 9.4 L199.641 9.4 L199.641 40.1 Z" sketch:type="MSShapeGroup"/><path d="M204.363 13.8 L198.679 12.6 L199.007 11.1 L204.692 12.3 L204.363 13.8" sketch:type="MSShapeGroup"/><path d="M204.363 18.1 L198.679 16.9 L199.007 15.4 L204.692 16.6 L204.363 18.1" sketch:type="MSShapeGroup"/><path d="M204.363 22.5 L198.679 21.3 L199.007 19.7 L204.692 20.9 L204.363 22.5" sketch:type="MSShapeGroup"/><path d="M204.363 26.8 L198.679 25.6 L199.007 24 L204.692 25.2 L204.363 26.8" sketch:type="MSShapeGroup"/><path d="M204.363 31.1 L198.679 29.9 L199.007 28.3 L204.692 29.5 L204.363 31.1" sketch:type="MSShapeGroup"/><path d="M204.363 35.4 L198.679 34.2 L199.007 32.6 L204.692 33.8 L204.363 35.4" sketch:type="MSShapeGroup"/><path d="M100.496 154.7 L85.137 154.7 L85.137 153.9 C85.137 149.7 88.6 146.2 92.8 146.2 C97.051 146.2 100.5 149.7 100.5 153.9 L100.496 154.7 L100.496 154.7 Z M86.785 153.1 L98.849 153.1 C98.456 150.1 95.9 147.8 92.8 147.8 C89.733 147.8 87.2 150.1 86.8 153.1 L86.785 153.1 Z" sketch:type="MSShapeGroup"/><path d="M89.177 153.1 L96.458 153.1 L96.458 187 L89.177 187 L89.177 153.1 Z M90.773 185.4 L94.862 185.4 L94.862 154.7 L90.773 154.7 L90.773 185.4 Z" sketch:type="MSShapeGroup"/><path d="M95.495 159.2 L89.81 158 L90.139 156.4 L95.824 157.6 L95.495 159.2" sketch:type="MSShapeGroup"/><path d="M95.495 163.5 L89.81 162.3 L90.139 160.7 L95.824 161.9 L95.495 163.5" sketch:type="MSShapeGroup"/><path d="M95.495 167.8 L89.81 166.6 L90.139 165 L95.824 166.2 L95.495 167.8" sketch:type="MSShapeGroup"/><path d="M95.495 172.1 L89.81 170.9 L90.139 169.3 L95.824 170.5 L95.495 172.1" sketch:type="MSShapeGroup"/><path d="M95.495 176.4 L89.81 175.2 L90.139 173.7 L95.824 174.9 L95.495 176.4" sketch:type="MSShapeGroup"/><path d="M95.495 180.7 L89.81 179.5 L90.139 178 L95.824 179.2 L95.495 180.7" sketch:type="MSShapeGroup"/><path d="M384.715 67.5 L383.917 67.5 L383.917 52.2 L384.715 52.2 C388.949 52.2 392.4 55.6 392.4 59.8 C392.394 64.1 388.9 67.5 384.7 67.5 L384.715 67.5 Z M385.513 53.8 L385.513 65.9 C388.491 65.5 390.8 62.9 390.8 59.8 C390.799 56.7 388.5 54.2 385.5 53.8 L385.513 53.8 Z" sketch:type="MSShapeGroup"/><path d="M351.603 56.2 L385.513 56.2 L385.513 63.5 L351.603 63.5 L351.603 56.2 Z M353.199 61.9 L383.917 61.9 L383.917 57.8 L353.199 57.8 L353.199 61.9 Z" sketch:type="MSShapeGroup"/><path d="M381.034 62.8 L379.473 62.5 L380.67 56.8 L382.231 57.2 L381.034 62.8" sketch:type="MSShapeGroup"/><path d="M376.72 62.8 L375.159 62.5 L376.356 56.8 L377.917 57.2 L376.72 62.8" sketch:type="MSShapeGroup"/><path d="M372.406 62.8 L370.845 62.5 L372.041 56.8 L373.603 57.2 L372.406 62.8" sketch:type="MSShapeGroup"/><path d="M368.092 62.8 L366.53 62.5 L367.727 56.8 L369.289 57.2 L368.092 62.8" sketch:type="MSShapeGroup"/><path d="M363.778 62.8 L362.216 62.5 L363.413 56.8 L364.974 57.2 L363.778 62.8" sketch:type="MSShapeGroup"/><path d="M359.463 62.8 L357.902 62.5 L359.099 56.8 L360.66 57.2 L359.463 62.8" sketch:type="MSShapeGroup"/><path d="M215.864 0.9 L230.325 0.9 L230.325 5.9 L215.864 5.9 L215.864 0.9 Z M217.46 4.3 L228.73 4.3 L228.73 2.5 L217.46 2.5 L217.46 4.3 Z" sketch:type="MSShapeGroup"/><path d="M221 4.3 L225.19 4.3 L225.19 50.4 L221 50.4 L221 4.3 Z M222.596 48.8 L223.594 48.8 L223.594 5.9 L222.596 5.9 L222.596 48.8 Z" sketch:type="MSShapeGroup"/><path d="M337.163 174.8 L321.803 174.8 L321.803 174 C321.803 169.8 325.2 166.3 329.5 166.3 C333.717 166.3 337.2 169.8 337.2 174 L337.163 174.8 L337.163 174.8 Z M323.451 173.2 L335.515 173.2 C335.123 170.2 332.6 167.9 329.5 167.9 C326.399 167.9 323.8 170.2 323.5 173.2 L323.451 173.2 Z" sketch:type="MSShapeGroup"/><path d="M325.843 173.2 L333.124 173.2 L333.124 207.1 L325.843 207.1 L325.843 173.2 Z M327.439 205.5 L331.528 205.5 L331.528 174.8 L327.439 174.8 L327.439 205.5 Z" sketch:type="MSShapeGroup"/><path d="M332.161 179.3 L326.476 178.1 L326.805 176.5 L332.49 177.7 L332.161 179.3" sketch:type="MSShapeGroup"/><path d="M332.161 183.6 L326.476 182.4 L326.805 180.8 L332.49 182 L332.161 183.6" sketch:type="MSShapeGroup"/><path d="M332.161 187.9 L326.476 186.7 L326.805 185.1 L332.49 186.3 L332.161 187.9" sketch:type="MSShapeGroup"/><path d="M332.161 192.2 L326.476 191 L326.805 189.4 L332.49 190.6 L332.161 192.2" sketch:type="MSShapeGroup"/><path d="M332.161 196.5 L326.476 195.3 L326.805 193.8 L332.49 195 L332.161 196.5" sketch:type="MSShapeGroup"/><path d="M332.161 200.8 L326.476 199.6 L326.805 198.1 L332.49 199.3 L332.161 200.8" sketch:type="MSShapeGroup"/><path d="M301.598 194.5 L257.108 194.5 L257.108 189.3 L252.071 189.3 L252.071 203.8 L257.108 203.8 L257.108 198.7 L301.598 198.7 L301.598 194.5 L301.598 194.5 Z M253.667 190.9 L255.512 190.9 L255.512 202.2 L253.667 202.2 L253.667 190.9 Z M257.108 196.1 L300.002 196.1 L300.002 197.1 L257.108 197.1 L257.108 196.1 Z" sketch:type="MSShapeGroup"/><path d="M57.479 147.1 L71.94 147.1 L71.94 152.1 L57.479 152.1 L57.479 147.1 Z M59.075 150.5 L70.345 150.5 L70.345 148.7 L59.075 148.7 L59.075 150.5 Z" sketch:type="MSShapeGroup"/><path d="M62.615 150.5 L66.805 150.5 L66.805 196.6 L62.615 196.6 L62.615 150.5 Z M64.211 195 L65.209 195 L65.209 152.1 L64.211 152.1 L64.211 195 Z" sketch:type="MSShapeGroup"/><path d="M336.987 70 L245.227 70 C242.807 70 240.8 68.1 240.8 65.7 L240.838 5.3 C240.838 2.9 242.8 0.9 245.2 0.9 L336.987 0.9 C339.407 0.9 341.4 2.9 341.4 5.3 L341.375 65.7 C341.375 68.1 339.4 70 337 70 L336.987 70 Z M245.227 2.5 C243.687 2.5 242.4 3.8 242.4 5.3 L242.434 65.7 C242.434 67.2 243.7 68.4 245.2 68.4 L336.987 68.4 C338.527 68.4 339.8 67.2 339.8 65.7 L339.78 5.3 C339.78 3.8 338.5 2.5 337 2.5 L245.227 2.5 L245.227 2.5 Z" sketch:type="MSShapeGroup"/><path d="M10.054 97.2 L9.462 96.6 C4.982 92.6 2.4 86.8 2.4 80.7 C2.412 68.9 12 59.3 23.9 59.3 C35.719 59.3 45.4 68.9 45.4 80.7 C45.351 86.5 43.1 91.8 39.1 95.9 L38.498 96.5 L32.856 90.8 L33.42 90.3 C35.968 87.7 37.4 84.3 37.4 80.7 C37.372 73.3 31.3 67.2 23.9 67.2 C16.443 67.2 10.4 73.3 10.4 80.7 C10.391 84.5 12 88.2 14.8 90.7 L15.412 91.3 L10.054 97.2 L10.054 97.2 Z M23.881 60.8 C12.923 60.8 4 69.8 4 80.7 C4.008 86.1 6.2 91.2 10 94.9 L13.173 91.3 C10.382 88.5 8.8 84.7 8.8 80.7 C8.795 72.4 15.6 65.6 23.9 65.6 C32.2 65.6 39 72.4 39 80.7 C38.967 84.5 37.6 88 35.1 90.8 L38.487 94.2 C41.89 90.5 43.8 85.8 43.8 80.7 C43.755 69.8 34.8 60.8 23.9 60.8 L23.881 60.8 Z" sketch:type="MSShapeGroup"/><path d="M357.946 38.1 L357.354 37.6 C352.874 33.5 350.3 27.7 350.3 21.7 C350.304 9.8 359.9 0.2 371.8 0.2 C383.612 0.2 393.2 9.8 393.2 21.7 C393.243 27.4 391 32.8 387 36.8 L386.39 37.4 L380.748 31.8 L381.313 31.2 C383.861 28.7 385.3 25.3 385.3 21.7 C385.264 14.2 379.2 8.2 371.8 8.2 C364.335 8.2 358.3 14.2 358.3 21.7 C358.283 25.5 359.9 29.1 362.7 31.7 L363.305 32.2 L357.946 38.1 L357.946 38.1 Z M371.774 1.8 C360.815 1.8 351.9 10.7 351.9 21.7 C351.9 27 354.1 32.1 357.8 35.8 L361.065 32.3 C358.274 29.5 356.7 25.6 356.7 21.7 C356.688 13.3 363.5 6.6 371.8 6.6 C380.092 6.6 386.9 13.3 386.9 21.7 C386.86 25.4 385.5 29 383 31.8 L386.379 35.1 C389.782 31.5 391.6 26.7 391.6 21.7 C391.647 10.7 382.7 1.8 371.8 1.8 L371.774 1.8 Z" sketch:type="MSShapeGroup"/><path d="M23.892 154 C22.817 154 21.7 153.9 20.7 153.7 L19.778 153.6 L20.009 152.8 C20.578 150.6 19.4 148.4 17.4 147.6 C16.864 147.4 16.3 147.3 15.8 147.3 C14.158 147.3 12.7 148.1 11.9 149.6 L11.493 150.4 L10.756 149.8 C8.763 148.5 7 146.8 5.6 144.8 L5.02 144.1 L5.797 143.7 C7.718 142.5 8.5 140.2 7.6 138.1 C6.915 136.5 5.3 135.5 3.6 135.5 C3.165 135.5 2.7 135.6 2.3 135.7 L1.469 135.9 L1.311 135.1 C0.885 132.7 0.8 130.2 1.2 127.8 L1.313 127 L2.181 127.2 C2.546 127.3 2.9 127.3 3.3 127.3 C5.11 127.3 6.7 126.2 7.4 124.6 C8.188 122.5 7.3 120.1 5.4 119.1 L4.576 118.7 L5.09 117.9 C6.479 115.9 8.2 114.2 10.1 112.7 L10.824 112.2 L11.274 113 C12.054 114.3 13.5 115.1 15.1 115.1 C15.663 115.1 16.2 115 16.8 114.8 C18.845 113.9 19.9 111.6 19.3 109.5 L18.99 108.6 L19.874 108.5 C22.247 108.1 24.7 108 27.1 108.4 L27.985 108.5 L27.754 109.4 C27.185 111.5 28.3 113.7 30.4 114.5 C30.899 114.7 31.4 114.9 32 114.9 C33.605 114.9 35.1 114 35.8 112.5 L36.27 111.7 L37.007 112.3 C39 113.7 40.7 115.3 42.2 117.3 L42.743 118 L41.966 118.4 C40.045 119.6 39.3 121.9 40.2 124 C40.848 125.6 42.4 126.6 44.2 126.6 C44.598 126.6 45 126.5 45.4 126.4 L46.294 126.2 L46.452 127 C46.878 129.4 46.9 131.9 46.6 134.3 L46.45 135.2 L45.582 134.9 C45.217 134.8 44.8 134.8 44.5 134.8 C42.653 134.8 41.1 135.9 40.4 137.6 C39.575 139.6 40.4 142 42.4 143 L43.187 143.4 L42.674 144.2 C41.284 146.2 39.6 147.9 37.7 149.4 L36.939 149.9 L36.488 149.1 C35.709 147.8 34.3 147 32.7 147 C32.1 147 31.5 147.1 31 147.3 C28.918 148.2 27.9 150.5 28.5 152.6 L28.773 153.5 L27.889 153.6 C26.573 153.9 25.2 154 23.9 154 L23.892 154 Z M21.717 152.3 C23.406 152.4 25.1 152.4 26.8 152.2 C26.409 149.6 27.8 146.9 30.3 145.9 C31.079 145.5 31.9 145.4 32.7 145.4 C34.518 145.4 36.2 146.2 37.4 147.6 C38.67 146.5 39.9 145.3 40.9 143.9 C38.755 142.4 37.9 139.5 38.9 137 C39.81 134.7 42 133.2 44.5 133.2 C44.677 133.2 44.9 133.2 45.1 133.2 C45.272 131.5 45.2 129.8 45 128.1 C44.733 128.2 44.5 128.2 44.2 128.2 C41.789 128.2 39.6 126.8 38.7 124.6 C37.601 122.1 38.4 119.2 40.4 117.6 C39.345 116.3 38.1 115.1 36.8 114.1 C35.65 115.5 33.9 116.4 32 116.4 C31.237 116.4 30.5 116.3 29.8 116 C27.263 115 25.8 112.5 26 109.8 C24.357 109.7 22.7 109.7 21 109.9 C21.353 112.5 19.9 115.2 17.4 116.2 C16.684 116.6 15.9 116.7 15.1 116.7 C13.245 116.7 11.5 115.9 10.4 114.5 C9.093 115.6 7.9 116.8 6.9 118.2 C9.008 119.8 9.9 122.6 8.9 125.1 C7.952 127.4 5.8 128.9 3.3 128.9 C3.086 128.9 2.9 128.9 2.7 128.9 C2.49 130.6 2.5 132.3 2.8 134 C3.03 133.9 3.3 133.9 3.6 133.9 C5.974 133.9 8.1 135.3 9.1 137.5 C10.161 140 9.4 142.9 7.3 144.5 C8.418 145.8 9.6 147 11 148 C12.113 146.6 13.9 145.7 15.8 145.7 C16.526 145.7 17.3 145.8 18 146.1 C20.5 147.1 22 149.6 21.7 152.3 L21.717 152.3 Z M23.882 138.4 C19.808 138.4 16.5 135.1 16.5 131.1 C16.494 127 19.8 123.7 23.9 123.7 C27.955 123.7 31.3 127 31.3 131.1 C31.269 135.1 28 138.4 23.9 138.4 L23.882 138.4 Z M23.882 125.3 C20.688 125.3 18.1 127.9 18.1 131.1 C18.09 134.2 20.7 136.8 23.9 136.8 C27.075 136.8 29.7 134.2 29.7 131.1 C29.673 127.9 27.1 125.3 23.9 125.3 L23.882 125.3 Z" sketch:type="MSShapeGroup"/><path d="M371.1 126.9 C370.026 126.9 368.9 126.9 367.9 126.7 L366.986 126.6 L367.216 125.7 C367.786 123.6 366.7 121.3 364.6 120.5 C364.072 120.3 363.5 120.2 363 120.2 C361.365 120.2 359.9 121.1 359.1 122.5 L358.701 123.3 L357.964 122.8 C355.971 121.4 354.2 119.7 352.8 117.8 L352.228 117.1 L353.005 116.6 C354.926 115.5 355.7 113.1 354.8 111.1 C354.123 109.5 352.5 108.5 350.8 108.5 C350.373 108.5 349.9 108.5 349.5 108.7 L348.677 108.9 L348.519 108 C348.093 105.6 348.1 103.2 348.4 100.8 L348.521 99.9 L349.389 100.2 C349.754 100.2 350.1 100.3 350.5 100.3 C352.318 100.3 353.9 99.2 354.6 97.5 C355.396 95.5 354.5 93.1 352.6 92.1 L351.784 91.6 L352.298 90.9 C353.687 88.9 355.4 87.2 357.3 85.7 L358.032 85.2 L358.482 85.9 C359.262 87.3 360.7 88.1 362.3 88.1 C362.871 88.1 363.5 88 364 87.8 C366.053 86.9 367.1 84.6 366.5 82.5 L366.198 81.6 L367.082 81.5 C369.455 81 371.9 81 374.3 81.3 L375.193 81.5 L374.962 82.3 C374.393 84.5 375.5 86.7 377.6 87.5 C378.107 87.7 378.6 87.8 379.2 87.8 C380.813 87.8 382.3 86.9 383.1 85.5 L383.478 84.7 L384.215 85.2 C386.208 86.6 388 88.3 389.4 90.2 L389.951 91 L389.174 91.4 C387.253 92.5 386.5 94.9 387.4 96.9 C388.056 98.5 389.6 99.6 391.4 99.6 C391.806 99.6 392.2 99.5 392.6 99.4 L393.503 99.1 L393.66 100 C394.086 102.4 394.1 104.8 393.8 107.2 L393.658 108.1 L392.79 107.9 C392.425 107.8 392.1 107.8 391.7 107.8 C389.861 107.8 388.3 108.8 387.6 110.5 C386.783 112.6 387.6 114.9 389.6 116 L390.395 116.4 L389.881 117.1 C388.492 119.1 386.8 120.9 384.9 122.3 L384.147 122.9 L383.696 122.1 C382.917 120.8 381.5 119.9 379.9 119.9 C379.308 119.9 378.7 120.1 378.2 120.3 C376.126 121.2 375.1 123.5 375.7 125.6 L375.981 126.4 L375.097 126.6 C373.781 126.8 372.4 126.9 371.1 126.9 L371.1 126.9 Z M368.925 125.2 C370.614 125.4 372.3 125.4 374 125.2 C373.617 122.5 375 119.9 377.5 118.8 C378.287 118.5 379.1 118.3 379.9 118.3 C381.726 118.3 383.4 119.2 384.6 120.6 C385.878 119.5 387.1 118.3 388.1 116.9 C385.963 115.3 385.1 112.5 386.1 109.9 C387.019 107.6 389.2 106.2 391.7 106.2 C391.885 106.2 392.1 106.2 392.3 106.2 C392.481 104.5 392.5 102.8 392.2 101.1 C391.941 101.2 391.7 101.2 391.4 101.2 C388.997 101.2 386.8 99.8 385.9 97.6 C384.809 95.1 385.6 92.2 387.6 90.5 C386.553 89.2 385.3 88.1 384 87 C382.858 88.5 381.1 89.4 379.2 89.4 C378.445 89.4 377.7 89.3 377 89 C374.471 88 373 85.4 373.3 82.8 C371.565 82.6 369.9 82.7 368.2 82.9 C368.561 85.5 367.1 88.1 364.6 89.2 C363.892 89.5 363.1 89.7 362.3 89.7 C360.453 89.7 358.7 88.9 357.6 87.5 C356.301 88.6 355.1 89.8 354.1 91.1 C356.216 92.7 357.1 95.6 356.1 98.1 C355.16 100.4 353 101.9 350.5 101.9 C350.294 101.9 350.1 101.9 349.9 101.9 C349.698 103.5 349.7 105.2 350 106.9 C350.238 106.9 350.5 106.9 350.8 106.9 C353.182 106.9 355.3 108.3 356.3 110.5 C357.369 113 356.6 115.8 354.6 117.5 C355.626 118.8 356.8 120 358.2 121 C359.321 119.5 361.1 118.6 363 118.6 C363.734 118.6 364.5 118.8 365.2 119 C367.708 120 369.2 122.6 368.9 125.2 L368.925 125.2 Z M371.089 111.4 C367.016 111.4 363.7 108.1 363.7 104 C363.702 99.9 367 96.6 371.1 96.6 C375.163 96.6 378.5 99.9 378.5 104 C378.477 108.1 375.2 111.4 371.1 111.4 L371.089 111.4 Z M371.089 98.2 C367.896 98.2 365.3 100.8 365.3 104 C365.298 107.2 367.9 109.8 371.1 109.8 C374.283 109.8 376.9 107.2 376.9 104 C376.881 100.8 374.3 98.2 371.1 98.2 L371.089 98.2 Z" sketch:type="MSShapeGroup"/><path d="M159.271 129.4 L150.79 126.7 L113.44 126.7 L113.44 119.2 L150.79 119.2 L159.271 116.5 L174.575 120.1 L174.575 125.8 L159.271 129.4 L159.271 129.4 Z M115.036 125.1 L151.035 125.1 L159.335 127.7 L172.979 124.5 L172.979 121.3 L159.335 118.2 L151.035 120.8 L115.036 120.8 L115.036 125.1 L115.036 125.1 Z" sketch:type="MSShapeGroup"/><path d="M64.166 132.4 C61.814 132.4 59.9 130.5 59.9 128.1 L59.9 117.8 C59.9 115.4 61.9 113.4 64.3 113.5 L100.875 114.7 C102.845 114.8 105.2 114.8 106.2 114.8 C107.094 114.8 109.3 114.5 110.9 114.1 C111.181 114.1 111.5 114 111.7 114 C113.61 114 115 115.6 115 117.8 L115.036 128.1 C115.036 130.3 113.6 131.9 111.7 131.9 C111.473 131.9 111.2 131.8 110.9 131.8 C109.292 131.4 107.1 131.1 106.2 131.1 C105.281 131.1 102.9 131.1 100.9 131.2 L64.313 132.4 C64.264 132.4 64.2 132.4 64.2 132.4 L64.166 132.4 Z M64.166 115.1 C62.694 115.1 61.5 116.3 61.5 117.8 L61.496 128.1 C61.496 129.6 62.7 130.8 64.3 130.8 L100.87 129.6 C102.857 129.5 105.3 129.5 106.2 129.5 C107.277 129.5 109.5 129.8 111.3 130.2 C111.448 130.2 111.6 130.3 111.7 130.3 C112.74 130.3 113.4 129.4 113.4 128.1 L113.44 117.8 C113.44 116.5 112.7 115.6 111.7 115.6 C111.574 115.6 111.4 115.6 111.3 115.7 C109.46 116.1 107.2 116.4 106.2 116.4 C105.216 116.4 102.8 116.4 100.8 116.3 L64.26 115.1 C64.229 115.1 64.2 115.1 64.2 115.1 L64.166 115.1 Z" sketch:type="MSShapeGroup"/><path d="M268.461 41 C263.844 41 260.1 37.2 260.1 32.6 C260.088 28 263.8 24.2 268.5 24.2 C273.079 24.2 276.8 28 276.8 32.6 C276.835 37.2 273.1 41 268.5 41 L268.461 41 Z M268.461 25.8 C264.724 25.8 261.7 28.9 261.7 32.6 C261.684 36.3 264.7 39.4 268.5 39.4 C272.198 39.4 275.2 36.3 275.2 32.6 C275.239 28.9 272.2 25.8 268.5 25.8 L268.461 25.8 Z" sketch:type="MSShapeGroup"/><path d="M268.461 45.4 C261.408 45.4 255.7 39.7 255.7 32.6 C255.669 25.5 261.4 19.8 268.5 19.8 C275.515 19.8 281.3 25.5 281.3 32.6 C281.254 39.7 275.5 45.4 268.5 45.4 L268.461 45.4 Z M268.461 21.4 C262.288 21.4 257.3 26.4 257.3 32.6 C257.265 38.8 262.3 43.8 268.5 43.8 C274.635 43.8 279.7 38.8 279.7 32.6 C279.658 26.4 274.6 21.4 268.5 21.4 L268.461 21.4 Z" sketch:type="MSShapeGroup"/><path d="M313.752 41 C309.135 41 305.4 37.2 305.4 32.6 C305.379 28 309.1 24.2 313.8 24.2 C318.369 24.2 322.1 28 322.1 32.6 C322.126 37.2 318.4 41 313.8 41 L313.752 41 Z M313.752 25.8 C310.015 25.8 307 28.9 307 32.6 C306.975 36.3 310 39.4 313.8 39.4 C317.49 39.4 320.5 36.3 320.5 32.6 C320.53 28.9 317.5 25.8 313.8 25.8 L313.752 25.8 Z" sketch:type="MSShapeGroup"/><path d="M313.752 45.4 C306.699 45.4 301 39.7 301 32.6 C300.96 25.5 306.7 19.8 313.8 19.8 C320.806 19.8 326.5 25.5 326.5 32.6 C326.545 39.7 320.8 45.4 313.8 45.4 L313.752 45.4 Z M313.752 21.4 C307.579 21.4 302.6 26.4 302.6 32.6 C302.556 38.8 307.6 43.8 313.8 43.8 C319.926 43.8 324.9 38.8 324.9 32.6 C324.949 26.4 319.9 21.4 313.8 21.4 L313.752 21.4 Z" sketch:type="MSShapeGroup"/><path d="M28.502 276.2 L18.13 276.2 C16.956 276.2 15.9 275.7 15.1 274.9 C14.246 274.1 13.8 273 13.9 271.8 L15.084 235.2 C15.15 233.3 15.2 230.9 15.2 229.9 C15.204 229 14.9 226.9 14.5 225.2 C14.257 224.2 14.5 223.2 15.1 222.4 C15.76 221.6 16.9 221.1 18.1 221.1 L28.502 221.1 C29.766 221.1 30.9 221.6 31.6 222.4 C32.169 223.2 32.4 224.2 32.1 225.2 C31.754 226.8 31.4 229 31.4 229.9 C31.428 230.8 31.5 233.2 31.5 235.2 L32.771 271.8 C32.81 273 32.4 274.1 31.6 274.9 C30.768 275.7 29.7 276.2 28.5 276.2 L28.502 276.2 Z M18.13 222.7 C17.361 222.7 16.7 222.9 16.3 223.4 C16.02 223.8 15.9 224.3 16 224.8 C16.469 226.6 16.8 228.9 16.8 229.9 C16.8 230.9 16.7 233.3 16.7 235.3 L15.457 271.8 C15.432 272.6 15.7 273.3 16.2 273.8 C16.709 274.3 17.4 274.6 18.1 274.6 L28.502 274.6 C29.239 274.6 29.9 274.3 30.4 273.8 C30.935 273.3 31.2 272.6 31.2 271.8 L29.953 235.2 C29.887 233.3 29.8 230.8 29.8 229.9 C29.832 228.8 30.2 226.6 30.6 224.8 C30.709 224.3 30.6 223.8 30.3 223.4 C29.934 222.9 29.3 222.7 28.5 222.7 L18.13 222.7 L18.13 222.7 Z" sketch:type="MSShapeGroup"/><path d="M19.825 181.6 L26.807 181.6 L26.807 222.7 L19.825 222.7 L19.825 181.6 Z M21.421 221.1 L25.211 221.1 L25.211 183.2 L21.421 183.2 L21.421 221.1 Z" sketch:type="MSShapeGroup"/><path d="M2.075 167.5 L10.64 167.5 L10.64 185.6 L2.075 185.6 L2.075 167.5 Z M3.671 184 L9.045 184 L9.045 169.1 L3.671 169.1 L3.671 184 Z" sketch:type="MSShapeGroup"/><path d="M10.52 185.5 L9.303 184.8 L9.303 168.3 L10.519 167.6 L14.231 169.9 L14.611 170.6 L14.611 182.5 L14.233 183.2 L10.52 185.5 L10.52 185.5 Z M10.898 169.7 L10.898 183.4 L13.015 182 L13.015 171 L10.898 169.7 L10.898 169.7 Z" sketch:type="MSShapeGroup"/><path d="M45.188 188.1 C44.643 188.1 44.1 187.8 43.4 187.1 C40.816 184.5 28.5 183.3 23.9 183 L13.015 183.3 L13.015 169.8 L23.906 169.5 L23.918 169.5 C24.346 169.5 34.5 169.7 40.5 175.7 C42.48 177.7 44.2 180.1 45.3 182.4 C45.787 183.5 46.9 186 46.3 187.3 C46.125 187.8 45.7 188.1 45.2 188.1 L45.188 188.1 Z M23.926 181.4 L23.959 181.4 C24.001 181.4 28.2 181.7 32.8 182.3 C39.046 183.2 43 184.4 44.5 185.9 C44.644 186.1 44.8 186.2 44.9 186.3 C44.788 184.9 43.2 180.6 39.4 176.8 C33.871 171.3 24.3 171.1 23.9 171.1 L14.611 171.4 L14.611 181.7 L23.926 181.4 L23.926 181.4 Z" sketch:type="MSShapeGroup"/><path d="M213.745 119.8 C212.781 119.8 212.1 118.8 212.1 117.4 L212.081 115.3 C212.081 113.9 213.1 112.7 214.5 112.4 C215.092 112.3 215.6 111.7 215.6 111.1 L215.609 93.7 C215.609 92.2 216.8 91.1 218.2 91.1 L220.664 91.1 C221.214 91.1 221.7 90.6 221.7 90.1 L221.661 86.8 C221.661 85.4 222.8 84.2 224.3 84.2 L333.875 84.2 C335.305 84.2 336.5 85.4 336.5 86.8 L336.468 103 C336.468 104.2 336 105.6 335 105.7 C334.929 105.7 334.9 105.7 334.8 105.7 C334.039 105.7 333 105 332.3 104.3 C332.236 104.3 331.9 104 331.2 104 C331.077 104 331 104 330.8 104 C329.905 104.1 329.5 104.6 329.5 104.6 C328.368 106.5 328 106.5 327.8 106.5 L327.664 106.5 C327.435 106.5 327.1 106.5 325.6 105.1 C325.58 105 325.2 104.8 324.5 104.8 C324.42 104.8 324.3 104.8 324.2 104.8 C323.248 104.9 322.9 105.3 322.8 105.4 C321.711 107.2 321.4 107.3 321.1 107.3 L321.008 107.3 C320.779 107.3 320.4 107.3 319 105.9 C318.925 105.8 318.6 105.5 317.9 105.5 C317.764 105.5 317.6 105.6 317.5 105.6 C316.59 105.7 316.2 106.1 316.2 106.2 C315.054 108 314.7 108.1 314.4 108.1 L314.352 108.1 C314.111 108.1 313.8 108.1 312.3 106.6 C312.27 106.6 311.9 106.3 311.2 106.3 C311.107 106.3 311 106.3 310.9 106.3 C309.933 106.5 309.6 106.9 309.5 107 C308.397 108.8 308.1 108.8 307.8 108.9 L307.696 108.9 C307.455 108.9 307.1 108.9 305.7 107.4 C305.616 107.4 305.3 107.1 304.6 107.1 C304.45 107.1 304.3 107.1 304.2 107.1 C303.276 107.2 302.9 107.7 302.9 107.7 C301.74 109.6 301.4 109.6 301.1 109.6 L301.04 109.7 C300.799 109.7 300.5 109.7 299 108.2 C298.961 108.1 298.6 107.9 297.9 107.9 C297.793 107.9 297.7 107.9 297.6 107.9 C296.618 108 296.3 108.5 296.2 108.5 C295.084 110.4 294.8 110.4 294.5 110.4 L294.384 110.4 C294.143 110.4 293.8 110.4 292.4 109 C292.306 108.9 292 108.6 291.2 108.6 C291.136 108.6 291 108.7 290.9 108.7 C289.96 108.8 289.6 109.2 289.6 109.3 C288.427 111.1 288.1 111.2 287.8 111.2 L287.728 111.2 C287.487 111.2 287.2 111.2 285.7 109.7 C285.653 109.7 285.3 109.4 284.6 109.4 C284.48 109.4 284.4 109.4 284.2 109.4 C283.303 109.5 282.9 110 282.9 110.1 C281.77 111.9 281.4 111.9 281.2 112 L281.071 112 C280.832 112 280.5 112 279 110.5 C278.997 110.5 278.6 110.2 277.9 110.2 C277.823 110.2 277.7 110.2 277.6 110.2 C276.645 110.3 276.3 110.8 276.2 110.8 C275.113 112.7 274.8 112.7 274.5 112.8 L274.416 112.8 C274.176 112.8 273.8 112.8 272.4 111.3 C272.343 111.2 272 111 271.3 111 C271.166 111 271.1 111 270.9 111 C269.988 111.1 269.6 111.6 269.6 111.6 C268.457 113.5 268.2 113.5 267.9 113.5 L267.76 113.5 C267.521 113.5 267.2 113.5 265.7 112.1 C265.688 112 265.3 111.7 264.6 111.7 C264.51 111.7 264.4 111.7 264.3 111.8 C263.331 111.9 263 112.3 262.9 112.4 C261.799 114.2 261.5 114.3 261.2 114.3 L261.104 114.3 C260.865 114.3 260.5 114.3 259.1 112.8 C259.034 112.8 258.7 112.5 258 112.5 C257.853 112.5 257.7 112.5 257.6 112.5 C256.674 112.6 256.3 113.1 256.3 113.2 C255.143 115 254.8 115.1 254.5 115.1 L254.448 115.1 C254.209 115.1 253.9 115.1 252.4 113.6 C252.38 113.6 252 113.3 251.3 113.3 C251.196 113.3 251.1 113.3 251 113.3 C250.016 113.4 249.7 113.9 249.6 113.9 C248.486 115.8 248.2 115.8 247.9 115.9 L247.792 115.9 C247.553 115.9 247.2 115.9 245.8 114.4 C245.725 114.3 245.4 114.1 244.7 114.1 C244.539 114.1 244.4 114.1 244.3 114.1 C243.358 114.2 243 114.7 243 114.7 C241.83 116.6 241.5 116.6 241.2 116.6 L241.136 116.6 C240.884 116.6 240.6 116.6 239.1 115.2 C239.07 115.1 238.7 114.8 238 114.8 C237.883 114.8 237.8 114.8 237.7 114.9 C236.701 115 236.3 115.4 236.3 115.5 C235.172 117.3 234.9 117.4 234.6 117.4 L234.479 117.4 C234.229 117.4 233.9 117.4 232.5 115.9 C232.416 115.9 232.1 115.6 231.3 115.6 C231.225 115.6 231.1 115.6 231 115.6 C230.043 115.7 229.7 116.2 229.6 116.3 C228.515 118.1 228.2 118.2 227.9 118.2 L227.823 118.2 C227.573 118.2 227.3 118.2 225.8 116.7 C225.761 116.7 225.4 116.4 224.7 116.4 C224.569 116.4 224.5 116.4 224.3 116.4 C223.386 116.5 223 117 223 117 C221.859 118.9 221.6 118.9 221.3 119 L221.168 119 C220.917 119 220.6 119 219.1 117.5 C219.106 117.5 218.7 117.2 218 117.2 C217.912 117.2 217.8 117.2 217.7 117.2 C216.728 117.3 216.4 117.8 216.3 117.8 C215.778 118.7 214.8 119.7 213.9 119.8 C213.844 119.8 213.8 119.8 213.7 119.8 L213.745 119.8 Z M218.202 92.7 C217.653 92.7 217.2 93.1 217.2 93.7 L217.205 111.1 C217.205 112.5 216.1 113.8 214.8 114 C214.195 114.1 213.7 114.7 213.7 115.3 L213.678 117.4 C213.678 117.8 213.8 118 213.8 118.2 C214.104 118 214.6 117.6 215 117 C215.037 116.9 215.7 115.8 217.5 115.6 C217.674 115.6 217.9 115.6 218 115.6 C219.456 115.6 220.2 116.3 220.3 116.4 C220.579 116.7 220.8 116.9 221 117.1 C221.203 116.9 221.4 116.6 221.6 116.2 C221.695 116.1 222.4 115 224.2 114.8 C224.331 114.8 224.5 114.8 224.7 114.8 C226.111 114.8 226.9 115.5 226.9 115.6 C227.233 115.9 227.5 116.1 227.7 116.3 C227.86 116.1 228.1 115.8 228.3 115.4 C228.354 115.3 229 114.3 230.8 114 C230.988 114 231.2 114 231.3 114 C232.766 114 233.5 114.7 233.6 114.8 C233.888 115.1 234.2 115.4 234.4 115.5 C234.517 115.3 234.7 115 234.9 114.7 C235.012 114.5 235.7 113.5 237.5 113.3 C237.644 113.3 237.8 113.2 238 113.2 C239.421 113.2 240.2 114 240.2 114 C240.543 114.3 240.8 114.6 241 114.8 C241.173 114.5 241.4 114.2 241.6 113.9 C241.67 113.8 242.4 112.7 244.1 112.5 C244.301 112.5 244.5 112.5 244.7 112.5 C246.077 112.5 246.8 113.2 246.9 113.3 C247.198 113.6 247.5 113.8 247.7 114 C247.83 113.8 248 113.5 248.3 113.1 C248.329 113 249 111.9 250.8 111.7 C250.958 111.7 251.1 111.7 251.3 111.7 C252.732 111.7 253.5 112.4 253.5 112.5 C253.853 112.8 254.1 113 254.3 113.2 C254.487 113 254.7 112.7 254.9 112.3 C254.987 112.2 255.7 111.2 257.4 111 C257.614 110.9 257.8 110.9 258 110.9 C259.387 110.9 260.1 111.6 260.2 111.7 C260.508 112 260.8 112.3 261 112.4 C261.143 112.2 261.3 111.9 261.6 111.5 C261.645 111.4 262.3 110.4 264.1 110.2 C264.27 110.2 264.4 110.1 264.6 110.1 C266.042 110.1 266.8 110.8 266.9 110.9 C267.163 111.2 267.4 111.5 267.6 111.7 C267.8 111.4 268 111.1 268.2 110.8 C268.304 110.7 269 109.6 270.7 109.4 C270.927 109.4 271.1 109.4 271.3 109.4 C272.697 109.4 273.4 110.1 273.5 110.2 C273.818 110.5 274.1 110.7 274.3 110.9 C274.457 110.7 274.7 110.4 274.9 110 C274.962 109.9 275.6 108.8 277.4 108.6 C277.584 108.6 277.8 108.6 277.9 108.6 C279.353 108.6 280.1 109.3 280.2 109.4 C280.473 109.7 280.7 109.9 281 110.1 C281.114 109.9 281.3 109.6 281.5 109.2 C281.62 109.1 282.3 108.1 284.1 107.9 C284.24 107.8 284.4 107.8 284.6 107.8 C286.008 107.8 286.7 108.5 286.8 108.6 C287.128 108.9 287.4 109.2 287.6 109.3 C287.77 109.1 288 108.8 288.2 108.4 C288.279 108.3 289 107.3 290.7 107.1 C290.897 107.1 291.1 107 291.2 107 C292.663 107 293.4 107.7 293.5 107.8 C293.783 108.1 294.1 108.4 294.3 108.6 C294.427 108.3 294.6 108 294.9 107.7 C294.937 107.5 295.6 106.5 297.4 106.3 C297.554 106.3 297.7 106.3 297.9 106.3 C299.318 106.3 300 107 300.1 107 C300.438 107.4 300.7 107.6 300.9 107.8 C301.084 107.6 301.3 107.3 301.5 106.9 C301.595 106.8 302.3 105.7 304 105.5 C304.21 105.5 304.4 105.5 304.6 105.5 C305.973 105.5 306.7 106.2 306.8 106.3 C307.092 106.6 307.4 106.8 307.6 107 C307.74 106.8 307.9 106.5 308.2 106.1 C308.254 106 308.9 105 310.7 104.8 C310.867 104.7 311 104.7 311.2 104.7 C312.628 104.7 313.4 105.4 313.4 105.5 C313.747 105.8 314 106.1 314.2 106.2 C314.397 106 314.6 105.7 314.8 105.3 C314.912 105.2 315.6 104.2 317.3 104 C317.524 104 317.7 104 317.9 104 C319.283 104 320 104.6 320.1 104.7 C320.402 105 320.7 105.3 320.9 105.5 C321.054 105.2 321.3 104.9 321.5 104.6 C321.57 104.4 322.2 103.4 324 103.2 C324.18 103.2 324.4 103.2 324.5 103.2 C325.938 103.2 326.7 103.9 326.7 103.9 C327.057 104.3 327.3 104.5 327.5 104.7 C327.711 104.5 327.9 104.2 328.2 103.8 C328.229 103.7 328.9 102.6 330.7 102.4 C330.837 102.4 331 102.4 331.2 102.4 C332.594 102.4 333.3 103.1 333.4 103.2 C333.87 103.6 334.4 104 334.7 104.1 C334.763 103.9 334.9 103.5 334.9 103 L334.872 86.8 C334.872 86.2 334.4 85.8 333.9 85.8 L224.254 85.8 C223.704 85.8 223.3 86.2 223.3 86.8 L223.257 90.1 C223.257 91.5 222.1 92.7 220.7 92.7 L218.202 92.7 L218.202 92.7 Z" sketch:type="MSShapeGroup"/><path d="M190.238 118.3 C188.95 118.3 188 117.4 188 116 L187.979 83.8 C187.979 82.4 189.1 81.2 190.6 81.2 L220.584 81.2 C222.014 81.2 223.2 82.4 223.2 83.8 L223.177 90.1 C223.177 91.5 222 92.7 220.6 92.7 L218.123 92.7 C217.573 92.7 217.1 93.1 217.1 93.7 L217.126 111.1 C217.126 112.5 216.1 113.8 214.7 114 L190.684 118.3 C190.536 118.3 190.4 118.3 190.2 118.3 L190.238 118.3 Z M190.572 82.8 C190.022 82.8 189.6 83.2 189.6 83.8 L189.575 116 C189.574 116.5 189.9 116.8 190.4 116.7 L214.42 112.4 C215.011 112.3 215.5 111.7 215.5 111.1 L215.53 93.7 C215.53 92.2 216.7 91.1 218.1 91.1 L220.584 91.1 C221.134 91.1 221.6 90.6 221.6 90.1 L221.581 83.8 C221.581 83.2 221.1 82.8 220.6 82.8 L190.572 82.8 L190.572 82.8 Z M198.769 112.8 C197.475 112.8 196.5 111.8 196.5 110.5 L196.499 89.2 C196.499 87.7 197.7 86.6 199.1 86.6 L203.783 86.6 C205.213 86.6 206.4 87.7 206.4 89.2 L206.376 109 C206.376 110.4 205.3 111.7 203.9 111.9 L199.202 112.7 C199.058 112.8 198.9 112.8 198.8 112.8 L198.769 112.8 Z M199.092 88.2 C198.542 88.2 198.1 88.6 198.1 89.2 L198.095 110.5 C198.095 110.9 198.4 111.3 198.9 111.2 L203.673 110.3 C204.263 110.2 204.8 109.6 204.8 109 L204.78 89.2 C204.78 88.6 204.3 88.2 203.8 88.2 L199.092 88.2 L199.092 88.2 Z" sketch:type="MSShapeGroup"/><path d="M329.232 93.7 C327.619 93.7 326.3 92.4 326.3 90.8 C326.306 89.2 327.6 87.9 329.2 87.9 C330.845 87.9 332.2 89.2 332.2 90.8 C332.158 92.4 330.8 93.7 329.2 93.7 L329.232 93.7 Z M329.232 89.5 C328.499 89.5 327.9 90.1 327.9 90.8 C327.902 91.5 328.5 92.1 329.2 92.1 C329.965 92.1 330.6 91.5 330.6 90.8 C330.562 90.1 330 89.5 329.2 89.5 L329.232 89.5 Z" sketch:type="MSShapeGroup"/><path d="M162.246 107.6 C161.629 107.6 160.9 107.1 160.9 105.9 L160.909 58 C160.909 56.6 162.1 55.4 163.5 55.4 L211.377 55.4 C212.485 55.4 212.9 55.9 213 56.3 C213.143 56.6 213.3 57.2 212.5 58 L205.83 64.7 C204.987 65.5 203.4 66.2 202.2 66.2 L172.678 66.2 C172.128 66.2 171.7 66.6 171.7 67.2 L171.681 96.7 C171.681 97.9 171 99.5 170.2 100.3 L163.54 107 C163.119 107.4 162.7 107.6 162.2 107.6 L162.246 107.6 Z M163.502 57 C162.952 57 162.5 57.4 162.5 58 L162.505 105.7 L169.049 99.2 C169.601 98.6 170.1 97.5 170.1 96.7 L170.085 67.2 C170.085 65.7 171.2 64.6 172.7 64.6 L202.201 64.6 C202.981 64.6 204.2 64.1 204.7 63.5 L211.246 57 L163.502 57 L163.502 57 Z" sketch:type="MSShapeGroup"/><path d="M165.031 56.2 L166.627 56.2 L166.627 59.3 L165.031 59.3 L165.031 56.2 Z" sketch:type="MSShapeGroup"/><path d="M168.489 56.2 L170.085 56.2 L170.085 59.3 L168.489 59.3 L168.489 56.2 Z" sketch:type="MSShapeGroup"/><path d="M171.946 56.2 L173.542 56.2 L173.542 59.3 L171.946 59.3 L171.946 56.2 Z" sketch:type="MSShapeGroup"/><path d="M175.404 56.2 L177 56.2 L177 59.3 L175.404 59.3 L175.404 56.2 Z" sketch:type="MSShapeGroup"/><path d="M178.862 56.2 L180.458 56.2 L180.458 59.3 L178.862 59.3 L178.862 56.2 Z" sketch:type="MSShapeGroup"/><path d="M182.319 56.2 L183.915 56.2 L183.915 59.3 L182.319 59.3 L182.319 56.2 Z" sketch:type="MSShapeGroup"/><path d="M185.777 56.2 L187.373 56.2 L187.373 59.3 L185.777 59.3 L185.777 56.2 Z" sketch:type="MSShapeGroup"/><path d="M189.235 56.2 L190.831 56.2 L190.831 59.3 L189.235 59.3 L189.235 56.2 Z" sketch:type="MSShapeGroup"/><path d="M192.692 56.2 L194.288 56.2 L194.288 59.3 L192.692 59.3 L192.692 56.2 Z" sketch:type="MSShapeGroup"/><path d="M196.15 56.2 L197.746 56.2 L197.746 59.3 L196.15 59.3 L196.15 56.2 Z" sketch:type="MSShapeGroup"/><path d="M199.608 56.2 L201.204 56.2 L201.204 59.3 L199.608 59.3 L199.608 56.2 Z" sketch:type="MSShapeGroup"/><path d="M203.065 56.2 L204.661 56.2 L204.661 59.3 L203.065 59.3 L203.065 56.2 Z" sketch:type="MSShapeGroup"/><path d="M68.462 101.2 L60.769 101.2 L60.769 100.5 C60.769 100.4 60.8 98.5 62.4 96.7 C64.387 94.4 67.9 93.2 72.8 93.2 C73.968 93.2 75.2 93.3 76.5 93.4 L76.363 94.9 C76.363 94.9 76 94.9 75.6 94.9 C74.577 94.9 72.7 95 71.1 95.8 C69.339 96.7 68.5 98.2 68.5 100.5 L68.462 101.2 L68.462 101.2 Z M62.397 99.7 L66.994 99.7 C67.189 97.3 68.3 95.8 69.7 94.9 C64.201 95.7 62.8 98.4 62.4 99.7 L62.397 99.7 Z" sketch:type="MSShapeGroup"/><path d="M76.438 94.9 C67.203 94.9 59.7 87.4 59.7 78.2 C59.689 69 67.2 61.5 76.4 61.5 C85.673 61.5 93.2 69 93.2 78.2 C93.187 82.7 91.4 86.9 88.3 90 C85.118 93.2 80.9 94.9 76.4 94.9 L76.438 94.9 Z M76.438 62.9 C68.029 62.9 61.2 69.8 61.2 78.2 C61.188 86.6 68 93.4 76.4 93.4 C80.512 93.4 84.3 91.9 87.2 89 C90.102 86.1 91.7 82.3 91.7 78.2 C91.688 69.8 84.8 62.9 76.4 62.9 L76.438 62.9 Z M76.438 89.5 C70.215 89.5 65.2 84.4 65.2 78.2 C65.153 72 70.2 66.9 76.4 66.9 C82.661 66.9 87.7 72 87.7 78.2 C87.723 84.4 82.7 89.5 76.4 89.5 L76.438 89.5 Z M76.438 68.4 C71.042 68.4 66.7 72.8 66.7 78.2 C66.651 83.6 71 88 76.4 88 C81.834 88 86.2 83.6 86.2 78.2 C86.225 72.8 81.8 68.4 76.4 68.4 L76.438 68.4 Z" sketch:type="MSShapeGroup"/><path d="M186.192 265.1 L180.203 273.6 L179.553 273 C172.999 266.7 162.6 262.9 151.7 262.9 C140.847 262.9 130.4 266.7 123.9 273 L123.228 273.7 L117.244 265.1 L117.752 264.7 C126.227 257 138.6 252.7 151.7 252.7 C164.838 252.7 177.2 257 185.7 264.6 L186.192 265.1 L186.192 265.1 Z M179.966 271.2 L184.133 265.3 C175.956 258.2 164.2 254.2 151.7 254.2 C139.258 254.2 127.5 258.3 119.3 265.4 L123.463 271.3 C130.32 265.1 140.8 261.4 151.7 261.4 C162.64 261.4 173.1 265 180 271.2 L179.966 271.2 Z" sketch:type="MSShapeGroup"/><path d="M195.944 250.8 L189.938 259.4 L189.287 258.7 C187.905 257.2 186.3 255.8 184.6 254.5 C176.025 248 164.5 244.4 152.1 244.4 C139.668 244.4 128.1 248 119.5 254.5 C117.526 256 115.7 257.7 114.2 259.4 L113.538 260.1 L107.499 251.5 L107.947 251.1 C112.952 245.9 119.5 241.7 127 238.8 C134.798 235.7 143.2 234.2 152.1 234.2 C160.696 234.2 169 235.7 176.6 238.6 C183.926 241.3 190.4 245.4 195.5 250.3 L195.944 250.8 L195.944 250.8 Z M189.754 256.9 L193.921 251 C189.113 246.4 183 242.6 176.1 240 C168.579 237.2 160.5 235.7 152.1 235.7 C143.427 235.7 135.2 237.2 127.6 240.2 C120.528 243 114.3 246.9 109.5 251.7 L113.689 257.7 C115.143 256.1 116.8 254.6 118.6 253.3 C127.445 246.6 139.3 242.9 152.1 242.9 C164.805 242.9 176.7 246.6 185.5 253.3 C187.066 254.4 188.5 255.7 189.8 256.9 L189.754 256.9 Z" sketch:type="MSShapeGroup"/><path d="M205.86 237 L199.894 245.5 L199.243 244.8 C188.51 233.5 170.8 226.7 151.7 226.7 C132.695 226.7 114.9 233.5 104.2 244.9 L103.536 245.5 L97.576 237 L98.039 236.6 C104.227 230.4 112.3 225.4 121.3 221.9 C130.822 218.3 141.1 216.4 151.7 216.4 C162.424 216.4 172.6 218.3 182.1 221.9 C191.154 225.3 199.2 230.4 205.4 236.5 L205.86 237 L205.86 237 Z M199.709 243 L203.84 237.2 C197.867 231.4 190.2 226.6 181.6 223.3 C172.264 219.8 162.2 218 151.7 218 C141.242 218 131.2 219.8 121.9 223.4 C113.262 226.7 105.6 231.4 99.6 237.2 L103.721 243.1 C114.794 231.9 132.7 225.2 151.7 225.2 C170.79 225.2 188.6 231.8 199.7 243 L199.709 243 Z" sketch:type="MSShapeGroup"/><path d="M79.015 267.8 L52.739 267.8 C51.31 267.8 50.1 266.6 50.1 265.2 L50.146 213.3 C50.146 211.9 51.3 210.7 52.7 210.7 L79.015 210.7 C80.445 210.7 81.6 211.9 81.6 213.3 L81.609 265.2 C81.609 266.6 80.4 267.8 79 267.8 L79.015 267.8 Z M52.739 212.3 C52.189 212.3 51.7 212.7 51.7 213.3 L51.742 265.2 C51.742 265.8 52.2 266.2 52.7 266.2 L79.015 266.2 C79.565 266.2 80 265.8 80 265.2 L80.013 213.3 C80.013 212.7 79.6 212.3 79 212.3 L52.739 212.3 L52.739 212.3 Z M75.851 257.4 L55.904 257.4 C54.474 257.4 53.3 256.2 53.3 254.8 L53.31 221.1 C53.31 219.7 54.5 218.5 55.9 218.5 L75.851 218.5 C77.281 218.5 78.4 219.7 78.4 221.1 L78.445 254.8 C78.445 256.2 77.3 257.4 75.9 257.4 L75.851 257.4 Z M55.904 220.1 C55.354 220.1 54.9 220.6 54.9 221.1 L54.906 254.8 C54.906 255.4 55.4 255.8 55.9 255.8 L75.851 255.8 C76.401 255.8 76.8 255.4 76.8 254.8 L76.849 221.1 C76.849 220.6 76.4 220.1 75.9 220.1 L55.904 220.1 L55.904 220.1 Z" sketch:type="MSShapeGroup"/><path d="M65.877 264.6 C64.432 264.6 63.3 263.5 63.3 262 C63.257 260.6 64.4 259.4 65.9 259.4 C67.323 259.4 68.5 260.6 68.5 262 C68.498 263.5 67.3 264.6 65.9 264.6 L65.877 264.6 Z M65.877 261 C65.312 261 64.9 261.5 64.9 262 C64.852 262.6 65.3 263.1 65.9 263.1 C66.443 263.1 66.9 262.6 66.9 262 C66.902 261.5 66.4 261 65.9 261 L65.877 261 Z" sketch:type="MSShapeGroup"/><path d="M334.202 269.8 L257.56 269.8 C256.13 269.8 255 268.6 255 267.2 L254.967 219.5 C254.967 218.1 256.1 216.9 257.6 216.9 L334.202 216.9 C335.632 216.9 336.8 218.1 336.8 219.5 L336.795 267.2 C336.795 268.6 335.6 269.8 334.2 269.8 L334.202 269.8 Z M257.56 218.5 C257.01 218.5 256.6 219 256.6 219.5 L256.563 267.2 C256.563 267.7 257 268.2 257.6 268.2 L334.202 268.2 C334.752 268.2 335.2 267.7 335.2 267.2 L335.2 219.5 C335.2 219 334.8 218.5 334.2 218.5 L257.56 218.5 L257.56 218.5 Z M330.912 266.4 L260.851 266.4 C259.421 266.4 258.3 265.2 258.3 263.8 L258.258 222.9 C258.258 221.5 259.4 220.3 260.9 220.3 L330.912 220.3 C332.341 220.3 333.5 221.5 333.5 222.9 L333.505 263.8 C333.505 265.2 332.3 266.4 330.9 266.4 L330.912 266.4 Z M260.851 221.9 C260.301 221.9 259.9 222.3 259.9 222.9 L259.854 263.8 C259.854 264.4 260.3 264.8 260.9 264.8 L330.912 264.8 C331.461 264.8 331.9 264.4 331.9 263.8 L331.909 222.9 C331.909 222.3 331.5 221.9 330.9 221.9 L260.851 221.9 L260.851 221.9 Z" sketch:type="MSShapeGroup"/><path d="M340.619 275.9 L251.144 275.9 C249.714 275.9 248.6 274.7 248.6 273.3 L248.55 270.8 C248.55 269.3 249.7 268.2 251.1 268.2 L340.619 268.2 C342.049 268.2 343.2 269.3 343.2 270.8 L343.212 273.3 C343.212 274.7 342 275.9 340.6 275.9 L340.619 275.9 Z M251.144 269.8 C250.594 269.8 250.1 270.2 250.1 270.8 L250.147 273.3 C250.147 273.8 250.6 274.3 251.1 274.3 L340.619 274.3 C341.169 274.3 341.6 273.8 341.6 273.3 L341.616 270.8 C341.616 270.2 341.2 269.8 340.6 269.8 L251.144 269.8 L251.144 269.8 Z" sketch:type="MSShapeGroup"/><path d="M333.992 154 L318.746 154 C312.367 154 307.2 148.8 307.2 142.4 L307.177 140 C307.177 133.7 312.4 128.5 318.7 128.5 L333.992 128.5 C340.372 128.5 345.6 133.7 345.6 140 L345.562 142.4 C345.562 148.8 340.4 154 334 154 L333.992 154 Z M318.746 130.1 C313.247 130.1 308.8 134.5 308.8 140 L308.772 142.4 C308.772 147.9 313.2 152.4 318.7 152.4 L333.992 152.4 C339.492 152.4 344 147.9 344 142.4 L343.966 140 C343.966 134.5 339.5 130.1 334 130.1 L318.746 130.1 L318.746 130.1 Z" sketch:type="MSShapeGroup"/><path d="M318.347 143.9 L314.956 143.9 C313.526 143.9 312.4 142.8 312.4 141.3 L312.363 141.1 C312.363 139.7 313.5 138.6 315 138.6 L318.347 138.6 C319.777 138.6 320.9 139.7 320.9 141.1 L320.94 141.3 C320.94 142.8 319.8 143.9 318.3 143.9 L318.347 143.9 Z M314.956 140.1 C314.406 140.1 314 140.6 314 141.1 L313.959 141.3 C313.959 141.9 314.4 142.3 315 142.3 L318.347 142.3 C318.897 142.3 319.3 141.9 319.3 141.3 L319.344 141.1 C319.344 140.6 318.9 140.1 318.3 140.1 L314.956 140.1 L314.956 140.1 Z" sketch:type="MSShapeGroup"/><path d="M300.793 163.4 L300.195 163.4 C298.765 163.4 297.6 162.2 297.6 160.8 L297.601 122.1 C297.601 121.5 297.2 121.1 296.6 121.1 L295.806 121.1 C295.256 121.1 294.8 121.5 294.8 122.1 L294.809 160.8 C294.809 162.2 293.6 163.4 292.2 163.4 L291.417 163.4 C289.988 163.4 288.8 162.2 288.8 160.8 L288.825 122.1 C288.825 121.5 288.4 121.1 287.8 121.1 L287.029 121.1 C286.479 121.1 286 121.5 286 122.1 L286.032 139.4 C286.032 140.9 284.9 142 283.4 142 L270.372 142 L270.372 140.4 L283.438 140.4 C283.988 140.4 284.4 140 284.4 139.4 L284.436 122.1 C284.436 120.7 285.6 119.5 287 119.5 L287.827 119.5 C289.257 119.5 290.4 120.7 290.4 122.1 L290.42 160.8 C290.42 161.3 290.9 161.8 291.4 161.8 L292.215 161.8 C292.765 161.8 293.2 161.3 293.2 160.8 L293.213 122.1 C293.213 120.7 294.4 119.5 295.8 119.5 L296.604 119.5 C298.034 119.5 299.2 120.7 299.2 122.1 L299.197 160.8 C299.197 161.3 299.6 161.8 300.2 161.8 L300.793 161.8 C301.343 161.8 301.8 161.3 301.8 160.8 L301.791 143 C301.791 141.6 303 140.4 304.4 140.4 L307.974 140.4 L307.974 142 L304.384 142 C303.834 142 303.4 142.5 303.4 143 L303.386 160.8 C303.386 162.2 302.2 163.4 300.8 163.4" sketch:type="MSShapeGroup"/><path d="M264.289 137.3 L271.171 137.3 L271.171 145.3 L264.289 145.3 L264.289 137.3 Z M265.884 143.7 L269.574 143.7 L269.574 138.9 L265.884 138.9 L265.884 143.7 Z" sketch:type="MSShapeGroup"/><path d="M261.645 138.5 L265.884 138.5 L265.884 144.1 L261.645 144.1 L261.645 138.5 Z M263.241 142.5 L264.288 142.5 L264.288 140.1 L263.241 140.1 L263.241 142.5 Z" sketch:type="MSShapeGroup"/><path d="M276.75 178.3 L120.328 178.3 C119.888 178.3 119.5 177.9 119.5 177.5 L119.531 166.5 C119.531 166 119.9 165.7 120.3 165.7 L276.75 165.7 C277.191 165.7 277.5 166 277.5 166.5 L277.549 177.5 C277.549 177.9 277.2 178.3 276.8 178.3 L276.75 178.3 Z M121.126 176.7 L275.952 176.7 L275.952 167.3 L121.126 167.3 L121.126 176.7 Z" sketch:type="MSShapeGroup"/><path d="M130.939 167.3 L120.328 167.3 C119.888 167.3 119.5 166.9 119.5 166.5 L119.531 159.7 C119.531 159.6 119.5 159.5 119.6 159.4 L123.868 144.2 C123.966 143.8 124.3 143.6 124.6 143.6 L130.939 143.6 C131.38 143.6 131.7 143.9 131.7 144.4 L131.737 166.5 C131.737 166.9 131.4 167.3 130.9 167.3 L130.939 167.3 Z M121.126 165.7 L130.141 165.7 L130.141 145.2 L125.24 145.2 L121.126 159.8 L121.126 165.7 L121.126 165.7 Z" sketch:type="MSShapeGroup"/><path d="M130.939 200.6 L124.636 200.6 C124.279 200.6 124 200.4 123.9 200 L119.56 184.8 C119.541 184.7 119.5 184.6 119.5 184.6 L119.531 177.7 C119.531 177.3 119.9 176.9 120.3 176.9 L130.939 176.9 C131.38 176.9 131.7 177.3 131.7 177.7 L131.737 199.8 C131.737 200.3 131.4 200.6 130.9 200.6 L130.939 200.6 Z M125.24 199 L130.141 199 L130.141 178.5 L121.126 178.5 L121.126 184.4 L125.24 199 L125.24 199 Z" sketch:type="MSShapeGroup"/><path d="M125.526 174.6 C124.1 174.6 122.9 173.4 122.9 172 C122.94 170.5 124.1 169.4 125.5 169.4 C126.952 169.4 128.1 170.5 128.1 172 C128.111 173.4 127 174.6 125.5 174.6 L125.526 174.6 Z M125.526 171 C124.98 171 124.5 171.4 124.5 172 C124.536 172.5 125 173 125.5 173 C126.072 173 126.5 172.5 126.5 172 C126.516 171.4 126.1 171 125.5 171 L125.526 171 Z" sketch:type="MSShapeGroup"/><path d="M134.315 171 C133.875 171 133.5 170.6 133.5 170.2 L133.518 166.5 C133.518 166 133.9 165.7 134.3 165.7 C134.756 165.7 135.1 166 135.1 166.5 L135.113 170.2 C135.113 170.6 134.8 171 134.3 171" sketch:type="MSShapeGroup"/><path d="M138.467 171 C138.026 171 137.7 170.6 137.7 170.2 L137.669 166.5 C137.669 166 138 165.7 138.5 165.7 C138.907 165.7 139.3 166 139.3 166.5 L139.264 170.2 C139.264 170.6 138.9 171 138.5 171" sketch:type="MSShapeGroup"/><path d="M142.617 171 C142.177 171 141.8 170.6 141.8 170.2 L141.82 166.5 C141.82 166 142.2 165.7 142.6 165.7 C143.058 165.7 143.4 166 143.4 166.5 L143.415 170.2 C143.415 170.6 143.1 171 142.6 171" sketch:type="MSShapeGroup"/><path d="M146.768 171 C146.328 171 146 170.6 146 170.2 L145.971 166.5 C145.971 166 146.3 165.7 146.8 165.7 C147.209 165.7 147.6 166 147.6 166.5 L147.566 170.2 C147.566 170.6 147.2 171 146.8 171" sketch:type="MSShapeGroup"/><path d="M150.92 171 C150.479 171 150.1 170.6 150.1 170.2 L150.122 166.5 C150.122 166 150.5 165.7 150.9 165.7 C151.361 165.7 151.7 166 151.7 166.5 L151.718 170.2 C151.718 170.6 151.4 171 150.9 171" sketch:type="MSShapeGroup"/><path d="M155.071 171 C154.63 171 154.3 170.6 154.3 170.2 L154.273 166.5 C154.273 166 154.6 165.7 155.1 165.7 C155.512 165.7 155.9 166 155.9 166.5 L155.869 170.2 C155.869 170.6 155.5 171 155.1 171" sketch:type="MSShapeGroup"/><path d="M159.222 171 C158.782 171 158.4 170.6 158.4 170.2 L158.424 166.5 C158.424 166 158.8 165.7 159.2 165.7 C159.663 165.7 160 166 160 166.5 L160.02 170.2 C160.02 170.6 159.7 171 159.2 171" sketch:type="MSShapeGroup"/><path d="M163.373 171 C162.932 171 162.6 170.6 162.6 170.2 L162.575 166.5 C162.575 166 162.9 165.7 163.4 165.7 C163.814 165.7 164.2 166 164.2 166.5 L164.171 170.2 C164.171 170.6 163.8 171 163.4 171" sketch:type="MSShapeGroup"/><path d="M167.524 171 C167.084 171 166.7 170.6 166.7 170.2 L166.726 166.5 C166.726 166 167.1 165.7 167.5 165.7 C167.965 165.7 168.3 166 168.3 166.5 L168.322 170.2 C168.322 170.6 168 171 167.5 171" sketch:type="MSShapeGroup"/><path d="M171.675 171 C171.235 171 170.9 170.6 170.9 170.2 L170.877 166.5 C170.877 166 171.2 165.7 171.7 165.7 C172.116 165.7 172.5 166 172.5 166.5 L172.473 170.2 C172.473 170.6 172.1 171 171.7 171" sketch:type="MSShapeGroup"/><path d="M175.826 171 C175.386 171 175 170.6 175 170.2 L175.028 166.5 C175.028 166 175.4 165.7 175.8 165.7 C176.267 165.7 176.6 166 176.6 166.5 L176.625 170.2 C176.625 170.6 176.3 171 175.8 171" sketch:type="MSShapeGroup"/><path d="M179.978 171 C179.537 171 179.2 170.6 179.2 170.2 L179.18 166.5 C179.18 166 179.5 165.7 180 165.7 C180.418 165.7 180.8 166 180.8 166.5 L180.775 170.2 C180.775 170.6 180.4 171 180 171" sketch:type="MSShapeGroup"/><path d="M184.129 171 C183.688 171 183.3 170.6 183.3 170.2 L183.331 166.5 C183.331 166 183.7 165.7 184.1 165.7 C184.569 165.7 184.9 166 184.9 166.5 L184.927 170.2 C184.927 170.6 184.6 171 184.1 171" sketch:type="MSShapeGroup"/><path d="M188.28 171 C187.839 171 187.5 170.6 187.5 170.2 L187.482 166.5 C187.482 166 187.8 165.7 188.3 165.7 C188.72 165.7 189.1 166 189.1 166.5 L189.078 170.2 C189.078 170.6 188.7 171 188.3 171" sketch:type="MSShapeGroup"/><path d="M192.431 171 C191.99 171 191.6 170.6 191.6 170.2 L191.633 166.5 C191.633 166 192 165.7 192.4 165.7 C192.872 165.7 193.2 166 193.2 166.5 L193.229 170.2 C193.229 170.6 192.9 171 192.4 171" sketch:type="MSShapeGroup"/><path d="M196.582 171 C196.141 171 195.8 170.6 195.8 170.2 L195.784 166.5 C195.784 166 196.1 165.7 196.6 165.7 C197.023 165.7 197.4 166 197.4 166.5 L197.38 170.2 C197.38 170.6 197 171 196.6 171" sketch:type="MSShapeGroup"/><path d="M200.733 171 C200.292 171 199.9 170.6 199.9 170.2 L199.935 166.5 C199.935 166 200.3 165.7 200.7 165.7 C201.174 165.7 201.5 166 201.5 166.5 L201.531 170.2 C201.531 170.6 201.2 171 200.7 171" sketch:type="MSShapeGroup"/><path d="M204.884 171 C204.444 171 204.1 170.6 204.1 170.2 L204.086 166.5 C204.086 166 204.4 165.7 204.9 165.7 C205.325 165.7 205.7 166 205.7 166.5 L205.682 170.2 C205.682 170.6 205.3 171 204.9 171" sketch:type="MSShapeGroup"/><path d="M209.035 171 C208.595 171 208.2 170.6 208.2 170.2 L208.237 166.5 C208.237 166 208.6 165.7 209 165.7 C209.476 165.7 209.8 166 209.8 166.5 L209.833 170.2 C209.833 170.6 209.5 171 209 171" sketch:type="MSShapeGroup"/><path d="M213.186 171 C212.746 171 212.4 170.6 212.4 170.2 L212.389 166.5 C212.389 166 212.7 165.7 213.2 165.7 C213.627 165.7 214 166 214 166.5 L213.984 170.2 C213.984 170.6 213.6 171 213.2 171" sketch:type="MSShapeGroup"/><path d="M217.338 171 C216.897 171 216.5 170.6 216.5 170.2 L216.54 166.5 C216.54 166 216.9 165.7 217.3 165.7 C217.778 165.7 218.1 166 218.1 166.5 L218.135 170.2 C218.135 170.6 217.8 171 217.3 171" sketch:type="MSShapeGroup"/><path d="M221.489 171 C221.048 171 220.7 170.6 220.7 170.2 L220.691 166.5 C220.691 166 221 165.7 221.5 165.7 C221.929 165.7 222.3 166 222.3 166.5 L222.287 170.2 C222.287 170.6 221.9 171 221.5 171" sketch:type="MSShapeGroup"/><path d="M225.64 171 C225.199 171 224.8 170.6 224.8 170.2 L224.842 166.5 C224.842 166 225.2 165.7 225.6 165.7 C226.08 165.7 226.4 166 226.4 166.5 L226.438 170.2 C226.438 170.6 226.1 171 225.6 171" sketch:type="MSShapeGroup"/><path d="M229.791 171 C229.35 171 229 170.6 229 170.2 L228.993 166.5 C228.993 166 229.3 165.7 229.8 165.7 C230.231 165.7 230.6 166 230.6 166.5 L230.589 170.2 C230.589 170.6 230.2 171 229.8 171" sketch:type="MSShapeGroup"/><path d="M233.942 171 C233.501 171 233.1 170.6 233.1 170.2 L233.144 166.5 C233.144 166 233.5 165.7 233.9 165.7 C234.383 165.7 234.7 166 234.7 166.5 L234.74 170.2 C234.74 170.6 234.4 171 233.9 171" sketch:type="MSShapeGroup"/><path d="M238.093 171 C237.652 171 237.3 170.6 237.3 170.2 L237.295 166.5 C237.295 166 237.7 165.7 238.1 165.7 C238.534 165.7 238.9 166 238.9 166.5 L238.891 170.2 C238.891 170.6 238.5 171 238.1 171" sketch:type="MSShapeGroup"/><path d="M242.244 171 C241.804 171 241.4 170.6 241.4 170.2 L241.446 166.5 C241.446 166 241.8 165.7 242.2 165.7 C242.685 165.7 243 166 243 166.5 L243.042 170.2 C243.042 170.6 242.7 171 242.2 171" sketch:type="MSShapeGroup"/><path d="M246.395 171 C245.955 171 245.6 170.6 245.6 170.2 L245.597 166.5 C245.597 166 246 165.7 246.4 165.7 C246.836 165.7 247.2 166 247.2 166.5 L247.193 170.2 C247.193 170.6 246.8 171 246.4 171" sketch:type="MSShapeGroup"/><path d="M250.547 171 C250.106 171 249.7 170.6 249.7 170.2 L249.749 166.5 C249.749 166 250.1 165.7 250.5 165.7 C250.987 165.7 251.3 166 251.3 166.5 L251.344 170.2 C251.344 170.6 251 171 250.5 171" sketch:type="MSShapeGroup"/><path d="M254.698 171 C254.257 171 253.9 170.6 253.9 170.2 L253.9 166.5 C253.9 166 254.3 165.7 254.7 165.7 C255.138 165.7 255.5 166 255.5 166.5 L255.496 170.2 C255.496 170.6 255.1 171 254.7 171" sketch:type="MSShapeGroup"/><path d="M258.849 171 C258.408 171 258.1 170.6 258.1 170.2 L258.051 166.5 C258.051 166 258.4 165.7 258.8 165.7 C259.289 165.7 259.6 166 259.6 166.5 L259.646 170.2 C259.646 170.6 259.3 171 258.8 171" sketch:type="MSShapeGroup"/><path d="M263 171 C262.559 171 262.2 170.6 262.2 170.2 L262.202 166.5 C262.202 166 262.6 165.7 263 165.7 C263.44 165.7 263.8 166 263.8 166.5 L263.798 170.2 C263.798 170.6 263.4 171 263 171" sketch:type="MSShapeGroup"/><path d="M267.021 171 C266.581 171 266.2 170.6 266.2 170.2 L266.223 166.5 C266.223 166 266.6 165.7 267 165.7 C267.462 165.7 267.8 166 267.8 166.5 L267.819 170.2 C267.819 170.6 267.5 171 267 171" sketch:type="MSShapeGroup"/><path d="M270.911 171 C270.47 171 270.1 170.6 270.1 170.2 L270.113 166.5 C270.113 166 270.5 165.7 270.9 165.7 C271.352 165.7 271.7 166 271.7 166.5 L271.709 170.2 C271.709 170.6 271.4 171 270.9 171" sketch:type="MSShapeGroup"/><path d="M229.332 231.8 C225.422 231.8 222.2 228.6 222.2 224.7 C222.241 220.8 225.4 217.6 229.3 217.6 C233.243 217.6 236.4 220.8 236.4 224.7 C236.424 228.6 233.2 231.8 229.3 231.8 L229.332 231.8 Z M229.332 219.2 C226.302 219.2 223.8 221.6 223.8 224.7 C223.837 227.7 226.3 230.2 229.3 230.2 C232.362 230.2 234.8 227.7 234.8 224.7 C234.828 221.6 232.4 219.2 229.3 219.2 L229.332 219.2 Z" sketch:type="MSShapeGroup"/><path d="M384.499 194.1 L358.682 194.1 C357.252 194.1 356.1 192.9 356.1 191.5 L356.089 177.4 C356.089 176 357.3 174.8 358.7 174.8 L384.499 174.8 C385.928 174.8 387.1 176 387.1 177.4 L387.092 191.5 C387.092 192.9 385.9 194.1 384.5 194.1 L384.499 194.1 Z M358.682 176.4 C358.132 176.4 357.7 176.9 357.7 177.4 L357.685 191.5 C357.685 192 358.1 192.5 358.7 192.5 L384.499 192.5 C385.049 192.5 385.5 192 385.5 191.5 L385.496 177.4 C385.496 176.9 385 176.4 384.5 176.4 L358.682 176.4 L358.682 176.4 Z" sketch:type="MSShapeGroup"/><path d="M375.64 176.3 L366.711 176.3 L366.743 175.5 C366.746 175.5 367 170 366.7 164.1 C366.371 154 365.1 151.3 364.4 150.6 C362.76 149 362.3 147 363 145.1 C364.136 142.5 367.4 140.8 371.6 140.8 C375.771 140.8 379 142.5 380.1 145.1 C380.906 147 380.4 149 378.8 150.6 C378.08 151.3 376.8 154 376.4 164.1 C376.226 170 376.4 175.5 376.4 175.5 L376.47 176.3 L375.64 176.3 L375.64 176.3 Z M368.364 174.8 L374.816 174.8 C374.767 173 374.7 168.6 374.8 164.1 C375.146 155.8 376.1 151.1 377.7 149.5 C378.83 148.3 379.2 147 378.7 145.7 C377.835 143.7 375.1 142.4 371.6 142.4 C368.121 142.4 365.3 143.7 364.5 145.7 C364.001 147 364.4 148.3 365.5 149.5 C367.109 151.1 368 155.8 368.3 164.1 C368.502 168.6 368.4 173 368.4 174.8 L368.364 174.8 Z" sketch:type="MSShapeGroup"/><path d="M371.59 149.9 C370.124 149.9 368.9 148.7 368.9 147.2 C368.931 145.8 370.1 144.6 371.6 144.6 C373.057 144.6 374.2 145.8 374.2 147.2 C374.25 148.7 373.1 149.9 371.6 149.9 L371.59 149.9 Z M371.59 146.2 C371.004 146.2 370.5 146.6 370.5 147.2 C370.526 147.8 371 148.3 371.6 148.3 C372.177 148.3 372.7 147.8 372.7 147.2 C372.654 146.6 372.2 146.2 371.6 146.2 L371.59 146.2 Z" sketch:type="MSShapeGroup"/><path d="M359.471 193.3 L361.067 193.3 L361.067 206.1 L359.471 206.1 L359.471 193.3 Z" sketch:type="MSShapeGroup"/><path d="M356.089 179.7 L357.685 179.7 L357.685 206.1 L356.089 206.1 L356.089 179.7 Z" sketch:type="MSShapeGroup"/><path d="M385.496 179.7 L387.092 179.7 L387.092 206.1 L385.496 206.1 L385.496 179.7 Z" sketch:type="MSShapeGroup"/><path d="M362.693 193.3 L364.289 193.3 L364.289 206.1 L362.693 206.1 L362.693 193.3 Z" sketch:type="MSShapeGroup"/><path d="M365.916 193.3 L367.512 193.3 L367.512 206.1 L365.916 206.1 L365.916 193.3 Z" sketch:type="MSShapeGroup"/><path d="M369.138 193.3 L370.734 193.3 L370.734 206.1 L369.138 206.1 L369.138 193.3 Z" sketch:type="MSShapeGroup"/><path d="M372.361 193.3 L373.957 193.3 L373.957 206.1 L372.361 206.1 L372.361 193.3 Z" sketch:type="MSShapeGroup"/><path d="M375.583 193.3 L377.179 193.3 L377.179 206.1 L375.583 206.1 L375.583 193.3 Z" sketch:type="MSShapeGroup"/><path d="M378.806 193.3 L380.402 193.3 L380.402 206.1 L378.806 206.1 L378.806 193.3 Z" sketch:type="MSShapeGroup"/><path d="M382.028 193.3 L383.624 193.3 L383.624 206.1 L382.028 206.1 L382.028 193.3 Z" sketch:type="MSShapeGroup"/><path d="M384.499 181.5 L358.682 181.5 C357.252 181.5 356.1 180.3 356.1 178.9 L356.089 177.4 C356.089 176 357.3 174.8 358.7 174.8 L384.499 174.8 C385.928 174.8 387.1 176 387.1 177.4 L387.092 178.9 C387.092 180.3 385.9 181.5 384.5 181.5 L384.499 181.5 Z M358.682 176.4 C358.132 176.4 357.7 176.9 357.7 177.4 L357.685 178.9 C357.685 179.4 358.1 179.9 358.7 179.9 L384.499 179.9 C385.049 179.9 385.5 179.4 385.5 178.9 L385.496 177.4 C385.496 176.9 385 176.4 384.5 176.4 L358.682 176.4 L358.682 176.4 Z" sketch:type="MSShapeGroup"/><path d="M359.678 212.1 C359.678 212.8 359.1 213.4 358.3 213.4 C357.613 213.4 357 212.8 357 212.1 C357.018 211.4 357.6 210.8 358.3 210.8 C359.082 210.8 359.7 211.4 359.7 212.1" sketch:type="MSShapeGroup"/><path d="M366.282 212.1 C366.282 212.8 365.7 213.4 365 213.4 C364.218 213.4 363.6 212.8 363.6 212.1 C363.622 211.4 364.2 210.8 365 210.8 C365.686 210.8 366.3 211.4 366.3 212.1" sketch:type="MSShapeGroup"/><path d="M372.886 212.1 C372.886 212.8 372.3 213.4 371.6 213.4 C370.822 213.4 370.2 212.8 370.2 212.1 C370.226 211.4 370.8 210.8 371.6 210.8 C372.291 210.8 372.9 211.4 372.9 212.1" sketch:type="MSShapeGroup"/><path d="M379.49 212.1 C379.49 212.8 378.9 213.4 378.2 213.4 C377.426 213.4 376.8 212.8 376.8 212.1 C376.83 211.4 377.4 210.8 378.2 210.8 C378.895 210.8 379.5 211.4 379.5 212.1" sketch:type="MSShapeGroup"/><path d="M386.094 212.1 C386.094 212.8 385.5 213.4 384.8 213.4 C384.03 213.4 383.4 212.8 383.4 212.1 C383.435 211.4 384 210.8 384.8 210.8 C385.499 210.8 386.1 211.4 386.1 212.1" sketch:type="MSShapeGroup"/><path d="M356.409 216.2 C356.409 216.9 355.8 217.5 355.1 217.5 C354.345 217.5 353.8 216.9 353.8 216.2 C353.75 215.5 354.3 214.9 355.1 214.9 C355.814 214.9 356.4 215.5 356.4 216.2" sketch:type="MSShapeGroup"/><path d="M363.014 216.2 C363.014 216.9 362.4 217.5 361.7 217.5 C360.949 217.5 360.4 216.9 360.4 216.2 C360.354 215.5 360.9 214.9 361.7 214.9 C362.418 214.9 363 215.5 363 216.2" sketch:type="MSShapeGroup"/><path d="M369.618 216.2 C369.618 216.9 369 217.5 368.3 217.5 C367.554 217.5 367 216.9 367 216.2 C366.958 215.5 367.6 214.9 368.3 214.9 C369.023 214.9 369.6 215.5 369.6 216.2" sketch:type="MSShapeGroup"/><path d="M376.222 216.2 C376.222 216.9 375.6 217.5 374.9 217.5 C374.158 217.5 373.6 216.9 373.6 216.2 C373.562 215.5 374.2 214.9 374.9 214.9 C375.627 214.9 376.2 215.5 376.2 216.2" sketch:type="MSShapeGroup"/><path d="M382.826 216.2 C382.826 216.9 382.2 217.5 381.5 217.5 C380.762 217.5 380.2 216.9 380.2 216.2 C380.167 215.5 380.8 214.9 381.5 214.9 C382.231 214.9 382.8 215.5 382.8 216.2" sketch:type="MSShapeGroup"/><path d="M356.409 224.9 C356.409 225.6 355.8 226.2 355.1 226.2 C354.345 226.2 353.8 225.6 353.8 224.9 C353.75 224.1 354.3 223.5 355.1 223.5 C355.814 223.5 356.4 224.1 356.4 224.9" sketch:type="MSShapeGroup"/><path d="M363.014 224.9 C363.014 225.6 362.4 226.2 361.7 226.2 C360.949 226.2 360.4 225.6 360.4 224.9 C360.354 224.1 360.9 223.5 361.7 223.5 C362.418 223.5 363 224.1 363 224.9" sketch:type="MSShapeGroup"/><path d="M369.618 224.9 C369.618 225.6 369 226.2 368.3 226.2 C367.554 226.2 367 225.6 367 224.9 C366.958 224.1 367.6 223.5 368.3 223.5 C369.023 223.5 369.6 224.1 369.6 224.9" sketch:type="MSShapeGroup"/><path d="M376.222 224.9 C376.222 225.6 375.6 226.2 374.9 226.2 C374.158 226.2 373.6 225.6 373.6 224.9 C373.562 224.1 374.2 223.5 374.9 223.5 C375.627 223.5 376.2 224.1 376.2 224.9" sketch:type="MSShapeGroup"/><path d="M382.826 224.9 C382.826 225.6 382.2 226.2 381.5 226.2 C380.762 226.2 380.2 225.6 380.2 224.9 C380.167 224.1 380.8 223.5 381.5 223.5 C382.231 223.5 382.8 224.1 382.8 224.9" sketch:type="MSShapeGroup"/><path d="M356.409 233.5 C356.409 234.3 355.8 234.9 355.1 234.9 C354.345 234.9 353.8 234.3 353.8 233.5 C353.75 232.8 354.3 232.2 355.1 232.2 C355.814 232.2 356.4 232.8 356.4 233.5" sketch:type="MSShapeGroup"/><path d="M363.014 233.5 C363.014 234.3 362.4 234.9 361.7 234.9 C360.949 234.9 360.4 234.3 360.4 233.5 C360.354 232.8 360.9 232.2 361.7 232.2 C362.418 232.2 363 232.8 363 233.5" sketch:type="MSShapeGroup"/><path d="M369.618 233.5 C369.618 234.3 369 234.9 368.3 234.9 C367.554 234.9 367 234.3 367 233.5 C366.958 232.8 367.6 232.2 368.3 232.2 C369.023 232.2 369.6 232.8 369.6 233.5" sketch:type="MSShapeGroup"/><path d="M376.222 233.5 C376.222 234.3 375.6 234.9 374.9 234.9 C374.158 234.9 373.6 234.3 373.6 233.5 C373.562 232.8 374.2 232.2 374.9 232.2 C375.627 232.2 376.2 232.8 376.2 233.5" sketch:type="MSShapeGroup"/><path d="M382.826 233.5 C382.826 234.3 382.2 234.9 381.5 234.9 C380.762 234.9 380.2 234.3 380.2 233.5 C380.167 232.8 380.8 232.2 381.5 232.2 C382.231 232.2 382.8 232.8 382.8 233.5" sketch:type="MSShapeGroup"/><path d="M356.409 242.2 C356.409 242.9 355.8 243.5 355.1 243.5 C354.345 243.5 353.8 242.9 353.8 242.2 C353.75 241.5 354.3 240.9 355.1 240.9 C355.814 240.9 356.4 241.5 356.4 242.2" sketch:type="MSShapeGroup"/><path d="M363.014 242.2 C363.014 242.9 362.4 243.5 361.7 243.5 C360.949 243.5 360.4 242.9 360.4 242.2 C360.354 241.5 360.9 240.9 361.7 240.9 C362.418 240.9 363 241.5 363 242.2" sketch:type="MSShapeGroup"/><path d="M369.618 242.2 C369.618 242.9 369 243.5 368.3 243.5 C367.554 243.5 367 242.9 367 242.2 C366.958 241.5 367.6 240.9 368.3 240.9 C369.023 240.9 369.6 241.5 369.6 242.2" sketch:type="MSShapeGroup"/><path d="M376.222 242.2 C376.222 242.9 375.6 243.5 374.9 243.5 C374.158 243.5 373.6 242.9 373.6 242.2 C373.562 241.5 374.2 240.9 374.9 240.9 C375.627 240.9 376.2 241.5 376.2 242.2" sketch:type="MSShapeGroup"/><path d="M382.826 242.2 C382.826 242.9 382.2 243.5 381.5 243.5 C380.762 243.5 380.2 242.9 380.2 242.2 C380.167 241.5 380.8 240.9 381.5 240.9 C382.231 240.9 382.8 241.5 382.8 242.2" sketch:type="MSShapeGroup"/><path d="M356.409 250.8 C356.409 251.6 355.8 252.2 355.1 252.2 C354.345 252.2 353.8 251.6 353.8 250.8 C353.75 250.1 354.3 249.5 355.1 249.5 C355.814 249.5 356.4 250.1 356.4 250.8" sketch:type="MSShapeGroup"/><path d="M363.014 250.8 C363.014 251.6 362.4 252.2 361.7 252.2 C360.949 252.2 360.4 251.6 360.4 250.8 C360.354 250.1 360.9 249.5 361.7 249.5 C362.418 249.5 363 250.1 363 250.8" sketch:type="MSShapeGroup"/><path d="M369.618 250.8 C369.618 251.6 369 252.2 368.3 252.2 C367.554 252.2 367 251.6 367 250.8 C366.958 250.1 367.6 249.5 368.3 249.5 C369.023 249.5 369.6 250.1 369.6 250.8" sketch:type="MSShapeGroup"/><path d="M376.222 250.8 C376.222 251.6 375.6 252.2 374.9 252.2 C374.158 252.2 373.6 251.6 373.6 250.8 C373.562 250.1 374.2 249.5 374.9 249.5 C375.627 249.5 376.2 250.1 376.2 250.8" sketch:type="MSShapeGroup"/><path d="M382.826 250.8 C382.826 251.6 382.2 252.2 381.5 252.2 C380.762 252.2 380.2 251.6 380.2 250.8 C380.167 250.1 380.8 249.5 381.5 249.5 C382.231 249.5 382.8 250.1 382.8 250.8" sketch:type="MSShapeGroup"/><path d="M356.409 259.5 C356.409 260.2 355.8 260.8 355.1 260.8 C354.345 260.8 353.8 260.2 353.8 259.5 C353.75 258.8 354.3 258.2 355.1 258.2 C355.814 258.2 356.4 258.8 356.4 259.5" sketch:type="MSShapeGroup"/><path d="M363.014 259.5 C363.014 260.2 362.4 260.8 361.7 260.8 C360.949 260.8 360.4 260.2 360.4 259.5 C360.354 258.8 360.9 258.2 361.7 258.2 C362.418 258.2 363 258.8 363 259.5" sketch:type="MSShapeGroup"/><path d="M369.618 259.5 C369.618 260.2 369 260.8 368.3 260.8 C367.554 260.8 367 260.2 367 259.5 C366.958 258.8 367.6 258.2 368.3 258.2 C369.023 258.2 369.6 258.8 369.6 259.5" sketch:type="MSShapeGroup"/><path d="M376.222 259.5 C376.222 260.2 375.6 260.8 374.9 260.8 C374.158 260.8 373.6 260.2 373.6 259.5 C373.562 258.8 374.2 258.2 374.9 258.2 C375.627 258.2 376.2 258.8 376.2 259.5" sketch:type="MSShapeGroup"/><path d="M382.826 259.5 C382.826 260.2 382.2 260.8 381.5 260.8 C380.762 260.8 380.2 260.2 380.2 259.5 C380.167 258.8 380.8 258.2 381.5 258.2 C382.231 258.2 382.8 258.8 382.8 259.5" sketch:type="MSShapeGroup"/><path d="M356.409 268.2 C356.409 268.9 355.8 269.5 355.1 269.5 C354.345 269.5 353.8 268.9 353.8 268.2 C353.75 267.4 354.3 266.8 355.1 266.8 C355.814 266.8 356.4 267.4 356.4 268.2" sketch:type="MSShapeGroup"/><path d="M363.014 268.2 C363.014 268.9 362.4 269.5 361.7 269.5 C360.949 269.5 360.4 268.9 360.4 268.2 C360.354 267.4 360.9 266.8 361.7 266.8 C362.418 266.8 363 267.4 363 268.2" sketch:type="MSShapeGroup"/><path d="M369.618 268.2 C369.618 268.9 369 269.5 368.3 269.5 C367.554 269.5 367 268.9 367 268.2 C366.958 267.4 367.6 266.8 368.3 266.8 C369.023 266.8 369.6 267.4 369.6 268.2" sketch:type="MSShapeGroup"/><path d="M376.222 268.2 C376.222 268.9 375.6 269.5 374.9 269.5 C374.158 269.5 373.6 268.9 373.6 268.2 C373.562 267.4 374.2 266.8 374.9 266.8 C375.627 266.8 376.2 267.4 376.2 268.2" sketch:type="MSShapeGroup"/><path d="M382.826 268.2 C382.826 268.9 382.2 269.5 381.5 269.5 C380.762 269.5 380.2 268.9 380.2 268.2 C380.167 267.4 380.8 266.8 381.5 266.8 C382.231 266.8 382.8 267.4 382.8 268.2" sketch:type="MSShapeGroup"/><path d="M359.678 220.3 C359.678 221.1 359.1 221.7 358.3 221.7 C357.613 221.7 357 221.1 357 220.3 C357.018 219.6 357.6 219 358.3 219 C359.082 219 359.7 219.6 359.7 220.3" sketch:type="MSShapeGroup"/><path d="M366.282 220.3 C366.282 221.1 365.7 221.7 365 221.7 C364.218 221.7 363.6 221.1 363.6 220.3 C363.622 219.6 364.2 219 365 219 C365.686 219 366.3 219.6 366.3 220.3" sketch:type="MSShapeGroup"/><path d="M372.886 220.3 C372.886 221.1 372.3 221.7 371.6 221.7 C370.822 221.7 370.2 221.1 370.2 220.3 C370.226 219.6 370.8 219 371.6 219 C372.291 219 372.9 219.6 372.9 220.3" sketch:type="MSShapeGroup"/><path d="M379.49 220.3 C379.49 221.1 378.9 221.7 378.2 221.7 C377.426 221.7 376.8 221.1 376.8 220.3 C376.83 219.6 377.4 219 378.2 219 C378.895 219 379.5 219.6 379.5 220.3" sketch:type="MSShapeGroup"/><path d="M386.094 220.3 C386.094 221.1 385.5 221.7 384.8 221.7 C384.03 221.7 383.4 221.1 383.4 220.3 C383.435 219.6 384 219 384.8 219 C385.499 219 386.1 219.6 386.1 220.3" sketch:type="MSShapeGroup"/><path d="M359.678 229.1 C359.678 229.9 359.1 230.5 358.3 230.5 C357.613 230.5 357 229.9 357 229.1 C357.018 228.4 357.6 227.8 358.3 227.8 C359.082 227.8 359.7 228.4 359.7 229.1" sketch:type="MSShapeGroup"/><path d="M366.282 229.1 C366.282 229.9 365.7 230.5 365 230.5 C364.218 230.5 363.6 229.9 363.6 229.1 C363.622 228.4 364.2 227.8 365 227.8 C365.686 227.8 366.3 228.4 366.3 229.1" sketch:type="MSShapeGroup"/><path d="M372.886 229.1 C372.886 229.9 372.3 230.5 371.6 230.5 C370.822 230.5 370.2 229.9 370.2 229.1 C370.226 228.4 370.8 227.8 371.6 227.8 C372.291 227.8 372.9 228.4 372.9 229.1" sketch:type="MSShapeGroup"/><path d="M379.49 229.1 C379.49 229.9 378.9 230.5 378.2 230.5 C377.426 230.5 376.8 229.9 376.8 229.1 C376.83 228.4 377.4 227.8 378.2 227.8 C378.895 227.8 379.5 228.4 379.5 229.1" sketch:type="MSShapeGroup"/><path d="M386.094 229.1 C386.094 229.9 385.5 230.5 384.8 230.5 C384.03 230.5 383.4 229.9 383.4 229.1 C383.435 228.4 384 227.8 384.8 227.8 C385.499 227.8 386.1 228.4 386.1 229.1" sketch:type="MSShapeGroup"/><path d="M359.678 237.9 C359.678 238.7 359.1 239.3 358.3 239.3 C357.613 239.3 357 238.7 357 237.9 C357.018 237.2 357.6 236.6 358.3 236.6 C359.082 236.6 359.7 237.2 359.7 237.9" sketch:type="MSShapeGroup"/><path d="M366.282 237.9 C366.282 238.7 365.7 239.3 365 239.3 C364.218 239.3 363.6 238.7 363.6 237.9 C363.622 237.2 364.2 236.6 365 236.6 C365.686 236.6 366.3 237.2 366.3 237.9" sketch:type="MSShapeGroup"/><path d="M372.886 237.9 C372.886 238.7 372.3 239.3 371.6 239.3 C370.822 239.3 370.2 238.7 370.2 237.9 C370.226 237.2 370.8 236.6 371.6 236.6 C372.291 236.6 372.9 237.2 372.9 237.9" sketch:type="MSShapeGroup"/><path d="M379.49 237.9 C379.49 238.7 378.9 239.3 378.2 239.3 C377.426 239.3 376.8 238.7 376.8 237.9 C376.83 237.2 377.4 236.6 378.2 236.6 C378.895 236.6 379.5 237.2 379.5 237.9" sketch:type="MSShapeGroup"/><path d="M386.094 237.9 C386.094 238.7 385.5 239.3 384.8 239.3 C384.03 239.3 383.4 238.7 383.4 237.9 C383.435 237.2 384 236.6 384.8 236.6 C385.499 236.6 386.1 237.2 386.1 237.9" sketch:type="MSShapeGroup"/><path d="M359.678 246.7 C359.678 247.4 359.1 248 358.3 248 C357.613 248 357 247.4 357 246.7 C357.018 246 357.6 245.4 358.3 245.4 C359.082 245.4 359.7 246 359.7 246.7" sketch:type="MSShapeGroup"/><path d="M366.282 246.7 C366.282 247.4 365.7 248 365 248 C364.218 248 363.6 247.4 363.6 246.7 C363.622 246 364.2 245.4 365 245.4 C365.686 245.4 366.3 246 366.3 246.7" sketch:type="MSShapeGroup"/><path d="M372.886 246.7 C372.886 247.4 372.3 248 371.6 248 C370.822 248 370.2 247.4 370.2 246.7 C370.226 246 370.8 245.4 371.6 245.4 C372.291 245.4 372.9 246 372.9 246.7" sketch:type="MSShapeGroup"/><path d="M379.49 246.7 C379.49 247.4 378.9 248 378.2 248 C377.426 248 376.8 247.4 376.8 246.7 C376.83 246 377.4 245.4 378.2 245.4 C378.895 245.4 379.5 246 379.5 246.7" sketch:type="MSShapeGroup"/><path d="M386.094 246.7 C386.094 247.4 385.5 248 384.8 248 C384.03 248 383.4 247.4 383.4 246.7 C383.435 246 384 245.4 384.8 245.4 C385.499 245.4 386.1 246 386.1 246.7" sketch:type="MSShapeGroup"/><path d="M359.678 255.5 C359.678 256.2 359.1 256.8 358.3 256.8 C357.613 256.8 357 256.2 357 255.5 C357.018 254.8 357.6 254.2 358.3 254.2 C359.082 254.2 359.7 254.8 359.7 255.5" sketch:type="MSShapeGroup"/><path d="M366.282 255.5 C366.282 256.2 365.7 256.8 365 256.8 C364.218 256.8 363.6 256.2 363.6 255.5 C363.622 254.8 364.2 254.2 365 254.2 C365.686 254.2 366.3 254.8 366.3 255.5" sketch:type="MSShapeGroup"/><path d="M372.886 255.5 C372.886 256.2 372.3 256.8 371.6 256.8 C370.822 256.8 370.2 256.2 370.2 255.5 C370.226 254.8 370.8 254.2 371.6 254.2 C372.291 254.2 372.9 254.8 372.9 255.5" sketch:type="MSShapeGroup"/><path d="M379.49 255.5 C379.49 256.2 378.9 256.8 378.2 256.8 C377.426 256.8 376.8 256.2 376.8 255.5 C376.83 254.8 377.4 254.2 378.2 254.2 C378.895 254.2 379.5 254.8 379.5 255.5" sketch:type="MSShapeGroup"/><path d="M386.094 255.5 C386.094 256.2 385.5 256.8 384.8 256.8 C384.03 256.8 383.4 256.2 383.4 255.5 C383.435 254.8 384 254.2 384.8 254.2 C385.499 254.2 386.1 254.8 386.1 255.5" sketch:type="MSShapeGroup"/><path d="M359.678 264.3 C359.678 265 359.1 265.6 358.3 265.6 C357.613 265.6 357 265 357 264.3 C357.018 263.6 357.6 263 358.3 263 C359.082 263 359.7 263.6 359.7 264.3" sketch:type="MSShapeGroup"/><path d="M366.282 264.3 C366.282 265 365.7 265.6 365 265.6 C364.218 265.6 363.6 265 363.6 264.3 C363.622 263.6 364.2 263 365 263 C365.686 263 366.3 263.6 366.3 264.3" sketch:type="MSShapeGroup"/><path d="M372.886 264.3 C372.886 265 372.3 265.6 371.6 265.6 C370.822 265.6 370.2 265 370.2 264.3 C370.226 263.6 370.8 263 371.6 263 C372.291 263 372.9 263.6 372.9 264.3" sketch:type="MSShapeGroup"/><path d="M379.49 264.3 C379.49 265 378.9 265.6 378.2 265.6 C377.426 265.6 376.8 265 376.8 264.3 C376.83 263.6 377.4 263 378.2 263 C378.895 263 379.5 263.6 379.5 264.3" sketch:type="MSShapeGroup"/><path d="M386.094 264.3 C386.094 265 385.5 265.6 384.8 265.6 C384.03 265.6 383.4 265 383.4 264.3 C383.435 263.6 384 263 384.8 263 C385.499 263 386.1 263.6 386.1 264.3" sketch:type="MSShapeGroup"/><path d="M359.678 273.1 C359.678 273.8 359.1 274.4 358.3 274.4 C357.613 274.4 357 273.8 357 273.1 C357.018 272.4 357.6 271.8 358.3 271.8 C359.082 271.8 359.7 272.4 359.7 273.1" sketch:type="MSShapeGroup"/><path d="M366.282 273.1 C366.282 273.8 365.7 274.4 365 274.4 C364.218 274.4 363.6 273.8 363.6 273.1 C363.622 272.4 364.2 271.8 365 271.8 C365.686 271.8 366.3 272.4 366.3 273.1" sketch:type="MSShapeGroup"/><path d="M372.886 273.1 C372.886 273.8 372.3 274.4 371.6 274.4 C370.822 274.4 370.2 273.8 370.2 273.1 C370.226 272.4 370.8 271.8 371.6 271.8 C372.291 271.8 372.9 272.4 372.9 273.1" sketch:type="MSShapeGroup"/><path d="M379.49 273.1 C379.49 273.8 378.9 274.4 378.2 274.4 C377.426 274.4 376.8 273.8 376.8 273.1 C376.83 272.4 377.4 271.8 378.2 271.8 C378.895 271.8 379.5 272.4 379.5 273.1" sketch:type="MSShapeGroup"/><path d="M386.094 273.1 C386.094 273.8 385.5 274.4 384.8 274.4 C384.03 274.4 383.4 273.8 383.4 273.1 C383.435 272.4 384 271.8 384.8 271.8 C385.499 271.8 386.1 272.4 386.1 273.1" sketch:type="MSShapeGroup"/><path d="M103.518 214.7 C99.596 214.7 96.4 211.6 96.4 207.6 C96.406 203.7 99.6 200.5 103.5 200.5 C107.44 200.5 110.6 203.7 110.6 207.6 C110.631 211.6 107.4 214.7 103.5 214.7 L103.518 214.7 Z M103.518 202.1 C100.476 202.1 98 204.6 98 207.6 C98.002 210.7 100.5 213.2 103.5 213.2 C106.56 213.2 109 210.7 109 207.6 C109.035 204.6 106.6 202.1 103.5 202.1 L103.518 202.1 Z" sketch:type="MSShapeGroup"/><path d="M222.658 196.2 L213.903 194.2 L213.896 194.2 C213.844 194.2 213.8 194.2 213.7 194.2 L213.722 194.2 L150.65 194.2 C150.21 194.2 149.9 194.5 149.9 195 L149.854 198.9 C149.854 199.4 150.2 199.7 150.7 199.7 L213.727 199.7 C213.785 199.7 213.8 199.7 213.9 199.7 L213.903 199.7 L222.658 197.7 C223.021 197.6 223.3 197.3 223.3 197 C223.278 196.6 223 196.3 222.7 196.2 L222.658 196.2 Z M151.446 195.8 L153.436 195.8 L153.436 198.1 L151.446 198.1 L151.446 195.8 Z M155.027 195.8 L212.931 195.8 L212.931 198.1 L155.027 198.1 L155.027 195.8 Z M214.523 197.9 L214.523 196 L218.89 197 L214.523 197.9 L214.523 197.9 Z" sketch:type="MSShapeGroup"/><path d="M240.714 144.9 L235.802 144.9 L235.802 144.7 C235.802 144.3 235.4 143.9 235 143.9 L231.032 143.9 L231.032 141 L212.145 141 L212.145 142.6 L229.436 142.6 L229.436 143.9 L175.348 143.9 C175.29 143.9 175.2 143.9 175.2 143.9 L175.171 143.9 L166.392 145.9 C166.029 146 165.8 146.3 165.8 146.7 C165.771 147.1 166 147.4 166.4 147.5 L175.171 149.5 C175.173 149.5 175.2 149.5 175.2 149.5 C175.233 149.5 175.3 149.5 175.3 149.5 L235.004 149.5 C235.444 149.5 235.8 149.2 235.8 148.7 L235.802 148.5 L240.714 148.5 C241.155 148.5 241.5 148.1 241.5 147.7 L241.512 145.7 C241.512 145.2 241.2 144.9 240.7 144.9 L240.714 144.9 Z M174.55 145.7 L174.55 147.7 L170.171 146.7 L174.55 145.7 L174.55 145.7 Z M176.146 145.5 L234.206 145.5 L234.206 147.9 L176.146 147.9 L176.146 145.5 Z M235.802 146.5 L239.917 146.5 L239.917 146.9 L235.802 146.9 L235.802 146.5 Z" sketch:type="MSShapeGroup"/></g></g></svg>