<?xml version="1.0" encoding="UTF-8"?>
<svg aria-describedby="upcase-logo-svg" role="img" width="93px" height="20px" viewBox="0 0 93 20" version="1.1" xmlns="http://www.w3.org/2000/svg" xmlns:xlink="http://www.w3.org/1999/xlink">
    <title id="upcase-logo-svg">Upcase</title>
    <defs>
        <linearGradient x1="65.6092084%" y1="3.57810702%" x2="65.6092084%" y2="87.2081144%" id="linearGradient-1">
            <stop stop-color="#B7BDC5" offset="0%"></stop>
            <stop stop-color="#F5F5F5" offset="100%"></stop>
        </linearGradient>
    </defs>
    <g id="Page-1" stroke="none" stroke-width="1" fill="none" fill-rule="evenodd">
        <g id="upcase" transform="translate(0.000000, -1.000000)" fill-rule="nonzero">
            <path d="M80.33,4.72 C80.33,4.59534825 80.3795177,4.47580191 80.4676598,4.38765981 C80.5558019,4.29951771 80.6753482,4.25 80.8,4.25 L91.8,4.25 C92.0595738,4.25 92.27,4.46042617 92.27,4.72 L92.27,6.88 C92.27,7.13957383 92.0595738,7.35 91.8,7.35 L84.27,7.35 C84.0104262,7.35 83.8,7.56042617 83.8,7.82 L83.8,10.09 C83.7999433,10.35124 84.0088167,10.5645575 84.27,10.57 L90.8,10.57 C91.0595738,10.57 91.27,10.7804262 91.27,11.04 L91.27,13.2 C91.27,13.3246518 91.2204823,13.4441981 91.1323402,13.5323402 C91.0441981,13.6204823 90.9246518,13.67 90.8,13.67 L84.27,13.67 C84.0104262,13.67 83.8,13.8804262 83.8,14.14 L83.8,16.52 C83.7973106,16.6463753 83.8456384,16.7685068 83.9340737,16.8588237 C84.022509,16.9491405 84.1435961,17.0000286 84.27,17 L91.93,17 C92.1895738,17 92.4,17.2104262 92.4,17.47 L92.4,19.63 C92.4,19.8895738 92.1895738,20.1 91.93,20.1 L80.8,20.1 C80.5404262,20.1 80.33,19.8895738 80.33,19.63 L80.33,4.72" id="e" fill="#FFFFFF"></path>
            <path d="M65.39,17.3 L67.05,15.73 C67.2295794,15.5507174 67.5204206,15.5507174 67.7,15.73 C68.8419177,16.8009515 70.3781953,17.3480692 71.94,17.24 C73.37,17.24 74.23,16.67 74.23,15.74 C74.23,14.85 73.69,14.4 71.04,13.74 C67.84,12.93 65.78,12.04 65.78,8.89 C65.78,5.92 68.09,4 71.33,4 C73.3078411,3.97027823 75.242912,4.57674068 76.85,5.73 C77.0559272,5.89038627 77.1038353,6.18219003 76.96,6.4 L75.67,8.29 C75.5197711,8.49657043 75.2340842,8.54931263 75.02,8.41 C73.9283611,7.6240154 72.6333754,7.1692081 71.29,7.1 C69.95,7.1 69.29,7.71 69.29,8.48 C69.29,9.48 69.97,9.86 72.71,10.56 C75.92,11.4 77.71,12.56 77.71,15.32 C77.71,18.47 75.31,20.24 71.89,20.24 C69.5090731,20.3624276 67.17297,19.55984 65.37,18 C65.1858729,17.8068509 65.1858729,17.5031491 65.37,17.31" id="s" fill="#FFFFFF"></path>
            <g id="chevron" transform="translate(47.000000, 0.000000)" fill="url(#linearGradient-1)">
                <g id="Clip-7">
                    <path d="M8.57,1.32 C6.82,3.87 1.83,11.2 0.22,13.72 C-0.00105549361,14.0408433 0.0645381597,14.4781343 0.37,14.72 L1.71,15.77 C1.99949024,16.0117798 2.42050976,16.0117798 2.71,15.77 C5.57,13.29 6.16,12.84 7.91,11.23 C8.60795027,10.6072586 9.66204973,10.6072586 10.36,11.23 C12.65,13.23 13.67,14.08 15.59,15.78 C15.877984,16.0258978 16.302016,16.0258978 16.59,15.78 C17.02,15.46 17.59,15.04 17.99,14.72 C18.1451936,14.6096474 18.2495531,14.4415784 18.2796389,14.2535422 C18.3097247,14.0655061 18.2630146,13.8732659 18.15,13.72 C16.54,11.18 11.55,3.87 9.81,1.32 C9.67426815,1.11897897 9.4475543,0.998503366 9.205,0.998503366 C8.9624457,0.998503366 8.73573185,1.11897897 8.6,1.32 L8.57,1.32 Z" id="path-2"></path>
                </g>
            </g>
            <path d="M32.64,12.22 L32.64,12.17 C32.592127,9.97310115 33.4500196,7.8532322 35.0123184,6.30795597 C36.5746173,4.76267974 38.7037575,3.92806229 40.9,4 C43.0056521,3.94238432 45.0602626,4.65332219 46.68,6 C46.8858936,6.15701655 46.9301395,6.44903904 46.78,6.66 L45.36,8.66 C45.2860758,8.76123448 45.1747745,8.82874412 45.0508368,8.84752257 C44.926899,8.86630103 44.8005949,8.83479219 44.7,8.76 C43.6159779,7.85717777 42.2844619,7.30296039 40.88,7.17 C39.6082092,7.19539227 38.4010223,7.73520251 37.5341582,8.6661392 C36.6672941,9.59707589 36.2147911,10.8396283 36.28,12.11 L36.28,12.21 C36.2578748,14.2041821 37.4538349,16.0103242 39.2984265,16.768436 C41.1430182,17.5265478 43.263417,17.0834014 44.65,15.65 C44.8303833,15.4823177 45.1096167,15.4823177 45.29,15.65 L47,17.14 C47.0897807,17.2283493 47.1403411,17.349039 47.1403411,17.475 C47.1403411,17.600961 47.0897807,17.7216507 47,17.81 C45.4215998,19.5736257 43.1222291,20.5169573 40.76,20.37 C38.5895678,20.4056614 36.4978215,19.5577992 34.9647739,18.0209802 C33.4317262,16.4841612 32.589006,14.3903381 32.63,12.22" id="c" fill="#FFFFFF"></path>
            <path d="M17.72,4.72 C17.72,4.59534825 17.7695177,4.47580191 17.8576598,4.38765981 C17.9458019,4.29951771 18.0653482,4.25 18.19,4.25 L24.19,4.25 C27.98,4.25 30.26,6.49 30.26,9.73 C30.26,13.4 27.41,15.3 23.86,15.3 L21.21,15.3 L21.21,19.59 C21.2045575,19.8511833 20.99124,20.0600567 20.73,20.06 L18.19,20.06 C17.9304262,20.06 17.72,19.8495738 17.72,19.59 L17.72,4.72 Z M24,12.24 C24.692942,12.328443 25.3906852,12.1168812 25.917825,11.6584988 C26.4449648,11.2001164 26.751365,10.53851 26.76,9.84 C26.76,8.27 25.67,7.43 23.93,7.43 L21.68,7.43 C21.4188167,7.43544249 21.2099433,7.64875996 21.21,7.91 L21.21,11.81 C21.21,12.0695738 21.4204262,12.28 21.68,12.28 L24,12.24 Z" id="p" fill="#FFFFFF"></path>
            <path d="M0,13.31 L0,4.72 C-2.36691426e-16,4.59534825 0.049517715,4.47580191 0.137659813,4.38765981 C0.225801911,4.29951771 0.34534825,4.25 0.47,4.25 L3,4.25 C3.25957383,4.25 3.47,4.46042617 3.47,4.72 L3.47,13.21 C3.47,15.8 4.76,17.13 6.89,17.13 C9.02,17.13 10.31,15.84 10.31,13.33 L10.31,4.72 C10.31,4.59534825 10.3595177,4.47580191 10.4476598,4.38765981 C10.5358019,4.29951771 10.6553482,4.25 10.78,4.25 L13.32,4.25 C13.4446518,4.25 13.5641981,4.29951771 13.6523402,4.38765981 C13.7404823,4.47580191 13.79,4.59534825 13.79,4.72 L13.79,13.19 C13.79,17.99 11.1,20.35 6.84,20.35 C2.58,20.35 0,18 0,13.31" id="u" fill="#FFFFFF"></path>
        </g>
    </g>
</svg>