<?xml version="1.0" encoding="UTF-8" standalone="no"?>
<svg width="94px" height="20px" viewBox="0 0 94 20" version="1.1" xmlns="http://www.w3.org/2000/svg" xmlns:xlink="http://www.w3.org/1999/xlink" xmlns:sketch="http://www.bohemiancoding.com/sketch/ns">
    <!-- Generator: Sketch 3.1.1 (8761) - http://www.bohemiancoding.com/sketch -->
    <title>Vector 1</title>
    <desc>Created with Sketch.</desc>
    <defs>
        <linearGradient x1="50%" y1="0%" x2="50%" y2="84.2873011%" id="linearGradient-1">
            <stop stop-color="#3FBCFF" offset="0%"></stop>
            <stop stop-color="#A2F6F9" offset="100%"></stop>
        </linearGradient>
        <linearGradient x1="50%" y1="0%" x2="50%" y2="84.2873011%" id="linearGradient-2">
            <stop stop-color="#487BF6" offset="0%"></stop>
            <stop stop-color="#0093CB" offset="100%"></stop>
        </linearGradient>
    </defs>
    <g id="Page-1" stroke="none" stroke-width="1" fill="none" fill-rule="evenodd" sketch:type="MSPage">
        <g id="upcase-header-logo-gray" sketch:type="MSLayerGroup" transform="translate(1.000000, 0.000000)">
            <path d="M-0.10257686,12.4461347 L-0.10257686,3.85999645 C-0.10257686,3.59921806 0.10893904,3.38770215 0.36971743,3.38770215 L2.91338191,3.38770215 C3.17376933,3.38770215 3.38528523,3.59921806 3.38528523,3.85999645 L3.38528523,12.3558202 C3.38528523,14.9374089 4.6758841,16.2729696 6.8047272,16.2729696 C8.9335703,16.2729696 10.2241692,14.9823707 10.2241692,12.4692021 L10.2241692,3.85999645 C10.2241692,3.59921806 10.4356851,3.38770215 10.6964635,3.38770215 L13.238955,3.38770215 C13.4997334,3.38770215 13.7108584,3.59921806 13.7108584,3.85999645 L13.7108584,12.3327528 C13.7108584,17.1338902 11.0162787,19.4887151 6.7597654,19.4887151 C2.50207926,19.4887151 -0.10257686,17.1108228 -0.10257686,12.4461347" id="Fill-1" fill="#5F5F5F" sketch:type="MSShapeGroup"></path>
            <path d="M17.6154967,3.85999645 C17.6154967,3.59921806 17.8266216,3.38770215 18.0874,3.38770215 L24.0919495,3.38770215 C27.8738226,3.38809312 30.1614004,5.63031811 30.1614004,8.8679581 L30.1614004,8.9140928 C30.1614004,12.582584 27.307695,14.4846632 23.7529767,14.4846632 L21.1033588,14.4846632 L21.1033588,18.7677626 C21.1033588,19.028541 20.8918429,19.2396659 20.6310645,19.2396659 L18.0874,19.2396659 C17.8266216,19.2396659 17.6154967,19.028541 17.6154967,18.7677626 L17.6154967,3.85999645 L17.6154967,3.85999645 Z M23.8651857,11.3822996 C25.6097032,11.3822996 26.6281855,10.340359 26.6281855,8.98134 L26.6281855,8.9363782 C26.6281855,7.3736627 25.5412831,6.53541852 23.7979385,6.53541852 L21.5752621,6.53541852 C21.3144837,6.53541852 21.1033588,6.74693442 21.1033588,7.0077128 L21.1033588,10.9100053 C21.1033588,11.1707837 21.3144837,11.3822996 21.5752621,11.3822996 L23.8651857,11.3822996 L23.8651857,11.3822996 Z" id="Fill-2" fill="#5F5F5F" sketch:type="MSShapeGroup"></path>
            <path d="M32.535383,11.3592323 L32.535383,11.3138795 C32.535383,6.8075351 35.9317576,3.11714946 40.8005331,3.11714946 C43.5674427,3.11714946 45.0519637,4.01834015 46.5802737,5.15020437 C46.785534,5.30229252 46.8261951,5.59786742 46.6784077,5.80664653 L45.2548783,7.8162431 C45.1055269,8.0269771 44.8158166,8.0680291 44.6023458,7.9233695 C43.4059712,7.1105385 42.2103785,6.33172205 40.7786387,6.33172205 C38.1059534,6.33172205 36.1808068,8.5508797 36.1808068,11.2689177 L36.1808068,11.3748712 C36.1808068,14.0909543 38.3878443,16.4242758 41.1004087,16.2882175 C42.5688999,16.2147148 43.5600142,15.7760441 44.5425271,14.8142527 C44.7200284,14.6406611 45.0019193,14.6242403 45.1876311,14.7892305 L46.8668562,16.2803981 C47.0603874,16.4520348 47.0830638,16.7546472 46.911818,16.9493513 C45.4656122,18.5910432 43.5197441,19.5117825 40.6652568,19.5117825 C36.0001777,19.5117825 32.535383,15.9109294 32.535383,11.3592323" id="Fill-3" fill="#5F5F5F" sketch:type="MSShapeGroup"></path>
            <path d="M65.2906344,16.4410876 L66.9440554,14.8701617 C67.1274214,14.6957882 67.412831,14.7059534 67.594633,14.8822819 C68.7894438,16.0399502 70.1785676,16.3863515 71.8394171,16.3863515 C73.2656833,16.3863515 74.1269948,15.8202239 74.1269948,14.8920562 L74.1269948,14.8467034 C74.1269948,13.9634974 73.5831527,13.5107517 70.9343167,12.8316332 C67.7404656,12.0164564 65.6800427,11.1332504 65.6800427,7.9847521 L65.6800427,7.9393993 C65.6800427,5.06419051 67.9895148,3.16211125 71.2283277,3.16211125 C73.3638173,3.16211125 75.2092056,3.78180203 76.7465079,4.89529056 C76.954896,5.04659677 76.9986849,5.34725431 76.8524613,5.55916119 L75.5630354,7.4287898 C75.4187667,7.6383508 75.133357,7.6844855 74.9194953,7.5468633 C73.6476631,6.72777679 72.3969433,6.2414075 71.1829749,6.2414075 C69.8462413,6.2414075 69.1448374,6.85249689 69.1448374,7.622321 L69.1448374,7.6684557 C69.1448374,8.7096144 69.8243469,9.0497601 72.5642794,9.751164 C75.7800249,10.5894082 77.5913986,11.7443398 77.5913986,14.5065577 L77.5913986,14.5526924 C77.5913986,17.7004087 75.1908299,19.4668207 71.771388,19.4668207 C69.5244713,19.4668207 66.9291985,18.817416 65.2718678,17.1280256 C65.086547,16.9387951 65.0986671,16.6236716 65.2906344,16.4410876" id="Fill-4" fill="#5F5F5F" sketch:type="MSShapeGroup"></path>
            <path d="M80.2304603,3.85999645 C80.2304603,3.59921806 80.4419762,3.38809312 80.7023636,3.38809312 L91.7148747,3.38809312 C91.9756531,3.38809312 92.187169,3.59921806 92.187169,3.85999645 L92.187169,6.01816243 C92.187169,6.27894082 91.9756531,6.49045673 91.7148747,6.49045673 L84.1671583,6.49045673 C83.90638,6.49045673 83.695255,6.70158166 83.695255,6.96236005 L83.695255,9.2342989 C83.695255,9.4946863 83.90638,9.7062022 84.1671583,9.7062022 L90.6963924,9.7062022 C90.9571708,9.7062022 91.1682957,9.9173272 91.1682957,10.1781056 L91.1682957,12.3362715 C91.1682957,12.5970499 90.9571708,12.8085658 90.6963924,12.8085658 L84.1671583,12.8085658 C83.90638,12.8085658 83.695255,13.0196908 83.695255,13.2804692 L83.695255,15.665399 C83.695255,15.9261774 83.90638,16.1376933 84.1671583,16.1376933 L91.8286476,16.1376933 C92.089035,16.1376933 92.3005509,16.3488182 92.3005509,16.6095966 L92.3005509,18.7677626 C92.3005509,19.028541 92.089035,19.2400569 91.8286476,19.2400569 L80.7023636,19.2400569 C80.4415852,19.2400569 80.2304603,19.028541 80.2304603,18.7677626 L80.2304603,3.85999645" id="Fill-5" fill="#5F5F5F" sketch:type="MSShapeGroup"></path>
            <g id="chevron" transform="translate(46.870091, 0.127777)" sketch:type="MSShapeGroup">
                <g id="mask-3" fill="#FFFFFF">
                    <path d="M8.59267816,0.335454061 C6.8489426,2.88693798 1.85544695,10.2094544 0.246987738,12.7359161 C0.0483739115,13.0479119 0.11327528,13.4560867 0.399857828,13.690279 C0.784965346,14.0057935 1.3264617,14.4253066 1.74167407,14.7435578 C2.03568509,14.9691487 2.44620579,14.9550738 2.72653279,14.7122801 C5.58375689,12.2358628 6.17725253,11.7784254 7.93154434,10.1758308 C8.62043718,9.54636574 9.67801671,9.54206504 10.3735561,10.1637107 C12.6662165,12.2120135 13.6921272,13.017807 15.6051537,14.7146259 C15.8807891,14.9589835 16.2889639,14.9769682 16.5849298,14.7572419 C17.0149991,14.4378177 17.5830816,14.012049 17.9865648,13.6949707 C18.2825307,13.4627333 18.3540785,13.0475209 18.151946,12.7304425 C16.5352763,10.1930336 11.551164,2.88420117 9.80938333,0.335454061 C9.51576328,-0.0942242758 8.88629821,-0.0942242758 8.59267816,0.335454061 L8.59267816,0.335454061 L8.59267816,0.335454061 Z" id="path-2"></path>
                </g>
                <g id="Clip-7" fill="url(#linearGradient-2)">
                    <path d="M8.59267816,0.335454061 C6.8489426,2.88693798 1.85544695,10.2094544 0.246987738,12.7359161 C0.0483739115,13.0479119 0.11327528,13.4560867 0.399857828,13.690279 C0.784965346,14.0057935 1.3264617,14.4253066 1.74167407,14.7435578 C2.03568509,14.9691487 2.44620579,14.9550738 2.72653279,14.7122801 C5.58375689,12.2358628 6.17725253,11.7784254 7.93154434,10.1758308 C8.62043718,9.54636574 9.67801671,9.54206504 10.3735561,10.1637107 C12.6662165,12.2120135 13.6921272,13.017807 15.6051537,14.7146259 C15.8807891,14.9589835 16.2889639,14.9769682 16.5849298,14.7572419 C17.0149991,14.4378177 17.5830816,14.012049 17.9865648,13.6949707 C18.2825307,13.4627333 18.3540785,13.0475209 18.151946,12.7304425 C16.5352763,10.1930336 11.551164,2.88420117 9.80938333,0.335454061 C9.51576328,-0.0942242758 8.88629821,-0.0942242758 8.59267816,0.335454061 L8.59267816,0.335454061 L8.59267816,0.335454061 Z" id="path-2"></path>
                </g>
            </g>
        </g>
    </g>
</svg>