<?xml version="1.0" encoding="UTF-8" standalone="no"?>
<svg width="100px" height="27px" viewBox="0 0 100 27" version="1.1" xmlns="http://www.w3.org/2000/svg" xmlns:xlink="http://www.w3.org/1999/xlink" xmlns:sketch="http://www.bohemiancoding.com/sketch/ns">
    <!-- Generator: Sketch 3.1.1 (8761) - http://www.bohemiancoding.com/sketch -->
    <title>upcase-header-logo-small@2x</title>
    <desc>Created with Sketch.</desc>
    <defs>
        <linearGradient x1="50%" y1="0%" x2="50%" y2="84.2873011%" id="linearGradient-1">
            <stop stop-color="#3FBCFF" offset="0%"></stop>
            <stop stop-color="#A2F6F9" offset="100%"></stop>
        </linearGradient>
        <path id="path-2" d="M8.59267816,0.335454061 C6.8489426,2.88693798 1.85544695,10.2094544 0.246987738,12.7359161 C0.0483739115,13.0479119 0.11327528,13.4560867 0.399857828,13.690279 C0.784965346,14.0057935 1.3264617,14.4253066 1.74167407,14.7435578 C2.03568509,14.9691487 2.44620579,14.9550738 2.72653279,14.7122801 C5.58375689,12.2358628 6.17725253,11.7784254 7.93154434,10.1758308 C8.62043718,9.54636574 9.67801671,9.54206504 10.3735561,10.1637107 C12.6662165,12.2120135 13.6921272,13.017807 15.6051537,14.7146259 C15.8807891,14.9589835 16.2889639,14.9769682 16.5849298,14.7572419 C17.0149991,14.4378177 17.5830816,14.012049 17.9865648,13.6949707 C18.2825307,13.4627333 18.3540785,13.0475209 18.151946,12.7304425 C16.5352763,10.1930336 11.551164,2.88420117 9.80938333,0.335454061 C9.51576328,-0.0942242758 8.88629821,-0.0942242758 8.59267816,0.335454061 L8.59267816,0.335454061 Z"></path>
    </defs>
    <g id="Page-1" stroke="none" stroke-width="1" fill="none" fill-rule="evenodd" sketch:type="MSPage">
        <g id="upcase-header-logo-small" sketch:type="MSArtboardGroup">
            <path d="M5.89742314,15.4461347 L5.89742314,6.85999645 C5.89742314,6.59921806 6.10893904,6.38770215 6.36971743,6.38770215 L8.91338191,6.38770215 C9.17376933,6.38770215 9.38528523,6.59921806 9.38528523,6.85999645 L9.38528523,15.3558202 C9.38528523,17.9374089 10.6758841,19.2729696 12.8047272,19.2729696 C14.9335703,19.2729696 16.2241692,17.9823707 16.2241692,15.4692021 L16.2241692,6.85999645 C16.2241692,6.59921806 16.4356851,6.38770215 16.6964635,6.38770215 L19.238955,6.38770215 C19.4997334,6.38770215 19.7108584,6.59921806 19.7108584,6.85999645 L19.7108584,15.3327528 C19.7108584,20.1338902 17.0162787,22.4887151 12.7597654,22.4887151 C8.50207926,22.4887151 5.89742314,20.1108228 5.89742314,15.4461347" id="Fill-1" fill="#FFFFFF" sketch:type="MSShapeGroup"></path>
            <path d="M23.6154967,6.85999645 C23.6154967,6.59921806 23.8266216,6.38770215 24.0874,6.38770215 L30.0919495,6.38770215 C33.8738226,6.38809312 36.1614004,8.63031811 36.1614004,11.8679581 L36.1614004,11.9140928 C36.1614004,15.582584 33.307695,17.4846632 29.7529767,17.4846632 L27.1033588,17.4846632 L27.1033588,21.7677626 C27.1033588,22.028541 26.8918429,22.2396659 26.6310645,22.2396659 L24.0874,22.2396659 C23.8266216,22.2396659 23.6154967,22.028541 23.6154967,21.7677626 L23.6154967,6.85999645 L23.6154967,6.85999645 Z M29.8651857,14.3822996 C31.6097032,14.3822996 32.6281855,13.340359 32.6281855,11.98134 L32.6281855,11.9363782 C32.6281855,10.3736627 31.5412831,9.53541852 29.7979385,9.53541852 L27.5752621,9.53541852 C27.3144837,9.53541852 27.1033588,9.74693442 27.1033588,10.0077128 L27.1033588,13.9100053 C27.1033588,14.1707837 27.3144837,14.3822996 27.5752621,14.3822996 L29.8651857,14.3822996 L29.8651857,14.3822996 Z" id="Fill-2" fill="#FFFFFF" sketch:type="MSShapeGroup"></path>
            <path d="M38.535383,14.3592323 L38.535383,14.3138795 C38.535383,9.8075351 41.9317576,6.11714946 46.8005331,6.11714946 C49.5674427,6.11714946 51.0519637,7.01834015 52.5802737,8.15020437 C52.785534,8.30229252 52.8261951,8.59786742 52.6784077,8.80664653 L51.2548783,10.8162431 C51.1055269,11.0269771 50.8158166,11.0680291 50.6023458,10.9233695 C49.4059712,10.1105385 48.2103785,9.33172205 46.7786387,9.33172205 C44.1059534,9.33172205 42.1808068,11.5508797 42.1808068,14.2689177 L42.1808068,14.3748712 C42.1808068,17.0909543 44.3878443,19.4242758 47.1004087,19.2882175 C48.5688999,19.2147148 49.5600142,18.7760441 50.5425271,17.8142527 C50.7200284,17.6406611 51.0019193,17.6242403 51.1876311,17.7892305 L52.8668562,19.2803981 C53.0603874,19.4520348 53.0830638,19.7546472 52.911818,19.9493513 C51.4656122,21.5910432 49.5197441,22.5117825 46.6652568,22.5117825 C42.0001777,22.5117825 38.535383,18.9109294 38.535383,14.3592323" id="Fill-3" fill="#FFFFFF" sketch:type="MSShapeGroup"></path>
            <path d="M71.2906344,19.4410876 L72.9440554,17.8701617 C73.1274214,17.6957882 73.412831,17.7059534 73.594633,17.8822819 C74.7894438,19.0399502 76.1785676,19.3863515 77.8394171,19.3863515 C79.2656833,19.3863515 80.1269948,18.8202239 80.1269948,17.8920562 L80.1269948,17.8467034 C80.1269948,16.9634974 79.5831527,16.5107517 76.9343167,15.8316332 C73.7404656,15.0164564 71.6800427,14.1332504 71.6800427,10.9847521 L71.6800427,10.9393993 C71.6800427,8.06419051 73.9895148,6.16211125 77.2283277,6.16211125 C79.3638173,6.16211125 81.2092056,6.78180203 82.7465079,7.89529056 C82.954896,8.04659677 82.9986849,8.34725431 82.8524613,8.55916119 L81.5630354,10.4287898 C81.4187667,10.6383508 81.133357,10.6844855 80.9194953,10.5468633 C79.6476631,9.72777679 78.3969433,9.2414075 77.1829749,9.2414075 C75.8462413,9.2414075 75.1448374,9.85249689 75.1448374,10.622321 L75.1448374,10.6684557 C75.1448374,11.7096144 75.8243469,12.0497601 78.5642794,12.751164 C81.7800249,13.5894082 83.5913986,14.7443398 83.5913986,17.5065577 L83.5913986,17.5526924 C83.5913986,20.7004087 81.1908299,22.4668207 77.771388,22.4668207 C75.5244713,22.4668207 72.9291985,21.817416 71.2718678,20.1280256 C71.086547,19.9387951 71.0986671,19.6236716 71.2906344,19.4410876" id="Fill-4" fill="#FFFFFF" sketch:type="MSShapeGroup"></path>
            <path d="M86.2304603,6.85999645 C86.2304603,6.59921806 86.4419762,6.38809312 86.7023636,6.38809312 L97.7148747,6.38809312 C97.9756531,6.38809312 98.187169,6.59921806 98.187169,6.85999645 L98.187169,9.01816243 C98.187169,9.27894082 97.9756531,9.49045673 97.7148747,9.49045673 L90.1671583,9.49045673 C89.90638,9.49045673 89.695255,9.70158166 89.695255,9.96236005 L89.695255,12.2342989 C89.695255,12.4946863 89.90638,12.7062022 90.1671583,12.7062022 L96.6963924,12.7062022 C96.9571708,12.7062022 97.1682957,12.9173272 97.1682957,13.1781056 L97.1682957,15.3362715 C97.1682957,15.5970499 96.9571708,15.8085658 96.6963924,15.8085658 L90.1671583,15.8085658 C89.90638,15.8085658 89.695255,16.0196908 89.695255,16.2804692 L89.695255,18.665399 C89.695255,18.9261774 89.90638,19.1376933 90.1671583,19.1376933 L97.8286476,19.1376933 C98.089035,19.1376933 98.3005509,19.3488182 98.3005509,19.6095966 L98.3005509,21.7677626 C98.3005509,22.028541 98.089035,22.2400569 97.8286476,22.2400569 L86.7023636,22.2400569 C86.4415852,22.2400569 86.2304603,22.028541 86.2304603,21.7677626 L86.2304603,6.85999645" id="Fill-5" fill="#FFFFFF" sketch:type="MSShapeGroup"></path>
            <g id="chevron" sketch:type="MSLayerGroup" transform="translate(52.870091, 3.127777)">
                <mask id="mask-3" sketch:name="Clip 7" fill="white">
                    <use xlink:href="#path-2"></use>
                </mask>
                <use id="Clip-7" fill="url(#linearGradient-1)" sketch:type="MSShapeGroup" xlink:href="#path-2"></use>
            </g>
        </g>
    </g>
</svg>