<?xml version="1.0" encoding="UTF-8" standalone="no"?>
<svg width="331px" height="88px" viewBox="0 0 331 88" version="1.1" xmlns="http://www.w3.org/2000/svg" xmlns:xlink="http://www.w3.org/1999/xlink" xmlns:sketch="http://www.bohemiancoding.com/sketch/ns">
    <!-- Generator: Sketch 3.1.1 (8761) - http://www.bohemiancoding.com/sketch -->
    <title>Upcase Logo Small White</title>
    <desc>Created with Sketch.</desc>
    <defs>
        <linearGradient x1="50%" y1="0%" x2="50%" y2="84.2873011%" id="linearGradient-1">
            <stop stop-color="#487BF6" offset="0%"></stop>
            <stop stop-color="#0093CB" offset="100%"></stop>
        </linearGradient>
        <path id="path-2" d="M27.4417647,1.11035294 C21.67,9.55576471 5.14152941,33.7932941 -0.182470588,42.1558824 C-0.839882353,43.1885882 -0.625058824,44.5396471 0.323529412,45.3148235 C1.59823529,46.3591765 3.39058824,47.7477647 4.76494118,48.8011765 C5.73811765,49.5478824 7.09694118,49.5012941 8.02482353,48.6976471 C17.4822353,40.5007059 19.4467059,38.9865882 25.2534118,33.682 C27.5336471,31.5984706 31.0342353,31.5842353 33.3364706,33.6418824 C40.9251765,40.4217647 44.3209412,43.0889412 50.6530588,48.7054118 C51.5654118,49.5142353 52.9164706,49.5737647 53.8961176,48.8464706 C55.3196471,47.7891765 57.2,46.3798824 58.5355294,45.3303529 C59.5151765,44.5616471 59.752,43.1872941 59.0829412,42.1377647 C53.7317647,33.7389412 37.2343529,9.54670588 31.4690588,1.11035294 C30.4971765,-0.311882353 28.4136471,-0.311882353 27.4417647,1.11035294 L27.4417647,1.11035294 Z"></path>
    </defs>
    <g id="Page-1" stroke="none" stroke-width="1" fill="none" fill-rule="evenodd" sketch:type="MSPage">
        <g id="Upcase-Logo-Small-White" sketch:type="MSArtboardGroup">
            <path d="M19.5204706,51.1267059 L19.5204706,22.7065882 C19.5204706,21.8434118 20.2205882,21.1432941 21.0837647,21.1432941 L29.5032941,21.1432941 C30.3651765,21.1432941 31.0652941,21.8434118 31.0652941,22.7065882 L31.0652941,50.8277647 C31.0652941,59.3728235 35.3371765,63.7935294 42.3836471,63.7935294 C49.4301176,63.7935294 53.702,59.5216471 53.702,51.2030588 L53.702,22.7065882 C53.702,21.8434118 54.4021176,21.1432941 55.2652941,21.1432941 L63.6809412,21.1432941 C64.5441176,21.1432941 65.2429412,21.8434118 65.2429412,22.7065882 L65.2429412,50.7514118 C65.2429412,66.6431765 56.3238824,74.4376471 42.2348235,74.4376471 C28.1418824,74.4376471 19.5204706,66.5668235 19.5204706,51.1267059" id="Fill-1" fill="#FFFFFF" sketch:type="MSShapeGroup"></path>
            <path d="M78.1672941,22.7065882 C78.1672941,21.8434118 78.8661176,21.1432941 79.7292941,21.1432941 L99.6043529,21.1432941 C112.122353,21.1445882 119.694235,28.5663529 119.694235,39.2829412 L119.694235,39.4356471 C119.694235,51.5783529 110.248471,57.8742353 98.4823529,57.8742353 L89.7121176,57.8742353 L89.7121176,72.0512941 C89.7121176,72.9144706 89.012,73.6132941 88.1488235,73.6132941 L79.7292941,73.6132941 C78.8661176,73.6132941 78.1672941,72.9144706 78.1672941,72.0512941 L78.1672941,22.7065882 L78.1672941,22.7065882 Z M98.8537647,47.6054118 C104.628118,47.6054118 107.999294,44.1565882 107.999294,39.6582353 L107.999294,39.5094118 C107.999294,34.3368235 104.401647,31.5622353 98.6311765,31.5622353 L91.2741176,31.5622353 C90.4109412,31.5622353 89.7121176,32.2623529 89.7121176,33.1255294 L89.7121176,46.0421176 C89.7121176,46.9052941 90.4109412,47.6054118 91.2741176,47.6054118 L98.8537647,47.6054118 L98.8537647,47.6054118 Z" id="Fill-2" fill="#FFFFFF" sketch:type="MSShapeGroup"></path>
            <path d="M127.552118,47.5290588 L127.552118,47.3789412 C127.552118,32.4629412 138.794118,20.2477647 154.909765,20.2477647 C164.068235,20.2477647 168.982,23.2307059 174.040706,26.9771765 C174.720118,27.4805882 174.854706,28.4589412 174.365529,29.15 L169.653647,35.8017647 C169.159294,36.4992941 168.200353,36.6351765 167.493765,36.1563529 C163.533765,33.4658824 159.576353,30.888 154.837294,30.888 C145.990706,30.888 139.618471,38.2334118 139.618471,47.2301176 L139.618471,47.5808235 C139.618471,56.5710588 146.923765,64.2943529 155.902353,63.844 C160.763059,63.6007059 164.043647,62.1487059 167.295765,58.9651765 C167.883294,58.3905882 168.816353,58.3362353 169.431059,58.8823529 L174.989294,63.8181176 C175.629882,64.3862353 175.704941,65.3878824 175.138118,66.0323529 C170.351176,71.4663529 163.910353,74.514 154.462,74.514 C139.020588,74.514 127.552118,62.5951765 127.552118,47.5290588" id="Fill-3" fill="#FFFFFF" sketch:type="MSShapeGroup"></path>
            <path d="M235.972,64.35 L241.444824,59.1502353 C242.051765,58.5730588 242.996471,58.6067059 243.598235,59.1903529 C247.553059,63.0222353 252.151059,64.1688235 257.648471,64.1688235 C262.369412,64.1688235 265.220353,62.2949412 265.220353,59.2227059 L265.220353,59.0725882 C265.220353,56.1491765 263.420235,54.6505882 254.652588,52.4027059 C244.080941,49.7044706 237.260941,46.7810588 237.260941,36.3595294 L237.260941,36.2094118 C237.260941,26.6924706 244.905294,20.3965882 255.625765,20.3965882 C262.694235,20.3965882 268.802471,22.4477647 273.890941,26.1334118 C274.580706,26.6342353 274.725647,27.6294118 274.241647,28.3308235 L269.973647,34.5192941 C269.496118,35.2129412 268.551412,35.3656471 267.843529,34.9101176 C263.633765,32.1989412 259.493882,30.5890588 255.475647,30.5890588 C251.051059,30.5890588 248.729412,32.6117647 248.729412,35.1598824 L248.729412,35.3125882 C248.729412,38.7588235 250.978588,39.8847059 260.047765,42.2063529 C270.691882,44.9809412 276.687529,48.8037647 276.687529,57.9467059 L276.687529,58.0994118 C276.687529,68.5183529 268.741647,74.3651765 257.423294,74.3651765 C249.986,74.3651765 241.395647,72.2156471 235.909882,66.6237647 C235.296471,65.9974118 235.336588,64.9543529 235.972,64.35" id="Fill-4" fill="#FFFFFF" sketch:type="MSShapeGroup"></path>
            <path d="M285.422824,22.7065882 C285.422824,21.8434118 286.122941,21.1445882 286.984824,21.1445882 L323.436235,21.1445882 C324.299412,21.1445882 324.999529,21.8434118 324.999529,22.7065882 L324.999529,29.8501176 C324.999529,30.7132941 324.299412,31.4134118 323.436235,31.4134118 L298.453294,31.4134118 C297.590118,31.4134118 296.891294,32.1122353 296.891294,32.9754118 L296.891294,40.4955294 C296.891294,41.3574118 297.590118,42.0575294 298.453294,42.0575294 L320.065059,42.0575294 C320.928235,42.0575294 321.627059,42.7563529 321.627059,43.6195294 L321.627059,50.7630588 C321.627059,51.6262353 320.928235,52.3263529 320.065059,52.3263529 L298.453294,52.3263529 C297.590118,52.3263529 296.891294,53.0251765 296.891294,53.8883529 L296.891294,61.7824706 C296.891294,62.6456471 297.590118,63.3457647 298.453294,63.3457647 L323.812824,63.3457647 C324.674706,63.3457647 325.374824,64.0445882 325.374824,64.9077647 L325.374824,72.0512941 C325.374824,72.9144706 324.674706,73.6145882 323.812824,73.6145882 L286.984824,73.6145882 C286.121647,73.6145882 285.422824,72.9144706 285.422824,72.0512941 L285.422824,22.7065882" id="Fill-5" fill="#FFFFFF" sketch:type="MSShapeGroup"></path>
            <g id="chevron" sketch:type="MSLayerGroup" transform="translate(176.000000, 10.352941)">
                <mask id="mask-3" sketch:name="Clip 7" fill="white">
                    <use xlink:href="#path-2"></use>
                </mask>
                <use id="Clip-7" fill="url(#linearGradient-1)" sketch:type="MSShapeGroup" xlink:href="#path-2"></use>
            </g>
        </g>
    </g>
</svg>