<svg width="135" height="136" viewBox="0 0 135 136">
  <defs>
    <filter id="category-icon--clean-code-a" width="200%" height="200%" x="-50%" y="-50%" filterUnits="objectBoundingBox">
      <feOffset dy="2" in="SourceAlpha" result="shadowOffsetOuter1"/>
      <feGaussianBlur in="shadowOffsetOuter1" result="shadowBlurOuter1" stdDeviation="11"/>
      <feColorMatrix in="shadowBlurOuter1" result="shadowMatrixOuter1" values="0 0 0 0 0.30212279   0 0 0 0 0.6178743   0 0 0 0 1  0 0 0 0.0823143116 0"/>
      <feMerge>
        <feMergeNode in="shadowMatrixOuter1"/>
        <feMergeNode in="SourceGraphic"/>
      </feMerge>
    </filter>
  </defs>
  <g fill="none" fill-rule="evenodd" filter="url(#category-icon--clean-code-a)" transform="translate(20.252 19.122)">
    <path fill="#F5FFFF" d="M47.06875,93.3210408 C72.6316441,93.3210408 93.3544643,72.6131849 93.3544643,47.06875 C93.3544643,21.5243151 72.6316441,0.816459163 47.06875,0.816459163 C21.5058559,0.816459163 0.783035714,21.5243151 0.783035714,47.06875 C0.783035714,72.6131849 21.5058559,93.3210408 47.06875,93.3210408 Z"/>
    <path fill="#40E0E5" d="M52.9059516,49.3374818 C53.0100378,47.1082139 52.2024421,45.5391235 50.6871528,44.8104004 C49.1718635,44.0816773 46.9622096,42.9903229 45.0578395,44.1906891 C43.1534693,45.3910553 34.6787262,52.4424655 34.6787262,52.4424655 C34.6787262,52.4424655 30.8721948,56.1189628 29.5393494,59.0998508 C28.1490983,62.2091255 28.6788727,65.0358173 28.6788727,66.0469455 C28.6788727,68.0274509 31.7203277,71.9857425 31.7203277,71.9857425 L32.6094787,69.1321536 C32.6094787,69.1321536 30.6771762,75.0217477 39.5291356,75.0192874 C40.8497563,75.0189204 42.9582551,74.7292872 42.6351075,74.5659366 C42.0851834,74.2879507 41.9558358,73.1618831 41.6468323,72.5913638 C41.3378289,72.0208446 41.6468323,71.9857425 41.6468323,71.9857425 C41.6468323,71.9857425 40.8778172,75.8122806 49.3055934,75.0192874 C52.0547886,74.7606079 51.4109309,73.5660434 51.4109309,73.5660434 C51.4109309,73.5660434 53.0250941,73.6298311 53.7231684,73.28548 C54.4212428,72.941129 55.8789351,72.2774295 54.4939143,71.9857425 C53.1088934,71.6940555 51.4109305,67.6633365 51.4109305,67.6633365 C51.4109305,67.6633365 50.6871525,65.3364702 50.6871528,58.7342531 C50.687153,54.9552132 52.8018654,51.5667498 52.9059516,49.3374818 Z"/>
    <path fill="#C3FDFF" d="M38.2468864,51.8411697 C38.2468864,51.8411697 32.6330802,68.012198 32.1986108,69.0435709 C31.7641413,70.0749438 28.8151763,65.7424049 30.8664057,59.9083338 C32.9176351,54.0742626 38.2468864,51.8411697 38.2468864,51.8411697 Z"/>
    <path fill="#C3FDFF" d="M38.1826357,53.8204472 C39.2788912,51.2804266 27.3632121,69.3417631 36.5312889,72.9901367 C38.6507819,73.8335745 41.4043557,73.8238636 41.4043557,73.8238622 C41.4043557,73.8238608 39.2283356,66.2530367 42.7636761,56.9031561 C43.8108098,54.1338116 37.0863801,56.3604678 38.1826357,53.8204472 Z"/>
    <path fill="#C3FDFF" d="M41.5837082,56.8611903 C41.5837082,56.8611903 35.0059991,75.4152629 48.5129919,73.7135809 C53.4837531,73.0873382 47.0668788,72.7291779 46.8027447,67.2445406 C46.5386107,61.7599033 47.6546576,55.8906136 47.6546576,55.8906136 L41.5837082,56.8611903 Z"/>
    <path fill="#C3FDFF" d="M47.2789804,70.7570138 C44.3949588,68.1318484 46.5241335,59.0025647 46.5240923,56.7211653 C46.5240829,56.19602 50.7801686,50.2596015 50.2358136,56.19602 C48.8203983,71.6317145 53.8661697,72.1931698 53.8661697,72.1931698 C53.8661697,72.1931698 50.7629604,73.928288 47.2789804,70.7570138 Z"/>
    <path fill="#C3FDFF" d="M48.4515809,49.4446801 C46.2807154,48.5259375 45.5310077,45.477758 45.5310077,45.477758 C45.5310077,45.477758 39.126187,49.6522878 38.8459386,51.6224048 C38.5656902,53.5925217 41.1968108,55.5684695 43.9049215,56.3948769 C46.6130321,57.2212844 49.8494847,57.3079789 50.4328495,56.3948769 C51.5514289,54.6440392 52.1306938,48.348968 52.1306938,48.348968 C52.1306938,48.348968 50.6224464,50.3634228 48.4515809,49.4446801 Z"/>
    <path fill="#C3FDFF" d="M45.3055842,47.3076439 C45.6171015,48.1822985 46.5012675,49.0684596 47.7207806,49.6114218 C49.5691307,50.4343603 51.487902,50.1572784 52.006476,48.9925419 C52.5250501,47.8278055 51.4470536,46.2164766 49.5987034,45.3935381 C47.7503532,44.5705996 45.6601172,44.7713405 45.1415432,45.936077 C44.9651163,46.3323381 45.1449516,46.8566318 45.3055842,47.3076439 Z"/>
    <path fill="#40E0E5" d="M40.6731515 51.3243284C39.6195759 49.6294122 40.3463531 49.4086731 40.3463531 49.4086731L37.8658049 51.3243284 33.3579773 55.061792C33.3579773 55.061792 35.6516645 59.4434754 40.3463531 60.3237 45.0410418 61.2039245 50.5324097 60.3237 50.5324097 60.3237 50.5324097 60.3237 52.7030988 51.8456671 51.7490906 52.4575439 50.7950824 53.0694207 48.3344042 53.6941031 46.539744 53.8658915 44.3467569 54.0758086 41.726727 53.0192446 40.6731515 51.3243284zM49.7769897 44.6571411C49.7769897 44.6571411 49.8102264 47.4362401 51.2789307 45.4560669 52.747635 43.4758937 65.8624706 20.052935 65.8624706 20.052935 65.8624706 20.052935 66.7091741 16.8079078 64.4062497 19.1196499 62.1033253 21.431392 49.7769897 44.6571411 49.7769897 44.6571411z"/>
  </g>
</svg>
