<svg xmlns:xlink="http://www.w3.org/1999/xlink" width="102" height="101" viewBox="0 0 102 101">
  <defs>
    <rect id="icon-master-vital-skills-b" width="53" height="53" rx="4"/>
    <filter id="icon-master-vital-skills-a" width="200%" height="200%" x="-50%" y="-50%" filterUnits="objectBoundingBox">
      <feOffset dy="2" in="SourceAlpha" result="shadowOffsetOuter1"/>
      <feGaussianBlur in="shadowOffsetOuter1" result="shadowBlurOuter1" stdDeviation="12"/>
      <feColorMatrix in="shadowBlurOuter1" values="0 0 0 0 0.158282039   0 0 0 0 0.473338483   0 0 0 0 1  0 0 0 0.170969203 0"/>
    </filter>
    <filter id="icon-master-vital-skills-c" width="200%" height="200%" x="-50%" y="-50%" filterUnits="objectBoundingBox">
      <feOffset dy="-4" in="SourceAlpha" result="shadowOffsetInner1"/>
      <feComposite in="shadowOffsetInner1" in2="SourceAlpha" k2="-1" k3="1" operator="arithmetic" result="shadowInnerInner1"/>
      <feColorMatrix in="shadowInnerInner1" values="0 0 0 0 1   0 0 0 0 0.749019608   0 0 0 0 0.749019608  0 0 0 1 0"/>
    </filter>
  </defs>
  <g fill="none" fill-rule="evenodd" transform="translate(24.513 22.117)">
    <use fill="#000" filter="url(#icon-master-vital-skills-a)" xlink:href="#icon-master-vital-skills-b"/>
    <use fill="#FFF" xlink:href="#icon-master-vital-skills-b"/>
    <use fill="#000" filter="url(#icon-master-vital-skills-c)" xlink:href="#icon-master-vital-skills-b"/>
    <path fill="#FFBFBF" stroke="#FF7979" d="M37.2206957 35.4150792C37.1530477 35.2546952 37.0741997 35.1382152 36.9729517 35.0486152 36.4761197 34.6086792 35.2911597 34.8098312 33.7930477 35.1180552 33.3311597 35.2134792 32.8948077 35.3035272 32.6605037 35.3120392L32.0238957 35.3362312C30.2784877 35.4029832 28.4730477 35.4719752 26.7047917 35.4137352 26.0023277 35.3895432 25.2841837 35.4132872 24.5902317 35.4361352 24.1650797 35.4500232 23.7453037 35.4639112 23.3376237 35.4661512 23.0347757 35.4679432 22.7323757 35.4643592 22.4313197 35.4603272 21.4304877 35.4477832 20.3942637 35.4352392 19.3557997 35.6426632 18.5373037 35.8066312 18.0216557 36.1076872 17.7801837 36.5628552 17.5687277 36.9606792 17.5866477 37.4593032 17.8325997 38.0443912 18.2604397 39.0622472 19.3970157 39.1209352 20.3104877 39.1675272 20.5071597 39.1773832 20.6997997 39.1872392 20.8803437 39.2060552 21.6316397 39.2826632 22.3878637 39.2472712 23.1198957 39.2118792 23.4048237 39.1984392 23.6893037 39.1845512 23.9742317 39.1773832 24.8030317 39.1554312 25.6439277 39.2073992 26.4561517 39.2566792 27.1465197 39.2987912 27.8525677 39.3417992 28.5648877 39.3417992 28.9111917 39.3417992 29.2592877 39.3314952 29.6069357 39.3059592 30.2000877 39.2629512 30.7999597 39.1903752 31.3801197 39.1204872 32.1188717 39.0313352 32.8827117 38.9390472 33.6295277 38.9081352L34.0461677 38.8924552C35.4354157 38.8431752 36.7467117 38.7970312 37.3125357 37.9570312 37.6785517 37.4136072 37.6628717 36.6197512 37.2659437 35.5306632 37.2525037 35.4930312 37.2372717 35.4540552 37.2206957 35.4150792zM39.0669037 13.3076232C38.6462317 13.1866632 38.1467117 13.3286792 37.7618797 13.6781192 37.5186157 13.8989832 37.3604717 14.1265672 37.2206957 14.3277192 37.0293997 14.6032392 36.8640877 14.8411272 36.5155437 15.0319752 36.1293677 15.2438792 35.8887917 15.5314952 35.6558317 15.8097032 35.5720557 15.9100552 35.4869357 16.0121992 35.3928557 16.1125512 35.1177837 16.4068872 34.8059757 16.6707592 34.4766957 16.9503112 34.1765357 17.2043272 33.8660717 17.4677512 33.5883117 17.7540232 33.0825197 18.2750472 32.5207277 18.7432072 31.9768557 19.1965832 31.6018797 19.5092872 31.2157037 19.8313992 30.8461037 20.1718792 30.6978157 19.9209992 30.5472877 19.6696712 30.3967597 19.4174472 29.2960237 17.5761672 28.1581037 15.6721672 27.5649517 13.6243592L27.5447917 13.5558152 27.4892397 13.5114632C27.4502637 13.4805512 27.4144237 13.4491912 27.3799277 13.4187272 27.2016237 13.2628232 26.9794157 13.0688392 26.5753197 13.1687432 26.0489197 13.2991112 26.0197997 13.6422792 26.0005357 13.8694152 25.9920237 13.9643912 25.9853037 14.0468232 25.9485677 14.1077512 25.8800237 14.2210952 25.7926637 14.3389192 25.7017197 14.4625672 25.5561197 14.6601352 25.3912557 14.8845832 25.2676077 15.1318792 24.8231917 16.0242952 24.4495597 16.9570312 24.0884717 17.8588552 23.8008557 18.5774472 23.5033837 19.3202312 23.1723117 20.0374792 23.1458797 20.0943752 23.1051117 20.2099592 23.0562797 20.3497352 22.9850477 20.5549192 22.8179437 21.0365192 22.7489517 21.1099912 22.6217197 21.1883912 22.1307117 20.9236232 21.9223917 20.8102792 21.8444397 20.7677192 21.7723117 20.7282952 21.7091437 20.6973832 20.8377837 20.2637192 19.9422317 19.7019272 18.8912237 18.9286792 18.6201837 18.7288712 18.3357037 18.5371272 18.0516717 18.3453832 17.5763437 18.0250632 17.0857837 17.6935432 16.6700397 17.3293192 16.5342957 17.2101512 16.3895917 17.0470792 16.2359277 16.8741512 15.7847917 16.3661192 15.2754157 15.7810312 14.5733997 15.8146312L14.5689197 15.8424072C14.1598957 15.8155272 13.8476397 15.9369352 13.6469357 16.2061832 12.8875757 17.2249352 14.0832877 20.0504712 15.3533677 22.6793352 15.4550637 22.8898952 15.5334637 23.0525192 15.5782637 23.1533192L15.6526317 23.3213192C16.3658477 24.9273992 17.1028077 26.5881352 17.5678317 28.2614152 17.5879917 28.3362312 17.6708717 28.8769672 17.7515117 29.3997832 18.0498797 31.3391752 18.1305197 31.8615432 18.2496877 32.0026632 18.3742317 32.4125832 18.6009197 32.7248392 19.1429997 32.9152392 19.4229997 33.0137992 19.7442157 33.0469512 20.0546797 33.0792072 20.2961517 33.1042952 20.5241837 33.1275912 20.7289197 33.1791112 21.0048877 33.2476552 21.2804077 33.2664712 21.5527917 33.2664712 21.7158637 33.2664712 21.8784877 33.2597512 22.0384237 33.2530312L22.1728237 33.2476552C22.9389037 33.2185352 23.7229037 33.1208712 24.4809197 33.0267912 25.7254637 32.8717832 27.0134637 32.7122952 28.2409837 32.8543112 30.6144877 33.1302792 32.5104237 33.1938952 34.6249837 32.6589832 35.0322157 32.5559432 35.4627437 32.4291592 35.8466797 32.2038152 37.6781037 31.1281672 38.0597997 27.4783112 38.2878317 25.2969992 38.3165037 25.0219272 38.3433837 24.7688072 38.3698157 24.5465992 38.4710637 23.7061512 38.6699757 22.9028872 38.8626157 22.1260552 39.0933357 21.1964552 39.3312237 20.2350472 39.3997677 19.2118152 39.4436717 18.5554952 39.5794157 17.9139592 39.7115757 17.2939272 39.8181997 16.7903752 39.9288557 16.2697992 39.9920237 15.7362312 40.0184557 15.5167112 40.0368237 15.2940552 40.0439917 15.0682632 40.0681837 14.3393672 39.7756397 13.5119112 39.0669037 13.3076232zM18.1977197 31.7970312C18.1954797 31.7804552 18.1981677 31.7611912 18.2048877 31.7450632L18.2805997 31.7764232 18.1977197 31.7970312z"/>
  </g>
</svg>
