<svg xmlns:xlink="http://www.w3.org/1999/xlink" width="102" height="101" viewBox="0 0 102 101">
  <defs>
    <rect id="icon-join-our-github-b" width="53" height="53" x=".507" y=".345" rx="4"/>
    <filter id="icon-join-our-github-a" width="200%" height="200%" x="-50%" y="-50%" filterUnits="objectBoundingBox">
      <feOffset dy="2" in="SourceAlpha" result="shadowOffsetOuter1"/>
      <feGaussianBlur in="shadowOffsetOuter1" result="shadowBlurOuter1" stdDeviation="12"/>
      <feColorMatrix in="shadowBlurOuter1" values="0 0 0 0 0.158282039   0 0 0 0 0.473338483   0 0 0 0 1  0 0 0 0.170969203 0"/>
    </filter>
    <filter id="icon-join-our-github-c" width="200%" height="200%" x="-50%" y="-50%" filterUnits="objectBoundingBox">
      <feOffset dy="-4" in="SourceAlpha" result="shadowOffsetInner1"/>
      <feComposite in="shadowOffsetInner1" in2="SourceAlpha" k2="-1" k3="1" operator="arithmetic" result="shadowInnerInner1"/>
      <feColorMatrix in="shadowInnerInner1" values="0 0 0 0 0.854901961   0 0 0 0 0.996078431   0 0 0 0 1  0 0 0 1 0"/>
    </filter>
  </defs>
  <g fill="none" fill-rule="evenodd" transform="translate(24.05 21.34)">
    <use fill="#000" filter="url(#icon-join-our-github-a)" xlink:href="#icon-join-our-github-b"/>
    <use fill="#FFF" xlink:href="#icon-join-our-github-b"/>
    <use fill="#000" filter="url(#icon-join-our-github-c)" xlink:href="#icon-join-our-github-b"/>
    <path fill="#DAFEFF" stroke="#40DFE5" d="M25.1777559,37.0159719 C25.3323764,38.4593384 24.8511683,38.9961451 26.3198726,37.0159719 C26.8544334,36.2952529 26.5435815,34.4940787 26.3198726,30.764329 C32.1890243,29.2488279 34.7387051,24.2979967 34.6811102,23.5436011 C34.6324765,22.9065824 33.5602773,24.1833614 33.5047085,23.5436011 C33.4671336,23.1110035 30.8685187,26.6378161 26.3198726,27.6026155 C25.8634472,22.6817098 25.1777559,14.6327332 25.1777559,14.6327332 C25.1777559,14.6327332 26.2249946,12.3209911 23.9220703,14.6327332 C21.6191459,16.9444753 24.1334752,27.267719 25.1777559,37.0159719 Z"/>
    <path fill="#DAFEFF" stroke="#40DFE5" d="M26.0962223 36.8969338C25.8371823 36.8909183 25.571403 36.9151743 25.3218957 36.9818493 24.3238681 37.248487 23.4748836 38.2809979 23.6038586 39.6020934 23.6686975 40.2661883 23.9734018 40.9145809 24.5233715 41.3610508 25.0733416 41.8075207 25.8718162 42.0071147 26.7132639 41.8341518 27.6809386 41.6352525 28.279532 40.8543716 28.4796962 40.0994544 28.6798613 39.3445371 28.6295256 38.575955 28.1651263 37.9523114 27.6511405 37.2620665 26.8733428 36.9149725 26.0962223 36.8969338zM32.4579737 20.6247122C31.9637228 21.3432708 31.6749703 22.2435875 32.0753038 23.1262152 32.845213 24.8235983 35.503563 24.8023629 36.5652969 23.0771655 37.0544282 22.2824294 36.9286931 21.3785114 36.5652969 20.7228116 36.2019016 20.0671117 35.6540567 19.5333398 34.8560387 19.4107489 34.7244832 19.3905453 34.5983354 19.3823461 34.4733684 19.3862299 33.5985998 19.4134911 32.8904433 19.9959753 32.4579737 20.6247122zM21.8699757 16.1345646C22.2211028 16.5922889 22.7690819 16.9608323 23.4360628 17.0444563 24.3020206 17.1098903 24.8517262 16.7866428 25.4441921 16.4145614 26.5184578 15.55188 26.6269343 14.0480181 25.8104543 12.9616378 25.3945126 12.4081827 24.7293103 12.0756648 24.0497626 12.0529329 23.118991 12.0615539 22.4875159 12.4448948 21.9817022 12.9886653 21.111668 13.9519664 21.1979787 15.2585598 21.8699757 16.1345646z"/>
  </g>
</svg>
