<svg xmlns:xlink="http://www.w3.org/1999/xlink" width="101" height="101" viewBox="0 0 101 101">
  <defs>
    <rect id="icon-huge-forum-b" width="53" height="53" x=".507" y=".345" rx="4"/>
    <filter id="icon-huge-forum-a" width="200%" height="200%" x="-50%" y="-50%" filterUnits="objectBoundingBox">
      <feOffset dy="2" in="SourceAlpha" result="shadowOffsetOuter1"/>
      <feGaussianBlur in="shadowOffsetOuter1" result="shadowBlurOuter1" stdDeviation="12"/>
      <feColorMatrix in="shadowBlurOuter1" values="0 0 0 0 0.158282039   0 0 0 0 0.473338483   0 0 0 0 1  0 0 0 0.170969203 0"/>
    </filter>
    <filter id="icon-huge-forum-c" width="200%" height="200%" x="-50%" y="-50%" filterUnits="objectBoundingBox">
      <feOffset dy="-4" in="SourceAlpha" result="shadowOffsetInner1"/>
      <feComposite in="shadowOffsetInner1" in2="SourceAlpha" k2="-1" k3="1" operator="arithmetic" result="shadowInnerInner1"/>
      <feColorMatrix in="shadowInnerInner1" values="0 0 0 0 0.835294118   0 0 0 0 1   0 0 0 0 0.788235294  0 0 0 1 0"/>
    </filter>
  </defs>
  <g fill="none" fill-rule="evenodd" transform="translate(23.539 21.34)">
    <use fill="#000" filter="url(#icon-huge-forum-a)" xlink:href="#icon-huge-forum-b"/>
    <use fill="#FFF" xlink:href="#icon-huge-forum-b"/>
    <use fill="#000" filter="url(#icon-huge-forum-c)" xlink:href="#icon-huge-forum-b"/>
    <path fill="#D5FFC9" stroke="#6BC55B" d="M31.8195776,15.0529366 C26.5099534,15.0504872 20.9700672,16.2462303 15.3789384,17.7974677 C14.66902,17.940193 13.9758752,18.4052227 13.6097325,18.9797879 C13.2724346,19.5204387 13.1508078,20.0648268 13.045387,20.6348885 C12.5019824,23.6781777 12.5682585,26.6670194 12.6812255,29.9786203 C12.7060453,30.7360921 12.8188002,31.6353165 13.1723105,32.1811917 C13.5422765,32.7331205 14.1759593,33.0833554 14.9329335,33.1983392 C15.9052719,33.3455505 16.8736315,33.4563702 17.8417891,33.5593166 L17.627152,39.5379798 C17.5941755,40.0129962 17.8269888,40.4085807 18.1151777,40.6358188 C18.3737315,40.8328237 18.661794,40.9198838 18.957215,40.9420688 C19.5480564,40.9864036 20.2417836,40.7333765 20.5866116,40.0780463 C22.0946394,37.1744101 23.0414316,35.8927931 24.9280235,33.9639641 C29.847925,34.0850714 34.1430649,33.811574 39.006175,33.4520661 C40.7251164,33.4074164 41.9049788,32.0012628 42.2171246,30.8795943 C43.1499732,27.9707443 43.2950538,24.3802327 43.3940406,20.7504985 C43.4359068,19.3116695 42.9368043,17.8993364 42.0530915,17.15309 C41.213294,16.4713968 40.1962519,16.2245283 39.2645269,15.971844 C36.6751207,15.3859345 34.085087,15.0705936 31.8195776,15.0529366 L31.8195776,15.0529366 Z"/>
    <path fill="#FFF" stroke="#6CC55C" d="M34.7700159 22.2938417C34.5358826 22.2884179 34.295658 22.3102879 34.0701409 22.3704042 33.1680737 22.6108132 32.4007191 23.5417579 32.5172932 24.7328996 32.5758978 25.3316687 32.8513048 25.91628 33.3483948 26.3188315 33.8454852 26.7213829 34.5671865 26.9013433 35.3277289 26.7453945 36.2023616 26.5660605 36.7434002 25.8619934 36.9243186 25.181336 37.1052378 24.5006786 37.0597419 23.8077006 36.6399946 23.2454036 36.1754286 22.6230569 35.4724162 22.310106 34.7700159 22.2938417zM28.1540098 22.1516552C27.4040627 22.1759746 26.7969536 22.6955288 26.4261934 23.2563386 26.0024676 23.8972661 25.7549174 24.700315 26.098127 25.487586 26.7581772 27.0015884 29.0372051 26.9826472 29.9474394 25.4438355 30.3667762 24.7349606 30.2589823 23.9286994 29.9474394 23.3438396 29.6358973 22.7589798 29.1662248 22.2828752 28.4820766 22.1735287 28.3692929 22.1555078 28.2611452 22.1481945 28.1540098 22.1516587L28.1540098 22.1516552zM20.0053465 22.8879429C19.2520213 23.7911424 19.326754 25.0162158 19.9086073 25.8375655 20.2126332 26.2667319 20.6871048 26.6122814 21.2646148 26.690688 22.0144105 26.7520394 22.4903769 26.4489597 23.0033677 26.100093 23.9335281 25.2912354 24.0274533 23.8812013 23.3204984 22.8626017 22.9603523 22.3436773 22.3843823 22.0319056 21.7959911 22.0105919 20.990076 22.0186751 20.4433088 22.3780989 20.0053465 22.8879429L20.0053465 22.8879429z"/>
  </g>
</svg>
