<svg width="134" height="134" viewBox="0 0 134 134">
  <defs>
    <filter id="symbol-workflow-a" width="200%" height="200%" x="-50%" y="-50%" filterUnits="objectBoundingBox">
      <feOffset dy="2" in="SourceAlpha" result="shadowOffsetOuter1"/>
      <feGaussianBlur in="shadowOffsetOuter1" result="shadowBlurOuter1" stdDeviation="11"/>
      <feColorMatrix in="shadowBlurOuter1" result="shadowMatrixOuter1" values="0 0 0 0 0.30212279   0 0 0 0 0.6178743   0 0 0 0 1  0 0 0 0.0823143116 0"/>
      <feMerge>
        <feMergeNode in="shadowMatrixOuter1"/>
        <feMergeNode in="SourceGraphic"/>
      </feMerge>
    </filter>
  </defs>
  <g fill="none" fill-rule="evenodd" filter="url(#symbol-workflow-a)" transform="translate(19.914 18.808)">
    <path fill="#FCF5C9" d="M47.0168908,92.5307573 C72.5797849,92.5307573 93.3026051,71.8229014 93.3026051,46.2784665 C93.3026051,20.7340316 72.5797849,0.0261756677 47.0168908,0.0261756677 C21.4539967,0.0261756677 0.7311765,20.7340316 0.7311765,46.2784665 C0.7311765,71.8229014 21.4539967,92.5307573 47.0168908,92.5307573 Z" opacity=".397"/>
    <g transform="translate(20.5 30.53)">
      <path fill="#FFCE39" d="M23.7851069 29.109837C23.1578154 31.8798255 24.1421621 34.2467649 26.0667068 34.9982956 27.9912516 35.7498264 33.3156845 35.517545 32.4830885 29.7740386 31.6504925 24.0305323 24.4123985 26.3398485 23.7851069 29.109837zM41.0455182 21.0204631C40.4182266 23.7904516 41.4025733 26.157391 43.3271181 26.9089217 45.2516628 27.6604525 50.5760957 27.4281711 49.7434997 21.6846647 48.9109037 15.9411583 41.6728097 18.2504746 41.0455182 21.0204631zM2.83746556 23.0296732C2.210174 25.7996617 3.1945207 28.166601 5.11906544 28.9181318 7.04361019 29.6696625 12.3680431 29.4373811 11.5354471 23.6938748 10.7028511 17.9503684 3.46475713 20.2596847 2.83746556 23.0296732zM22.0009662 3.01151249C21.3736747 5.78150099 22.3580214 8.14844034 24.2825661 8.89997109 26.2071109 9.65150184 31.5315438 9.41922045 30.6989478 3.67571408 29.8663518-2.06779229 22.6282578.241523984 22.0009662 3.01151249z"/>
      <path fill="#FFE673" d="M22.7495976 3.34298069C22.2557094 5.523888 23.0307194 7.38746083 24.5459797 7.97916687 26.0612401 8.5708729 30.2533494 8.38798977 29.5978179 3.86592947 28.9422864-.656130833 23.2434858 1.16207337 22.7495976 3.34298069zM41.9581854 21.3434249C41.4642971 23.5243322 42.2393072 25.387905 43.7545675 25.9796111 45.2698278 26.5713171 49.4619372 26.388434 48.8064057 21.8663737 48.1508742 17.3443134 42.4520736 19.1625176 41.9581854 21.3434249zM24.6992757 29.4615473C24.2053874 31.6424546 24.9803975 33.5060275 26.4956578 34.0977335 28.0109181 34.6894395 32.2030275 34.5065564 31.547496 29.9844961 30.8919645 25.4624358 25.1931639 27.28064 24.6992757 29.4615473zM3.49659331 23.1719697C3.00270506 25.352877 3.77771511 27.2164498 5.29297545 27.8081559 6.80823578 28.3998619 11.0003451 28.2169788 10.3448136 23.6949185 9.68928214 19.1728582 3.99048155 20.9910624 3.49659331 23.1719697z"/>
      <g transform="translate(31.466 .168)">
        <path fill="#FFCE39" d="M15.6265342,8.31046872 C15.8815615,6.63431976 15.2256946,4.15831282 12.8667362,1.8855331 C10.1823419,-0.700793626 1.01666306,1.60980415 1.01666303,2.52724642 C1.016663,3.41395738 0.328572551,6.25230903 1.01666303,5.45163991 C1.70475351,4.65097079 5.22609581,3.46415496 5.62931867,3.39156405 C9.3538187,2.7210543 10.0285961,6.27197135 10.0958092,8.48339309 C7.69354993,8.78302288 5.81857409,9.36700595 5.81857409,9.36700595 C5.81857409,9.36700595 5.60871325,9.44785655 8.16946889,12.3139649 C10.7302245,15.1800733 13.8771585,16.7519542 13.8771585,16.7519542 C13.8771585,16.7519542 14.7749133,13.4726327 16.6556068,11.309908 C18.5363004,9.14718327 19.6167279,8.31046872 19.6167279,8.31046872 C19.6167279,8.31046872 17.8890341,8.31046872 15.6265342,8.31046872 Z"/>
        <path fill="#FFE773" d="M14.8347983,9.01363798 C14.4815835,6.54954793 14.1699185,6.18672886 12.4596013,3.14571851 C10.6045136,-0.152699183 2.59568806,2.12029479 1.94294441,2.84288906 C1.29020076,3.56548333 1.65167268,4.18566602 1.65167268,4.18566602 C1.65167268,4.18566602 4.06138755,3.06414941 4.42865764,2.9584438 C4.56252246,2.91991558 4.69356539,2.88529092 4.82184479,2.85444067 C10.0874208,1.58810814 10.6966737,6.68131502 10.6856421,9.20044469 C8.81571742,9.41404639 7.48928376,9.73266054 7.48928376,9.73266054 C7.48928376,9.73266054 7.28942337,9.81161311 9.72815199,12.6104375 C12.1668806,15.4092618 13.8283744,15.8043204 13.8283744,15.8043204 C13.8283744,15.8043204 13.4499174,15.4889846 13.5540358,14.8941345 C13.687593,14.1310944 14.3976045,12.9442616 15.4040635,11.7574904 C17.1951369,9.64553727 17.6210716,9.06746822 17.6210716,9.06746822 C17.6210716,9.06746822 17.2613704,9.02340124 14.8347983,9.01363798 Z"/>
      </g>
      <g transform="translate(.774 1.912)">
        <path fill="#FFCE39" d="M15.6465928,7.75720579 C15.9016201,6.08105683 15.2457532,3.60504989 12.8867948,1.33227017 C10.2024005,-1.25405656 1.03672165,1.05654122 1.03672162,1.97398349 C1.03672159,2.86069444 0.34863114,5.69904609 1.03672162,4.89837698 C1.7248121,4.09770786 5.2461544,2.91089203 5.64937725,2.83830111 C9.37387729,2.16779137 10.0486547,5.71870842 10.1158678,7.93013016 C7.71360852,8.22975995 5.83863268,8.81374301 5.83863268,8.81374301 C5.83863268,8.81374301 5.62877184,8.89459362 8.18952747,11.760702 C10.7502831,14.6268103 13.8972171,16.1986913 13.8972171,16.1986913 C13.8972171,16.1986913 14.7949718,12.9193698 16.6756654,10.7566451 C18.556359,8.59392033 19.6367865,7.75720579 19.6367865,7.75720579 C19.6367865,7.75720579 17.9090927,7.75720579 15.6465928,7.75720579 Z" transform="matrix(-1 0 0 1 20.368 0)"/>
        <path fill="#FFE773" d="M16.1675057,8.45930785 C15.8265098,5.74628362 15.7978099,4.98025302 14.0147623,2.63235633 C12.3742726,0.472178359 11.0853564,0.235206104 4.83630945,1.42284846 C3.04054903,1.76413588 3.35711094,1.74594703 3.0713688,2.01873726 C2.30347599,2.75182359 2.36445774,4.27214202 2.84204345,3.7023104 C3.49734454,2.92043758 5.65176674,2.51088648 6.01903682,2.40518087 C11.6648424,0.780236801 12.2911607,6.09882732 12.2759004,8.67061941 C10.2131572,8.92754187 8.62519227,9.32633201 8.62519227,9.32633201 C8.62519227,9.32633201 8.87980255,9.25835018 11.3185312,12.0571745 C13.7572598,14.8559989 14.820744,14.9784026 14.820744,14.9784026 C14.820744,14.9784026 15.4402256,12.8660719 17.2312989,10.7541187 C19.0223723,8.64216554 19.1958065,8.50403864 19.1958065,8.50403864 C19.1958065,8.50403864 18.8242095,8.46549352 16.1675057,8.45930785 Z" transform="matrix(-1 0 0 1 21.683 0)"/>
      </g>
      <g transform="translate(19.332 9.506)">
        <path fill="#FFCE39" d="M10.4630812,6.01012552 L9.95951781,0.543787527 C9.95951781,0.543787527 8.97529324,2.0510984 7.23891696,1.95027475 C5.50254068,1.84945109 4.52361853,1.04445214 4.52361853,1.04445214 C4.52361853,1.04445214 4.24763207,4.2580587 4.63634174,7.31023724 C1.40181788,8.23772203 0.135516102,8.60082822 0.135516102,8.60082822 L9.00919575,15.2316912 C9.00919575,15.2316912 11.0835562,12.2227446 12.2423062,9.96622863 C13.4010562,7.7097127 13.9498348,5.61043493 13.9498348,5.61043493 L11.0817958,5.91904792 C11.0817958,5.91904792 10.8582701,5.94781648 10.4630812,6.01012552 Z"/>
        <path fill="#FFE773" d="M9.37376382,7.33234777 C8.88289164,4.42002207 7.627151,1.49294836 7.627151,1.49294836 C7.627151,1.49294836 7.05604884,2.47616654 5.97906316,2.82966197 C4.90207748,3.1831574 3.55461894,2.829662 3.55461894,2.829662 L4.5070821,7.56045158 C2.81290194,7.77165948 1.64051725,8.05327051 1.64051725,8.05327051 C1.64051725,8.05327051 1.44065685,8.13222309 3.87938548,10.9310474 C6.3181141,13.7298718 7.97960785,14.1249303 7.97960785,14.1249303 L12.8222129,7.33234777 C12.8222129,7.33234777 11.7394613,7.33234777 9.37366662,7.33234777 Z" transform="scale(-1 1) rotate(16 0 -43.63)"/>
      </g>
    </g>
  </g>
</svg>
