<svg width="134" height="134" viewBox="0 0 134 134">
  <defs>
    <filter id="symbol-ruby-on-rails.-a" width="200%" height="200%" x="-50%" y="-50%" filterUnits="objectBoundingBox">
      <feOffset dy="2" in="SourceAlpha" result="shadowOffsetOuter1"/>
      <feGaussianBlur in="shadowOffsetOuter1" result="shadowBlurOuter1" stdDeviation="11"/>
      <feColorMatrix in="shadowBlurOuter1" result="shadowMatrixOuter1" values="0 0 0 0 0.30212279   0 0 0 0 0.6178743   0 0 0 0 1  0 0 0 0.0823143116 0"/>
      <feMerge>
        <feMergeNode in="shadowMatrixOuter1"/>
        <feMergeNode in="SourceGraphic"/>
      </feMerge>
    </filter>
  </defs>
  <g fill="none" fill-rule="evenodd" filter="url(#symbol-ruby-on-rails.-a)" transform="translate(20.252 18.122)">
    <path fill="#FFECEE" d="M46.96875,93.2210408 C72.5316441,93.2210408 93.2544643,72.5131849 93.2544643,46.96875 C93.2544643,21.4243151 72.5316441,0.716459163 46.96875,0.716459163 C21.4058559,0.716459163 0.683035714,21.4243151 0.683035714,46.96875 C0.683035714,72.5131849 21.4058559,93.2210408 46.96875,93.2210408 Z" opacity=".397"/>
    <path fill="#C10B1A" d="M31.5736084,46.6844792 C31.5736084,46.6844792 37.9789034,53.1748857 41.6363159,56.3066899 C45.3719331,59.5054601 53.4496399,65.0044011 53.4496399,65.0044011 C53.4496399,65.0044011 57.5132011,60.2798279 60.047699,52.5612304 C60.6303887,50.7866985 64.0244765,39.1895803 62.6738708,37.345056 C61.7023984,36.0183145 61.2780961,34.7939133 60.047699,34.0457793 C58.6838333,33.2164907 54.4398605,31.3544066 54.193689,31.2769777 C52.3652338,30.7018691 49.3349125,29.6355528 46.5856018,29.1353027 C43.8362911,28.6350527 40.5966248,30.1651062 40.5966248,30.1651062 L35.6092712,34.0457794 L31.5736084,46.6844792 Z"/>
    <g fill="#FF4150" transform="translate(32.794 29.756)">
      <polygon points="3.635 5.368 10.024 8.429 .084 16.801"/>
      <path d="M0.0844533455,16.8029067 C0.0844533455,16.8029067 2.10308989,14.0299804 4.47280538,11.678433 C6.84252086,9.32688548 9.55217448,8.43508435 9.55217448,8.43508435 C9.55217448,8.43508435 11.1674333,8.48512181 12.0636842,8.43508435 C12.8349868,8.39202272 14.5548349,8.1557871 14.5548349,8.1557871 C14.5548349,8.1557871 15.4643252,10.604548 15.8126266,11.9135446 C16.2472043,13.5467866 16.9034722,16.9825029 16.9034722,16.9825029 L0.0844533455,16.8029067 Z"/>
      <path d="M17.3673228,7.25414384 C16.0726936,7.82397544 14.4507309,8.12616622 14.4507309,8.12616622 C14.4507309,8.12616622 15.2909715,10.21566 15.8514283,12.2495108 C16.4118852,14.2833616 16.7033292,16.7222351 16.7033292,16.7222351 C16.7033292,16.7222351 26.9225114,13.6107712 27.6297728,10.9321411 C28.3370342,8.25351097 20.0840542,4.88454685 20.0840542,4.88454685 C20.0840542,4.88454685 18.6619521,6.68431224 17.3673228,7.25414384 Z"/>
      <path d="M20.2227327,1.80810376 C20.2227327,1.80810376 20.0206561,3.57237983 19.9872393,4.0394069 C19.9311043,4.82393898 19.9872393,5.25003668 19.9872393,5.25003668 L27.8222635,11.0323611 C27.8222635,11.0323611 30.0714556,8.34980371 27.8222635,5.96937898 C25.5730714,3.58895425 20.2227327,1.80810376 20.2227327,1.80810376 Z"/>
      <path d="M9.3800669.871701754L6.23036617 2.84418288 3.63577031 5.36655567 9.38006701 8.46501271C9.38006701 8.46501271 12.6003657 8.59087584 14.4465331 8.26186881 16.2927006 7.93286177 18.3094277 7.4876842 19.587929 6.02503096 20.8664303 4.56237773 20.2565245 1.80697632 20.2565245 1.80697632L14.1192299.0439622145 9.3800669.871701754zM.0879689554 16.7992169C.0879689554 16.7992169 5.96862731 22.7874955 9.05919753 25.3530155 12.8928659 28.5353902 20.8606847 34.0429009 20.8606847 34.0429009L16.8787055 16.66313.0879689554 16.7992169z"/>
      <path d="M26.5433282,20.1933106 C28.6286432,12.7554281 28.8553832,8.06146335 28.8553832,8.06146335 C28.8553832,8.06146335 26.9539916,10.8550808 25.9303063,11.7853215 C23.3677769,14.1139368 16.7592557,16.5207416 16.7592557,16.5207416 L20.8900689,34.2622389 C20.8900689,34.2622389 24.4580133,27.631193 26.5433282,20.1933106 Z"/>
    </g>
    <g fill="#C10B1A" transform="translate(32.288 30.781)">
      <polygon points="20.871 32.715 14.662 7.702 9.785 8.23 3.884 5.285 3.884 3.887 9.592 6.782 14.607 6.546 20.734 4.178 21.785 .986 23.007 .986 21.493 4.85 15.57 7.179 21.868 32.501"/>
      <polygon points="9.189 7.352 .084 15.477 .695 16.672 10.504 6.95"/>
      <polygon points="20.786 5.03 27.056 9.819 28.19 9.164 21.513 3.896"/>
      <polygon points="28.883 4.793 27.325 9.235 17.516 14.427 1.464 15.269 .941 16.315 17.67 15.445 28.394 9.94 29.665 5.812"/>
    </g>
  </g>
</svg>
