<svg width="135" height="134" viewBox="0 0 135 134">
  <defs>
    <filter id="symbol-design-a" width="200%" height="200%" x="-50%" y="-50%" filterUnits="objectBoundingBox">
      <feOffset dy="2" in="SourceAlpha" result="shadowOffsetOuter1"/>
      <feGaussianBlur in="shadowOffsetOuter1" result="shadowBlurOuter1" stdDeviation="11"/>
      <feColorMatrix in="shadowBlurOuter1" result="shadowMatrixOuter1" values="0 0 0 0 0.30212279   0 0 0 0 0.6178743   0 0 0 0 1  0 0 0 0.0823143116 0"/>
      <feMerge>
        <feMergeNode in="shadowMatrixOuter1"/>
        <feMergeNode in="SourceGraphic"/>
      </feMerge>
    </filter>
  </defs>
  <g fill="none" fill-rule="evenodd" filter="url(#symbol-design-a)" transform="translate(21.252 18.122)">
    <path fill="#E9E9FF" d="M46.3654533,93.31499 C71.9283474,93.31499 92.6511676,72.6071341 92.6511676,47.0626992 C92.6511676,21.5182643 71.9283474,0.810408367 46.3654533,0.810408367 C20.8025592,0.810408367 0.079739011,21.5182643 0.079739011,47.0626992 C0.079739011,72.6071341 20.8025592,93.31499 46.3654533,93.31499 Z" opacity=".397"/>
    <path fill="#A8ACFF" d="M63.3825075 26.7692339C63.3825075 26.7692339 62.4072394 27.6116969 62.1708618 31.4118319 62.0537823 33.2940661 62.0058946 36.1319665 62.1708618 39.3904604 62.6688894 49.2276873 62.3483122 55.0984183 62.5799909 57.2644453 63.2762928 63.7743597 61.4715802 64.0871198 63.3825074 64.5712049 65.2934346 65.05529 65.4878451 63.2993241 65.4878451 63.2993241L65.4878451 32.1721177C65.4878451 32.1721177 65.1557778 29.6858419 64.6540652 27.56198 64.3836688 26.4173319 63.8189186 25.0725912 63.7841951 24.9691791 63.3361962 23.6349682 63.3825075 26.7692339 63.3825075 26.7692339zM48.2306037 27.459395C43.3040595 27.459395 37.4468351 27.8830828 37.4468351 27.8830828 37.4468351 27.8830828 37.217376 28.0041041 32.3687624 27.8830828 31.9708417 27.8731507 32.0371302 28.1609731 31.8170289 28.1886126 31.726482 28.1999832 31.759289 26.7733257 31.4207404 27.459395 30.3259886 29.6779118 28.8712764 30.5473222 30.2204133 33.0820332 30.4426113 33.4994909 30.2204133 31.9318475 30.2204133 34.4613667L30.2204133 40.0182509 31.0630921 47.5704736C31.0630921 47.5704736 31.5672262 49.8799199 31.4207405 51.9613519 31.3048751 53.6076961 31.0630922 54.2543084 31.817029 56.4535791 32.0241775 57.0578414 31.9464051 59.1297655 31.817029 59.8744725 31.5242167 61.559941 31.4207405 62.9065343 32.3687624 66.0305516 32.9623562 67.9866216 33.0942721 68.3845724 34.7153598 69.0637296 36.3364474 69.7428868 44.0451294 69.5473576 47.8966469 69.5473576 51.5943339 69.5473576 55.9240102 69.9098466 57.5383065 69.0637277 58.2635046 68.6836216 58.3595589 51.9613519 58.3595589 51.9613519L57.5383065 36.4381637C57.5383065 36.4381637 57.8096093 30.3023169 56.3889411 29.4040575 53.535413 27.5998301 53.1571479 27.459395 48.2306037 27.459395z"/>
    <path fill="#05095E" d="M56.1848504,29.9335766 C55.3557242,27.0707708 49.0953456,27.1206666 49.4770379,27.4327016 C49.5161941,27.4647119 56.9088789,25.6285187 58.1497344,30.9582335 C58.2143847,31.2359191 58.4818968,36.8695176 58.5467737,37.2824034 C58.5846912,37.4680284 60.060879,68.172327 59.0750238,68.803452 C58.7337662,69.731577 49.9216353,70.3627016 49.0495325,70.3255766 C48.2153473,70.2884516 33.0483432,70.2884516 32.4037456,68.4322016 C32.0245705,67.8753266 31.5695604,65.6478266 31.4558078,65.0538266 C31.4178903,64.6454516 31.1524677,64.4227016 30.8112102,64.2742016 C30.7003573,64.2259634 29.5543417,64.002193 28.7636646,62.6778277 C28.1417654,61.6361615 27.8403731,59.5546182 27.7511646,58.7819599 C27.5485371,57.0269508 30.0907775,55.9953266 29.8253549,55.7354516 C29.5599323,55.5127016 28.498242,54.6588266 28.3086545,54.3989516 C28.0432319,53.9905766 27.7019743,53.5822016 27.3986342,53.1738266 C26.4506965,51.0577016 27.7019743,48.6445766 27.9673969,48.2733266 C28.1190669,48.0877016 28.2328195,47.9392016 28.346572,47.7535766 C28.5361595,47.4565766 28.6119946,47.1595766 28.422407,46.8625766 C27.1711291,46.7512013 26.9436241,45.2186213 26.7919541,44.7359963 C26.547862,43.6700911 26.8242378,42.3767134 27.1711291,41.4052015 C27.5180204,40.4336897 29.6357673,40.5884516 28.498242,39.9573266 C27.8536444,39.6232016 27.6640568,38.7322016 27.6640568,38.6950766 C27.6640568,38.6950766 29.205454,39.851402 29.8253549,39.4375763 C30.4452558,39.0237505 30.128695,37.4699516 30.1666125,37.0244516 C30.1666125,36.7274516 30.128695,34.3143266 29.6736848,34.0544516 C29.4461798,33.7574516 28.7636646,33.7203266 28.4603245,33.9802016 C26.488614,34.7227016 27.5503043,38.509452 27.5503043,38.695077 C27.1711292,38.323827 25.8217164,37.5844812 26.0080994,36.0607786 C26.1944824,34.5370761 26.640284,34.4628266 27.8157269,33.6832016 C28.0053144,33.4604516 27.9294794,33.2377016 27.8915619,33.0149516 C27.7778093,32.5323266 26.8298716,31.4408585 26.7919541,30.9582335 C26.6782015,29.7331085 27.9673969,30.0820766 28.0432319,29.9335766 C28.270737,30.1934516 27.5503043,31.8269515 28.5361595,32.6808266 C29.5220148,33.5347016 29.4461798,32.7922016 29.5220148,32.3095766 C29.5978498,31.8640766 29.4114453,30.2703256 29.6736848,29.3395765 C29.9359242,28.4088273 30.3941175,28.5228266 30.7353751,28.0030766 C31.0387152,27.5575766 30.9249627,27.2234516 30.4320351,26.9635766 C29.7874374,26.6294516 29.2565922,26.7037016 28.7636646,27.1492016 C28.498242,27.5947016 28.270737,28.0030766 28.0432319,28.4857016 C27.9294794,28.7455766 27.8915619,29.0425766 27.7778093,29.3395766 C27.7398918,29.4138266 27.7398918,29.4880766 27.6640568,29.5252016 C27.5503043,29.2653266 27.4365518,29.0054516 27.5503043,28.7084516 C27.6640568,28.0402016 27.9673969,27.4462016 28.3844895,26.9264516 C29.2565922,26.2210766 29.8253549,25.9240766 30.9628802,26.5180766 C31.4178903,26.7037016 31.8349829,26.9635766 32.214158,27.2605766 C32.5174981,27.4833266 32.8587557,27.5947016 33.2379308,27.5947016 C34.072116,27.6689516 34.8683837,27.7432016 35.702569,27.7803266 C35.778404,27.7803266 35.930074,27.7432016 35.9679915,27.9288266 C35.8921565,27.9288266 35.8163215,27.9659516 35.7404865,27.9659516 C35.4371464,27.9659516 35.1717238,27.9659516 34.8683837,27.9288266 C34.4892086,27.8917016 34.147951,27.8545766 33.7687759,27.8545766 C33.5412709,27.8545766 33.2758483,27.8917016 33.0483432,27.9659516 C32.7829207,28.0402016 32.6312506,28.3000766 32.7070857,28.5970766 C32.7450032,28.8569516 32.8208382,29.1168266 32.8587557,29.4138266 C32.8966732,29.6737016 33.162096,29.618731 32.5933331,30.0820766 C32.0245703,30.5454222 31.6074779,30.0078266 31.6074779,29.9335766 C31.4558078,29.5994516 31.4178903,28.7827016 31.4178903,28.7455766 C31.2662203,28.6342016 31.1524677,28.5970766 30.9628802,28.7084516 C30.7353751,28.8569516 30.5457876,29.0425766 30.4699526,29.3024516 C30.280365,29.7850766 30.05286,30.2620656 30.05286,30.8189406 C30.05286,31.0045656 30.0907775,31.6784516 30.0528599,31.8269516 C30.0149424,32.0868266 30.0907775,32.3095766 30.280365,32.4580766 C30.6216226,32.7922016 31.2283028,32.9407016 31.7212304,32.6065766 C31.9487355,32.4580766 33.0862606,31.8269515 33.0862606,33.6832017 C33.0862606,35.5394518 31.5316428,34.6484516 31.1524677,34.5370766 C30.7732926,34.4257016 30.4699526,34.6484516 30.4320351,35.0568266 C30.5078701,35.6879516 30.710272,37.4905191 30.7353751,37.6379896 C30.7353751,38.0834896 30.8491277,39.6974516 31.2662203,39.7717016 C32.2141581,39.9944514 32.9345907,39.5118266 32.9725082,39.4375766 C33.5412709,39.0292016 34.147951,39.2890766 34.2237861,39.9944516 C34.2996211,40.6627016 33.8066935,41.1453266 33.3137658,41.2938266 C32.8208382,41.4423266 31.5316428,41.4052016 31.3799728,41.4052016 C31.0766327,41.3680766 30.7732926,41.5908266 30.7353751,41.9249516 C30.6974576,41.9992016 30.8112102,43.4099516 30.8870452,43.9297016 C30.9628802,44.5237016 31.0387152,45.1177016 31.0766327,45.7117016 C31.1145502,46.1943266 31.4937253,46.4170766 31.9487355,46.4913266 C32.3658281,46.5284516 33.4275184,46.7140766 33.5791884,46.7512016 C33.920446,46.8625766 34.147951,47.1224516 34.2617036,47.4565766 C34.4133736,47.9763266 34.3375386,48.6074516 33.844611,48.9415766 C33.5412709,49.1643266 32.4416631,48.8673266 32.214158,48.7930766 C31.4937253,48.9787016 31.3041378,49.4613266 31.6074779,50.2038266 C31.6453954,50.7235766 31.8729004,54.4360766 31.9108179,54.6217016 C32.4037456,55.1785766 32.9725082,55.2528266 33.5791884,54.8444516 C33.996281,54.7330766 35.0078102,55.464121 34.8683839,56.2306893 C34.7289576,56.9972576 33.7308584,57.7773266 33.0862608,57.5545766 C32.8966732,57.4432016 32.1004055,57.1833266 32.0245705,57.4432016 C31.9453049,57.8778112 32.214158,62.6035766 32.214158,62.7520766 C32.214158,63.0862016 33.920446,61.4155785 34.4133736,61.4898266 C34.6787962,61.4155766 34.9442188,61.5269516 35.1338063,61.6754516 C35.5508989,61.9724516 35.5706131,62.9179829 35.3613114,63.3460766 C35.1338063,63.9772016 34.0341985,64.0143266 33.920446,64.0143266 C33.5033534,63.9772016 32.4795806,64.6454516 32.5933331,64.9424516 C32.7829207,65.5735766 33.0862608,66.1675766 33.5412709,66.6873266 C33.9583635,67.1699516 34.3955249,68.1661837 37.3151733,68.4321999 C40.2348217,68.6982162 42.3709025,68.9920402 42.9396652,68.9549152 C43.5084278,68.9177902 50.8995081,69.2645237 54.1683964,68.8034516 C57.4372847,68.3423794 57.2088464,68.5964863 57.5032526,68.1532703 C57.7976587,67.7100544 57.7705608,56.3831427 57.7326432,55.9376427 C57.6947257,55.3436427 57.0139767,32.7963825 56.1848504,29.9335766 Z M31.1524677,53.2852016 C31.1524677,52.8768266 31.1524677,52.4313266 31.1145502,52.0229516 C31.0766327,51.3547016 30.9628802,50.6493266 30.9249627,49.9810766 C30.8870452,49.6840766 30.8870452,49.3870766 30.8491277,49.0529516 C30.7732926,48.5332016 30.2424475,48.2362016 29.8632724,48.1619516 C29.4840973,48.0877016 29.0980042,48.1619516 28.3000672,50.8769958 C27.5021302,53.59204 31.1145502,55.2528266 31.1145502,54.9187016 C31.1145502,54.3989516 31.1145502,53.8420766 31.1145502,53.2852016 L31.1524677,53.2852016 Z M30.20453,41.7022016 C30.1666125,41.2567016 29.7116024,41.0710766 29.3703448,41.2938266 C28.9153346,41.5908266 28.5361595,41.9620766 28.3844895,42.4818266 C28.270737,42.7788266 28.194902,43.0758266 28.1190669,43.3728266 C27.8915619,43.9668266 28.0053144,44.5608266 28.2328195,45.1177016 C28.4603245,45.6003266 28.7257471,46.0458266 29.0670047,46.4913266 C29.2186747,46.6769516 29.4461798,46.7883266 29.6736848,46.8625766 C30.0528599,46.9368266 30.3562,46.8254516 30.5457876,46.5655766 C30.6974576,46.3799516 30.6595401,46.1572016 30.6216226,45.9344516 C30.6216226,45.7859516 30.5837051,45.6003266 30.5837051,45.4518266 C30.5457876,45.2662016 30.5457876,45.0805766 30.5078701,44.8949516 C30.4320351,44.3380766 30.4699526,43.7812016 30.3941175,43.2243266 C30.3941175,43.1872016 30.2424475,42.1848266 30.20453,41.7022016 L30.20453,41.7022016 Z M31.1524677,59.5964516 L31.1524677,59.5964516 C31.1145502,59.4479516 31.1145502,59.2623266 31.1145502,59.1138266 L31.1145502,57.8144516 C31.1145502,57.5917016 31.0387152,57.5174516 30.8491277,57.4803266 C30.6595401,57.4432016 30.5837051,57.4803266 30.4320351,57.6659516 C30.1666125,58.0372016 30.0907775,58.4455766 30.0149424,58.8539516 C29.9391074,59.1880766 29.9391074,59.5593266 29.8632724,59.8934516 C29.7874374,60.2647016 29.7495199,60.5988266 29.8253549,60.9700766 C29.9011899,61.5640766 30.20453,62.0838266 30.5837051,62.5293266 C30.6216226,62.6035766 30.6974576,62.6407016 30.7732926,62.6778266 C31.0766327,62.6778266 31.1903853,62.5664516 31.1524677,62.3437016 L31.1524677,61.0814516 C31.1524677,60.5988266 31.1524677,60.0790766 31.1524677,59.5964516 C31.1524677,59.5964516 31.1524677,60.0790766 31.1524677,59.5964516 L31.1524677,59.5964516 Z M31.9108179,47.4194516 C31.1145502,47.3823266 32.289993,48.5332016 32.2520755,47.6793266 C32.214158,47.5308266 32.062488,47.4194516 31.9108179,47.4194516 L31.9108179,47.4194516 Z"/>
    <path fill="#04085E" d="M66.33902,31.3072016 C66.4108997,31.4901826 66.4096447,60.7294226 66.33902,61.0751657 C66.263185,61.5577907 66.4157523,65.1252118 65.278227,65.0880868 C65.0507219,65.1623368 64.8990517,65.0509618 64.3302891,65.0880868 C63.6477739,65.1623368 62.1234009,65.1252118 62.1234009,65.0880868 C62.0096483,64.5312118 62.1234009,60.0349801 62.1234009,60.0349801 C62.1234009,60.0349801 61.7742967,49.2869675 61.5998474,40.9220651 C61.4916645,35.7346576 61.5417928,32.463723 61.5998474,32.3074096 C61.86527,31.7134096 63.2027929,24.5875766 63.2407104,24.1420766 C63.2407104,23.8822016 63.6856914,23.8079516 63.799444,23.8079516 C63.951114,23.7708266 64.1407015,23.9193266 64.1786191,24.1420766 C64.2544541,24.3648266 64.2923716,24.5875766 64.3302891,24.8474516 C64.3302891,24.8474516 66.0735974,30.6018266 66.33902,31.3072016 Z M65.3640931,35.1310766 C65.3640931,32.566444 65.2882581,33.1650717 65.3640931,32.6453217 C65.4020106,32.2740717 64.9393631,32.3470521 64.0850222,32.262915 C63.2306813,32.178778 62.3913574,32.7915376 62.3913574,33.0885376 C62.3534399,33.5340376 62.3913574,37.4204822 62.3913574,38.4971072 C62.3913574,39.0911072 62.7245727,47.1054463 62.7245727,47.8108213 L62.7245727,52.608332 C62.7245727,53.276582 62.9213909,59.8424962 62.9972259,60.1766212 C62.8834734,60.8448712 64.8232167,60.0281204 65.0128043,60.1766204 C65.2403093,59.4712454 65.3640931,51.6196539 65.3640931,51.5454039 L65.3640931,47.1006377 C65.3640931,47.1006377 65.4496347,44.2265936 65.3640931,43.0024352 C65.2785516,41.7782767 65.3640931,37.6957091 65.3640931,35.1310766 Z M64.5198766,27.8917016 C64.4440416,27.5947016 63.8373615,27.5575766 63.3823513,27.6689516 C63.1548463,27.7432016 63.1927638,28.1887016 63.1927638,28.4114516 C63.0410938,28.9683266 63.0031762,29.5994516 62.8515062,30.0820766 C62.7756712,30.3419516 62.3206611,31.6784516 62.6998362,31.6042016 C62.9273412,31.5670766 64.5577942,31.3072016 65.1265568,31.6042016 C65.1644743,31.3814516 65.0128043,30.3048266 65.0128043,30.0449516 C65.0507218,29.8964516 64.6715467,28.0030766 64.5198766,27.8917016 L64.5198766,27.8917016 Z M63.1734741,61.7497016 C63.0597216,61.7868266 63.1734741,63.5002011 63.1734741,63.8343261 C63.1734741,64.2427011 65.1644744,63.504232 65.2403094,63.578482 C65.5436495,63.875482 65.2403093,61.9353266 65.2403093,61.7497016 C65.2023918,61.2299516 63.6664017,61.6383266 63.1734741,61.7497016 Z"/>
    <path fill="#05095E" d="M48.3290998 61.9353266C47.9499247 61.8982016 47.5707496 61.7497016 47.1915745 61.8239516 46.8123994 61.8982016 46.3953068 61.8610766 46.0161317 61.8610766 45.3336165 61.8610766 44.6890189 61.8982016 44.0444212 62.1580766 43.9685862 62.1952016 43.8927511 62.1952016 43.8169161 62.1952016 43.5894111 62.1580766 43.3239885 62.0838266 43.0964834 62.0467016 42.9448134 62.0095766 42.7552258 62.0467016 42.6035558 62.0467016 42.2243807 62.0838266 41.8452056 62.0838266 41.4660305 62.1580766 40.7076803 62.3065766 40.3285052 61.7125766 40.5560103 61.0814516 40.5939278 61.0072016 40.5939278 60.9329516 40.6697628 60.8587016 40.7835153 60.6730766 41.0110204 60.6359516 41.2385254 60.7102016 41.352278 60.7844516 41.428113 60.8587016 41.5418655 60.9329516 42.2622982 61.3413266 43.0585659 61.4155766 43.8927511 61.1185766 44.1960912 61.0814516 44.4994313 61.0814516 44.8406889 61.0814516 45.3336165 61.0443266 45.8265442 61.0072016 46.3194718 60.9700766 46.7744819 60.9329516 47.2674095 60.9329516 47.7224197 60.8958266 48.2153473 60.9329516 48.5566049 60.6730766 48.7082749 60.0419516 48.6703574 59.6707016 48.5945224 59.2994516 48.5566049 58.9282016 48.4807699 58.5569516 48.4428524 58.1485766 48.3670173 57.7773266 48.2911823 57.4060766 48.0636773 57.2575766 47.6465846 57.2947016 46.8882344 57.3689516 46.0919667 57.4432016 45.3336165 57.3689516 44.6131838 57.2947016 43.9306687 57.3689516 43.2481535 57.4803266 43.210236 57.4803266 43.1344009 57.5174516 43.0964834 57.5174516 42.6793908 57.5917016 42.5277208 57.8144516 42.5656383 58.2228266 42.6035558 58.5940766 42.6793908 58.9653266 42.6793908 59.2994516 42.7552258 59.5964516 42.7552258 59.8934516 42.6035558 60.1533266 42.3381332 60.0048266 42.1864632 59.8563266 42.1106282 59.5964516 41.8452056 58.8168266 41.655618 58.0372016 41.4660305 57.2204516 41.3901955 56.8492016 41.503948 56.4779516 41.9968756 56.4779516 42.1485457 56.4779516 42.3002157 56.4408266 42.4518858 56.4779516 42.7931434 56.5150766 43.1723185 56.5150766 43.513576 56.4408266 44.1960912 56.2923266 44.8786064 56.3294516 45.5611216 56.2923266L46.926152 56.2923266C47.3811621 56.2923266 47.7982547 56.1809516 48.2153473 56.1438266 48.3670173 56.1067016 48.5186874 56.1067016 48.6324399 56.0695766 49.0495325 56.0695766 49.3528726 56.3294516 49.3907901 56.7378266L49.3907901 57.0348266C49.3528726 57.8887016 49.4666251 58.7054516 49.6562127 59.5222016 49.7699652 60.0790766 49.8078827 60.6359516 49.8837177 61.1928266 49.8837177 61.3413266 49.8837177 61.5269516 49.8078827 61.6754516 49.7320477 61.8239516 49.7699652 62.0095766 49.8458002 62.1209516 50.1491403 62.4550766 50.1491403 62.8634516 50.1112228 63.2718266 50.0733053 63.8658266 50.1870578 64.3855766 50.4524804 64.9053266 50.6420679 65.2394516 50.6799855 65.5735766 50.6041504 65.9448266 50.5283154 66.2047016 50.6041504 66.5017016 50.5662329 66.7987016 50.5662329 66.9843266 50.5283154 67.1328266 50.4903979 67.3184516 50.3766454 67.6154516 50.0353878 67.7268266 49.6941302 67.5412016 49.3528726 67.3555766 49.011615 67.2813266 48.6703574 67.2442016 48.5186874 67.2442016 48.3670173 67.1699516 48.2153473 67.1328266 47.6086671 67.0585766 47.001987 67.0214516 46.3953068 66.9843266 46.0540492 66.9843266 45.7127916 67.0214516 45.4094515 67.0585766 45.219864 67.0585766 45.068194 67.0957016 44.8786064 67.0957016 44.2719262 67.1699516 43.6273286 67.2442016 43.0206484 67.2813266 42.1864632 67.6525766 41.579783 67.4669516 41.2006079 66.7244516 41.2385254 65.9448266 41.2006079 65.1280766 40.9351854 64.3855766 40.7835153 64.0514516 40.8593503 63.6802016 40.9731029 63.3460766 41.0110204 63.2718266 41.0489379 63.1975766 41.0489379 63.1233266 41.1247729 62.9005766 41.2764429 62.7520766 41.503948 62.7520766 41.655618 62.7520766 41.8452056 62.6778266 41.9968756 62.6778266 42.4518858 62.6407016 42.8689784 62.6035766 43.3239885 62.5293266 43.5514936 62.4922016 43.7410811 62.4550766 43.9685862 62.4179516 44.1202562 62.3808266 44.2719262 62.3808266 44.3856788 62.4179516 45.068194 62.4922016 45.6748741 62.4179516 46.2815543 62.1209516 46.4711418 62.0095766 46.6986469 62.0467016 46.8882344 62.1209516 47.3053271 62.2694516 47.7224197 62.2694516 48.1395123 62.1580766 48.2153473 62.1209516 48.2911823 62.0467016 48.3670173 62.0095766 48.3290998 62.0095766 48.3290998 61.9724516 48.3290998 61.9353266 47.9499247 61.8982016 48.3290998 61.9724516 48.3290998 61.9353266L48.3290998 61.9353266zM45.9782142 65.9819516L45.9782142 66.0190766C46.1678018 66.0190766 46.3573893 65.9819516 46.5469769 66.0190766 47.2674095 66.1304516 47.9878422 66.0933266 48.7082749 65.8705766 49.011615 65.7592016 49.1632851 65.5364516 49.1253675 65.2394516 49.3149551 64.3113266 49.011615 63.6430766 48.1015948 63.3089516 47.5707496 63.3089516 47.077822 63.3460766 46.5469769 63.3832016 45.8644617 63.4203266 45.1819465 63.4945766 44.5373488 63.5317016 43.8169161 63.5688266 43.1344009 63.8658266 42.4139682 63.8658266 42.0727107 63.8658266 41.9589581 64.0514516 41.9589581 64.3855766 41.9589581 64.8682016 41.9968756 65.3508266 42.2243807 65.7963266 42.3760507 66.1304516 42.5656383 66.2418266 42.9448134 66.2047016 43.1344009 66.2047016 43.361906 66.1675766 43.5514936 66.1675766 44.0823387 66.1304516 44.6131838 66.1304516 45.1819465 66.0933266 45.4473691 66.0562016 45.7127916 66.0190766 45.9782142 65.9819516 45.9782142 65.9819516 45.7127916 66.0190766 45.9782142 65.9819516L45.9782142 65.9819516zM50.7558205 51.4660766C50.4524804 51.1319516 50.2249753 50.7978266 49.9974703 50.4265766 49.8837177 50.2409516 49.8078827 50.0924516 49.5424602 50.0553266 49.2770376 50.0553266 49.08745 50.2038266 49.011615 50.3894516 48.7082749 50.9834516 48.2911823 51.5403266 47.8740897 52.0972016 47.6465846 52.3942016 47.3811621 52.6169516 47.0399045 52.8025766 46.8503169 52.9139516 46.5848944 52.9510766 46.3573893 52.9510766 45.9023792 52.9510766 45.4852866 52.8397016 45.068194 52.6169516 44.9544414 52.5427016 44.8406889 52.5055766 44.7269364 52.5055766 44.4615138 52.4313266 44.2719262 52.5055766 44.1202562 52.7283266 44.0444212 52.8768266 43.9306687 52.9882016 43.8548336 53.1367016 43.6652461 53.5450766 43.3998235 53.8792016 43.0585659 54.1762016 42.5277208 54.6588266 41.9589581 54.6588266 41.4660305 54.1390766 41.2385254 53.8792016 41.0868554 53.5822016 40.8593503 53.2852016 40.8214328 53.2480766 40.8214328 53.2109516 40.7835153 53.1738266 40.0251651 52.8768266 39.570155 53.1367016 39.49432 54.0277016 39.3805674 54.2875766 39.2668149 54.4732016 38.9634748 54.5103266 38.8497223 54.5474516 38.6980523 54.5103266 38.6222172 54.3989516 38.5463822 54.2875766 38.5084647 54.1762016 38.5842997 54.0277016 38.6601347 53.9534516 38.6980523 53.8420766 38.7738873 53.7678266 39.0393098 53.5079516 39.1530624 53.2109516 39.3047324 52.8768266 39.4184849 52.3942016 39.64599 51.9858266 39.9872476 51.6517016 40.1389176 51.5032016 40.4043402 51.5032016 40.5939278 51.6145766 40.8972678 51.8002016 41.0489379 52.0600766 41.1626904 52.3570766 41.3143605 52.6540766 41.428113 52.9139516 41.579783 53.2109516 41.8831231 53.7678266 42.5656383 53.7678266 42.9068959 53.2480766 43.1723185 52.8397016 43.3998235 52.4313266 43.513576 51.9858266 43.5514936 51.8373266 43.5894111 51.6888266 43.6273286 51.5403266 43.7031636 51.2062016 43.9306687 51.0948266 44.2719262 51.2062016 44.3477613 51.2433266 44.4235963 51.2433266 44.4994313 51.3175766 45.0302764 51.6888266 45.5990391 52.0229516 46.2057193 52.2457016 46.6986469 52.2828266 47.077822 52.0600766 47.3432446 51.7259516 47.6845022 51.3547016 47.9499247 50.9092016 48.2532648 50.4637016 48.5566049 49.4613266 49.1632851 49.0900766 50.0733053 49.3499516 50.2249753 49.4984516 50.3387279 49.6469516 50.4145629 49.8325766 50.6041504 50.2038266 50.7558205 50.5379516 51.021243 50.8720766 51.4383357 51.3918266 51.8933458 51.4660766 52.3483559 51.0948266 52.727531 50.7978266 53.1067061 50.5008266 53.4858812 50.2038266 53.5237987 50.1667016 53.5996337 50.1295766 53.6375512 50.0924516 54.0167263 49.9439516 54.433819 49.8325766 54.8129941 49.7212016 55.0784166 49.6098266 55.2680042 49.6840766 55.4955092 49.8697016 55.5713443 50.0182016 55.5334268 50.1295766 55.4575917 50.2780766 55.3438392 50.4637016 55.1542516 50.5379516 54.9267466 50.6122016 54.5475715 50.7235766 54.1683964 50.8349516 53.8271388 50.9834516 53.3721287 51.2804516 52.9171186 51.6145766 52.4621084 51.9487016 52.3104384 51.9115766 52.0450158 51.9487016 51.8175108 52.0600766 51.3245831 52.0229516 51.021243 51.7630766 50.7558205 51.4660766zM46.0540492 37.0987016C45.9402967 36.8759516 46.2436368 36.7645766 46.3573893 36.5418266 46.5469769 36.1334516 47.229492 35.1310766 47.153657 34.9825766 47.1157395 34.9454516 46.0919667 34.2029516 45.8644617 34.0173266 45.5990391 33.8317016 45.5232041 33.7574516 45.5232041 33.7574516L45.8265442 33.3119516 47.3432446 34.4999516C47.3432446 34.4999516 47.6465846 33.7945766 47.7982547 33.5347016 47.9120072 33.3490766 48.1395123 32.9407016 48.2532648 32.7550766 48.4049348 32.7922016 48.5945224 32.9778266 48.7461924 32.9778266 48.859945 32.9778266 47.8740897 34.8340766 47.8740897 34.8340766 47.8740897 34.8340766 48.8978625 35.5023266 49.2391201 35.7622016 49.5803777 36.0220766 50.1491403 36.2819516 50.2249753 36.3190766 50.3387279 36.4304516 50.0733053 36.8017016 49.9216353 36.7274516 49.8078827 36.6903266 49.0495325 36.0963266 48.5186874 35.7993266 47.9120072 35.4652016 47.6465846 35.2795766 47.6465846 35.2795766 47.6465846 35.2795766 47.001987 36.6160766 46.8503169 36.9130766 46.7744819 37.0987016 46.8503169 37.2472016 46.6607294 37.2100766 46.5090593 37.0615766 46.2815543 37.1358266 46.0540492 37.0987016L46.0540492 37.0987016zM43.6273286 27.5204516C43.7410811 27.4833266 44.8786064 27.1863266 45.3336165 27.2234516 45.4473691 27.2234516 46.6986469 27.1492016 47.229492 27.2234516 47.8740897 27.2977016 51.1349956 27.3348266 51.6279232 27.3719516 54.433819 27.8174516 55.0784166 28.4114516 55.7230143 28.6342016 55.9126019 28.7084516 55.7988493 28.9683266 55.9126019 29.1910766 55.7230143 29.1910766 55.6092618 29.1168266 55.4955092 29.0425766 55.2680042 28.9312016 55.0784166 28.7827016 54.8509116 28.6713266 54.0546439 28.3372016 53.2204586 28.0402016 52.3483559 27.9288266 51.5900057 27.8174516 50.8316555 27.7060766 50.0353878 27.7432016 49.8837177 27.7432016 46.2815543 27.6689516 46.0161317 27.6318266 45.7127916 27.5575766 45.4094515 27.5575766 45.1061115 27.5947016 44.6890189 27.6318266 43.7031636 27.6318266 43.5894111 27.5947016 43.6273286 27.5947016 43.6273286 27.5575766 43.6273286 27.5204516 43.7410811 27.4833266 43.6273286 27.5575766 43.6273286 27.5204516L43.6273286 27.5204516z"/>
    <path fill="#05095E" d="M44.2340087 58.1114516C44.3477613 58.1114516 44.4994313 58.1485766 44.6511013 58.2599516 44.8786064 58.4827016 45.0302764 58.7054516 45.0302764 59.0395766 45.0302764 59.3365766 45.0302764 59.6335766 44.8027714 59.8934516 44.5752663 60.1533266 44.1581737 60.2647016 43.8548336 60.0790766 43.5514936 59.8934516 43.3998235 59.5964516 43.3239885 59.2623266 43.286071 59.1138266 43.3239885 58.9653266 43.3239885 58.8539516 43.3998235 58.3713266 43.7031636 58.1114516 44.2340087 58.1114516 44.3477613 58.0743266 43.7031636 58.1114516 44.2340087 58.1114516L44.2340087 58.1114516zM45.6748741 59.2623266C45.6748741 59.0395766 45.7127916 58.8910766 45.8644617 58.7797016 46.2436368 58.4455766 46.7365644 58.4455766 47.0399045 58.8168266 47.153657 58.9282016 47.2674095 59.0767016 47.3053271 59.2623266 47.4190796 59.7820766 47.0399045 60.2275766 46.5090593 60.1904516 46.2436368 60.1904516 46.0540492 60.0790766 45.9023792 59.8563266 45.7886266 59.6707016 45.6369566 59.4479516 45.6748741 59.2623266 45.6369566 59.0395766 45.6369566 59.4479516 45.6748741 59.2623266L45.6748741 59.2623266zM32.4510452 27.5947016C33.0956429 27.3348266 44.9544414 27.4090766 43.3239885 27.5947016 43.0206484 27.7060766 38.8118048 28.0402016 38.5084647 28.0030766 38.2051246 27.9659516 33.3475234 28.1515766 33.0441833 28.0030766L32.4510452 27.5947016zM38.7359698 37.8040766C38.6222172 37.5813266 38.9255573 37.4699516 39.0393098 37.2472016 39.2288974 36.8388266 39.9114126 35.8364516 39.8355776 35.6879516 39.7976601 35.6508266 38.7738873 34.9083266 38.5463822 34.7227016 38.2809596 34.5370766 38.2051246 34.4628266 38.2051246 34.4628266L38.5084647 34.0173266 40.0251651 35.2053266C40.0251651 35.2053266 40.3285052 34.4999516 40.4801752 34.2400766 40.5939278 34.0544516 40.8214328 33.6460766 40.9351854 33.4604516 41.0868554 33.4975766 41.2764429 33.6832016 41.428113 33.6832016 41.5418655 33.6832016 40.5560103 35.5394516 40.5560103 35.5394516 40.5560103 35.5394516 41.579783 36.2077016 41.9210406 36.4675766 42.2622982 36.7274516 42.8310609 36.9873266 42.9068959 37.0244516 43.0206484 37.1358266 42.7552258 37.5070766 42.6035558 37.4328266 42.4898033 37.3957016 41.7314531 36.8017016 41.2006079 36.5047016 40.5939278 36.1705766 40.3285052 35.9849516 40.3285052 35.9849516 40.3285052 35.9849516 39.6839075 37.3214516 39.5322375 37.6184516 39.4564025 37.8040766 39.5322375 37.9525766 39.3426499 37.9154516 39.1530624 37.7669516 38.9634748 37.8412016 38.7359698 37.8040766L38.7359698 37.8040766zM37.4846919 46.6769516C37.3709394 46.4542016 37.6742795 46.3428266 37.788032 46.1200766 37.9776196 45.7117016 38.6601347 44.7093266 38.5842997 44.5608266 38.5463822 44.5237016 37.5226094 43.7812016 37.2951044 43.5955766 37.0296818 43.4099516 36.9538468 43.3357016 36.9538468 43.3357016L37.2571869 42.8902016 38.7738873 44.0782016C38.7738873 44.0782016 39.0772274 43.3728266 39.2288974 43.1129516 39.3426499 42.9273266 39.570155 42.5189516 39.6839075 42.3333266 39.8355776 42.3704516 40.0251651 42.5560766 40.1768352 42.5560766 40.2905877 42.5560766 39.3047324 44.4123266 39.3047324 44.4123266 39.3047324 44.4123266 40.3285052 45.0805766 40.6697628 45.3404516 41.0110204 45.6003266 41.579783 45.8602016 41.655618 45.8973266 41.7693706 46.0087016 41.503948 46.3799516 41.352278 46.3057016 41.2385254 46.2685766 40.4801752 45.6745766 39.9493301 45.3775766 39.3426499 45.0434516 39.0772274 44.8578266 39.0772274 44.8578266 39.0772274 44.8578266 38.4326297 46.1943266 38.2809596 46.4913266 38.2051246 46.6769516 38.2809596 46.8254516 38.0913721 46.7883266 37.9397021 46.6398266 37.712197 46.7140766 37.4846919 46.6769516L37.4846919 46.6769516zM43.7031636 45.8230766C43.5894111 45.6003266 43.8927511 45.4889516 44.0065037 45.2662016 44.1960912 44.8578266 44.8786064 43.8554516 44.8027714 43.7069516 44.7648539 43.6698266 43.7410811 42.9273266 43.513576 42.7417016 43.2481535 42.5560766 43.1723185 42.4818266 43.1723185 42.4818266L43.4756585 42.0363266 44.9923589 43.2243266C44.9923589 43.2243266 45.295699 42.5189516 45.4473691 42.2590766 45.5611216 42.0734516 45.7886266 41.6650766 45.9023792 41.4794516 46.0540492 41.5165766 46.2436368 41.7022016 46.3953068 41.7022016 46.5090593 41.7022016 45.5232041 43.5584516 45.5232041 43.5584516 45.5232041 43.5584516 46.5469769 44.2267016 46.8882344 44.4865766 47.229492 44.7464516 47.7982547 45.0063266 47.8740897 45.0434516 47.9878422 45.1548266 47.7224197 45.5260766 47.5707496 45.4518266 47.4569971 45.4147016 46.6986469 44.8207016 46.1678018 44.5237016 45.5611216 44.1895766 45.295699 44.0039516 45.295699 44.0039516 45.295699 44.0039516 44.6511013 45.3404516 44.4994313 45.6374516 44.4235963 45.8230766 44.4994313 45.9715766 44.3098438 45.9344516 44.1581737 45.7859516 43.9306687 45.8602016 43.7031636 45.8230766L43.7031636 45.8230766zM49.9216353 44.7464516C49.8078827 44.5237016 50.1112228 44.4123266 50.2249753 44.1895766 50.4145629 43.7812016 51.0970781 42.7788266 51.021243 42.6303266 50.9833255 42.5932016 49.9595528 41.8507016 49.7320477 41.6650766 49.4666251 41.4794516 49.3907901 41.4052016 49.3907901 41.4052016L49.6941302 40.9597016 51.2108306 42.1477016C51.2108306 42.1477016 51.5141707 41.4423266 51.6658407 41.1824516 51.7795932 40.9968266 52.0070983 40.5884516 52.1208508 40.4028266 52.2725209 40.4399516 52.4621084 40.6255766 52.6137785 40.6255766 52.727531 40.6255766 51.7416757 42.4818266 51.7416757 42.4818266 51.7416757 42.4818266 52.7654485 43.1500766 53.1067061 43.4099516 53.4479637 43.6698266 54.0167263 43.9297016 54.0925614 43.9668266 54.2063139 44.0782016 53.9408913 44.4494516 53.7892213 44.3752016 53.6754688 44.3380766 52.9171186 43.7440766 52.3862734 43.4470766 51.7795932 43.1129516 51.5141707 42.9273266 51.5141707 42.9273266 51.5141707 42.9273266 50.869573 44.2638266 50.717903 44.5608266 50.6420679 44.7464516 50.717903 44.8949516 50.5283154 44.8578266 50.3766454 44.7093266 50.1491403 44.7835766 49.9216353 44.7464516L49.9216353 44.7464516z"/>
  </g>
</svg>
