<?xml version="1.0" encoding="UTF-8"?>
<svg width="227px" height="126px" viewBox="0 0 227 126" version="1.1" xmlns="http://www.w3.org/2000/svg" xmlns:xlink="http://www.w3.org/1999/xlink">
    <!-- Generator: Sketch 42 (36781) - http://www.bohemiancoding.com/sketch -->
    <title>logos</title>
    <desc>Created with Sketch.</desc>
    <defs>
        <linearGradient x1="50%" y1="0%" x2="50%" y2="84.2873011%" id="linearGradient-1">
            <stop stop-color="#3FBCFF" offset="0%"></stop>
            <stop stop-color="#A2F6F9" offset="100%"></stop>
        </linearGradient>
    </defs>
    <g stroke="none" stroke-width="1" fill="none" fill-rule="evenodd">
        <g transform="translate(-492.000000, -134.000000)">
            <g transform="translate(-124.000000, -49.000000)">
                <g transform="translate(604.500000, 173.000000)">
                    <g transform="translate(73.958215, 73.200408) rotate(-10.000000) translate(-73.958215, -73.200408) translate(10.208215, 10.200408)">
                        <rect fill-opacity="0.209210824" fill="#9EF4F9" x="1.32949047" y="0.23442504" width="125.55" height="125.55" rx="62.775"></rect>
                        <path d="M60.1663336,33.6479112 C53.1848071,43.7741323 33.191969,72.8354247 26.7520586,82.8623386 C25.9568534,84.1005741 26.2167039,85.7205212 27.3641162,86.6499736 C28.9060005,87.9021741 31.0740306,89.5671197 32.7364479,90.8301819 C33.9136022,91.7254975 35.5572351,91.6696372 36.6796016,90.706048 C48.1192869,80.8777483 50.4955105,79.0622903 57.5193019,72.7019807 C60.2774745,70.2037865 64.5117861,70.1867181 67.2965699,72.6538789 C76.4758685,80.7830962 80.5833855,83.9810952 88.242715,90.7153581 C89.3462971,91.685154 90.9805379,91.756531 92.165519,90.8844905 C93.8874201,89.6167732 96.1618951,87.9270008 97.7773514,86.6685936 C98.9623325,85.7468996 99.2487943,84.0990224 98.4395007,82.8406152 C91.9667176,72.7702544 72.0114484,43.7632705 65.0377486,33.6479112 C63.8621597,31.9426221 61.3419225,31.9426221 60.1663336,33.6479112 L60.1663336,33.6479112 Z" fill="url(#linearGradient-1)"></path>
                    </g>
                    <g transform="translate(177.050223, 78.357252) rotate(10.000000) translate(-177.050223, -78.357252) translate(122.550223, 36.357252)" stroke-width="7" stroke="#E8255B">
                        <polygon points="26.0524536 0.231158041 0.130745965 26.4 54.4387398 83.0251248 108.746734 26.4 81.7923708 0.231158041"></polygon>
                        <path d="M2.12631449,26.5 L106.751165,26.5"></path>
                        <path d="M54.4387398,0.858957131 L54.4387398,83.2567781"></path>
                    </g>
                </g>
            </g>
        </g>
    </g>
</svg>