<svg width="36" height="36" viewBox="0 0 36 36" fill="none" xmlns="http://www.w3.org/2000/svg">
<path d="M22.4999 14.9997L16.4999 20.9997L13.4999 17.9997M19.8691 5.18819L21.7005 6.74894C22.1619 7.14214 22.7348 7.37986 23.3391 7.42809L25.7377 7.61924C27.1479 7.73178 28.268 8.85119 28.3805 10.2614L28.5713 12.6604C28.6195 13.2647 28.858 13.8384 29.2513 14.2998L30.8113 16.1307C31.7289 17.2075 31.729 18.7913 30.8115 19.868L29.2514 21.6993C28.8582 22.1607 28.6199 22.7346 28.5717 23.3389L28.3798 25.7375C28.2673 27.1477 27.1489 28.2678 25.7387 28.3803L23.3393 28.5718C22.735 28.62 22.1615 28.8571 21.7001 29.2503L19.8691 30.8111C18.7923 31.7287 17.2075 31.7289 16.1308 30.8113L14.2997 29.2504C13.8383 28.8572 13.2649 28.6197 12.6606 28.5715L10.2612 28.3803C8.85096 28.2678 7.73258 27.1479 7.62005 25.7377L7.42815 23.3391C7.37993 22.7348 7.14167 22.1613 6.74846 21.6999L5.1884 19.8681C4.27082 18.7914 4.27039 17.208 5.18797 16.1313L6.74944 14.2995C7.14265 13.8381 7.37861 13.2647 7.42684 12.6604L7.61873 10.2617C7.73126 8.85148 8.85287 7.73163 10.2631 7.6191L12.6598 7.42794C13.2641 7.37971 13.8379 7.14219 14.2993 6.74898L16.1309 5.18819C17.2077 4.2706 18.7923 4.2706 19.8691 5.18819Z" stroke="currentColor" stroke-width="3" stroke-linecap="round" stroke-linejoin="round"/>
</svg>
