<svg xmlns="http://www.w3.org/2000/svg" xmlns:xlink="http://www.w3.org/1999/xlink" width="130" height="130" viewBox="0 0 130 130">
    <path fill="#E6E6E7" d="M64.876.353C29.222.353.35 29.288.35 64.997c0 35.724 28.872 64.65 64.526 64.65 35.903 0 64.774-28.927 64.774-64.65 0-35.71-28.87-64.644-64.774-64.644zm-53.85 73c8.072-1.24 13.523-.638 19.208-.444.305.79.638 1.553 1.012 2.295-5.56.2-11.218.02-19.483 1.94-.278-1.256-.528-2.508-.736-3.79zM51.702 95.93c-2.578 1.264-10.788 4.327-15.738-4.145 0 0-2.774-5.042-8.043-5.417 0 0-5.133-.062-.362 3.196 0 0 3.44 1.608 5.824 7.676 0 0 3.12 10.353 17.987 6.976l.04 10.706s-.11 1.357-.957 2.732c-19.096-5.243-34.003-20.637-38.58-40.05 8.362-1.948 14.104-1.747 19.623-1.942 3.855 7.136 11.4 11.72 24.823 13.11-1.915 1.298-3.842 3.482-4.62 7.158zm-1.288 2.427c0 .4-.458.713-1.012.72-.57 0-1.026-.31-1.026-.706 0-.39.457-.716 1.012-.716.568-.006 1.026.32 1.026.7zm-3.342.577c.013.38-.445.705-1.012.705-.57 0-1.026-.318-1.026-.705 0-.396.457-.715 1.026-.715.553 0 1.012.31 1.012.715zm-3.287.006c0 .38-.444.71-1.012.715-.582 0-1.025-.325-1.04-.707 0-.4.458-.715 1.026-.715.57 0 1.027.313 1.027.708zm-3.315-1.256c0 .396-.457.715-1.026.715-.555 0-1.012-.31-1.012-.715 0-.38.443-.707 1.012-.707.57-.008 1.026.32 1.026.707zm-6.712-7.155c.555 0 1.026.312 1.026.707 0 .396-.472.707-1.026.715-.57 0-1.026-.313-1.026-.708 0-.396.457-.715 1.026-.715zm-1.733-.625c-.57.008-1.026-.318-1.04-.707 0-.396.47-.71 1.025-.71.568-.005 1.026.313 1.026.702.015.397-.457.715-1.01.715zm3.314 2.983c.554 0 1.026.32 1.026.707 0 .396-.458.713-1.013.72-.568 0-1.04-.317-1.04-.706 0-.395.46-.72 1.027-.72zm1.747 2.204c.556 0 1.013.318 1.013.707 0 .4-.443.715-1.013.723-.568 0-1.026-.322-1.026-.715 0-.382.458-.707 1.026-.716zm-6.892-7.468c0 .388-.443.708-1.013.715-.568 0-1.027-.313-1.027-.708 0-.397.46-.716 1.026-.716.555-.005 1.012.313 1.012.708zm28.124 31.57c-.722-.093-1.43-.18-2.136-.294.735-.873 1.22-2.086 1.207-3.84l-.028-11.685s-.417-4.618 1.857-6.24l.07 19.18s-.153 1.416-.97 2.878zm6.573.402c-.043 0-.084-.007-.112-.007.458-.937.75-2.114.805-3.612l.083-19.408 1.596-.008.206 19.402c.07 1.46.362 2.613.778 3.52-1.11.063-2.232.112-3.357.112zm9.292-.798c-.36-1.366-.402-2.54-.402-2.54l-.07-19.012c2.274 1.762 1.914 6.068 1.914 6.068l.04 11.684c0 1.447.333 2.537.86 3.354-.777.175-1.566.313-2.342.446zm8.597-2.185c-1.013-.942-1.14-1.794-1.14-1.794l-.056-15.31c-.013-5.97-2.537-9.118-4.99-10.782 14.284-1.47 21.134-6.12 24.267-13.32 5.48.132 9.362-.457 17.448 1.394-4.09 18.632-17.697 33.67-35.53 39.813zm35.638-40.262c-8-1.838-11.843-1.275-17.348-1.416.29-.726.555-1.484.777-2.26 5.532-.256 9.54-1.156 17.223-.097-.18 1.277-.388 2.525-.652 3.773zm-16.434-4.155c1.04-3.834 1.358-8.235 1.332-13.146-.014-7.045-2.69-12.675-6.99-16.94.736-2.427 1.72-7.814-1.053-14.7 0 0-4.854-1.518-15.81 5.874-4.3-1.06-8.875-1.567-13.45-1.56-5.05.02-10.14.68-14.882 2.004-11.356-7.696-16.348-6.094-16.348-6.094-3.23 8.19-1.192 14.23-.582 15.733-3.798 4.16-6.13 9.465-6.115 15.954.028 4.896.596 9.292 1.97 13.104-5.7-.18-11.11-.773-19.083.46-.375-2.57-.568-5.2-.568-7.883C10.39 34.85 34.797 10.4 64.89 10.4c30.328 0 54.72 24.45 54.72 54.597 0 2.413-.18 4.782-.485 7.112-7.613-1.06-11.593-.165-17.14.083z"/>
    <path fill="#DBDCDD" d="M64.876.353C29.222.353.35 29.288.35 64.997c0 35.724 28.872 64.65 64.526 64.65 35.903 0 64.774-28.927 64.774-64.65 0-35.71-28.87-64.644-64.774-64.644zm-53.85 73c8.072-1.24 13.523-.638 19.208-.444.305.79.638 1.553 1.012 2.295-5.56.2-11.218.02-19.483 1.94-.278-1.256-.528-2.508-.736-3.79zM51.702 95.93c-2.578 1.264-10.788 4.327-15.738-4.145 0 0-2.774-5.042-8.043-5.417 0 0-5.133-.062-.362 3.196 0 0 3.44 1.608 5.824 7.676 0 0 3.12 10.353 17.987 6.976l.04 10.706s-.11 1.357-.957 2.732c-19.096-5.243-34.003-20.637-38.58-40.05 8.362-1.948 14.104-1.747 19.623-1.942 3.855 7.136 11.4 11.72 24.823 13.11-1.915 1.298-3.842 3.482-4.62 7.158zm-1.288 2.427c0 .4-.458.713-1.012.72-.57 0-1.026-.31-1.026-.706 0-.39.457-.716 1.012-.716.568-.006 1.026.32 1.026.7zm-3.342.577c.013.38-.445.705-1.012.705-.57 0-1.026-.318-1.026-.705 0-.396.457-.715 1.026-.715.553 0 1.012.31 1.012.715zm-3.287.006c0 .38-.444.71-1.012.715-.582 0-1.025-.325-1.04-.707 0-.4.458-.715 1.026-.715.57 0 1.027.313 1.027.708zm-3.315-1.256c0 .396-.457.715-1.026.715-.555 0-1.012-.31-1.012-.715 0-.38.443-.707 1.012-.707.57-.008 1.026.32 1.026.707zm-6.712-7.155c.555 0 1.026.312 1.026.707 0 .396-.472.707-1.026.715-.57 0-1.026-.313-1.026-.708 0-.396.457-.715 1.026-.715zm-1.733-.625c-.57.008-1.026-.318-1.04-.707 0-.396.47-.71 1.025-.71.568-.005 1.026.313 1.026.702.015.397-.457.715-1.01.715zm3.314 2.983c.554 0 1.026.32 1.026.707 0 .396-.458.713-1.013.72-.568 0-1.04-.317-1.04-.706 0-.395.46-.72 1.027-.72zm1.747 2.204c.556 0 1.013.318 1.013.707 0 .4-.443.715-1.013.723-.568 0-1.026-.322-1.026-.715 0-.382.458-.707 1.026-.716zm-6.892-7.468c0 .388-.443.708-1.013.715-.568 0-1.027-.313-1.027-.708 0-.397.46-.716 1.026-.716.555-.005 1.012.313 1.012.708zm28.124 31.57c-.722-.093-1.43-.18-2.136-.294.735-.873 1.22-2.086 1.207-3.84l-.028-11.685s-.417-4.618 1.857-6.24l.07 19.18s-.153 1.416-.97 2.878zm6.573.402c-.043 0-.084-.007-.112-.007.458-.937.75-2.114.805-3.612l.083-19.408 1.596-.008.206 19.402c.07 1.46.362 2.613.778 3.52-1.11.063-2.232.112-3.357.112zm9.292-.798c-.36-1.366-.402-2.54-.402-2.54l-.07-19.012c2.274 1.762 1.914 6.068 1.914 6.068l.04 11.684c0 1.447.333 2.537.86 3.354-.777.175-1.566.313-2.342.446zm8.597-2.185c-1.013-.942-1.14-1.794-1.14-1.794l-.056-15.31c-.013-5.97-2.537-9.118-4.99-10.782 14.284-1.47 21.134-6.12 24.267-13.32 5.48.132 9.362-.457 17.448 1.394-4.09 18.632-17.697 33.67-35.53 39.813zm35.638-40.262c-8-1.838-11.843-1.275-17.348-1.416.29-.726.555-1.484.777-2.26 5.532-.256 9.54-1.156 17.223-.097-.18 1.277-.388 2.525-.652 3.773zm-16.434-4.155c1.04-3.834 1.358-8.235 1.332-13.146-.014-7.045-2.69-12.675-6.99-16.94.736-2.427 1.72-7.814-1.053-14.7 0 0-4.854-1.518-15.81 5.874-4.3-1.06-8.875-1.567-13.45-1.56-5.05.02-10.14.68-14.882 2.004-11.356-7.696-16.348-6.094-16.348-6.094-3.23 8.19-1.192 14.23-.582 15.733-3.798 4.16-6.13 9.465-6.115 15.954.028 4.896.596 9.292 1.97 13.104-5.7-.18-11.11-.773-19.083.46-.375-2.57-.568-5.2-.568-7.883C10.39 34.85 34.797 10.4 64.89 10.4c30.328 0 54.72 24.45 54.72 54.597 0 2.413-.18 4.782-.485 7.112-7.613-1.06-11.593-.165-17.14.083z"/>
    <defs>
        <path id="a" d="M64.876.353C29.222.353.35 29.288.35 64.997c0 35.724 28.872 64.65 64.526 64.65 35.903 0 64.774-28.927 64.774-64.65 0-35.71-28.87-64.644-64.774-64.644zm-53.85 73c8.072-1.24 13.523-.638 19.208-.444.305.79.638 1.553 1.012 2.295-5.56.2-11.218.02-19.483 1.94-.278-1.256-.528-2.508-.736-3.79zM51.702 95.93c-2.578 1.264-10.788 4.327-15.738-4.145 0 0-2.774-5.042-8.043-5.417 0 0-5.133-.062-.362 3.196 0 0 3.44 1.608 5.824 7.676 0 0 3.12 10.353 17.987 6.976l.04 10.706s-.11 1.357-.957 2.732c-19.096-5.243-34.003-20.637-38.58-40.05 8.362-1.948 14.104-1.747 19.623-1.942 3.855 7.136 11.4 11.72 24.823 13.11-1.915 1.298-3.842 3.482-4.62 7.158zm-1.288 2.427c0 .4-.458.713-1.012.72-.57 0-1.026-.31-1.026-.706 0-.39.457-.716 1.012-.716.568-.006 1.026.32 1.026.7zm-3.342.577c.013.38-.445.705-1.012.705-.57 0-1.026-.318-1.026-.705 0-.396.457-.715 1.026-.715.553 0 1.012.31 1.012.715zm-3.287.006c0 .38-.444.71-1.012.715-.582 0-1.025-.325-1.04-.707 0-.4.458-.715 1.026-.715.57 0 1.027.313 1.027.708zm-3.315-1.256c0 .396-.457.715-1.026.715-.555 0-1.012-.31-1.012-.715 0-.38.443-.707 1.012-.707.57-.008 1.026.32 1.026.707zm-6.712-7.155c.555 0 1.026.312 1.026.707 0 .396-.472.707-1.026.715-.57 0-1.026-.313-1.026-.708 0-.396.457-.715 1.026-.715zm-1.733-.625c-.57.008-1.026-.318-1.04-.707 0-.396.47-.71 1.025-.71.568-.005 1.026.313 1.026.702.015.397-.457.715-1.01.715zm3.314 2.983c.554 0 1.026.32 1.026.707 0 .396-.458.713-1.013.72-.568 0-1.04-.317-1.04-.706 0-.395.46-.72 1.027-.72zm1.747 2.204c.556 0 1.013.318 1.013.707 0 .4-.443.715-1.013.723-.568 0-1.026-.322-1.026-.715 0-.382.458-.707 1.026-.716zm-6.892-7.468c0 .388-.443.708-1.013.715-.568 0-1.027-.313-1.027-.708 0-.397.46-.716 1.026-.716.555-.005 1.012.313 1.012.708zm28.124 31.57c-.722-.093-1.43-.18-2.136-.294.735-.873 1.22-2.086 1.207-3.84l-.028-11.685s-.417-4.618 1.857-6.24l.07 19.18s-.153 1.416-.97 2.878zm6.573.402c-.043 0-.084-.007-.112-.007.458-.937.75-2.114.805-3.612l.083-19.408 1.596-.008.206 19.402c.07 1.46.362 2.613.778 3.52-1.11.063-2.232.112-3.357.112zm9.292-.798c-.36-1.366-.402-2.54-.402-2.54l-.07-19.012c2.274 1.762 1.914 6.068 1.914 6.068l.04 11.684c0 1.447.333 2.537.86 3.354-.777.175-1.566.313-2.342.446zm8.597-2.185c-1.013-.942-1.14-1.794-1.14-1.794l-.056-15.31c-.013-5.97-2.537-9.118-4.99-10.782 14.284-1.47 21.134-6.12 24.267-13.32 5.48.132 9.362-.457 17.448 1.394-4.09 18.632-17.697 33.67-35.53 39.813zm35.638-40.262c-8-1.838-11.843-1.275-17.348-1.416.29-.726.555-1.484.777-2.26 5.532-.256 9.54-1.156 17.223-.097-.18 1.277-.388 2.525-.652 3.773zm-16.434-4.155c1.04-3.834 1.358-8.235 1.332-13.146-.014-7.045-2.69-12.675-6.99-16.94.736-2.427 1.72-7.814-1.053-14.7 0 0-4.854-1.518-15.81 5.874-4.3-1.06-8.875-1.567-13.45-1.56-5.05.02-10.14.68-14.882 2.004-11.356-7.696-16.348-6.094-16.348-6.094-3.23 8.19-1.192 14.23-.582 15.733-3.798 4.16-6.13 9.465-6.115 15.954.028 4.896.596 9.292 1.97 13.104-5.7-.18-11.11-.773-19.083.46-.375-2.57-.568-5.2-.568-7.883C10.39 34.85 34.797 10.4 64.89 10.4c30.328 0 54.72 24.45 54.72 54.597 0 2.413-.18 4.782-.485 7.112-7.613-1.06-11.593-.165-17.14.083z"/>
    </defs>
    <clipPath id="b">
        <use xlink:href="#a" overflow="visible"/>
    </clipPath>
    <path clip-path="url(#b)" fill="#E6E6E7" d="M64.876 1.543C29.222 1.543.35 30.478.35 66.186c0 35.724 28.872 64.652 64.526 64.652 35.903 0 64.774-28.93 64.774-64.652 0-35.708-28.87-64.643-64.774-64.643zm-53.85 73c8.072-1.24 13.523-.64 19.208-.443.305.79.638 1.55 1.012 2.295-5.56.2-11.218.02-19.483 1.94-.278-1.256-.528-2.51-.736-3.793zm41.505 22.05c-2.578 1.264-11.618 4.853-16.568-3.62 0 0-2.774-5.04-8.043-5.416 0 0-5.133-.062-.362 3.196 0 0 3.44 1.61 5.824 7.677 0 0 3.12 10.352 17.987 6.975l.038 10.014s-.21 2.05-1.055 3.422c-19.096-5.24-33.903-20.634-38.48-40.05 8.362-1.947 14.104-1.746 19.623-1.94C35.35 83.99 43.826 87.42 57.25 88.813c-1.914 1.294-3.942 4.105-4.72 7.78zm-2.118 2.952c0 .402-.458.713-1.012.72-.57 0-1.026-.31-1.026-.704 0-.39.457-.714 1.012-.714.568-.008 1.026.317 1.026.7zm-3.342.577c.013.38-.445.706-1.012.706-.57 0-1.026-.316-1.026-.706 0-.396.457-.716 1.026-.716.553 0 1.012.313 1.012.716zm-3.287.007c0 .38-.444.705-1.012.712-.582 0-1.025-.326-1.04-.707 0-.402.458-.715 1.026-.715.57 0 1.027.312 1.027.71zm-3.315-1.256c0 .394-.457.713-1.026.713-.555 0-1.012-.312-1.012-.713 0-.384.443-.71 1.012-.71.57-.005 1.026.32 1.026.71zm-6.712-7.155c.555 0 1.026.31 1.026.703 0 .396-.472.71-1.026.716-.683 0-1.026-.427-1.026-.708 0-.395.457-.713 1.026-.713zm-1.733-.626c-.677.007-1.03-.438-1.04-.71 0-.395.47-.706 1.025-.706.568-.006 1.026.31 1.026.7.015.395-.457.716-1.01.716zm3.314 2.98c.554 0 1.026.318 1.026.707 0 .397-.458.717-1.013.722-.568 0-1.04-.316-1.04-.706 0-.396.46-.722 1.027-.722zm1.747 2.207c.556 0 1.013.317 1.013.706 0 .404-.443.716-1.013.723-.568 0-1.026-.32-1.026-.716 0-.38.458-.708 1.026-.713zm-6.892-7.47c0 .276-.556.71-1.013.716-.568 0-1.027-.312-1.027-.707s.46-.714 1.026-.714c.555-.008 1.012.31 1.012.705zm27.423 31.572c-.722-.09-1.73-.18-2.436-.293.734-.873 2.22-2.087 2.207-3.84l-.028-11.686s-.417-4.617 1.857-6.238l-.203 19.208s-.58 1.384-1.4 2.848zm7.274.4l-.813-.005c.458-.938 1.45-2.116 1.506-3.613l.083-19.41 1.596-.004.206 19.4c.07 1.46.96 2.615 1.376 3.522-1.112.062-2.83.11-3.955.11zm9.59-.796c-.36-1.366-.602-2.537-.602-2.537l-.168-19.014c2.274 1.76 1.914 6.066 1.914 6.066l.04 11.684c0 1.448 1.23 2.54 1.756 3.356-.776.174-2.163.312-2.94.444zm8.812-2.027c-1.012-.944-1.654-2.834-1.654-2.834l-.053-14.43c-.013-5.972-3.63-10.22-6.085-11.884 14.285-1.47 22.23-5.02 25.36-12.217 5.48.13 9.362-.46 17.448 1.393-4.09 18.632-17.184 33.827-35.016 39.97zm35.126-40.423c-8-1.837-11.843-1.275-17.348-1.413.29-.728.555-1.483.777-2.26 5.532-.26 9.54-1.16 17.223-.1-.18 1.277-.388 2.525-.652 3.773zm-16.434-4.152c1.04-3.836 1.358-8.238 1.332-13.147-.014-7.044-4.086-13.375-8.384-17.64.735-2.427 2.317-6.914-.456-13.8 0 0-4.057-1.717-15.013 5.674-4.3-1.06-8.875-1.567-13.45-1.56-5.05.02-10.14.68-14.882 2.004-11.356-7.697-15.647-6.095-15.647-6.095-3.232 8.19-.693 13.53-.083 15.034-3.798 4.16-7.33 10.166-7.316 16.656.028 4.895.596 9.29 1.97 13.104-5.7-.18-11.11-.776-19.083.46-.374-2.573-.567-5.202-.567-7.886C10.39 36.038 34.797 11.59 64.89 11.59c30.328 0 54.72 24.45 54.72 54.596 0 2.414-.18 4.785-.485 7.115-7.613-1.06-11.593-.165-17.14.085z"/>
</svg>
