<svg class="upcase-arrow" xmlns="http://www.w3.org/2000/svg" viewBox="0 0 512 512"><circle opacity=".04" fill="#FFF" cx="256" cy="256" r="256"/><linearGradient id="a" gradientUnits="userSpaceOnUse" x1="-292.304" y1="5.254" x2="-292.304" y2="5.816" gradientTransform="matrix(336.1344 0 0 273.7248 98509.844 -1289.406)"><stop offset="0" stop-color="#3FBCFF"/><stop offset="1" stop-color="#A2F6F9"/></linearGradient><path fill="url(#a)" d="M248.8 152.8c-21.6 31.2-83.2 120.8-103.2 152-2.4 4-1.6 8.8 1.6 12 4.8 4 11.2 8.8 16.8 12.8 4 2.4 8.8 2.4 12 0 35.2-30.4 42.4-36 64-55.2 8.8-8 21.6-8 30.4 0 28 24.8 40.8 35.2 64.8 56 3.2 3.2 8.8 3.2 12 .8 5.6-4 12-8.8 17.6-12.8 4-3.2 4.8-8 2.4-12-20-31.2-81.6-120.8-103.2-152-4-7.2-12-7.2-15.2-1.6z"/></svg>