<?xml version="1.0" encoding="utf-8"?>
<svg version="1.1" id="Layer_1" xmlns="http://www.w3.org/2000/svg" xmlns:xlink="http://www.w3.org/1999/xlink" x="0px" y="0px" viewBox="0 0 512 512" enable-background="new 0 0 512 512" xml:space="preserve">
<circle opacity="4.000000e-02" fill="#FFFFFF" enable-background="new    " cx="256" cy="256" r="256"/>
<linearGradient id="chevron_1_" gradientUnits="userSpaceOnUse" x1="-292.3041" y1="5.2541" x2="-292.3041" y2="5.8158" gradientTransform="matrix(336.1344 0 0 273.7248 98509.8438 -1289.4062)">
<stop  offset="0" style="stop-color:#3FBCFF"/>
<stop  offset="1" style="stop-color:#A2F6F9"/>
</linearGradient>
<path id="chevron" fill="url(#chevron_1_)" d="M248.8,152.8c-21.6,31.2-83.2,120.8-103.2,152c-2.4,4-1.6,8.8,1.6,12c4.8,4,11.2,8.8,16.8,12.8c4,2.4,8.8,2.4,12,0c35.2-30.4,42.4-36,64-55.2c8.8-8,21.6-8,30.4,0c28,24.8,40.8,35.2,64.8,56c3.2,3.2,8.8,3.2,12,0.8c5.6-4,12-8.8,17.6-12.8c4-3.2,4.8-8,2.4-12c-20-31.2-81.6-120.8-103.2-152C260,147.2,252,147.2,248.8,152.8L248.8,152.8L248.8,152.8z"/>
</svg>
