<?xml version="1.0" encoding="UTF-8" standalone="no"?>
<svg width="11px" height="15px" viewBox="0 0 11 15" version="1.1" xmlns="http://www.w3.org/2000/svg" xmlns:xlink="http://www.w3.org/1999/xlink">
    <defs></defs>
    <g id="Page-1" stroke="none" stroke-width="1" fill="none" fill-rule="evenodd">
        <g id="lock" fill="#FFFFFF">
            <path d="M10.371429,5.677966 L9.742857,5.677966 L9.742857,5.338983 L9.428571,5.338983 L9.428571,4.152542 C9.428571,1.862881 7.701571,0 5.578571,0 C3.455729,0 1.728571,1.862881 1.728571,4.152542 L1.728571,5.338983 L1.414286,5.338983 L1.414286,5.677966 L0.628571,5.677966 C0.281443,5.677966 0,5.981525 0,6.355932 L0,14.322034 C0,14.696441 0.281443,15 0.628571,15 L10.371429,15 C10.718557,15 11,14.696441 11,14.322034 L11,6.355932 C11,5.981525 10.718557,5.677966 10.371429,5.677966 L10.371429,5.677966 L10.371429,5.677966 Z M6.039742,10.34852 C6.059496,10.407401 6.044408,10.469737 6.044408,10.535691 L6.044408,11.804441 C6.044408,12.115954 5.861176,12.368421 5.566729,12.368421 L5.433427,12.368421 C5.138824,12.368421 4.955592,12.115954 4.955592,11.804441 L4.955592,10.535691 C4.955592,10.469737 4.940504,10.407237 4.960258,10.34852 C4.699253,10.15773 4.5,9.839474 4.5,9.478454 C4.5,8.894572 4.947659,8.421053 5.5,8.421053 C6.052341,8.421053 6.5,8.894408 6.5,9.478454 C6.5,9.839309 6.300747,10.15773 6.039742,10.34852 L6.039742,10.34852 L6.039742,10.34852 Z M8,5.445757 L7.693548,5.445757 L7.693548,5.789474 L3.556452,5.789474 L3.556452,5.445757 L3.25,5.445757 L3.25,4.24275 C3.25,2.773878 4.315379,1.578947 5.625,1.578947 C6.934621,1.578947 8,2.773878 8,4.24275 L8,5.445757 L8,5.445757 Z" id="Shape"></path>
        </g>
    </g>
</svg>