<?xml version="1.0" encoding="UTF-8" standalone="no"?>
<svg width="18px" height="24px" viewBox="0 0 18 24" version="1.1" xmlns="http://www.w3.org/2000/svg" xmlns:xlink="http://www.w3.org/1999/xlink" xmlns:sketch="http://www.bohemiancoding.com/sketch/ns">
    <!-- Generator: Sketch 3.0.4 (8053) - http://www.bohemiancoding.com/sketch -->
    <title>Group</title>
    <desc>Created with Sketch.</desc>
    <defs></defs>
    <g id="Page-1" stroke="none" stroke-width="1" fill="none" fill-rule="evenodd" sketch:type="MSPage">
        <g id="Group" sketch:type="MSLayerGroup" transform="translate(1.000000, 1.000000)">
            <path d="M3.12044245,7.97043657 C3.1088421,7.83121229 3.1029271,7.69039579 3.1029271,7.54821422 L3.1029271,5.06329024 C3.1029271,2.26046096 5.40413375,-0.0137296598 8.24281601,-0.0137296598 L8.62540104,-0.0137296598 C11.464843,-0.0137296598 13.76529,2.25932958 13.76529,5.06329024 L13.76529,7.54821422 C13.76529,7.69039122 13.7593686,7.83120795 13.7477561,7.97043657 L13.97289,7.97043657 C15.6253464,7.97043657 16.9639988,9.31152898 16.9639988,10.9658503 L16.9639988,19.0183159 C16.9639988,20.6671997 15.6248338,22.0137297 13.97289,22.0137297 L2.89532705,22.0137297 C1.24287061,22.0137297 -0.0957817579,20.6726372 -0.0957817579,19.0183159 L-0.0957817579,10.9658503 C-0.0957817579,9.31696655 1.24338327,7.97043657 2.89532705,7.97043657 L3.12044245,7.97043657 Z M11.4936574,7.97043657 C11.514291,7.83263975 11.5249799,7.69165383 11.5249799,7.54821422 L11.5249799,5.06329024 C11.5249799,3.48126042 10.2272653,2.19928809 8.62540104,2.19928809 L8.24281601,2.19928809 C6.64187058,2.19928809 5.34323718,3.48223459 5.34323718,5.06329024 L5.34323718,7.54821422 C5.34323718,7.69166613 5.35390713,7.83265094 5.37450629,7.97043657 L11.4936574,7.97043657 Z" id="Rectangle-3" fill="#999999" sketch:type="MSShapeGroup"></path>
            <path d="M9.09755971,14.9421536 C9.56446061,14.7043269 9.88372093,14.2233124 9.88372093,13.6686391 C9.88372093,12.8777934 9.23470735,12.2366864 8.43410853,12.2366864 C7.6335097,12.2366864 6.98449612,12.8777934 6.98449612,13.6686391 C6.98449612,14.1980816 7.27537225,14.6604141 7.70787532,14.9082055 L6.94849494,17.704142 L9.84771974,17.704142 L9.09755971,14.9421536 Z" id="Oval-1" fill="#FFFFFF" sketch:type="MSShapeGroup"></path>
        </g>
    </g>
</svg>