<?xml version="1.0" encoding="UTF-8" standalone="no"?>
<svg width="183px" height="182px" viewBox="0 0 183 182" version="1.1" xmlns="http://www.w3.org/2000/svg" xmlns:xlink="http://www.w3.org/1999/xlink">
    <defs></defs>
    <g id="Page-1" stroke="none" stroke-width="1" fill="none" fill-rule="evenodd">
        <g id="Upcase---Explore" transform="translate(-570.000000, -1637.000000)">
            <rect id="Rectangle-352" fill="#FFFFFF" x="-11" y="8" width="1140" height="2811"></rect>
            <g id="grid" transform="translate(99.000000, 889.000000)"></g>
            <g id="Topics" transform="translate(92.000000, 857.000000)">
                <g id="Analytics" transform="translate(478.000000, 780.000000)">
                    <g>
                        <path d="M91.5860806,182.350598 C142.080686,182.350598 183.014652,141.446191 183.014652,90.9880478 C183.014652,40.5299049 142.080686,-0.374501992 91.5860806,-0.374501992 C41.0914749,-0.374501992 0.157509158,40.5299049 0.157509158,90.9880478 C0.157509158,141.446191 41.0914749,182.350598 91.5860806,182.350598 Z" id="Oval-221" fill="#EFFFB3"></path>
                        <path d="M47.51967,110.219418 C47.51967,110.219418 51.3745445,107.154984 54.539118,103.734059 C57.3948642,100.646978 60.8110021,96.4566457 63.2411452,94.1919468 C65.77038,91.8349024 70.4613782,87.7033747 70.4613782,87.7033747 L77.108169,83.6924911 L86.7779805,94.8633722 L100.779129,115.440635 C100.779129,115.440635 102.270561,111.104479 111.374961,98.6156446 C120.479362,86.1268099 125.426155,81.5091353 129.199058,75.8899812 C132.971961,70.2708271 134.854774,63.6461044 134.854774,63.6461044 L138.558858,65.7969146 C138.558858,65.7969146 136.37826,71.0758831 132.100805,77.3525 C127.942403,83.4544214 121.733409,90.4917378 118.363087,95.0545197 C111.525952,104.310714 102.724335,121.089925 102.724335,121.089925 L96.9666208,117.5288 C96.9666208,117.5288 89.5456027,102.986335 87.6349314,101.494903 C85.7242602,100.003471 77.0848779,88.859897 77.0848779,88.859897 L75.1147743,88.2085501 C75.1147743,88.2085501 69.1541974,93.1617599 63.1616343,99.0935132 C57.1175351,105.07628 51.0266293,112.042876 47.6248815,113.190235 C40.8503914,115.47517 47.51967,110.219418 47.51967,110.219418 Z" id="Path-97" fill="#B6DD26"></path>
                        <g id="Path-47-+-Path-39" transform="translate(35.253305, 108.826773)">
                            <path d="M0.306053472,4.69399645 C-0.712997462,9.19391248 0.886098533,13.039065 4.0125699,14.2599456 C7.13904127,15.4808263 15.7887165,15.1034793 14.4361434,5.77300866 C13.0835702,-3.55746198 1.32510441,0.194080417 0.306053472,4.69399645 Z" id="Path-47" fill="#AFD620"></path>
                            <path d="M1.0633823,5.34057674 C0.261048417,8.88351556 1.52007175,11.9109365 3.98165029,12.8721779 C6.44322884,13.8334192 13.2534159,13.536321 12.1884885,6.1901202 C11.1235612,-1.15608056 1.86571618,1.79763792 1.0633823,5.34057674 Z" id="Path-39" fill="#DCF778"></path>
                        </g>
                        <g id="Path-48-+-Path-40" transform="translate(66.505108, 75.930138)">
                            <path d="M1.9508852,6.33882818 C0.931834269,10.8387442 2.53093026,14.6838967 5.65740163,15.9047774 C8.783873,17.125658 17.4335482,16.748311 16.0809751,7.41784039 C14.728402,-1.91263025 2.96993614,1.83891215 1.9508852,6.33882818 Z" id="Path-48" fill="#AFD620" transform="translate(8.934103, 9.025498) rotate(72.000000) translate(-8.934103, -9.025498) "></path>
                            <path d="M2.70821403,6.98540847 C1.90588015,10.5283473 3.16490348,13.5557683 5.62648202,14.5170096 C8.08806057,15.4782509 14.8982477,15.1811527 13.8333203,7.83495193 C12.7683929,0.488751167 3.51054791,3.44246966 2.70821403,6.98540847 Z" id="Path-40" fill="#DCF778" transform="translate(8.206342, 9.100716) rotate(72.000000) translate(-8.206342, -9.100716) "></path>
                        </g>
                        <g id="Path-49-+-Path-41" transform="translate(66.505108, 75.930138)">
                            <path d="M1.9508852,6.33882818 C0.931834269,10.8387442 2.53093026,14.6838967 5.65740163,15.9047774 C8.783873,17.125658 17.4335482,16.748311 16.0809751,7.41784039 C14.728402,-1.91263025 2.96993614,1.83891215 1.9508852,6.33882818 Z" id="Path-49" fill="#AFD620" transform="translate(8.934103, 9.025498) rotate(72.000000) translate(-8.934103, -9.025498) "></path>
                            <path d="M2.70821403,6.98540847 C1.90588015,10.5283473 3.16490348,13.5557683 5.62648202,14.5170096 C8.08806057,15.4782509 14.8982477,15.1811527 13.8333203,7.83495193 C12.7683929,0.488751167 3.51054791,3.44246966 2.70821403,6.98540847 Z" id="Path-41" fill="#DCF778" transform="translate(8.206342, 9.100716) rotate(72.000000) translate(-8.206342, -9.100716) "></path>
                        </g>
                        <g id="Path-50-+-Path-42" transform="translate(92.000000, 107.181941)">
                            <path d="M3.59571693,7.16124405 C2.576666,11.6611601 4.17576199,15.5063126 7.30223336,16.7271932 C10.4287047,17.9480739 19.07838,17.5707269 17.7258068,8.24025625 C16.3732337,-1.09021439 4.61476787,2.66132801 3.59571693,7.16124405 Z" id="Path-50" fill="#AFD620" transform="translate(10.578935, 9.847914) rotate(-215.000000) translate(-10.578935, -9.847914) "></path>
                            <path d="M4.35304576,7.80782434 C3.55071188,11.3507632 4.80973521,14.3781841 7.27131375,15.3394255 C9.7328923,16.3006668 16.5430794,16.0035686 15.478152,8.65736779 C14.4132246,1.31116703 5.15537965,4.26488552 4.35304576,7.80782434 Z" id="Path-42" fill="#DCF778" transform="translate(9.851174, 9.923132) rotate(-215.000000) translate(-9.851174, -9.923132) "></path>
                        </g>
                        <g id="Path-51-+-Path-43" transform="translate(128.186298, 52.080078)">
                            <path d="M3.59571693,7.16124405 C2.576666,11.6611601 4.17576199,15.5063126 7.30223336,16.7271932 C10.4287047,17.9480739 19.07838,17.5707269 17.7258068,8.24025625 C16.3732337,-1.09021439 4.61476787,2.66132801 3.59571693,7.16124405 Z" id="Path-51" fill="#AFD620" transform="translate(10.578935, 9.847914) rotate(-215.000000) translate(-10.578935, -9.847914) "></path>
                            <path d="M4.35304576,7.80782434 C3.55071188,11.3507632 4.80973521,14.3781841 7.27131375,15.3394255 C9.7328923,16.3006668 16.5430794,16.0035686 15.478152,8.65736779 C14.4132246,1.31116703 5.15537965,4.26488552 4.35304576,7.80782434 Z" id="Path-43" fill="#DCF778" transform="translate(9.851174, 9.923132) rotate(-215.000000) translate(-9.851174, -9.923132) "></path>
                        </g>
                    </g>
                </g>
            </g>
        </g>
    </g>
</svg>