<svg width="183" height="184" viewBox="0 0 183 184" xmlns="http://www.w3.org/2000/svg">
    <g fill="none" fill-rule="evenodd">
        <g>
            <path d="M91.586 183.35c50.495 0 91.43-40.904 91.43-91.362 0-50.458-40.935-91.363-91.43-91.363C41.09.625.158 41.53.158 91.988S41.09 183.35 91.586 183.35z" fill="#EFFFB3"/>
            <path d="M47.52 111.22s3.855-3.065 7.02-6.486c2.855-3.087 6.27-7.277 8.7-9.542 2.53-2.357 7.22-6.49 7.22-6.49l6.648-4.01 9.67 11.17 14 20.58s1.493-4.338 10.597-16.826c9.104-12.49 14.05-17.107 17.824-22.726 3.772-5.62 5.655-12.244 5.655-12.244l3.704 2.15s-2.182 5.28-6.46 11.556c-4.158 6.102-10.367 13.14-13.737 17.703-6.837 9.256-15.64 26.035-15.64 26.035l-5.756-3.56s-7.42-14.544-9.332-16.035c-1.91-1.492-10.55-12.635-10.55-12.635l-1.97-.65s-5.96 4.952-11.953 10.884c-6.044 5.982-12.135 12.95-15.537 14.096-6.775 2.285-.105-2.97-.105-2.97z" fill="#B6DD26"/>
            <g>
                <path d="M35.56 114.52c-1.02 4.5.58 8.346 3.706 9.567 3.126 1.22 11.776.843 10.423-8.487-1.353-9.33-13.112-5.58-14.13-1.08z" fill="#AFD620"/>
                <path d="M36.317 115.167c-.803 3.543.456 6.57 2.918 7.532 2.462.96 9.272.663 8.207-6.683-1.065-7.346-10.323-4.393-11.125-.85z" fill="#DCF778"/>
            </g>
            <g>
                <path d="M75.837 78.485c-4.595.42-7.757 3.13-7.952 6.48-.195 3.35 2.836 11.46 11.292 7.29 8.455-4.168 1.254-14.19-3.34-13.77z" fill="#AFD620"/>
                <path d="M75.024 80.15c-3.618.33-6.108 2.464-6.26 5.102-.155 2.638 2.232 9.022 8.89 5.74 6.657-3.283.987-11.175-2.63-10.843z" fill="#DCF778"/>
            </g>
            <g>
                <path d="M75.837 78.485c-4.595.42-7.757 3.13-7.952 6.48-.195 3.35 2.836 11.46 11.292 7.29 8.455-4.168 1.254-14.19-3.34-13.77z" fill="#AFD620"/>
                <path d="M75.024 80.15c-3.618.33-6.108 2.464-6.26 5.102-.155 2.638 2.232 9.022 8.89 5.74 6.657-3.283.987-11.175-2.63-10.843z" fill="#DCF778"/>
            </g>
            <g>
                <path d="M109.84 116.222c-1.748-4.27-5.265-6.502-8.526-5.707-3.26.795-10.13 6.07-3.665 12.934 6.462 6.864 13.94-2.958 12.19-7.228z" fill="#AFD620"/>
                <path d="M107.568 116.68c-1.376-3.36-4.145-5.118-6.713-4.492-2.568.625-7.975 4.778-2.886 10.183 5.088 5.406 10.975-2.327 9.598-5.69z" fill="#DCF778"/>
            </g>
            <g>
                <path d="M146.027 61.12c-1.75-4.27-5.266-6.502-8.527-5.707-3.26.795-10.13 6.07-3.665 12.934 6.463 6.865 13.94-2.957 12.192-7.227z" fill="#AFD620"/>
                <path d="M143.754 61.58c-1.376-3.363-4.145-5.12-6.713-4.494-2.567.625-7.974 4.778-2.885 10.183 5.09 5.404 10.976-2.33 9.6-5.69z" fill="#DCF778"/>
            </g>
        </g>
    </g>
</svg>
