<svg width="184" height="184" viewBox="0 0 184 184" xmlns="http://www.w3.org/2000/svg">
    <g fill="none" fill-rule="evenodd">
        <g>
            <path d="M92 183.363c50.495 0 91.43-40.905 91.43-91.363S142.494.637 92 .637C41.505.637.57 41.542.57 92S41.506 183.363 92 183.363z" fill="#E5FEFF"/>
            <path d="M103.53 96.48c.206-4.402-1.39-7.5-4.383-8.94-2.993-1.44-7.357-3.596-11.12-1.225-3.76 2.37-20.5 16.3-20.5 16.3s-7.52 7.262-10.153 13.15c-2.746 6.142-1.7 11.726-1.7 13.723 0 3.912 6.008 11.73 6.008 11.73l1.756-5.636s-3.816 11.634 13.67 11.63c2.608-.002 6.773-.574 6.134-.897-1.086-.55-1.342-2.773-1.952-3.9-.61-1.127 0-1.196 0-1.196s-1.52 7.557 15.128 5.99c5.43-.51 4.16-2.87 4.16-2.87s3.188.126 4.567-.554c1.378-.68 4.258-1.99 1.522-2.567-2.736-.577-6.09-8.54-6.09-8.54s-1.43-4.596-1.43-17.637c0-7.465 4.178-14.158 4.383-18.562z" fill="#40E0E5"/>
            <path d="M74.574 101.427s-11.09 31.943-11.947 33.98c-.858 2.037-6.683-6.52-2.632-18.045 4.052-11.524 14.58-15.935 14.58-15.935z" fill="#C3FDFF"/>
            <path d="M74.447 105.337c2.166-5.018-21.372 30.66-3.262 37.866 4.187 1.666 9.626 1.647 9.626 1.647s-4.297-14.955 2.686-33.424c2.07-5.47-11.214-1.072-9.05-6.09z" fill="#C3FDFF"/>
            <path d="M81.165 111.343s-12.993 36.65 13.688 33.29c9.82-1.238-2.857-1.946-3.378-12.78-.522-10.833 1.682-22.427 1.682-22.427l-11.992 1.917z" fill="#C3FDFF"/>
            <path d="M92.415 138.792c-5.697-5.186-1.49-23.22-1.49-27.726 0-1.037 8.406-12.763 7.33-1.037-2.795 30.49 7.172 31.598 7.172 31.598s-6.13 3.428-13.012-2.836z" fill="#C3FDFF"/>
            <path d="M94.732 96.693c-4.29-1.815-5.77-7.836-5.77-7.836s-12.65 8.246-13.205 12.138c-.553 3.89 4.644 7.795 9.993 9.427 5.35 1.632 11.743 1.804 12.895 0C100.855 106.964 102 94.53 102 94.53s-2.98 3.978-7.268 2.163z" fill="#C3FDFF"/>
            <path d="M88.517 92.472c.616 1.728 2.362 3.478 4.77 4.55 3.652 1.626 7.442 1.08 8.467-1.222 1.024-2.3-1.105-5.484-4.757-7.11-3.65-1.625-7.78-1.228-8.804 1.073-.348.782.007 1.818.324 2.71z" fill="#C3FDFF"/>
            <path d="M79.367 100.406c-2.08-3.348-.646-3.784-.646-3.784l-4.9 3.784-8.903 7.383s4.53 8.654 13.804 10.393c9.275 1.738 20.122 0 20.122 0s4.288-16.747 2.403-15.538c-1.884 1.208-6.745 2.442-10.29 2.78-4.332.416-9.507-1.67-11.588-5.02z" fill="#40E0E5"/>
            <path d="M97.35 87.236s.065 5.49 2.966 1.578c2.902-3.91 28.807-50.18 28.807-50.18s1.673-6.41-2.876-1.842c-4.55 4.566-28.897 50.444-28.897 50.444z" fill="#40E0E5"/>
        </g>
    </g>
</svg>
