<?xml version="1.0" encoding="UTF-8" standalone="no"?>
<svg width="182px" height="182px" viewBox="0 0 182 182" version="1.1" xmlns="http://www.w3.org/2000/svg" xmlns:xlink="http://www.w3.org/1999/xlink">
    <defs></defs>
    <g id="Page-1" stroke="none" stroke-width="1" fill="none" fill-rule="evenodd">
        <g id="Upcase---Explore" transform="translate(-102.000000, -905.000000)">
            <rect id="Rectangle-352" fill="#FFFFFF" x="-11" y="8" width="1140" height="2811"></rect>
            <g id="grid" transform="translate(99.000000, 889.000000)"></g>
            <g id="Topics" transform="translate(92.000000, 857.000000)">
                <g id="Clean-Code" transform="translate(8.000000, 45.000000)">
                    <g transform="translate(2.000000, 3.000000)">
                        <path d="M91,182.36255 C141.494606,182.36255 182.428571,141.458143 182.428571,91 C182.428571,40.541857 141.494606,-0.362549801 91,-0.362549801 C40.5053943,-0.362549801 -0.428571429,40.541857 -0.428571429,91 C-0.428571429,141.458143 40.5053943,182.36255 91,182.36255 Z" id="Oval-218" fill="#E5FEFF"></path>
                        <path d="M102.530275,95.4814456 C102.735877,91.0779534 101.140626,87.9785156 98.1474623,86.5390626 C95.1542982,85.0996095 90.7895498,82.9438477 87.027831,85.3149414 C83.2661123,87.6860352 66.5258789,101.614747 66.5258789,101.614747 C66.5258789,101.614747 59.0068046,108.876964 56.3740234,114.765137 C53.6278485,120.906915 54.6743164,126.490503 54.6743164,128.487794 C54.6743164,132.399903 60.6821289,140.218751 60.6821289,140.218751 L62.4384765,134.582032 C62.4384765,134.582032 58.6215827,146.215798 76.1069345,146.210938 C78.715568,146.210213 82.8805039,145.638098 82.2421876,145.31543 C81.1559179,144.766322 80.9004164,142.541991 80.2900392,141.41504 C79.679662,140.288088 80.2900392,140.218751 80.2900392,140.218751 C80.2900392,140.218751 78.770997,147.777344 95.418456,146.210938 C100.848965,145.699966 99.5771474,143.340333 99.5771474,143.340333 C99.5771474,143.340333 102.765618,143.466333 104.14453,142.786133 C105.523443,142.105934 108.402835,140.794922 105.666991,140.218751 C102.931148,139.642579 99.5771467,131.680665 99.5771467,131.680665 C99.5771467,131.680665 98.1474616,127.084386 98.1474623,114.042969 C98.1474626,106.578199 102.324672,99.8849378 102.530275,95.4814456 Z" id="Path-89" fill="#40E0E5"></path>
                        <path d="M73.5740967,100.427002 C73.5740967,100.427002 62.4850967,132.369774 61.6268854,134.407054 C60.7686742,136.444333 54.9435581,127.886232 58.9953692,116.362141 C63.0471803,104.83805 73.5740967,100.427002 73.5740967,100.427002 Z" id="Path-26" fill="#C3FDFF"></path>
                        <path d="M73.4471816,104.336686 C75.6126246,99.3193612 52.0754806,134.996075 70.185262,142.202739 C74.3719148,143.868789 79.8110729,143.849607 79.8110729,143.849604 C79.811073,143.849602 75.5127617,128.894887 82.4961503,110.425987 C84.5645625,104.955677 71.2817386,109.354011 73.4471816,104.336686 Z" id="Path-27" fill="#C3FDFF"></path>
                        <path d="M80.1653496,110.343092 C80.1653496,110.343092 67.1723439,146.993112 93.8528236,143.631765 C103.671611,142.394742 90.9963038,141.687265 90.4745575,130.853414 C89.9528113,120.019562 92.1573484,108.425903 92.1573484,108.425903 L80.1653496,110.343092 Z" id="Path-28" fill="#C3FDFF"></path>
                        <path d="M91.41527,137.791632 C85.7184372,132.60612 89.9242143,114.572967 89.924133,110.066499 C89.9241143,109.029175 98.3311973,97.3029165 97.2559282,109.029175 C94.4600461,139.519436 104.427002,140.628484 104.427002,140.628484 C104.427002,140.628484 98.2972057,144.055878 91.41527,137.791632 Z" id="Path-29" fill="#C3FDFF"></path>
                        <path d="M93.7315179,95.6931953 C89.4433885,93.878395 87.9624844,87.8572998 87.9624844,87.8572998 C87.9624844,87.8572998 75.3109866,96.1032846 74.7574096,99.9948736 C74.2038326,103.886463 79.4011077,107.789569 84.7504621,109.421979 C90.0998166,111.054389 96.4928094,111.225637 97.6451348,109.421979 C99.8546744,105.963534 100.998901,93.5288256 100.998901,93.5288256 C100.998901,93.5288256 98.0196472,97.5079956 93.7315179,95.6931953 Z" id="Path-25" fill="#C3FDFF"></path>
                        <path d="M87.5172034,91.4718893 C88.1325461,93.199602 89.8790468,94.9500436 92.2879616,96.0225615 C95.9390237,97.6481191 99.7291891,97.1007968 100.753533,94.8000828 C101.777877,92.4993689 99.6485009,89.316497 95.9974388,87.6909394 C92.3463767,86.0653819 88.2175155,86.4619072 87.1931717,88.7626212 C86.8446742,89.5453593 87.1999045,90.5810011 87.5172034,91.4718893 Z" id="Oval-3" fill="#C3FDFF"></path>
                        <path d="M78.3667189,99.4060808 C76.2855821,96.0580983 77.7211914,95.6220703 77.7211914,95.6220703 L72.821343,99.4060808 L63.9169922,106.788725 C63.9169922,106.788725 68.4477324,115.443902 77.7211914,117.182617 C86.9946505,118.921332 97.8417969,117.182617 97.8417969,117.182617 C97.8417969,117.182617 102.129578,100.435886 100.245117,101.644531 C98.3606566,102.853177 93.5000577,104.087117 89.9550498,104.426452 C85.6232235,104.841103 80.4478558,102.754063 78.3667189,99.4060808 Z" id="Path-30" fill="#40E0E5"></path>
                        <path d="M96.3496094,86.2363281 C96.3496094,86.2363281 96.415262,91.7259064 99.3164062,87.8144531 C102.217551,83.9029999 128.123399,37.6354272 128.123399,37.6354272 C128.123399,37.6354272 129.795899,31.2254968 125.246913,35.7919011 C120.697927,40.3583053 96.3496094,86.2363281 96.3496094,86.2363281 Z" id="Path-31" fill="#40E0E5"></path>
                    </g>
                </g>
            </g>
        </g>
    </g>
</svg>