<svg width="183" height="184" viewBox="0 0 183 184" xmlns="http://www.w3.org/2000/svg">
    <g fill="none" fill-rule="evenodd">
        <g>
            <path d="M91.586 183.35c50.495 0 91.43-40.904 91.43-91.362 0-50.458-40.935-91.363-91.43-91.363C41.09.625.158 41.53.158 91.988S41.09 183.35 91.586 183.35z" fill="#FFD3BC"/>
            <path d="M72.787 66.73L59.5 60.255s-3.857 2.697-8.494 12.973c-4.637 10.277-5.16 16.383-5.752 23.12-.65 7.408.776 14.63 2.622 20.054.82 2.41 9.038 13.77 16.268 18.37 7.23 4.603 17.81 5.754 23.39 6.524 17.338 2.393 32.6-6.63 32.6-6.63s11.66-10.317 11.59-13.28c-.01-.43-10.61-4.85-10.61-4.85s-7.685 7.547-15.67 10.09c-7.983 2.543-13.224 1.514-22.52.222-9.294-1.293-12.09-5.607-17.145-8.767-2.652-1.658-5.79-7.123-6.745-13.32-.64-4.158.043-9.936.755-14.16 2.852-16.917 12.997-23.87 12.997-23.87z" stroke="#FA7A37" stroke-width="3" fill="#FC8F56"/>
            <path d="M87.377 44.866c-.516.055-7.416 1.08-13.43 4.658C67.93 53.1 63.008 57.84 63.008 57.84s12.3 5.06 12.3 6.098c0 1.037 8.022-5.407 16.332-5.495 8.31-.09 10.3.94 15.955 3.08 5.655 2.14 11.66 5.213 17.408 21.525 4.586 13.01-1.49 26.367-2.793 29.922-.187.51 2.877 1.666 5.208 1.865 1.798.153 5.64 2.298 6.96 1.46 2.163-1.375 8.786-30.613 2.09-42.715-6.695-12.103-8.78-17.743-23.348-24.262-14.567-6.52-19.984-5.067-25.745-4.452z" stroke="#FA7A37" stroke-width="3" fill="#FC8F56"/>
            <path d="M78.48 70.064c2.01-.18 5.43-.017 7.986 8.515s-6.507 5.756-10.442 21.924c-3.934 16.17-.883 15.213-.883 15.213s-9.543.572-8.613-19.343c.93-19.915 10.007-26.135 11.954-26.31z" stroke="#FA7A37" stroke-width="3" fill="#FC8F56"/>
            <path d="M85.13 66.417s2.594-.03 6.056 5.862.73 23.584 12.69 33.033c11.962 9.45 14.24 6.236 14.24 6.236s5.76-12.11 1.49-24.055c-4.27-11.944-4.95-18.074-17.834-21.666-12.884-3.593-16.64.587-16.64.587z" stroke="#FA7A37" stroke-width="3" fill="#FC8F56"/>
            <path d="M105.246 114.33c-5.287-2.207-4.566-2.654-8.973-7.587-4.407-4.933-7.31-15.54-7.31-15.54s-12.29 6.893-7.905 25.97c.28 1.222 8.192 4.15 15.148 3.862 5.738-.237 12.01-3.816 13.833-5.937 1.464-1.705.494 1.44-4.794-.767z" stroke="#FA7A37" stroke-width="3" fill="#FC8F56"/>
        </g>
    </g>
</svg>
