<?xml version="1.0" encoding="UTF-8" standalone="no"?>
<svg width="183px" height="182px" viewBox="0 0 183 182" version="1.1" xmlns="http://www.w3.org/2000/svg" xmlns:xlink="http://www.w3.org/1999/xlink">
    <defs></defs>
    <g id="Page-1" stroke="none" stroke-width="1" fill="none" fill-rule="evenodd">
        <g id="Upcase---Explore" transform="translate(-100.000000, -1879.000000)">
            <g id="grid" transform="translate(99.000000, 889.000000)"></g>
            <g id="Topics" transform="translate(92.000000, 857.000000)">
                <g id="Clojure" transform="translate(8.000000, 1022.000000)">
                    <g>
                        <path d="M91.5860806,182.350598 C142.080686,182.350598 183.014652,141.446191 183.014652,90.9880478 C183.014652,40.5299049 142.080686,-0.374501992 91.5860806,-0.374501992 C41.0914749,-0.374501992 0.157509158,40.5299049 0.157509158,90.9880478 C0.157509158,141.446191 41.0914749,182.350598 91.5860806,182.350598 Z" id="Oval-220" fill="#FFD3BC"></path>
                        <path d="M72.7872263,65.7310375 L59.5004041,59.2538632 C59.5004041,59.2538632 55.643163,61.9507235 51.0058771,72.2272598 C46.3685911,82.5037961 45.8468242,88.6101119 45.2542571,95.3471615 C44.6026721,102.755202 46.0303889,109.976437 47.8759499,115.401207 C48.6956364,117.810561 56.9142211,129.169819 64.1437788,133.771238 C71.3733364,138.372657 81.9545504,139.524316 87.5338154,140.294301 C104.872233,142.687148 120.134409,133.663877 120.134409,133.663877 C120.134409,133.663877 131.79492,123.347 131.723365,120.384847 C131.712982,119.955002 121.112782,115.535408 121.112782,115.535408 C121.112782,115.535408 113.429005,123.081119 105.444964,125.623904 C97.4609239,128.166689 92.2201946,127.138141 82.9250734,125.845553 C73.6299522,124.552964 70.8332908,120.238616 65.7793064,117.079159 C63.1277248,115.421545 59.9891132,109.957192 59.0345948,103.761168 C58.3939332,99.6024687 59.0784925,93.8242833 59.7904527,89.5998707 C62.6415869,72.6826793 72.7872263,65.7310375 72.7872263,65.7310375 Z" id="Path-98" stroke="#FA7A37" stroke-width="3" fill="#FC8F56"></path>
                        <path d="M87.3771025,43.865704 C86.8614929,43.9207313 79.9606617,44.947074 73.945689,48.5237976 C67.9307163,52.1005211 63.0086932,56.8391006 63.0086932,56.8391006 C63.0086932,56.8391006 75.3093502,61.9004153 75.3093502,62.937913 C75.3093502,63.9754107 83.3315373,57.5314124 91.6421153,57.4425748 C99.9526934,57.3537372 101.941217,58.3824066 107.596519,60.5222846 C113.25182,62.6621626 119.257044,65.7362015 125.005494,82.0482179 C129.590577,95.0590202 123.514837,108.41471 122.211503,111.969975 C122.024803,112.47926 125.089223,113.635891 127.420256,113.834944 C129.218073,113.988465 133.059145,116.132998 134.378825,115.294711 C136.542727,113.920157 143.165998,84.6820322 136.470638,72.5796471 C129.775278,60.4772621 127.689698,54.8373913 113.12216,48.3177332 C98.5546225,41.7980751 93.1378619,43.2509003 87.3771025,43.865704 Z" id="Path-99" stroke="#FA7A37" stroke-width="3" fill="#FC8F56"></path>
                        <path d="M78.4808355,69.0642121 C80.4904362,68.884193 83.9090697,69.0466445 86.4656,77.5794818 C89.0221302,86.1123191 79.9591962,83.3356836 76.0244935,99.5043358 C72.0897908,115.672988 75.1412979,114.71705 75.1412979,114.71705 C75.1412979,114.71705 65.596613,115.289437 66.526834,95.3741839 C67.457055,75.4589306 76.5344055,69.2385724 78.4808355,69.0642121 Z" id="Path-100" stroke="#FA7A37" stroke-width="3" fill="#FC8F56"></path>
                        <path d="M85.1305197,65.4168052 C85.1305197,65.4168052 87.7236393,65.3858099 91.1857737,71.2788141 C94.647908,77.1718183 91.915402,94.8642523 103.876751,104.313417 C115.8381,113.762581 118.117362,110.54869 118.117362,110.54869 C118.117362,110.54869 123.875312,98.4392133 119.605275,86.4952021 C115.335238,74.551191 114.656587,68.4212868 101.772365,64.8289878 C88.8881424,61.2366887 85.1305197,65.4168052 85.1305197,65.4168052 Z" id="Path-101" stroke="#FA7A37" stroke-width="3" fill="#FC8F56"></path>
                        <path d="M105.246366,113.330536 C99.9586987,111.122934 100.680431,110.675539 96.2733332,105.742548 C91.866235,100.809557 88.9638239,90.2028603 88.9638239,90.2028603 C88.9638239,90.2028603 76.6740317,97.0964888 81.0584147,116.173368 C81.339232,117.395231 89.2502342,120.322546 96.2057342,120.035328 C101.943926,119.798376 108.216318,116.218946 110.038547,114.098372 C111.503687,112.393352 110.534033,115.538138 105.246366,113.330536 Z" id="Path-102" stroke="#FA7A37" stroke-width="3" fill="#FC8F56"></path>
                    </g>
                </g>
            </g>
        </g>
    </g>
</svg>
