<?xml version="1.0" encoding="UTF-8" standalone="no"?>
<svg width="183px" height="182px" viewBox="0 0 183 182" version="1.1" xmlns="http://www.w3.org/2000/svg" xmlns:xlink="http://www.w3.org/1999/xlink">
    <defs></defs>
    <g id="Page-1" stroke="none" stroke-width="1" fill="none" fill-rule="evenodd">
        <g id="Upcase---Explore" transform="translate(-98.000000, -1397.000000)">
            <g id="grid" transform="translate(99.000000, 889.000000)"></g>
            <g id="Topics" transform="translate(92.000000, 857.000000)">
                <g id="design" transform="translate(6.000000, 540.000000)">
                    <g id="Illustration">
                        <path d="M91.5860806,182.350598 C142.080686,182.350598 183.014652,141.446191 183.014652,90.9880478 C183.014652,40.5299049 142.080686,-0.374501992 91.5860806,-0.374501992 C41.0914749,-0.374501992 0.157509158,40.5299049 0.157509158,90.9880478 C0.157509158,141.446191 41.0914749,182.350598 91.5860806,182.350598 Z" id="Oval-218" fill="#E9E9FF"></path>
                        <path d="M125.200015,50.9021905 C125.200015,50.9021905 123.273559,52.5663149 122.806641,60.0727543 C122.575372,63.7907478 122.480779,69.3964771 122.806641,75.8330082 C123.790399,95.2645674 123.15716,106.861073 123.614797,111.139645 C124.990208,123.998735 121.425344,124.616533 125.200015,125.57275 C128.974686,126.528968 129.358706,123.060393 129.358706,123.060393 L129.358706,61.5745534 C129.358706,61.5745534 128.702771,56.6633913 127.711734,52.4681086 C127.177617,50.2070754 126.062061,47.5507974 125.993472,47.3465266 C125.108536,44.7110483 125.200015,50.9021905 125.200015,50.9021905 Z" id="Rectangle-491" fill="#A8ACFF"></path>
                        <path d="M95.2703283,52.2654717 C85.538883,52.2654717 73.9690569,53.1023857 73.9690569,53.1023857 C73.9690569,53.1023857 73.5158044,53.3414401 63.9382961,53.1023857 C63.1522799,53.0827668 63.2832202,53.6513049 62.8484522,53.7059015 C62.6695941,53.7283618 62.734398,50.9102731 62.0656601,52.2654717 C59.9031873,56.6477269 57.0296818,58.365081 59.6946436,63.3719174 C60.1335532,64.1965253 59.6946436,61.0999456 59.6946436,66.0965267 L59.6946436,77.0730883 L61.3591944,91.9910589 C61.3591944,91.9910589 62.3550148,96.5529283 62.0656602,100.664399 C61.8367903,103.916437 61.3591946,105.193696 62.8484523,109.537934 C63.2576345,110.731539 63.1040101,114.824228 62.8484523,116.295254 C62.2700577,119.624575 62.0656602,122.284512 63.9382961,128.455411 C65.110827,132.319253 65.3714018,133.105328 68.5735502,134.446873 C71.7756986,135.788418 87.0027247,135.402188 94.6106605,135.402188 C101.914734,135.402188 110.467181,136.118216 113.655914,134.44687 C115.088404,133.696043 115.278141,100.664399 115.278141,100.664399 L113.655914,70.001311 C113.655914,70.001311 114.191821,57.8811198 111.385563,56.1067802 C105.748964,52.5428743 105.001774,52.2654717 95.2703283,52.2654717 Z" id="Path-577" fill="#A8ACFF"></path>
                        <path d="M110.982421,57.1527439 C109.34464,51.4978188 96.9784604,51.5963785 97.7324206,52.2127439 C97.8097662,52.2759742 112.4126,48.6489258 114.863673,59.1767575 C114.991377,59.7252722 115.519796,70.8533681 115.647948,71.668945 C115.722847,72.0356116 118.638773,132.686078 116.691405,133.932745 C116.017316,135.766078 98.6106375,137.012744 96.8879655,136.939411 C95.2401922,136.866077 65.280678,136.866077 64.0073987,133.199411 C63.2584108,132.099411 62.3596254,127.699411 62.134929,126.526077 C62.0600302,125.719411 61.5357388,125.279411 60.8616497,124.986077 C60.642681,124.890792 58.3789467,124.448776 56.8171152,121.832746 C55.5886724,119.775134 54.9933296,115.663443 54.8171152,114.137205 C54.4168635,110.67052 59.4385728,108.632744 58.9142813,108.119411 C58.3899898,107.679411 56.2928238,105.992744 55.9183298,105.479411 C55.3940383,104.672744 54.7199493,103.866077 54.120759,103.059411 C52.2482894,98.8794105 54.7199493,94.1127439 55.2442408,93.3794105 C55.5438359,93.0127439 55.7685323,92.7194105 55.9932286,92.3527439 C56.3677226,91.7660772 56.5175201,91.1794105 56.1430262,90.5927439 C53.6713662,90.3727433 53.2219736,87.3454247 52.9223785,86.3920914 C52.4402212,84.2865998 52.9861488,81.7317795 53.6713662,79.8127438 C54.3565835,77.8937081 58.5397873,78.1994105 56.2928238,76.9527439 C55.0195444,76.2927439 54.6450505,74.5327439 54.6450505,74.4594105 C54.6450505,74.4594105 57.6897857,76.7435101 58.9142813,75.9260765 C60.1387769,75.108643 59.5134715,72.0394105 59.5883703,71.1594105 C59.5883703,70.5727439 59.5134715,65.8060772 58.6146861,65.2927439 C58.1652934,64.7060772 56.8171153,64.6327439 56.217925,65.1460772 C52.3231881,66.6127439 54.4203541,74.0927446 54.4203541,74.4594113 C53.6713663,73.7260779 51.0058595,72.2656418 51.3740235,69.255859 C51.7421875,66.2460762 52.6227833,66.0994105 54.9446456,64.5594105 C55.3191396,64.1194105 55.169342,63.6794105 55.0944432,63.2394105 C54.8697468,62.2860772 52.9972772,60.1300908 52.9223784,59.1767575 C52.6976821,56.7567575 55.2442408,57.4460773 55.3940384,57.1527439 C55.8434311,57.6660773 54.4203542,60.8927437 56.3677226,62.5794105 C58.3150909,64.2660773 58.1652934,62.7994105 58.315091,61.8460772 C58.4648885,60.9660772 58.0966821,57.8179271 58.6146859,55.9794103 C59.1326897,54.1408935 60.037763,54.3660772 60.7118521,53.3394105 C61.3110424,52.4594105 61.086346,51.7994105 60.1126618,51.2860772 C58.8393825,50.6260772 57.7907995,50.7727439 56.8171153,51.6527439 C56.2928238,52.5327439 55.8434311,53.3394105 55.3940383,54.2927439 C55.169342,54.8060772 55.0944432,55.3927439 54.8697468,55.9794105 C54.7948481,56.1260772 54.7948481,56.2727439 54.6450505,56.3460772 C54.4203541,55.8327439 54.1956578,55.3194105 54.4203541,54.7327439 C54.6450505,53.4127439 55.2442408,52.2394105 56.0681274,51.2127439 C57.7907995,49.8194105 58.9142813,49.2327439 61.1612448,50.4060772 C62.0600302,50.7727439 62.8839169,51.2860772 63.6329047,51.8727439 C64.232095,52.3127439 64.9061841,52.5327439 65.6551719,52.5327439 C67.3029452,52.6794105 68.8758197,52.8260772 70.523593,52.8994105 C70.6733906,52.8994105 70.9729857,52.8260772 71.0478845,53.1927439 C70.8980869,53.1927439 70.7482894,53.2660772 70.5984918,53.2660772 C69.9993015,53.2660772 69.47501,53.2660772 68.8758197,53.1927439 C68.1268319,53.1194105 67.4527428,53.0460772 66.7037549,53.0460772 C66.2543622,53.0460772 65.7300707,53.1194105 65.280678,53.2660772 C64.7563865,53.4127439 64.4567914,53.9260772 64.606589,54.5127439 C64.6814877,55.0260772 64.8312853,55.5394105 64.9061841,56.1260772 C64.9810829,56.6394105 65.5053748,56.5308266 64.3818926,57.4460772 C63.2584104,58.3613278 62.4345242,57.2994105 62.4345242,57.1527439 C62.134929,56.4927439 62.0600302,54.8794105 62.0600302,54.8060772 C61.7604351,54.5860772 61.5357388,54.5127439 61.1612448,54.7327439 C60.7118521,55.0260772 60.3373582,55.3927439 60.1875606,55.9060772 C59.8130667,56.8594105 59.3636741,57.801611 59.3636741,58.901611 C59.3636741,59.2682777 59.4385728,60.5994105 59.363674,60.8927439 C59.2887752,61.4060772 59.4385728,61.8460772 59.8130667,62.1394105 C60.4871558,62.7994105 61.6855363,63.0927439 62.6592205,62.4327439 C63.1086132,62.1394105 65.3555764,60.8927437 65.3555764,64.5594107 C65.3555764,68.2260777 62.2847266,66.4660772 61.5357388,66.2460772 C60.7867509,66.0260772 60.1875606,66.4660772 60.1126618,67.2727439 C60.2624594,68.5194105 60.6622656,72.0800377 60.711852,72.3713375 C60.711852,73.2513375 60.9365485,76.4394105 61.7604351,76.5860772 C63.6329049,77.0260769 65.0559817,76.0727439 65.1308805,75.9260772 C66.2543622,75.1194105 67.4527428,75.6327439 67.6025404,77.0260772 C67.7523379,78.3460772 66.7786537,79.2994105 65.8049695,79.5927439 C64.8312853,79.8860772 62.2847266,79.8127439 61.9851315,79.8127439 C61.3859412,79.7394105 60.7867509,80.1794105 60.7118521,80.8394105 C60.6369533,80.9860772 60.8616497,83.7727439 61.0114473,84.7994105 C61.1612448,85.9727439 61.3110424,87.1460772 61.3859412,88.3194105 C61.46084,89.2727439 62.2098278,89.7127439 63.1086132,89.8594105 C63.9324999,89.9327439 66.0296659,90.2994105 66.329261,90.3727439 C67.0033501,90.5927439 67.4527428,91.1060772 67.6774392,91.7660772 C67.9770343,92.7927439 67.8272367,94.0394105 66.8535525,94.6994105 C66.2543622,95.1394105 64.0822975,94.5527439 63.6329047,94.4060772 C62.2098278,94.7727439 61.8353339,95.7260772 62.4345242,97.1927439 C62.509423,98.2194105 62.9588157,105.552744 63.0337145,105.919411 C64.0073987,107.019411 65.1308805,107.166077 66.329261,106.359411 C67.1531477,106.139411 69.1512301,107.583449 68.8758201,109.097658 C68.6004101,110.611867 66.6288562,112.152744 65.3555768,111.712744 C64.9810829,111.492744 63.4082084,110.979411 63.2584108,111.492744 C63.1018368,112.351232 63.6329047,121.686077 63.6329047,121.979411 C63.6329047,122.639411 67.0033502,119.339414 67.9770343,119.486077 C68.5013258,119.339411 69.0256173,119.559411 69.4001112,119.852744 C70.2239979,120.439411 70.2629394,122.307127 69.8495039,123.152744 C69.4001112,124.399411 67.2280464,124.472744 67.0033501,124.472744 C66.1794634,124.399411 64.1571962,125.719411 64.3818926,126.306077 C64.7563865,127.552744 65.3555768,128.726077 66.2543622,129.752744 C67.0782489,130.706077 67.9417776,132.673943 73.7089843,133.199407 C79.476191,133.724871 83.6956099,134.305265 84.8190917,134.231931 C85.9425735,134.158598 100.542238,134.843504 106.999302,133.932744 C113.456365,133.021984 113.005129,133.523924 113.586672,132.648435 C114.168215,131.772947 114.114688,109.3988 114.039789,108.5188 C113.96489,107.345467 112.620201,62.8076691 110.982421,57.1527439 Z M61.5357388,103.279411 C61.5357388,102.472744 61.5357388,101.592744 61.46084,100.786077 C61.3859412,99.4660772 61.1612448,98.0727439 61.086346,96.7527439 C61.0114473,96.1660772 61.0114473,95.5794105 60.9365485,94.9194105 C60.7867509,93.8927439 59.7381679,93.3060772 58.98918,93.1594105 C58.2401922,93.0127439 57.4775391,93.1594105 55.9013672,98.5224609 C54.3251954,103.885511 61.46084,107.166077 61.46084,106.506077 C61.46084,105.479411 61.46084,104.379411 61.46084,103.279411 L61.5357388,103.279411 Z M59.6632691,80.3994105 C59.5883703,79.5194105 58.6895849,79.1527439 58.0154958,79.5927439 C57.1167104,80.1794105 56.3677226,80.9127439 56.0681274,81.9394105 C55.8434311,82.5260772 55.6936335,83.1127439 55.5438359,83.6994105 C55.0944432,84.8727439 55.3191396,86.0460772 55.7685323,87.1460772 C56.217925,88.0994105 56.7422165,88.9794105 57.4163056,89.8594105 C57.7159007,90.2260772 58.1652934,90.4460772 58.6146861,90.5927439 C59.363674,90.7394105 59.9628643,90.5194105 60.3373582,90.0060772 C60.6369533,89.6394105 60.5620545,89.1994105 60.4871558,88.7594105 C60.4871558,88.4660772 60.412257,88.0994105 60.412257,87.8060772 C60.3373582,87.4394105 60.3373582,87.0727439 60.2624594,86.7060772 C60.1126618,85.6060772 60.1875606,84.5060772 60.037763,83.4060772 C60.037763,83.3327439 59.7381679,81.3527439 59.6632691,80.3994105 L59.6632691,80.3994105 Z M61.5357388,115.746077 L61.5357388,115.746077 C61.46084,115.452744 61.46084,115.086077 61.46084,114.792744 L61.46084,112.226077 C61.46084,111.786077 61.3110424,111.639411 60.9365485,111.566077 C60.5620545,111.492744 60.412257,111.566077 60.1126618,111.932744 C59.5883703,112.666077 59.4385728,113.472744 59.2887752,114.279411 C59.1389776,114.939411 59.1389776,115.672744 58.98918,116.332744 C58.8393825,117.066077 58.7644837,117.726077 58.9142813,118.459411 C59.0640788,119.632744 59.6632691,120.659411 60.412257,121.539411 C60.4871558,121.686077 60.6369533,121.759411 60.7867509,121.832744 C61.3859412,121.832744 61.6106375,121.612744 61.5357388,121.172744 L61.5357388,118.679411 C61.5357388,117.726077 61.5357388,116.699411 61.5357388,115.746077 C61.5357388,115.746077 61.5357388,116.699411 61.5357388,115.746077 L61.5357388,115.746077 Z M63.0337145,91.6927439 C61.46084,91.6194105 63.7827023,93.8927439 63.7078035,92.2060772 C63.6329047,91.9127439 63.3333096,91.6927439 63.0337145,91.6927439 L63.0337145,91.6927439 Z" id="Shape" fill="#05095E"></path>
                        <path d="M131.04004,59.8660773 C131.182024,60.2275213 131.179545,117.984045 131.04004,118.666994 C130.890242,119.620327 131.191609,126.667085 128.944646,126.593752 C128.495253,126.740418 128.195658,126.520418 127.072176,126.593752 C125.723998,126.740418 122.712891,126.667085 122.712891,126.593752 C122.488194,125.493752 122.712891,116.612306 122.712891,116.612306 C122.712891,116.612306 122.023302,95.3816642 121.678711,78.8584002 C121.465016,68.6116693 121.564035,62.1505639 121.678711,61.8417967 C122.203002,60.6684634 124.845023,46.5927439 124.919922,45.7127439 C124.919922,45.1994105 125.798897,45.0527439 126.023593,45.0527439 C126.323188,44.9794105 126.697682,45.2727439 126.772581,45.7127439 C126.922378,46.1527439 126.997277,46.5927439 127.072176,47.1060772 C127.072176,47.1060772 130.515748,58.472744 131.04004,59.8660773 Z M129.114258,67.4194105 C129.114258,62.3534696 128.96446,63.535944 129.114258,62.5092773 C129.189157,61.775944 128.275285,61.9201029 126.587698,61.7539063 C124.900111,61.5877096 123.242187,62.798099 123.242187,63.3847657 C123.167289,64.2647657 123.242187,71.9416931 123.242187,74.0683598 C123.242187,75.2416931 123.900391,91.0724865 123.900391,92.4658198 L123.900391,101.942384 C123.900391,103.262384 124.289167,116.232091 124.438965,116.892091 C124.214268,118.212091 128.04586,116.598756 128.420354,116.89209 C128.869747,115.498756 129.114258,99.9894399 129.114258,99.8427732 L129.114258,91.062988 C129.114258,91.062988 129.283229,85.3858639 129.114258,82.9677732 C128.945287,80.5496825 129.114258,72.4853513 129.114258,67.4194105 Z M127.44667,53.1194105 C127.296872,52.5327439 126.098492,52.4594105 125.199706,52.6794105 C124.750314,52.8260772 124.825212,53.7060772 124.825212,54.1460772 C124.525617,55.2460772 124.450719,56.4927439 124.151123,57.4460772 C124.001326,57.9594105 123.10254,60.5994105 123.851528,60.4527439 C124.300921,60.3794105 127.521569,59.8660772 128.64505,60.4527439 C128.719949,60.0127439 128.420354,57.8860772 128.420354,57.3727439 C128.495253,57.0794105 127.746265,53.3394105 127.44667,53.1194105 L127.44667,53.1194105 Z M124.787109,119.999411 C124.562413,120.072744 124.787109,123.457187 124.787109,124.117187 C124.787109,124.923854 128.719949,123.46515 128.869747,123.611816 C129.468937,124.198483 128.869747,120.366077 128.869747,119.999411 C128.794848,118.972744 125.760794,119.779411 124.787109,119.999411 Z" id="Shape" fill="#04085E"></path>
                        <path d="M95.4648885,120.366077 C94.7159007,120.292744 93.9669128,119.999411 93.217925,120.146077 C92.4689371,120.292744 91.6450505,120.219411 90.8960626,120.219411 C89.5478845,120.219411 88.2746051,120.292744 87.0013258,120.806077 C86.8515282,120.879411 86.7017307,120.879411 86.5519331,120.879411 C86.1025404,120.806077 85.5782489,120.659411 85.1288562,120.586077 C84.829261,120.512744 84.4547671,120.586077 84.1551719,120.586077 C83.4061841,120.659411 82.6571962,120.659411 81.9082084,120.806077 C80.4102327,121.099411 79.6612448,119.926077 80.1106375,118.679411 C80.1855363,118.532744 80.1855363,118.386077 80.3353339,118.239411 C80.5600302,117.872744 81.009423,117.799411 81.4588157,117.946077 C81.683512,118.092744 81.8333096,118.239411 82.058006,118.386077 C83.4810829,119.192744 85.0539574,119.339411 86.7017307,118.752744 C87.3009209,118.679411 87.9001112,118.679411 88.5742003,118.679411 C89.5478845,118.606077 90.5215687,118.532744 91.4952529,118.459411 C92.3940383,118.386077 93.3677226,118.386077 94.266508,118.312744 C95.2401922,118.386077 95.9142813,117.872744 96.2138764,116.626077 C96.1389776,115.892744 95.98918,115.159411 95.9142813,114.426077 C95.7644837,113.692744 95.6895849,112.886077 95.5397873,112.152744 C95.3899898,111.419411 94.9405971,111.126077 94.1167104,111.199411 C92.6187347,111.346077 91.0458602,111.492744 89.5478845,111.346077 C88.1248076,111.199411 86.7766294,111.346077 85.4284513,111.566077 C85.3535525,111.566077 85.2037549,111.639411 85.1288562,111.639411 C84.3049695,111.786077 84.0053744,112.226077 84.0802732,113.032744 C84.1551719,113.766077 84.3049695,114.499411 84.3049695,115.159411 C84.4547671,115.746077 84.4547671,116.332744 84.1551719,116.846077 C83.6308805,116.552744 83.3312853,116.259411 83.1814877,115.746077 C82.6571962,114.206077 82.2827023,112.666077 81.9082084,111.052744 C81.7584108,110.319411 81.9831072,109.586077 82.9567914,109.586077 C83.2563865,109.586077 83.5559817,109.512744 83.8555768,109.586077 C84.5296659,109.659411 85.2786537,109.659411 85.9527428,109.512744 C87.3009209,109.219411 88.6490991,109.292744 89.9972772,109.219411 L92.6936335,109.219411 C93.5924189,109.219411 94.4163056,108.999411 95.2401922,108.926077 C95.5397873,108.852744 95.8393825,108.852744 96.0640788,108.779411 C96.8879655,108.779411 97.4871558,109.292744 97.5620545,110.099411 L97.5620545,110.686077 C97.4871558,112.372744 97.7118521,113.986077 98.086346,115.599411 C98.3110424,116.699411 98.3859412,117.799411 98.5357388,118.899411 C98.5357388,119.192744 98.5357388,119.559411 98.3859412,119.852744 C98.2361436,120.146077 98.3110424,120.512744 98.46084,120.732744 C99.0600302,121.392744 99.0600302,122.199411 98.9851315,123.006077 C98.9102327,124.179411 99.134929,125.206077 99.6592205,126.232744 C100.033714,126.892744 100.108613,127.552744 99.9588157,128.286077 C99.8090181,128.799411 99.9588157,129.386077 99.8839169,129.972744 C99.8839169,130.339411 99.8090181,130.632744 99.7341193,130.999411 C99.509423,131.586077 98.8353339,131.806077 98.1612448,131.439411 C97.4871558,131.072744 96.8130667,130.926077 96.1389776,130.852744 C95.8393825,130.852744 95.5397873,130.706077 95.2401922,130.632744 C94.0418116,130.486077 92.8434311,130.412744 91.6450505,130.339411 C90.9709614,130.339411 90.2968724,130.412744 89.6976821,130.486077 C89.3231881,130.486077 89.023593,130.559411 88.6490991,130.559411 C87.4507185,130.706077 86.1774392,130.852744 84.9790586,130.926077 C83.3312853,131.659411 82.1329047,131.292744 81.3839169,129.826077 C81.4588157,128.286077 81.3839169,126.672744 80.8596254,125.206077 C80.5600302,124.546077 80.7098278,123.812744 80.9345242,123.152744 C81.009423,123.006077 81.0843217,122.859411 81.0843217,122.712744 C81.2341193,122.272744 81.5337145,121.979411 81.9831072,121.979411 C82.2827023,121.979411 82.6571962,121.832744 82.9567914,121.832744 C83.8555768,121.759411 84.6794634,121.686077 85.5782489,121.539411 C86.0276416,121.466077 86.4021355,121.392744 86.8515282,121.319411 C87.1511234,121.246077 87.4507185,121.246077 87.6754149,121.319411 C89.023593,121.466077 90.2219736,121.319411 91.4203541,120.732744 C91.7948481,120.512744 92.2442408,120.586077 92.6187347,120.732744 C93.4426213,121.026077 94.266508,121.026077 95.0903946,120.806077 C95.2401922,120.732744 95.3899898,120.586077 95.5397873,120.512744 C95.4648885,120.512744 95.4648885,120.439411 95.4648885,120.366077 C94.7159007,120.292744 95.4648885,120.439411 95.4648885,120.366077 L95.4648885,120.366077 Z M90.8211639,128.359411 L90.8211639,128.432744 C91.1956578,128.432744 91.5701517,128.359411 91.9446456,128.432744 C93.3677226,128.652744 94.7907995,128.579411 96.2138764,128.139411 C96.8130667,127.919411 97.1126618,127.479411 97.037763,126.892744 C97.412257,125.059411 96.8130667,123.739411 95.0154958,123.079411 C93.9669128,123.079411 92.9932286,123.152744 91.9446456,123.226077 C90.5964675,123.299411 89.2482894,123.446077 87.97501,123.519411 C86.5519331,123.592744 85.2037549,124.179411 83.780678,124.179411 C83.106589,124.179411 82.8818926,124.546077 82.8818926,125.206077 C82.8818926,126.159411 82.9567914,127.112744 83.4061841,127.992744 C83.7057792,128.652744 84.0802732,128.872744 84.829261,128.799411 C85.2037549,128.799411 85.6531477,128.726077 86.0276416,128.726077 C87.0762246,128.652744 88.1248076,128.652744 89.2482894,128.579411 C89.7725809,128.506077 90.2968724,128.432744 90.8211639,128.359411 C90.8211639,128.359411 90.2968724,128.432744 90.8211639,128.359411 L90.8211639,128.359411 Z" id="Shape" fill="#05095E"></path>
                        <path d="M100.258411,99.6860772 C99.6592205,99.0260772 99.2098278,98.3660772 98.7604351,97.6327439 C98.5357388,97.2660772 98.3859412,96.9727439 97.8616497,96.8994105 C97.3373582,96.8994105 96.9628643,97.1927439 96.8130667,97.5594105 C96.2138764,98.7327439 95.3899898,99.8327439 94.5661031,100.932744 C94.1167104,101.519411 93.5924189,101.959411 92.9183298,102.326077 C92.5438359,102.546077 92.0195444,102.619411 91.5701517,102.619411 C90.6713663,102.619411 89.8474796,102.399411 89.023593,101.959411 C88.7988966,101.812744 88.5742003,101.739411 88.3495039,101.739411 C87.8252124,101.592744 87.4507185,101.739411 87.1511234,102.179411 C87.0013258,102.472744 86.7766294,102.692744 86.6268319,102.986077 C86.2523379,103.792744 85.7280464,104.452744 85.0539574,105.039411 C84.0053744,105.992744 82.8818926,105.992744 81.9082084,104.966077 C81.4588157,104.452744 81.1592205,103.866077 80.7098278,103.279411 C80.634929,103.206077 80.634929,103.132744 80.5600302,103.059411 C79.0620545,102.472744 78.1632691,102.986077 78.0134715,104.746077 C77.7887752,105.259411 77.5640788,105.626077 76.9648885,105.699411 C76.7401922,105.772744 76.4405971,105.699411 76.2907995,105.479411 C76.1410019,105.259411 76.0661031,105.039411 76.2159007,104.746077 C76.3656983,104.599411 76.4405971,104.379411 76.5903946,104.232744 C77.1146861,103.719411 77.3393825,103.132744 77.6389776,102.472744 C77.863674,101.519411 78.3130667,100.712744 78.9871558,100.052744 C79.2867509,99.7594105 79.8110424,99.7594105 80.1855363,99.9794105 C80.7847266,100.346077 81.0843217,100.859411 81.3090181,101.446077 C81.6086132,102.032744 81.8333096,102.546077 82.1329047,103.132744 C82.732095,104.232744 84.0802732,104.232744 84.7543622,103.206077 C85.2786537,102.399411 85.7280464,101.592744 85.9527428,100.712744 C86.0276416,100.419411 86.1025404,100.126077 86.1774392,99.8327439 C86.3272367,99.1727439 86.7766294,98.9527439 87.4507185,99.1727439 C87.6005161,99.2460772 87.7503136,99.2460772 87.9001112,99.3927439 C88.9486942,100.126077 90.072176,100.786077 91.2705566,101.226077 C92.2442408,101.299411 92.9932286,100.859411 93.5175201,100.199411 C94.1916092,99.4660772 94.7159007,98.5860772 95.315091,97.7060772 C95.9142813,95.7260772 97.1126618,94.9927439 98.9102327,95.5060772 C99.2098278,95.7994105 99.4345242,96.0927439 99.5843217,96.4594105 C99.9588157,97.1927439 100.258411,97.8527439 100.782702,98.5127439 C101.606589,99.5394105 102.505374,99.6860772 103.40416,98.9527439 C104.153148,98.3660772 104.902136,97.7794105 105.651123,97.1927439 C105.726022,97.1194105 105.87582,97.0460772 105.950719,96.9727439 C106.699706,96.6794105 107.523593,96.4594105 108.272581,96.2394105 C108.796872,96.0194105 109.171366,96.1660772 109.620759,96.5327439 C109.770557,96.8260772 109.695658,97.0460772 109.54586,97.3394105 C109.321164,97.7060772 108.94667,97.8527439 108.497277,97.9994105 C107.748289,98.2194105 106.999302,98.4394105 106.325212,98.7327439 C105.426427,99.3194105 104.527642,99.9794105 103.628856,100.639411 C103.329261,100.566077 102.80497,100.639411 102.355577,100.859411 C101.381893,100.786077 100.782702,100.272744 100.258411,99.6860772 Z" id="Shape" fill="#05095E"></path>
                        <path d="M90.9709614,71.3060772 C90.7462651,70.8660772 91.3454554,70.6460772 91.5701517,70.2060772 C91.9446456,69.3994105 93.2928238,67.4194105 93.1430262,67.1260772 C93.0681274,67.0527439 91.0458602,65.5860772 90.5964675,65.2194105 C90.072176,64.8527439 89.9223784,64.7060772 89.9223784,64.7060772 L90.5215687,63.8260772 L93.5175201,66.1727439 C93.5175201,66.1727439 94.1167104,64.7794105 94.4163056,64.2660772 C94.6410019,63.8994105 95.0903946,63.0927439 95.315091,62.7260772 C95.6146861,62.7994105 95.98918,63.1660772 96.2887752,63.1660772 C96.5134715,63.1660772 94.5661031,66.8327439 94.5661031,66.8327439 C94.5661031,66.8327439 96.5883703,68.1527439 97.2624594,68.6660772 C97.9365485,69.1794105 99.0600302,69.6927439 99.2098278,69.7660772 C99.4345242,69.9860772 98.9102327,70.7194105 98.6106375,70.5727439 C98.3859412,70.4994105 96.8879655,69.3260772 95.8393825,68.7394105 C94.6410019,68.0794105 94.1167104,67.7127439 94.1167104,67.7127439 C94.1167104,67.7127439 92.8434311,70.3527439 92.5438359,70.9394105 C92.3940383,71.3060772 92.5438359,71.5994105 92.169342,71.5260772 C91.8697468,71.2327439 91.4203541,71.3794105 90.9709614,71.3060772 L90.9709614,71.3060772 Z" id="Shape" fill="#05095E"></path>
                        <path d="M86.1774392,52.3860772 C86.4021355,52.3127439 88.6490991,51.7260772 89.5478845,51.7994105 C89.7725809,51.7994105 92.2442408,51.6527439 93.2928238,51.7994105 C94.5661031,51.9460772 101.007399,52.0194105 101.981083,52.0927439 C107.523593,52.9727439 108.796872,54.1460772 110.070152,54.5860772 C110.444646,54.7327439 110.219949,55.2460772 110.444646,55.6860772 C110.070152,55.6860772 109.845455,55.5394105 109.620759,55.3927439 C109.171366,55.1727439 108.796872,54.8794105 108.34748,54.6594105 C106.774605,53.9994105 105.126832,53.4127439 103.40416,53.1927439 C101.906184,52.9727439 100.408208,52.7527439 98.8353339,52.8260772 C98.5357388,52.8260772 91.4203541,52.6794105 90.8960626,52.6060772 C90.2968724,52.4594105 89.6976821,52.4594105 89.0984918,52.5327439 C88.2746051,52.6060772 86.3272367,52.6060772 86.1025404,52.5327439 C86.1774392,52.5327439 86.1774392,52.4594105 86.1774392,52.3860772 C86.4021355,52.3127439 86.1774392,52.4594105 86.1774392,52.3860772 L86.1774392,52.3860772 Z" id="Shape" fill="#05095E"></path>
                        <path d="M87.3758197,112.812744 C87.6005161,112.812744 87.9001112,112.886077 88.1997064,113.106077 C88.6490991,113.546077 88.9486942,113.986077 88.9486942,114.646077 C88.9486942,115.232744 88.9486942,115.819411 88.4993015,116.332744 C88.0499088,116.846077 87.2260222,117.066077 86.6268319,116.699411 C86.0276416,116.332744 85.7280464,115.746077 85.5782489,115.086077 C85.5033501,114.792744 85.5782489,114.499411 85.5782489,114.279411 C85.7280464,113.326077 86.3272367,112.812744 87.3758197,112.812744 C87.6005161,112.739411 86.3272367,112.812744 87.3758197,112.812744 L87.3758197,112.812744 Z" id="Shape" fill="#05095E"></path>
                        <path d="M90.2219736,115.086077 C90.2219736,114.646077 90.2968724,114.352744 90.5964675,114.132744 C91.3454554,113.472744 92.3191396,113.472744 92.9183298,114.206077 C93.1430262,114.426077 93.3677226,114.719411 93.4426213,115.086077 C93.6673177,116.112744 92.9183298,116.992744 91.8697468,116.919411 C91.3454554,116.919411 90.9709614,116.699411 90.6713663,116.259411 C90.4466699,115.892744 90.1470748,115.452744 90.2219736,115.086077 C90.1470748,114.646077 90.1470748,115.452744 90.2219736,115.086077 L90.2219736,115.086077 Z" id="Shape" fill="#05095E"></path>
                        <path d="M64.1008301,52.5327439 C65.3741094,52.0194105 88.7988966,52.1660772 85.5782489,52.5327439 C84.9790586,52.7527439 76.6652934,53.4127439 76.0661031,53.3394105 C75.4669128,53.2660772 65.8716512,53.6327438 65.2724609,53.3394105 L64.1008301,52.5327439 Z" id="Shape" fill="#05095E"></path>
                        <path d="M76.5154958,72.6994105 C76.2907995,72.2594105 76.8899898,72.0394105 77.1146861,71.5994105 C77.48918,70.7927439 78.8373582,68.8127439 78.6875606,68.5194105 C78.6126618,68.4460772 76.5903946,66.9794105 76.1410019,66.6127439 C75.6167104,66.2460772 75.4669128,66.0994105 75.4669128,66.0994105 L76.0661031,65.2194105 L79.0620545,67.5660772 C79.0620545,67.5660772 79.6612448,66.1727439 79.96084,65.6594105 C80.1855363,65.2927439 80.634929,64.4860772 80.8596254,64.1194105 C81.1592205,64.1927439 81.5337145,64.5594105 81.8333096,64.5594105 C82.058006,64.5594105 80.1106375,68.2260772 80.1106375,68.2260772 C80.1106375,68.2260772 82.1329047,69.5460772 82.8069938,70.0594105 C83.4810829,70.5727439 84.6045647,71.0860772 84.7543622,71.1594105 C84.9790586,71.3794105 84.4547671,72.1127439 84.1551719,71.9660772 C83.9304756,71.8927439 82.4324999,70.7194105 81.3839169,70.1327439 C80.1855363,69.4727439 79.6612448,69.1060772 79.6612448,69.1060772 C79.6612448,69.1060772 78.3879655,71.7460772 78.0883703,72.3327439 C77.9385728,72.6994105 78.0883703,72.9927439 77.7138764,72.9194105 C77.3393825,72.6260772 76.9648885,72.7727439 76.5154958,72.6994105 L76.5154958,72.6994105 Z" id="Shape" fill="#05095E"></path>
                        <path d="M74.0438359,90.2260772 C73.8191396,89.7860772 74.4183298,89.5660772 74.6430262,89.1260772 C75.0175201,88.3194105 76.3656983,86.3394105 76.2159007,86.0460772 C76.1410019,85.9727439 74.1187347,84.5060772 73.669342,84.1394105 C73.1450505,83.7727439 72.9952529,83.6260772 72.9952529,83.6260772 L73.5944432,82.7460772 L76.5903946,85.0927439 C76.5903946,85.0927439 77.1895849,83.6994105 77.48918,83.1860772 C77.7138764,82.8194105 78.1632691,82.0127439 78.3879655,81.6460772 C78.6875606,81.7194105 79.0620545,82.0860772 79.3616497,82.0860772 C79.586346,82.0860772 77.6389776,85.7527439 77.6389776,85.7527439 C77.6389776,85.7527439 79.6612448,87.0727439 80.3353339,87.5860772 C81.009423,88.0994105 82.1329047,88.6127439 82.2827023,88.6860772 C82.5073987,88.9060772 81.9831072,89.6394105 81.683512,89.4927439 C81.4588157,89.4194105 79.96084,88.2460772 78.912257,87.6594105 C77.7138764,86.9994105 77.1895849,86.6327439 77.1895849,86.6327439 C77.1895849,86.6327439 75.9163056,89.2727439 75.6167104,89.8594105 C75.4669128,90.2260772 75.6167104,90.5194105 75.2422165,90.4460772 C74.9426213,90.1527439 74.4932286,90.2994105 74.0438359,90.2260772 L74.0438359,90.2260772 Z" id="Shape" fill="#05095E"></path>
                        <path d="M86.3272367,88.5394105 C86.1025404,88.0994105 86.7017307,87.8794105 86.926427,87.4394105 C87.3009209,86.6327439 88.6490991,84.6527439 88.4993015,84.3594105 C88.4244027,84.2860772 86.4021355,82.8194105 85.9527428,82.4527439 C85.4284513,82.0860772 85.2786537,81.9394105 85.2786537,81.9394105 L85.877844,81.0594105 L88.8737954,83.4060772 C88.8737954,83.4060772 89.4729857,82.0127439 89.7725809,81.4994105 C89.9972772,81.1327439 90.4466699,80.3260772 90.6713663,79.9594105 C90.9709614,80.0327439 91.3454554,80.3994105 91.6450505,80.3994105 C91.8697468,80.3994105 89.9223784,84.0660772 89.9223784,84.0660772 C89.9223784,84.0660772 91.9446456,85.3860772 92.6187347,85.8994105 C93.2928238,86.4127439 94.4163056,86.9260772 94.5661031,86.9994105 C94.7907995,87.2194105 94.266508,87.9527439 93.9669128,87.8060772 C93.7422165,87.7327439 92.2442408,86.5594105 91.1956578,85.9727439 C89.9972772,85.3127439 89.4729857,84.9460772 89.4729857,84.9460772 C89.4729857,84.9460772 88.1997064,87.5860772 87.9001112,88.1727439 C87.7503136,88.5394105 87.9001112,88.8327439 87.5256173,88.7594105 C87.2260222,88.4660772 86.7766294,88.6127439 86.3272367,88.5394105 L86.3272367,88.5394105 Z" id="Shape" fill="#05095E"></path>
                        <path d="M98.6106375,86.4127439 C98.3859412,85.9727439 98.9851315,85.7527439 99.2098278,85.3127439 C99.5843217,84.5060772 100.9325,82.5260772 100.782702,82.2327439 C100.707804,82.1594105 98.6855363,80.6927439 98.2361436,80.3260772 C97.7118521,79.9594105 97.5620545,79.8127439 97.5620545,79.8127439 L98.1612448,78.9327439 L101.157196,81.2794105 C101.157196,81.2794105 101.756387,79.8860772 102.055982,79.3727439 C102.280678,79.0060772 102.730071,78.1994105 102.954767,77.8327439 C103.254362,77.9060772 103.628856,78.2727439 103.928451,78.2727439 C104.153148,78.2727439 102.205779,81.9394105 102.205779,81.9394105 C102.205779,81.9394105 104.228046,83.2594105 104.902136,83.7727439 C105.576225,84.2860772 106.699706,84.7994105 106.849504,84.8727439 C107.0742,85.0927439 106.549909,85.8260772 106.250314,85.6794105 C106.025617,85.6060772 104.527642,84.4327439 103.479059,83.8460772 C102.280678,83.1860772 101.756387,82.8194105 101.756387,82.8194105 C101.756387,82.8194105 100.483107,85.4594105 100.183512,86.0460772 C100.033714,86.4127439 100.183512,86.7060772 99.8090181,86.6327439 C99.509423,86.3394105 99.0600302,86.4860772 98.6106375,86.4127439 L98.6106375,86.4127439 Z" id="Shape" fill="#05095E"></path>
                    </g>
                </g>
            </g>
        </g>
    </g>
</svg>
