<svg width="183" height="184" viewBox="0 0 183 184" xmlns="http://www.w3.org/2000/svg">
    <g fill="none" fill-rule="evenodd">
        <g>
            <path d="M91.586 183.35c50.495 0 91.43-40.904 91.43-91.362 0-50.458-40.935-91.363-91.43-91.363C41.09.625.158 41.53.158 91.988S41.09 183.35 91.586 183.35z" fill="#E9E9FF"/>
            <path d="M125.2 51.902s-1.926 1.664-2.393 9.17c-.232 3.72-.326 9.324 0 15.76.983 19.433.35 31.03.808 35.308 1.375 12.86-2.19 13.477 1.585 14.433 3.775.956 4.16-2.513 4.16-2.513V62.575s-.657-4.912-1.648-9.107c-.534-2.26-1.65-4.917-1.72-5.12-.883-2.637-.792 3.554-.792 3.554z" fill="#A8ACFF"/>
            <path d="M95.27 53.265c-9.73 0-21.3.837-21.3.837s-.454.24-10.032 0c-.786-.02-.655.55-1.09.604-.178.022-.114-2.796-.782-1.44-2.163 4.382-5.036 6.1-2.37 11.106.438.825 0-2.272 0 2.725v10.976l1.663 14.918s.995 4.563.706 8.674c-.23 3.252-.707 4.53.782 8.874.41 1.194.256 5.286 0 6.757-.578 3.33-.782 5.99 1.09 12.16 1.173 3.864 1.433 4.65 4.636 5.992 3.202 1.34 18.43.955 26.037.955 7.305 0 15.857.716 19.046-.955 1.432-.75 1.622-33.783 1.622-33.783L113.656 71s.536-12.12-2.27-13.893c-5.637-3.564-6.384-3.842-16.116-3.842z" fill="#A8ACFF"/>
            <path d="M110.982 58.153c-1.637-5.655-14.004-5.557-13.25-4.94.078.063 14.68-3.564 17.132 6.964.127.548.656 11.676.784 12.492.075.366 2.99 61.016 1.043 62.263-.673 1.833-18.08 3.08-19.802 3.006-1.648-.074-31.607-.074-32.88-3.74-.75-1.1-1.648-5.5-1.873-6.674-.075-.807-.6-1.247-1.273-1.54-.22-.095-2.483-.537-4.045-3.153-1.228-2.058-1.824-6.17-2-7.696-.4-3.466 4.622-5.504 4.097-6.018-.524-.44-2.62-2.127-2.996-2.64-.524-.807-1.198-1.614-1.797-2.42-1.872-4.18.6-8.947 1.124-9.68.3-.367.525-.66.75-1.027.374-.587.524-1.174.15-1.76-2.473-.22-2.922-3.248-3.222-4.2-.482-2.106.064-4.66.75-6.58.685-1.92 4.868-1.614 2.62-2.86-1.272-.66-1.647-2.42-1.647-2.494 0 0 3.045 2.284 4.27 1.466 1.224-.817.598-3.887.673-4.767 0-.587-.075-5.354-.973-5.867-.45-.587-1.798-.66-2.397-.147-3.895 1.467-1.798 8.947-1.798 9.313-.75-.734-3.414-2.194-3.046-5.204.368-3.01 1.25-3.157 3.57-4.697.375-.44.225-.88.15-1.32-.224-.954-2.097-3.11-2.172-4.063-.224-2.42 2.322-1.73 2.472-2.024.45.513-.974 3.74.974 5.426 1.947 1.686 1.797.22 1.947-.734.15-.88-.218-4.028.3-5.867.518-1.84 1.423-1.614 2.097-2.64.6-.88.374-1.54-.6-2.054-1.273-.66-2.32-.513-3.295.367-.524.88-.974 1.686-1.423 2.64-.225.513-.3 1.1-.524 1.686-.075.146-.075.293-.225.366-.225-.513-.45-1.027-.225-1.613.225-1.32.824-2.494 1.648-3.52 1.723-1.394 2.846-1.98 5.093-.807.9.367 1.724.88 2.473 1.467.6.44 1.273.66 2.022.66 1.648.146 3.22.293 4.87.366.148 0 .448-.074.523.293-.15 0-.3.073-.45.073-.6 0-1.123 0-1.722-.073-.75-.074-1.423-.147-2.172-.147-.45 0-.974.073-1.423.22-.524.147-.823.66-.673 1.247.074.513.224 1.026.3 1.613.074.513.598.405-.525 1.32-1.124.915-1.947-.147-1.947-.293-.3-.66-.375-2.274-.375-2.347-.3-.22-.524-.293-.9-.073-.448.293-.823.66-.972 1.173-.375.953-.824 1.896-.824 2.996 0 .366.075 1.697 0 1.99-.075.514.075.954.45 1.247.673.66 1.872.953 2.845.293.45-.294 2.696-1.54 2.696 2.126s-3.07 1.906-3.82 1.686c-.75-.22-1.348.22-1.423 1.027.15 1.246.55 4.807.6 5.098 0 .88.224 4.07 1.047 4.216 1.873.44 3.296-.513 3.37-.66 1.124-.807 2.323-.293 2.473 1.1.15 1.32-.824 2.273-1.798 2.567-.974.293-3.52.22-3.82.22-.6-.074-1.198.366-1.273 1.026-.075.146.15 2.933.3 3.96.15 1.173.3 2.346.374 3.52.075.953.824 1.393 1.723 1.54.822.073 2.92.44 3.22.513.673.22 1.123.733 1.347 1.393.3 1.027.15 2.273-.823 2.933-.6.44-2.772-.147-3.22-.294-1.424.367-1.8 1.32-1.2 2.787.075 1.026.525 8.36.6 8.726.973 1.1 2.097 1.246 3.295.44.823-.22 2.82 1.223 2.546 2.738-.276 1.514-2.247 3.055-3.52 2.615-.375-.22-1.948-.734-2.098-.22-.156.858.375 10.193.375 10.486 0 .66 3.37-2.64 4.344-2.494.524-.147 1.05.073 1.423.367.824.586.863 2.454.45 3.3-.45 1.246-2.622 1.32-2.847 1.32-.824-.074-2.846 1.246-2.62 1.833.373 1.247.973 2.42 1.87 3.447.825.953 1.69 2.92 7.456 3.446 5.766.525 9.986 1.105 11.11 1.032 1.123-.073 15.722.612 22.18-.3 6.456-.91 6.005-.408 6.587-1.284.58-.875.528-23.25.453-24.13-.075-1.173-1.42-45.71-3.058-51.365zM61.536 104.28c0-.807 0-1.687-.075-2.494-.074-1.32-.3-2.713-.374-4.033-.075-.587-.075-1.174-.15-1.834-.15-1.027-1.198-1.614-1.947-1.76-.75-.147-1.512 0-3.09 5.362-1.575 5.364 5.56 8.644 5.56 7.984v-3.227h.076zM59.663 81.4c-.075-.88-.973-1.247-1.648-.807-.898.586-1.647 1.32-1.947 2.346-.225.586-.374 1.173-.524 1.76-.45 1.173-.225 2.346.225 3.446.448.953.972 1.833 1.646 2.713.3.366.75.586 1.2.733.748.146 1.347-.074 1.72-.587.3-.367.226-.807.15-1.247 0-.294-.074-.66-.074-.954-.075-.367-.075-.733-.15-1.1-.15-1.1-.074-2.2-.224-3.3 0-.073-.3-2.053-.375-3.007zm1.873 35.346c-.075-.293-.075-.66-.075-.953v-2.567c0-.44-.15-.587-.523-.66-.375-.073-.525 0-.824.367-.525.733-.674 1.54-.824 2.346-.15.66-.15 1.393-.3 2.053-.15.733-.226 1.393-.076 2.126.15 1.173.75 2.2 1.498 3.08.075.146.225.22.375.293.6 0 .824-.22.75-.66V116.745s0 .953 0 0zm1.498-24.053c-1.573-.074.75 2.2.674.513-.075-.293-.375-.513-.674-.513z" id="Shape" fill="#05095E"/>
            <path d="M131.04 60.866c.142.362.14 58.118 0 58.8-.15.954.152 8-2.095 7.928-.45.146-.75-.074-1.873 0-1.348.146-4.36.073-4.36 0-.224-1.1 0-9.982 0-9.982s-.69-21.23-1.033-37.754c-.215-10.246-.116-16.707 0-17.016.523-1.174 3.165-15.25 3.24-16.13 0-.513.88-.66 1.104-.66.3-.073.674.22.75.66.148.44.223.88.298 1.394 0 0 3.444 11.367 3.968 12.76zm-1.926 7.553c0-5.067-.15-3.884 0-4.91.075-.734-.84-.59-2.526-.756-1.688-.166-3.346 1.044-3.346 1.63-.075.88 0 8.558 0 10.684 0 1.174.658 17.004.658 18.398v9.476c0 1.32.39 14.29.54 14.95-.226 1.32 3.606-.293 3.98 0 .45-1.393.694-16.903.694-17.05v-8.78s.17-5.676 0-8.094c-.17-2.418 0-10.483 0-15.55zm-1.667-14.3c-.15-.587-1.35-.66-2.247-.44-.45.146-.375 1.026-.375 1.466-.3 1.1-.374 2.347-.674 3.3-.15.513-1.047 3.153-.298 3.007.45-.074 3.67-.587 4.793 0 .075-.44-.225-2.567-.225-3.08.075-.294-.674-4.034-.973-4.254zm-2.66 66.88c-.225.073 0 3.457 0 4.117 0 .807 3.933-.652 4.083-.505.6.586 0-3.246 0-3.613-.075-1.027-3.11-.22-4.083 0z" id="Shape" fill="#04085E"/>
            <path d="M95.465 121.366c-.75-.073-1.498-.367-2.247-.22-.75.147-1.573.073-2.322.073-1.348 0-2.62.073-3.895.586-.148.073-.298.073-.448.073-.45-.074-.974-.22-1.423-.294-.3-.073-.675 0-.975 0-.75.073-1.498.073-2.247.22-1.498.293-2.247-.88-1.797-2.127.076-.147.076-.294.225-.44.225-.367.674-.44 1.124-.294.224.147.373.293.598.44 1.423.807 2.996.953 4.644.367.6-.074 1.198-.074 1.872-.074l2.92-.22c.9-.074 1.874-.074 2.773-.147.973.073 1.647-.44 1.947-1.687-.075-.733-.225-1.467-.3-2.2-.15-.733-.224-1.54-.374-2.273-.15-.734-.6-1.027-1.423-.954-1.498.146-3.07.293-4.57.146-1.422-.147-2.77 0-4.12.22-.073 0-.223.073-.298.073-.825.146-1.125.586-1.05 1.393.075.733.225 1.466.225 2.126.15.586.15 1.173-.15 1.686-.524-.293-.824-.587-.974-1.1-.523-1.54-.897-3.08-1.272-4.693-.15-.734.075-1.467 1.05-1.467.298 0 .598-.073.898 0 .674.073 1.423.073 2.097-.073 1.348-.294 2.696-.22 4.044-.294h2.697c.898 0 1.722-.22 2.546-.294.3-.073.6-.073.824-.147.824 0 1.423.513 1.498 1.32v.586c-.075 1.687.15 3.3.524 4.913.225 1.1.3 2.2.45 3.3 0 .293 0 .66-.15.953-.15.293-.075.66.075.88.6.66.6 1.466.525 2.273-.075 1.173.15 2.2.674 3.227.374.66.45 1.32.3 2.053-.15.513 0 1.1-.076 1.687 0 .366-.075.66-.15 1.026-.225.586-.9.806-1.573.44-.673-.367-1.347-.514-2.02-.587-.3 0-.6-.147-.9-.22-1.198-.147-2.397-.22-3.595-.294-.674 0-1.348.073-1.947.146-.375 0-.674.073-1.05.073-1.197.146-2.47.293-3.67.366-1.647.733-2.845.367-3.594-1.1.075-1.54 0-3.153-.524-4.62-.3-.66-.15-1.393.075-2.053.074-.147.15-.294.15-.44.15-.44.45-.734.898-.734.3 0 .674-.147.974-.147.9-.074 1.722-.147 2.62-.294.45-.074.825-.147 1.275-.22.3-.074.6-.074.823 0 1.35.146 2.547 0 3.745-.587.375-.22.824-.147 1.2 0 .823.293 1.647.293 2.47.073.15-.073.3-.22.45-.293-.075 0-.075-.074-.075-.147-.75-.073 0 .073 0 0zm-4.644 7.993v.073c.376 0 .75-.074 1.125 0 1.423.22 2.846.146 4.27-.294.598-.22.898-.66.823-1.247.374-1.834-.225-3.154-2.023-3.814-1.048 0-2.022.073-3.07.146-1.35.073-2.697.22-3.97.293-1.423.073-2.77.66-4.194.66-.673 0-.898.366-.898 1.026 0 .953.075 1.907.524 2.787.3.66.674.88 1.423.806.374 0 .823-.074 1.198-.074 1.048-.073 2.097-.073 3.22-.147l1.573-.22s-.523.073 0 0zM100.258 100.686c-.6-.66-1.048-1.32-1.498-2.053-.224-.367-.374-.66-.898-.734-.525 0-.9.293-1.05.66-.598 1.173-1.422 2.273-2.246 3.373-.45.586-.974 1.026-1.648 1.393-.374.22-.898.293-1.348.293-.9 0-1.723-.22-2.546-.66-.225-.147-.45-.22-.674-.22-.525-.147-.9 0-1.2.44-.15.293-.373.513-.523.806-.375.807-.9 1.467-1.573 2.053-1.05.953-2.172.953-3.146-.074-.45-.513-.75-1.1-1.198-1.687-.075-.074-.075-.147-.15-.22-1.498-.587-2.397-.074-2.547 1.686-.224.513-.45.88-1.048.953-.225.073-.524 0-.674-.22-.15-.22-.224-.44-.074-.734.15-.147.225-.367.374-.513.525-.514.75-1.1 1.05-1.76.224-.954.673-1.76 1.347-2.42.3-.294.824-.294 1.2-.074.598.366.897.88 1.122 1.466.3.587.523 1.1.823 1.687.6 1.1 1.947 1.1 2.62.073.526-.807.975-1.613 1.2-2.493l.224-.88c.15-.66.6-.88 1.274-.66.15.073.3.073.45.22 1.05.733 2.172 1.393 3.37 1.833.974.073 1.723-.367 2.248-1.027.674-.734 1.198-1.614 1.797-2.494.6-1.98 1.798-2.713 3.595-2.2.3.293.525.587.674.953.375.733.674 1.393 1.2 2.053.823 1.026 1.72 1.173 2.62.44l2.247-1.76c.076-.074.226-.147.3-.22.75-.294 1.574-.514 2.323-.734.524-.22.898-.074 1.348.293.15.293.076.513-.074.806-.225.366-.6.513-1.05.66-.748.22-1.497.44-2.17.733-.9.586-1.798 1.246-2.697 1.906-.3-.074-.825 0-1.274.22-.974-.074-1.573-.587-2.098-1.174zM90.97 72.306c-.224-.44.375-.66.6-1.1.375-.807 1.723-2.787 1.573-3.08-.075-.073-2.097-1.54-2.547-1.907-.524-.367-.674-.514-.674-.514l.6-.88 2.996 2.347s.6-1.394.898-1.907c.225-.367.674-1.173.9-1.54.3.073.673.44.973.44.223 0-1.724 3.667-1.724 3.667s2.022 1.32 2.696 1.833c.675.513 1.798 1.027 1.948 1.1.225.22-.3.953-.6.807-.224-.074-1.722-1.247-2.77-1.834-1.2-.66-1.723-1.027-1.723-1.027s-1.274 2.64-1.573 3.226c-.15.366 0 .66-.375.586-.3-.293-.75-.147-1.2-.22zM86.177 53.386c.225-.073 2.472-.66 3.37-.587.226 0 2.697-.147 3.746 0 1.273.146 7.714.22 8.688.293 5.544.88 6.817 2.053 8.09 2.493.375.147.15.66.375 1.1-.375 0-.6-.147-.824-.293-.45-.22-.823-.514-1.273-.734-1.572-.66-3.22-1.247-4.943-1.467-1.498-.22-2.996-.44-4.57-.367-.298 0-7.414-.147-7.938-.22-.6-.147-1.198-.147-1.798-.073-.823.073-2.77.073-2.995 0 .074 0 .074-.074.074-.147.225-.073 0 .073 0 0zM87.376 113.813c.225 0 .524.073.824.293.45.44.75.88.75 1.54 0 .587 0 1.173-.45 1.687-.45.513-1.274.733-1.873.366-.6-.367-.9-.954-1.05-1.614-.074-.293 0-.587 0-.807.15-.954.75-1.467 1.8-1.467.224-.074-1.05 0 0 0zM90.222 116.086c0-.44.075-.733.374-.953.75-.66 1.723-.66 2.322.073.225.22.45.513.525.88.224 1.027-.525 1.907-1.573 1.833-.525 0-.9-.22-1.2-.66-.223-.367-.523-.807-.448-1.174-.075-.44-.075.367 0 0zM64.1 53.533c1.274-.514 24.7-.367 21.478 0-.6.22-8.913.88-9.512.806-.6-.074-10.194.293-10.794 0l-1.17-.807zM76.515 73.7c-.224-.44.375-.66.6-1.1.374-.807 1.722-2.787 1.573-3.08-.075-.074-2.098-1.54-2.547-1.907-.523-.367-.673-.514-.673-.514l.6-.88 2.995 2.346s.6-1.393.9-1.907c.224-.367.673-1.174.898-1.54.3.073.674.44.973.44.225 0-1.722 3.666-1.722 3.666s2.023 1.32 2.697 1.833c.674.513 1.798 1.026 1.947 1.1.225.22-.3.953-.6.806-.224-.073-1.722-1.247-2.77-1.833-1.198-.66-1.723-1.027-1.723-1.027s-1.272 2.64-1.572 3.227c-.15.366 0 .66-.374.586-.375-.294-.75-.147-1.2-.22zM74.044 91.226c-.225-.44.374-.66.6-1.1.374-.807 1.722-2.787 1.572-3.08-.075-.073-2.097-1.54-2.547-1.907-.525-.367-.675-.514-.675-.514l.6-.88 2.995 2.347s.6-1.394.9-1.907c.224-.367.673-1.173.898-1.54.3.073.674.44.974.44.224 0-1.723 3.667-1.723 3.667s2.02 1.32 2.695 1.833c.674.513 1.798 1.027 1.948 1.1.224.22-.3.953-.6.807-.224-.074-1.722-1.247-2.77-1.834-1.2-.66-1.723-1.027-1.723-1.027s-1.274 2.64-1.573 3.226c-.15.366 0 .66-.375.586-.3-.293-.75-.147-1.198-.22zM86.327 89.54c-.224-.44.375-.66.6-1.1.374-.807 1.722-2.787 1.572-3.08-.076-.074-2.098-1.54-2.547-1.907-.525-.367-.674-.514-.674-.514l.598-.88 2.996 2.346s.6-1.393.9-1.907c.223-.367.673-1.174.897-1.54.3.073.675.44.975.44.225 0-1.723 3.666-1.723 3.666s2.023 1.32 2.697 1.833c.673.513 1.796 1.026 1.946 1.1.225.22-.3.953-.6.806-.224-.073-1.722-1.247-2.77-1.833-1.2-.66-1.723-1.027-1.723-1.027s-1.273 2.64-1.573 3.227c-.15.366 0 .66-.374.586-.3-.294-.75-.147-1.2-.22zM98.61 87.413c-.224-.44.375-.66.6-1.1.374-.807 1.723-2.787 1.573-3.08-.075-.074-2.097-1.54-2.547-1.907-.524-.367-.674-.513-.674-.513l.6-.88 2.995 2.346s.6-1.394.9-1.907c.224-.367.673-1.174.898-1.54.3.073.674.44.973.44.225 0-1.722 3.666-1.722 3.666s2.022 1.32 2.696 1.833c.674.513 1.798 1.026 1.948 1.1.224.22-.3.953-.6.806-.224-.074-1.722-1.247-2.77-1.834-1.2-.66-1.724-1.027-1.724-1.027s-1.273 2.64-1.572 3.226c-.15.367 0 .66-.375.587-.3-.294-.75-.147-1.2-.22z" fill="#05095E"/>
        </g>
    </g>
</svg>
