<?xml version="1.0" encoding="UTF-8" standalone="no"?>
<svg width="184px" height="184px" viewBox="0 0 184 184" version="1.1" xmlns="http://www.w3.org/2000/svg" xmlns:xlink="http://www.w3.org/1999/xlink">
    <defs></defs>
    <g id="Page-1" stroke="none" stroke-width="1" fill="none" fill-rule="evenodd">
        <g id="Foundations">
            <path d="M91.5860806,183.350598 C142.080686,183.350598 183.014652,142.446191 183.014652,91.9880478 C183.014652,41.5299049 142.080686,0.625498008 91.5860806,0.625498008 C41.0914749,0.625498008 0.157509158,41.5299049 0.157509158,91.9880478 C0.157509158,142.446191 41.0914749,183.350598 91.5860806,183.350598 L91.5860806,183.350598 Z" id="Oval-224" fill="#DAFFCB"></path>
            <path d="M106.514648,64.1784025 C101.542901,62.2391349 94.6701831,59.5013087 91.6981908,59.12978 C88.7261985,58.7582513 85.8282278,57.375257 81.8482216,61.2434211 C77.8682155,65.1115851 62.2575041,81.161801 62.2575041,81.161801 C62.2575041,81.161801 76.492363,86.1954042 83.9767167,89.5036493 C87.1773616,90.9184031 94.3125,95.3307977 94.3125,95.3307977 C94.3125,95.3307977 105.544876,83.5899085 109.128958,79.4116468 C112.71304,75.2333851 119.787161,71.0776624 119.787161,71.0776624 C119.787161,71.0776624 111.110352,65.9709914 106.514648,64.1784025 L106.514648,64.1784025 Z" id="Path" stroke="#77C259" stroke-width="2.000376" fill="#77C159"></path>
            <path d="M106.514648,64.1784025 C101.542901,62.2391349 93.0630209,59.5688499 89.5784334,59.3866674 C86.0938459,59.2044848 86.261616,59.0432771 82.2816098,62.9114412 C81.1785018,63.9835508 77.2468219,66.8319703 74.8886719,68.9893606 C68.7386328,74.6158196 63.9866879,81.4920847 63.9866879,81.4920847 C63.9866879,81.4920847 67.5135785,83.0576433 71.7378701,84.6350226 C75.5672652,86.0649449 82.0091587,87.9288858 85.5678454,89.5019017 C88.7684903,90.9166555 94.6803557,93.5317126 94.6803557,93.5317126 C94.6803557,93.5317126 105.746716,82.7205109 109.330798,78.5422492 C112.91488,74.3639875 119.50406,71.8666735 119.50406,71.8666735 C119.50406,71.8666735 111.110352,65.9709914 106.514648,64.1784025 L106.514648,64.1784025 Z" id="Path-4" stroke="#77C259" stroke-width="2.000376" fill="#A6E98B"></path>
            <path d="M95.5637336,95.4723479 C95.5637336,95.4723479 106.706984,83.1783815 112.810136,77.4395559 C114.454962,75.8929168 120.993395,72.5875308 120.993395,72.5875308 C120.993395,72.5875308 121.202662,74.6635999 121.591488,83.4021382 C121.980315,92.1406764 122.702046,97.5554071 122.702046,97.5554071 C122.702046,97.5554071 120.181172,101.92865 118.830387,103.251491 C115.129195,106.876109 111.138952,113.608137 106.393195,117.801449 C101.209834,122.381424 97.5323294,125.130166 97.5323294,125.130166 L95.5637336,95.4723479 L95.5637336,95.4723479 Z" id="Path-975" stroke="#77C259" stroke-width="2.000376" fill="#A6E98B"></path>
            <path d="M89.977832,92.6500822 C84.9981251,89.6832825 77.2677538,88.0628988 72.9560547,85.9823705 C69.6121872,84.3688509 61.553125,82.7568616 61.553125,82.7568616 L62.7493164,111.446546 C62.7493164,111.446546 67.5869143,115.495769 71.2061523,116.552837 C73.5851564,117.247671 84.3334961,121.296515 84.3334961,121.296515 L95.8005859,125.599815 C95.8005859,125.599815 95.4095886,115.469083 95.6415039,110.155119 C95.8414245,105.574261 95.1484375,95.7274877 95.1484375,95.7274877 C95.1484375,95.7274877 94.2755444,95.2105646 89.977832,92.6500822 L89.977832,92.6500822 L89.977832,92.6500822 Z" id="Path-973" stroke="#77C259" stroke-width="2.000376" fill="#A6E98B"></path>
        </g>
    </g>
</svg>