<?xml version="1.0" encoding="UTF-8" standalone="no"?>
<svg width="183px" height="183px" viewBox="0 0 183 183" version="1.1" xmlns="http://www.w3.org/2000/svg" xmlns:xlink="http://www.w3.org/1999/xlink">
    <defs></defs>
    <g id="Page-1" stroke="none" stroke-width="1" fill="none" fill-rule="evenodd">
        <g id="Upcase---Explore" transform="translate(-570.000000, -1878.000000)">
            <rect id="Rectangle-352" fill="#FFFFFF" x="-11" y="8" width="1140" height="2811"></rect>
            <g id="grid" transform="translate(99.000000, 889.000000)"></g>
            <g id="Topics" transform="translate(92.000000, 857.000000)">
                <g id="Haskell" transform="translate(478.000000, 1021.000000)">
                    <g>
                        <path d="M91.4285714,182.7251 C141.923177,182.7251 182.857143,141.820693 182.857143,91.3625498 C182.857143,40.9044068 141.923177,0 91.4285714,0 C40.9339657,0 0,40.9044068 0,91.3625498 C0,141.820693 40.9339657,182.7251 91.4285714,182.7251 Z" id="Oval-221" fill="#FFE7FE"></path>
                        <g id="Group" transform="translate(48.000000, 61.000000)" stroke="#D47ACC" stroke-width="3" fill="#FFC4FB">
                            <path d="M1.00397727,0.434443486 C5.39885476,0.387454343 12.2780806,0.958743405 12.2780806,0.958743405 C12.2780806,0.958743405 35.5313832,25.9915914 35.3745117,27.2504058 C35.2176403,28.5092203 28.4325373,39.1477273 28.4325373,39.1477273 C28.4325373,39.1477273 22.3285866,49.3031529 21.3881836,50.3583477 C20.4477805,51.4135425 13.036843,62.8047002 13.8748668,64.1187475 C14.6626159,65.3539624 1.16682872,63.8105776 0.690234375,63.9077085 C-1.83299689,64.4219481 2.64633305,58.3619104 5.94460227,53.4307782 C13.0308118,42.836423 22.7108576,26.6989017 22.7108576,26.6989017 C22.7108576,26.6989017 23.0984623,25.5295639 15.5500888,17.2169871 C8.00171523,8.90441034 -3.39090021,0.48143263 1.00397727,0.434443486 Z" id="Path-103"></path>
                            <path d="M25.4263849,0.740285106 C26.5781516,0.740285106 33.1692294,0.755123782 33.8512074,0.129426238 C34.2040658,-0.194312438 38.1853859,5.81904412 43.5557706,12.114131 C48.5648579,17.9857103 53.6832903,23.7991402 54.1933061,23.9009867 C55.2501243,24.1120257 81.4583896,59.5319475 83.0873757,59.8452085 C84.7163619,60.1584695 86.2900302,62.5524427 86.2900302,62.5524427 C86.2900302,62.5524427 71.9288619,61.8253475 71.9288619,63.1855596 C71.9288619,63.9248005 68.5029896,57.5177922 64.7309393,52.5305651 C61.5623722,48.3412353 58.6603085,44.0563285 57.7270419,42.7609451 C55.6827592,39.9234603 50.7776367,33.828886 50.7776367,33.828886 C50.7776367,33.828886 42.4873935,46.3527293 42.4873935,48.4482802 C42.4873935,50.5438312 33.902397,63.7255225 34.6859286,64.4064529 C35.0733972,64.7431836 31.9972874,63.7114451 28.4655629,63.773336 C24.8555015,63.8365998 20.7853976,64.9852163 20.9439897,64.562259 C21.2577326,63.7255225 42.9976385,26.8497616 43.5772372,26.4276836 C44.1568359,26.0056057 31.7705966,12.1215503 31.7705966,12.1215503 L22.1362127,1.0609654 C22.1362127,1.0609654 24.2746183,0.740285106 25.4263849,0.740285106 Z" id="Path-104"></path>
                            <path d="M67.5480202,27.3921976 C65.9610712,25.6181545 62.5763329,21.9769981 62.1912731,20.5771231 C61.9006853,19.5206988 65.9573781,20.153218 67.3548207,20.108056 C71.7422674,19.9662642 74.6969396,20.794967 83.0782937,20.4064783 C83.534553,20.38533 90.0843969,19.7270975 91.3289063,20.3042563 C92.8960955,21.0310624 92.1892223,30.4044491 92.1892223,30.4044491 C92.1892223,30.4044491 86.0896255,29.7453888 80.1159002,29.8257407 C76.4798892,29.8746482 71.7565137,29.4773826 70.5500444,30.0516183 C69.1826862,30.7024312 69.6385927,29.7292392 67.5480202,27.3921976 Z" id="Path-105"></path>
                            <path d="M77.9700639,42.2992974 C73.1053977,36.6457615 72.9055892,37.7837419 73.3233665,36.4627511 C73.7411437,35.1417603 79.7205617,36.2238649 83.3738725,36.1206372 C85.993218,36.0466251 92.2726119,36.4479124 92.2726119,36.4479124 C92.2726119,36.4479124 92.3141382,39.3107602 93.0123846,41.6257863 C93.5520466,43.4150283 93.3186967,46.3263494 93.3186967,46.3263494 C93.3186967,46.3263494 81.5326971,47.5019024 81.7919478,47.2034801 C82.0511985,46.9050578 82.8347301,47.9528333 77.9700639,42.2992974 Z" id="Path-106"></path>
                        </g>
                    </g>
                </g>
            </g>
        </g>
    </g>
</svg>