<svg width="183" height="183" viewBox="0 0 183 183" xmlns="http://www.w3.org/2000/svg">
    <g fill="none" fill-rule="evenodd">
        <g>
            <path d="M91.43 182.725c50.493 0 91.427-40.904 91.427-91.362C182.857 40.903 141.923 0 91.43 0 40.933 0 0 40.904 0 91.363c0 50.458 40.934 91.362 91.43 91.362z" fill="#FFE7FE"/>
            <path d="M49.004 61.434c4.395-.047 11.274.525 11.274.525S83.53 86.99 83.375 88.25c-.157 1.26-6.942 11.898-6.942 11.898s-6.104 10.155-7.045 11.21c-.94 1.056-8.35 12.447-7.513 13.76.788 1.236-12.708-.307-13.185-.21-2.523.514 1.956-5.546 5.255-10.477C61.03 103.837 70.71 87.7 70.71 87.7s.388-1.17-7.16-9.483S44.61 61.48 49.004 61.434z" stroke="#D47ACC" stroke-width="3" fill="#FFC4FB"/>
            <path d="M73.426 61.74c1.152 0 7.743.015 8.425-.61.354-.324 4.335 5.69 9.706 11.984 5.01 5.872 10.127 11.685 10.637 11.787 1.057.212 27.265 35.632 28.894 35.945 1.63.313 3.203 2.707 3.203 2.707s-14.36-.727-14.36.634c0 .74-3.427-5.668-7.2-10.655-3.168-4.19-6.07-8.474-7.003-9.77-2.044-2.837-6.95-8.93-6.95-8.93s-8.29 12.523-8.29 14.618c0 2.096-8.585 15.278-7.8 15.958.386.337-2.69-.695-6.22-.633-3.61.064-7.682 1.212-7.523.79.314-.837 22.054-37.713 22.633-38.135.58-.422-11.806-14.306-11.806-14.306l-9.634-11.06s2.14-.322 3.29-.322z" stroke="#D47ACC" stroke-width="3" fill="#FFC4FB"/>
            <path d="M115.548 88.392c-1.587-1.774-4.972-5.415-5.357-6.815-.29-1.056 3.767-.424 5.165-.47 4.387-.14 7.342.688 15.723.3.457-.022 7.006-.68 8.25-.103 1.568.727.86 10.1.86 10.1s-6.098-.66-12.072-.578c-3.636.05-8.36-.35-9.566.226-1.367.65-.91-.323-3.002-2.66z" stroke="#D47ACC" stroke-width="3" fill="#FFC4FB"/>
            <path d="M125.97 103.3c-4.865-5.654-5.064-4.516-4.647-5.837.418-1.32 6.398-.24 10.05-.342 2.62-.073 8.9.328 8.9.328s.04 2.863.74 5.178c.54 1.79.306 4.7.306 4.7s-11.787 1.176-11.528.877c.26-.298 1.043.75-3.822-4.904z" stroke="#D47ACC" stroke-width="3" fill="#FFC4FB"/>
        </g>
    </g>
</svg>
