<svg width="183" height="184" viewBox="0 0 183 184" xmlns="http://www.w3.org/2000/svg">
    <g fill="none" fill-rule="evenodd">
        <g>
            <path d="M91.586 183.35c50.495 0 91.43-40.904 91.43-91.362 0-50.458-40.935-91.363-91.43-91.363C41.09.625.158 41.53.158 91.988S41.09 183.35 91.586 183.35z" fill="#D7EDFF"/>
            <path d="M61.643 52.965c-.89 3.948 4.79 57.66 5.125 60.46.185 1.553.77 16.182 2.054 21.808 1.284 5.626 9.315 4.946 15.972 5.81 2.01.26 14.943.85 21.572-.316 1.828-.322 10.26.513 13.112-2.242 2.85-2.754 2.928-11.168 2.853-13.964-.01-.45.233-5.615-.325-19.125-.54-13.055-1.514-27.638-1.896-37.556-.186-4.836-.25-11.187-.403-12.39-.792-6.22-4.17-6.148-7.66-6.424-2.186-.173-4.757-1.1-10.54-.402-3.46.417-38.975.392-39.864 4.34z" fill="#24415D"/>
            <path d="M63.655 53.555s46.373-6.138 52.5-1.045c2.062 1.714 1.14 6.38 1.452 10.297.613 7.722.703 15.84.703 15.84l1.23 13.386.238 16.11s.434 22.195-.283 23.397c-.683 1.145-.96 3.675-7.284 4.207-6.324.53-8.722.697-8.722.697s-5.356 1.796-18.647.236c-13.29-1.56-11.02-.657-12.878-2.983-1.857-2.326-2.875-11.894-3.117-17.645-.102-2.423-.232-4.985-.848-7.748-.21-.942-.652-1.642-.595-2.87.262-5.65-1.03-7.49-1.616-22.485-.585-14.996-2.13-29.395-2.13-29.395z" fill="#7AA1C7"/>
            <path d="M69.05 61.365s8.543-.576 12.87-.942c4.325-.366 19.695-1.403 24.57-1.415 4.874-.013 4.704.38 5.803 2.643 1.098 2.266.52 14.458 1.442 30.877.924 16.42 4.41 27.407.493 32.114-3.916 4.707-29.065 2.663-33.91 2.82-4.843.158-6.11-3.222-6.11-3.222s-1.718-13.694-1.355-14.33c.364-.637-1.09-16.054-1.09-16.054s-2.25-14.106-1.887-22.66c.364-8.556-.826-9.83-.826-9.83z" fill="#396797"/>
            <path d="M93.82 133.196c-1.786-.167-3.462-1.552-.322-2.804 3.14-1.252 2.574 1.696 2.574 1.696s-.465 1.275-2.25 1.108zm-.946-78.394c-1.43.18-1.584.702-3.353.884-1.768.183-4.788-.044-4.788-.044l.183 1.525s2.936.176 4.646.02c1.712-.16 1.906-.726 2.948-.89 1.03-.16 2.127.077 2.127.077l.03-1.426s-.918-.255-1.79-.146z" fill="#172B3F"/>
        </g>
    </g>
</svg>
