<?xml version="1.0" encoding="UTF-8" standalone="no"?>
<svg width="183px" height="182px" viewBox="0 0 183 182" version="1.1" xmlns="http://www.w3.org/2000/svg" xmlns:xlink="http://www.w3.org/1999/xlink">
    <defs></defs>
    <g id="Page-1" stroke="none" stroke-width="1" fill="none" fill-rule="evenodd">
        <g id="Upcase---Explore" transform="translate(-101.000000, -1637.000000)">
            <g id="grid" transform="translate(99.000000, 889.000000)"></g>
            <g id="Topics" transform="translate(92.000000, 857.000000)">
                <g id="iOS" transform="translate(9.000000, 780.000000)">
                    <g>
                        <path d="M91.5860806,182.350598 C142.080686,182.350598 183.014652,141.446191 183.014652,90.9880478 C183.014652,40.5299049 142.080686,-0.374501992 91.5860806,-0.374501992 C41.0914749,-0.374501992 0.157509158,40.5299049 0.157509158,90.9880478 C0.157509158,141.446191 41.0914749,182.350598 91.5860806,182.350598 Z" id="Oval-219" fill="#D7EDFF"></path>
                        <path d="M61.6428252,51.9647091 C60.7535515,55.9129606 66.4339419,109.626064 66.7680825,112.426481 C66.9531632,113.977633 67.5366831,128.607287 68.8215445,134.233133 C70.1064059,139.85898 78.1369146,139.179253 84.7939453,140.041992 C86.8030213,140.302365 99.7374762,140.892672 106.366211,139.726562 C108.194418,139.404949 116.627053,140.239811 119.477539,137.485352 C122.328025,134.730892 122.406329,126.316812 122.331055,123.520508 C122.318901,123.069011 122.562722,117.904594 122.004708,104.39473 C121.465473,91.3395184 120.490911,76.7569921 120.109477,66.8392702 C119.923517,62.0041136 119.860404,55.6529594 119.70727,54.4504324 C118.91499,48.2288342 115.537269,48.3018594 112.045903,48.0257394 C109.86103,47.8529452 107.289592,46.9246212 101.506331,47.6235331 C98.0481046,48.0414626 62.5320989,48.0164577 61.6428252,51.9647091 Z" id="Path-87" fill="#24415D"></path>
                        <path d="M63.6546262,52.5553238 C63.6546262,52.5553238 110.028289,46.4172257 116.155032,51.5102029 C118.216519,53.2238549 117.296274,57.89102 117.607119,61.8069829 C118.220107,69.5292697 118.309771,77.6459469 118.309771,77.6459469 L119.540661,91.0326693 L119.778209,107.144155 C119.778209,107.144155 120.212427,129.338326 119.495241,130.540147 C118.812049,131.685002 118.53601,134.215454 112.211206,134.74672 C105.886401,135.277986 103.488191,135.444172 103.488191,135.444172 C103.488191,135.444172 98.1322176,137.239515 84.8408466,135.680192 C71.5494755,134.120869 73.8195102,135.022518 71.9622895,132.696794 C70.1050688,130.371069 69.087287,120.802637 68.8448029,115.052282 C68.7426244,112.629188 68.6131277,110.066921 67.996806,107.304489 C67.7865745,106.362204 67.3453023,105.662372 67.4022544,104.432564 C67.6638753,98.7831878 66.3707596,96.9441202 65.7857462,81.9490653 C65.2007329,66.9540103 63.6546262,52.5553238 63.6546262,52.5553238 Z" id="Path-83" fill="#7AA1C7"></path>
                        <path d="M69.0504927,60.3650748 C69.0504927,60.3650748 77.5932241,59.7888789 81.9193261,59.4227629 C86.2454281,59.056647 101.614534,58.0198183 106.489269,58.0075272 C111.364004,57.9952361 111.193691,58.3868585 112.292531,60.6514811 C113.391371,62.9161036 112.811828,75.1077301 113.73517,91.5267808 C114.658512,107.945832 118.145296,118.934267 114.228425,123.640522 C110.311554,128.346778 85.1634956,126.30304 80.3193406,126.460386 C75.4751857,126.617733 74.2084569,123.238316 74.2084569,123.238316 C74.2084569,123.238316 72.4899688,109.543735 72.8533311,108.907396 C73.2166934,108.271058 71.7625123,92.8536196 71.7625123,92.8536196 C71.7625123,92.8536196 69.5129353,78.7482974 69.8762977,70.1929313 C70.23966,61.6375653 69.0504927,60.3650748 69.0504927,60.3650748 Z" id="Path-84" fill="#396797"></path>
                        <path d="M93.8205126,132.196171 C92.0336783,132.029478 90.3576696,130.643705 93.4975743,129.391922 C96.6374791,128.140139 96.0719964,131.087916 96.0719964,131.087916 C96.0719964,131.087916 95.6073469,132.362863 93.8205126,132.196171 Z M92.8737018,53.8022615 C91.4446724,53.9806142 91.2902476,54.5036957 89.521246,54.6862314 C87.7522445,54.868767 84.7321218,54.6423561 84.7321218,54.6423561 L84.9149895,56.1672124 C84.9149895,56.1672124 87.8506338,56.3428881 89.5613562,56.1856653 C91.2720785,56.0284425 91.4659851,55.4611452 92.5084012,55.298049 C93.5372778,55.1370713 94.6350118,55.3742914 94.6350118,55.3742914 L94.6649036,53.9477883 C94.6649036,53.9477883 93.7468538,53.6932861 92.8737018,53.8022615 Z" id="Path-85" fill="#172B3F"></path>
                    </g>
                </g>
            </g>
        </g>
    </g>
</svg>
