<svg width="184" height="184" viewBox="0 0 184 184" xmlns="http://www.w3.org/2000/svg">
    <g fill="none" fill-rule="evenodd">
        <g>
            <path d="M92 183.363c50.495 0 91.43-40.905 91.43-91.363S142.494.637 92 .637C41.505.637.57 41.542.57 92S41.506 183.363 92 183.363z" fill="#FFE9CA"/>
            <g>
                <path d="M114.622 81.11s7.732-3.123 11.186-2.545c3.454.578 4.38 2.098 5.328 5.307.75 2.54.475 6.39.546 10.123.17 8.89-1.293 18.388-8.2 17.13-9.81-1.787-15.728-7.143-15.728-7.143l2.083-11.427s8.774 11.514 13.186 9.392c2.172-1.044 2.858-3.526 2.958-6.42.105-2.984-.424-6.387-1.293-7.772-1.71-2.727-11.054-.045-11.054-.045l.99-6.6z" stroke="#F89A1D" stroke-width="2.7" fill="#FFB34D"/>
                <path d="M65.602 79.813s-1.67 7.294 2.223 22.493c1.596 6.23 3.76 9.77 5.165 12.387 3.922 7.31 9.568 7.866 20.97 7.942 29.346.195 23.078-41.634 23.327-46.41.248-4.773-51.685 3.588-51.685 3.588z" stroke="#F89A1D" stroke-width="2.7" fill="#FFB34D"/>
                <path d="M70.158 83.637c3.946 1.755 15.513 3.987 24.896 2.658 9.383-1.33 21.243.935 22.354-9.965 1.11-10.9-15.095-11.18-25.823-11.522-14.722-.47-35.432 12.6-21.427 18.83z" stroke="#F79A1E" stroke-width="2.465" fill="#F79A1E"/>
                <path d="M96.543 67.81c8.674.228 14.973 3.412 18.842 6.107 2.524 1.757 1.88 5.206-4.185 8.372-6.063 3.164-32.14 4.062-39.343 1.157-7.202-2.904-6.767-7.603 2.46-11.503 4.353-1.84 14.476-4.34 22.226-4.135z" fill="#EE6F02"/>
            </g>
        </g>
    </g>
</svg>
