<?xml version="1.0" encoding="UTF-8" standalone="no"?>
<svg width="184px" height="184px" viewBox="0 0 184 184" version="1.1" xmlns="http://www.w3.org/2000/svg" xmlns:xlink="http://www.w3.org/1999/xlink">
    <defs></defs>
    <g id="Page-1" stroke="none" stroke-width="1" fill="none" fill-rule="evenodd">
        <g id="javascript" transform="translate(1.000000, 1.000000)">
            <path d="M91,182.36255 C141.494606,182.36255 182.428571,141.458143 182.428571,91 C182.428571,40.541857 141.494606,-0.362549801 91,-0.362549801 C40.5053943,-0.362549801 -0.428571429,40.541857 -0.428571429,91 C-0.428571429,141.458143 40.5053943,182.36255 91,182.36255 L91,182.36255 L91,182.36255 Z" id="Oval-219" fill="#FFE9CA"></path>
            <g id="cup" transform="translate(97.500000, 93.000000) rotate(3.000000) translate(-97.500000, -93.000000) translate(64.000000, 64.000000)">
                <path d="M48.924443,15.2941868 C48.924443,15.2941868 56.4807099,11.775034 59.9590386,12.172253 C63.4373674,12.5694721 64.4412496,14.0395412 65.5532769,17.1931704 C66.4337072,19.6900071 66.3600003,23.5471177 66.624991,27.2703293 C67.25596,36.1356675 66.2889678,45.6945297 59.3277633,44.797253 C49.4430339,43.5231435 43.2562934,38.483955 43.2562934,38.483955 L44.7417897,26.968246 C44.7417897,26.968246 54.0994466,38.0064684 58.3935728,35.6592322 C60.5077079,34.503613 61.0632132,31.9904846 61.0131836,29.0962282 C60.9615956,26.1118146 60.2567125,22.7424789 59.3174642,21.405284 C57.4673417,18.7712898 48.2798394,21.9339298 48.2798394,21.9339298 L48.924443,15.2941868 L48.924443,15.2941868 Z" id="Path-221" stroke="#F89A1D" stroke-width="2.7" fill="#FFB34D"></path>
                <path d="M-0.0799696181,16.546371 C-0.0799696181,16.546371 -1.36742036,23.9149377 3.30844004,38.8859207 C5.22528755,45.0232065 7.57014474,48.4435511 9.10805488,50.983262 C13.4037299,58.0771569 19.0687815,58.3390314 30.4563079,57.8221606 C59.7615379,56.4920195 51.3308015,15.0603159 51.3308015,10.2805779 C51.3308015,5.50084005 -0.0799696181,16.546371 -0.0799696181,16.546371 L-0.0799696181,16.546371 L-0.0799696181,16.546371 Z" id="Path-220" stroke="#F89A1D" stroke-width="2.7" fill="#FFB34D"></path>
                <path d="M4.66731771,20.1275201 C8.6973018,21.6744792 20.3607494,23.3018313 29.659035,21.4868951 C38.9573206,19.671959 50.9139902,21.3163643 51.4568142,10.3780242 C51.9996383,-0.56031586 35.8070023,8.0185858e-14 25.0789569,0.216817877 C10.3583016,0.514327915 -9.63735044,14.6364972 4.66731771,20.1275201 L4.66731771,20.1275201 L4.66731771,20.1275201 Z" id="Oval-34" stroke="#F79A1E" stroke-width="2.46501727" fill="#F79A1E"></path>
                <path d="M30.1848959,2.95566616 C38.8563419,2.7330173 45.3101904,5.58483715 49.3121745,8.0734207 C51.9233036,9.6971186 51.4580635,13.1736648 45.569354,16.6486895 C39.6806446,20.1237143 13.6945118,22.3748372 6.35394965,19.8497984 C-0.986612511,17.3247596 -0.797272859,12.6107611 8.21081995,8.23786122 C12.4613791,6.17446446 22.4375004,3.15458901 30.1848959,2.95566616 L30.1848959,2.95566616 Z" id="Path-222" fill="#EE6F02"></path>
            </g>
        </g>
    </g>
</svg>