<svg width="184" height="184" viewBox="0 0 184 184" xmlns="http://www.w3.org/2000/svg">
    <g fill="none" fill-rule="evenodd">
        <g>
            <path d="M92 183.363c50.495 0 91.43-40.905 91.43-91.363S142.494.637 92 .637C41.505.637.57 41.542.57 92S41.506 183.363 92 183.363z" fill="#FFECEE"/>
            <path d="M61.59 91.438s12.652 12.82 19.877 19.007c7.38 6.32 23.335 17.18 23.335 17.18s8.027-9.332 13.033-24.578c1.15-3.505 7.855-26.413 5.187-30.057-1.918-2.62-2.757-5.04-5.187-6.517-2.694-1.638-11.077-5.316-11.564-5.47-3.61-1.135-9.596-3.24-15.027-4.23-5.43-.988-11.83 2.035-11.83 2.035l-9.85 7.665-7.973 24.965z" fill="#C10B1A"/>
            <g fill="#FF4150">
                <path d="M71.18 68.603L83.8 74.65 64.166 91.187l7.013-22.585z"/>
                <path d="M64.167 91.19s3.987-5.476 8.668-10.12c4.68-4.647 10.033-6.408 10.033-6.408s3.19.1 4.96 0c1.525-.085 4.922-.552 4.922-.552s1.797 4.837 2.485 7.423c.858 3.226 2.155 10.013 2.155 10.013l-33.223-.355z"/>
                <path d="M98.306 72.33c-2.557 1.125-5.76 1.722-5.76 1.722s1.658 4.127 2.765 8.145c1.11 4.017 1.684 8.835 1.684 8.835s20.186-6.147 21.583-11.438c1.397-5.29-14.905-11.946-14.905-11.946s-2.81 3.556-5.366 4.68z"/>
                <path d="M103.946 61.572s-.4 3.485-.465 4.407c-.11 1.55 0 2.39 0 2.39l15.478 11.422s4.442-5.3 0-10c-4.443-4.703-15.012-8.22-15.012-8.22z"/>
                <path d="M82.53 59.722l-6.223 3.896-5.125 4.983 11.347 6.12s6.36.25 10.006-.4c3.647-.65 7.63-1.53 10.156-4.42 2.526-2.888 1.32-8.33 1.32-8.33L91.89 58.086l-9.36 1.635z"/>
                <path d="M64.174 91.184s11.616 11.828 17.72 16.896c7.573 6.286 23.312 17.165 23.312 17.165l-7.865-34.33-33.166.27z"/>
                <path d="M116.43 97.888C120.55 83.196 121 73.924 121 73.924s-3.756 5.518-5.778 7.356c-5.06 4.6-18.115 9.354-18.115 9.354l8.16 35.044s7.047-13.098 11.166-27.79z"/>
            </g>
            <g fill="#C10B1A">
                <path d="M104.228 124.647l-12.266-49.41-9.634 1.045-11.656-5.817v-2.762l11.275 5.72 9.906-.47 12.102-4.675 2.076-6.305h2.415l-2.99 7.632-11.7 4.6 12.44 50.02-1.967.422z"/>
                <path d="M81.15 74.547l-17.985 16.05 1.207 2.36L83.75 73.752l-2.6.794z"/>
                <path d="M104.06 69.96l12.383 9.46 2.24-1.294-13.19-10.405-1.433 2.24z"/>
                <path d="M120.053 69.493l-3.077 8.775L97.6 88.52l-31.707 1.666-1.034 2.065 33.044-1.717 21.182-10.873 2.512-8.155-1.545-2.012z"/>
            </g>
        </g>
    </g>
</svg>
