<?xml version="1.0" encoding="UTF-8" standalone="no"?>
<svg width="182px" height="182px" viewBox="0 0 182 182" version="1.1" xmlns="http://www.w3.org/2000/svg" xmlns:xlink="http://www.w3.org/1999/xlink">
    <defs></defs>
    <g id="Page-1" stroke="none" stroke-width="1" fill="none" fill-rule="evenodd">
        <g id="Upcase---Explore" transform="translate(-571.000000, -906.000000)">
            <rect id="Rectangle-352" fill="#FFFFFF" x="-11" y="8" width="1140" height="2811"></rect>
            <g id="grid" transform="translate(99.000000, 889.000000)"></g>
            <g id="Topics" transform="translate(92.000000, 857.000000)">
                <g id="rails" transform="translate(479.000000, 49.000000)">
                    <g id="bg-+-gem-+-outline">
                        <path d="M91,182.36255 C141.494606,182.36255 182.428571,141.458143 182.428571,91 C182.428571,40.541857 141.494606,-0.362549801 91,-0.362549801 C40.5053943,-0.362549801 -0.428571429,40.541857 -0.428571429,91 C-0.428571429,141.458143 40.5053943,182.36255 91,182.36255 Z" id="Oval-219" fill="#FFECEE"></path>
                        <path d="M60.5898438,90.4384775 C60.5898438,90.4384775 73.2422782,103.259033 80.4667969,109.445313 C87.8457939,115.763872 103.801758,126.625978 103.801758,126.625978 C103.801758,126.625978 111.828545,117.293487 116.834961,102.046875 C117.985953,98.5416266 124.690324,75.6337388 122.022461,71.9902342 C120.103503,69.3695102 119.265375,66.9509398 116.834961,65.4731443 C114.140905,63.8350434 105.757749,60.1568525 105.271484,60.0039065 C101.659721,58.8678897 95.6739012,56.7615857 90.2431641,55.7734375 C84.8124269,54.7852893 78.4130859,57.8076172 78.4130859,57.8076172 L68.5615234,65.4731445 L60.5898438,90.4384775 Z" id="bg" fill="#C10B1A"></path>
                        <g id="gem" transform="translate(63.000000, 57.000000)" fill="#FF4150">
                            <path d="M7.1793846,10.6029321 L19.8000808,16.6493425 L0.166251359,33.1881431 L7.1793846,10.6029321 Z" id="Path-32"></path>
                            <path d="M0.166821423,33.1909269 C0.166821423,33.1909269 4.15425164,27.7135416 8.83517111,23.0685095 C13.5160906,18.4234775 18.8684928,16.661895 18.8684928,16.661895 C18.8684928,16.661895 22.0591275,16.7607344 23.8294997,16.661895 C25.3530603,16.576835 28.7502912,16.1101967 28.7502912,16.1101967 C28.7502912,16.1101967 30.5468151,20.9472554 31.234818,23.5329276 C32.093243,26.7590847 33.3895747,33.5456847 33.3895747,33.5456847 L0.166821423,33.1909269 Z" id="Path-33"></path>
                            <path d="M34.3058229,14.329173 C31.7485305,15.4547663 28.5446536,16.0516864 28.5446536,16.0516864 C28.5446536,16.0516864 30.2043881,20.1790814 31.3114634,24.1965645 C32.4185387,28.2140476 32.9942306,33.0315755 32.9942306,33.0315755 C32.9942306,33.0315755 53.1802694,26.885474 54.577329,21.5943527 C55.9743885,16.3032315 39.6722058,9.6484876 39.6722058,9.6484876 C39.6722058,9.6484876 36.8631153,13.2035797 34.3058229,14.329173 Z" id="Path-34"></path>
                            <path d="M39.9461386,3.57156298 C39.9461386,3.57156298 39.5469751,7.05655275 39.4809665,7.97907536 C39.3700825,9.52876836 39.4809665,10.3704428 39.4809665,10.3704428 L54.9575576,21.7923182 C54.9575576,21.7923182 59.4004061,16.4934394 54.9575576,11.7913659 C50.514709,7.08929234 39.9461386,3.57156298 39.9461386,3.57156298 Z" id="Path-35"></path>
                            <path d="M18.5285272,1.72188001 L12.3068961,5.61813902 L7.18176851,10.6006038 L18.5285274,16.7210128 C18.5285274,16.7210128 24.8896112,16.9696313 28.5363618,16.3197409 C32.1831123,15.6698504 36.1667707,14.7904873 38.6922054,11.9012957 C41.2176401,9.01210416 40.0128879,3.56933594 40.0128879,3.56933594 L27.8898368,0.0868389423 L18.5285272,1.72188001 Z" id="Path-36"></path>
                            <path d="M0.173765838,33.1836384 C0.173765838,33.1836384 11.7898811,45.0123369 17.8947112,50.0800305 C25.4673894,56.3662028 41.2062908,67.2452363 41.2062908,67.2452363 L33.3406529,32.9148247 L0.173765838,33.1836384 Z" id="Path-38"></path>
                            <path d="M52.4312657,39.8880208 C56.5504063,25.1959074 56.9982879,15.9238782 56.9982879,15.9238782 C56.9982879,15.9238782 53.2424525,21.442135 51.2203582,23.2796474 C46.1585717,27.8793813 33.1047025,32.6335637 33.1047025,32.6335637 L41.2643336,67.6784966 C41.2643336,67.6784966 48.312125,54.5801343 52.4312657,39.8880208 Z" id="Path-39"></path>
                        </g>
                        <g id="outline" transform="translate(62.000000, 61.000000)" fill="#C10B1A">
                            <path d="M41.2275391,62.6474609 L28.9619141,13.2382812 L19.328125,14.2822266 L7.671875,8.46484375 L7.671875,5.703125 L18.9472656,11.421875 L28.8525391,10.9541016 L40.9550781,6.27832031 L43.03125,-0.02734375 L45.4453125,-0.02734375 L42.4550781,7.60546875 L30.7558594,12.2050781 L43.1953125,62.2236328 L41.2275391,62.6474609 Z" id="Path-75"></path>
                            <path d="M18.1503906,12.546875 L0.165039062,28.5966797 L1.37207031,30.9560547 L20.7490234,11.7529297 L18.1503906,12.546875 Z" id="Path-76"></path>
                            <path d="M41.0595703,7.95996094 L53.4433594,17.4199219 L55.6835938,16.1259766 L42.4941406,5.72070312 L41.0595703,7.95996094 Z" id="Path-77"></path>
                            <path d="M57.0527344,7.49316406 L53.9755859,16.2675781 L34.5996094,26.5214844 L2.89257812,28.1855469 L1.859375,30.2509766 L34.9042969,28.5332031 L56.0859375,17.6601562 L58.5976562,9.50488281 L57.0527344,7.49316406 Z" id="Path-78"></path>
                        </g>
                    </g>
                </g>
            </g>
        </g>
    </g>
</svg>