<?xml version="1.0" encoding="UTF-8" standalone="no"?>
<svg width="183px" height="182px" viewBox="0 0 183 182" version="1.1" xmlns="http://www.w3.org/2000/svg" xmlns:xlink="http://www.w3.org/1999/xlink">
    <defs></defs>
    <g id="Page-1" stroke="none" stroke-width="1" fill="none" fill-rule="evenodd">
        <g id="Upcase---Explore" transform="translate(-569.000000, -1397.000000)">
            <g id="grid" transform="translate(99.000000, 889.000000)"></g>
            <g id="Topics" transform="translate(92.000000, 857.000000)">
                <g id="vim" transform="translate(477.000000, 540.000000)">
                    <g id="illustration">
                        <path d="M91.5860806,182.350598 C142.080686,182.350598 183.014652,141.446191 183.014652,90.9880478 C183.014652,40.5299049 142.080686,-0.374501992 91.5860806,-0.374501992 C41.0914749,-0.374501992 0.157509158,40.5299049 0.157509158,90.9880478 C0.157509158,141.446191 41.0914749,182.350598 91.5860806,182.350598 Z" id="Oval-217" fill="#E2F5FF"></path>
                        <g id="Group" transform="translate(26.000000, 77.000000)">
                            <g id="L" transform="translate(100.000000, 0.000000)">
                                <path d="M3.86523438,25.4667969 C-0.9453125,23.1689453 -1.03613281,5.98535156 1.78069464,2.05765188 C2.9018679,0.494321537 6.49545808,0.826476571 11.4462891,0.174804687 C18.9338895,-0.810779086 28.5532791,-1.55413605 29.7079784,5.25279946 C30.9941976,12.8350427 31.3563767,25.9785676 20.8681641,27.7255859 C20.6727315,27.785828 16.1771064,27.2935096 11.7783203,27.0878906 C7.37953423,26.8822717 8.67578125,27.7646484 3.86523438,25.4667969 Z" id="Path" fill="#0480C3"></path>
                                <path d="M4.92819598,22.7317697 C11.673986,26.3759244 24.2201004,26.6263616 27.3933304,19.8196403 C29.4349819,15.4402059 29.1201172,4.16894531 26.4609375,2.32421875 C23.8017578,0.479492187 17.5087891,0.90625 17.5087891,0.90625 C17.5087891,0.90625 9.00154413,2.32482847 4.89746094,2.4453125 C4.37630752,2.38507049 2.85021874,4.28249066 2.78507457,4.76442676 C2.78507457,4.76442676 1.01216332,20.616283 4.92819598,22.7317697 Z" id="Path" fill="#89D6FF"></path>
                                <path d="M19.6960464,19.7344412 C21.7117676,19.7344412 11.8961079,20.525766 11.6634482,19.451336 C10.9208996,15.9730011 12.8474004,10.8722712 13.4549402,7.52519426 C13.6574534,6.34387298 16.2865142,7.4390616 16.6915407,7.83283536 C16.0840009,9.60481728 15.4200368,11.7589728 15.2850279,13.5965836 C14.6099838,21.209543 16.7010699,15.6391718 20.4713055,17.5612153 C19.7962613,18.1518759 20.0158119,19.6620739 19.6960464,19.7344412 Z" id="Shape" fill="#0480C3"></path>
                            </g>
                            <g id="K" transform="translate(70.000000, 0.000000)">
                                <path d="M27.3037109,13.8720703 C27.9369276,24.903571 28.5839323,23.5354232 25.3945313,26.6035156 C23.247819,28.6898185 14.6227409,29.098963 11.9853516,28.8535156 C10.4519857,28.7307919 0.951744804,28.7549816 0.817382813,25.0390625 C0.683020821,21.3231434 1.49826823,16.2901234 1.25292969,11.8720703 C1.06892578,8.92670155 -1.03333605,5.00236381 2.13131767,3.04887386 C5.29597139,1.09538391 12.6821588,0.48170228 12.4981548,0.48170228 C12.6208241,0.48170228 21.0453341,0.291098206 25.262544,0.481702282 C29.479754,0.672306359 27.0327649,9.1518198 27.3037109,13.8720703 Z" id="Path" fill="#0480C3"></path>
                                <path d="M12.787367,1.76481166 C6.77657266,1.64208796 4.2969349,2.77524536 3.43824999,3.26614016 C0.800860633,4.61610084 2.47181033,14.7439837 2.53314497,17.6893525 C2.65581424,22.7210241 1.66139967,23.7957087 6.50683594,25.2070312 C10.4935873,26.3729064 19.4265594,26.0132424 22.5283203,23.5947266 C25.6300812,21.1762107 25.4462359,20.6954904 25.5565208,14.5611237 C25.6668057,8.42675705 26.5828177,2.93404686 23.6849822,2.23412571 C20.7871466,1.53420455 12.787367,1.76481166 12.787367,1.76481166 Z" id="Path" fill="#89D6FF"></path>
                                <path d="M14.1848144,14.3652342 C14.642348,14.1078086 14.27489,18.3653632 13.3613281,19.230913 C12.4477662,20.0964628 11.1663458,20.3847883 10.7595215,19.230913 C10.2361559,17.746492 11.7626952,17.9270699 11.2460937,13.2316894 C10.7294922,8.536309 9.99966334,8.88309635 10.2973633,8.00415035 C10.7595215,6.63964844 12.4169248,7.403612 12.8190567,7.13964843 C14.3223814,7.33271763 13.6034002,12.0487359 14.5838293,11.6625975 C15.9874891,11.1507214 18.0463972,8.18098683 19.8852538,7.6455078 C20.3583274,7.50774773 20.822762,8.44240034 21.2507474,8.54775064 C22.2311765,10.6715118 14.9106389,11.7655706 16.8714972,14.082401 C17.9172883,15.369529 22.7540721,17.3645774 21.2507474,19.2309129 C16.8714971,19.230913 14.7077099,14.0434522 14.1848144,14.3652342 Z" id="Shape" fill="#0480C3"></path>
                            </g>
                            <g id="J" transform="translate(35.000000, 1.000000)">
                                <path d="M28.6674835,1.30750062 C30.9621416,2.06533659 34.0542297,1.62084693 33.8666274,11.7791597 C33.6790251,21.9374725 32.1663916,25.0356619 30.0683594,26.7460938 C27.4637856,28.8923703 25.089307,26.541618 16.4824219,26.8105469 C7.87553679,27.0794757 5.5929703,27.5199109 1.59082031,25.6337891 C-1.96664634,23.8777446 0.070757812,8.0053401 1.03148981,4.25679421 C1.99222181,0.508248324 9.67384364,0.0124797535 9.67384364,0.0124797535 C17.0428817,0.532789228 23.839493,-0.253427807 28.6674835,1.30750062 Z" id="Path" fill="#0480C3"></path>
                                <path d="M12.4149238,0.842474798 C8.0946547,0.893583647 5.04862224,1.34151301 3.20636272,3.35771222 C1.17352463,5.63406617 -0.154296875,22.8193359 6.9609375,23.4960938 C14.0761719,24.1728516 18.0960234,23.3366213 23.5214844,23.2460938 C27.8215362,23.1743444 28.7646817,26.5470673 30.8172755,20.2401535 C32.8698694,13.9332398 32.3505269,12.1312644 32.1466016,7.55962146 C31.9426763,2.98797851 30.0585056,2.59253707 27.2633532,1.81207286 C23.3882556,0.836492594 16.7351928,0.791365949 12.4149238,0.842474798 Z" id="Path" fill="#89D6FF"></path>
                                <path d="M13.415693,19.0683998 C11.5092413,19.1348851 9.02256527,15.4117078 11.4263521,14.81334 C12.3381334,14.6138841 15.0734771,18.8689438 15.1563663,15.8771049 C15.1563663,13.8825457 15.0734771,10.8242215 15.7365907,8.8961475 C15.7365907,8.82966219 15.0734771,1.84870475 18.720602,4.57460242 C20.2954968,5.83782329 18.8034912,12.020957 19.0521588,13.0182367 C18.4719343,15.6111637 17.6430423,18.8689438 13.415693,19.0683998 Z" id="Shape" fill="#0480C3"></path>
                            </g>
                            <g id="H" transform="translate(0.000000, 1.000000)">
                                <path d="M10.6589356,0.0144042956 C6.33866656,0.0655131448 4.18283567,1.37198444 2.34057615,3.38818365 C0.307738064,5.6645376 -1.04066108,26.9528289 9.52009617,26.237661 C20.0808534,25.5224931 18.8925598,26.4773209 24.3180208,26.3867933 C28.6180726,26.3150439 28.9897198,29.3365632 31.0423137,23.0296494 C33.0949075,16.7227356 31.246239,9.92935523 31.0423137,5.35771229 C30.8383884,0.78606935 28.7655391,1.80428747 25.9703867,1.02382325 C22.0952891,0.0482429902 14.9792047,-0.0367045535 10.6589356,0.0144042956 Z" id="Path-2" fill="#89D6FF"></path>
                                <path d="M31.5122898,3.56067223 C32.02637,7.30714231 32.7974903,15.1022172 32.1548901,18.7882603 C31.0624696,24.830954 33.65496,25.0436031 25.7509766,27.8232422 C21.2527746,29.3943425 16.178684,28.1940961 11.2949219,28.0732422 C10.2667614,28.0732422 4.78734679,27.3635552 3.56640625,26.5175781 C-0.0964153572,23.9192198 0.608988806,16.6657923 0.48046875,12.6171875 C0.223428637,4.51997796 3.7357222,-2.23427654 13.3747264,0.907924172 C12.1791573,0.907924172 11.1251135,0.912667725 10.1902427,0.941142148 C7.95949661,1.00908652 6.40728949,1.21214813 5.22993825,1.80829106 C0.538956195,4.10451466 1.88841679,8.63653492 2.72379715,12.6247128 C3.17361735,14.6188017 2.98083727,16.9150253 3.17361735,18.9091142 C3.43065746,21.1449109 4.84437808,22.1117418 5.74401848,23.1994267 C7.47903924,25.3143695 16.6039632,25.2539426 18.7245442,25.4352234 C22.2588457,25.797785 26.6927877,25.4352234 29.5844889,23.7432691 C32.02637,22.2930227 31.3195097,12.9872744 30.9982096,10.8723316 C30.6769094,8.63653492 31.89785,3.43981835 29.1346687,1.92914493 C27.7494158,1.18843771 15.8439819,0.833721188 14.9330501,0.718411824 C13.9383173,0.592494608 10.6775617,-0.00495967748 10.6522971,-0.00366476552 C9.04175424,0.0788820963 30.8696895,-1.15262885 31.5122898,3.56067223 Z" id="Path" fill="#0380C3"></path>
                                <path d="M20.042889,5.67290393 C20.474764,5.87050345 20.474764,15.3552801 20.1045854,19.3072704 C20.042889,20.2294015 19.2408354,19.3072704 18.3770854,19.7683359 C16.4644962,20.7563335 18.3770854,14.169683 16.0326212,13.9720835 C13.6264605,13.774484 14.7986926,17.0678092 14.4902105,19.3072704 C14.3051212,20.427001 12.9477998,19.9000689 12.2691391,20.0318019 C12.1457463,20.0318019 10.5416392,8.83449615 11.8989606,5.60703743 C12.2074427,4.88250588 13.256282,4.81663937 13.9966391,5.01423889 C14.3668176,5.08010539 13.4413712,10.6787583 14.3051212,11.7326224 C14.6752998,12.1278214 15.3539605,11.9960884 16.0943176,12.1936879 C17.019764,12.4571539 17.883514,12.7864864 17.883514,10.5470253 C17.883514,9.4272947 17.8218176,5.93636995 18.6855676,5.73877044" id="Shape" fill="#0480C3"></path>
                            </g>
                        </g>
                    </g>
                </g>
            </g>
        </g>
    </g>
</svg>
