<svg width="183" height="184" viewBox="0 0 183 184" xmlns="http://www.w3.org/2000/svg">
    <g fill="none" fill-rule="evenodd">
        <g>
            <path d="M91.586 183.35c50.495 0 91.43-40.904 91.43-91.362 0-50.458-40.935-91.363-91.43-91.363C41.09.625.158 41.53.158 91.988S41.09 183.35 91.586 183.35z" fill="#E2F5FF"/>
            <g>
                <path d="M129.865 103.467c-4.81-2.298-4.9-19.482-2.084-23.41 1.122-1.563 4.715-1.23 9.666-1.882 7.488-.986 17.107-1.73 18.262 5.078 1.286 7.582 1.648 20.726-8.84 22.473-.195.06-4.69-.432-9.09-.638-4.398-.206-3.102.677-7.913-1.62z" id="Path" fill="#0480C3"/>
                <path d="M130.928 100.732c6.746 3.644 19.292 3.894 22.465-2.912 2.042-4.38 1.727-15.65-.932-17.496-2.658-1.845-8.95-1.418-8.95-1.418s-8.508 1.42-12.613 1.54c-.52-.06-2.047 1.836-2.112 2.318 0 0-1.773 15.852 2.143 17.968z" id="Path" fill="#89D6FF"/>
                <path d="M145.696 97.734c2.016 0-7.8.792-8.033-.283-.742-3.477 1.184-8.578 1.792-11.925.202-1.18 2.832-.086 3.237.308-.608 1.772-1.272 3.926-1.407 5.764-.675 7.613 1.416 2.042 5.186 3.964-.674.592-.454 2.102-.774 2.174z" id="Shape" fill="#0480C3"/>
            </g>
            <g>
                <path d="M123.304 91.872c.633 11.032 1.28 9.663-1.91 12.732-2.146 2.086-10.77 2.495-13.41 2.25-1.532-.123-11.032-.1-11.167-3.815-.134-3.717.68-8.75.436-13.168-.184-2.945-2.286-6.87.878-8.823 3.166-1.955 10.552-2.568 10.368-2.568.123 0 8.547-.19 12.765 0 4.217.19 1.77 8.67 2.04 13.39z" id="Path" fill="#0480C3"/>
                <path d="M108.787 79.765c-6.01-.123-8.49 1.01-9.35 1.5-2.636 1.35-.965 11.48-.904 14.424.123 5.03-.872 6.106 3.974 7.517 3.987 1.166 12.92.806 16.02-1.612 3.103-2.42 2.92-2.9 3.03-9.034.11-6.133 1.026-11.626-1.872-12.326-2.898-.7-10.898-.47-10.898-.47z" id="Path" fill="#89D6FF"/>
                <path d="M110.185 92.365c.457-.257.09 4-.824 4.866-.912.866-2.194 1.155-2.6 0-.524-1.484 1.003-1.303.486-5.998-.517-4.696-1.246-4.35-.95-5.228.464-1.364 2.12-.6 2.523-.864 1.502.193.783 4.91 1.764 4.523 1.403-.512 3.462-3.482 5.3-4.017.474-.138.94.796 1.367.902.98 2.124-6.34 3.218-4.38 5.534 1.047 1.288 5.884 3.283 4.38 5.15-4.38 0-6.542-5.19-7.065-4.867z" id="Shape" fill="#0480C3"/>
            </g>
            <g>
                <path d="M89.667 80.308c2.295.757 5.387.313 5.2 10.47-.188 10.16-1.7 13.258-3.8 14.968-2.603 2.146-4.978-.204-13.585.065-8.606.27-10.89.71-14.89-1.176-3.56-1.756-1.52-17.63-.56-21.377.96-3.75 8.642-4.245 8.642-4.245 7.37.52 14.165-.265 18.993 1.296z" id="Path" fill="#0480C3"/>
                <path d="M73.415 79.842c-4.32.052-7.366.5-9.21 2.516-2.03 2.276-3.36 19.46 3.756 20.138 7.116.677 11.136-.16 16.56-.25 4.302-.072 5.245 3.3 7.297-3.006 2.053-6.307 1.534-8.11 1.33-12.68-.204-4.572-2.088-4.967-4.884-5.748-3.875-.976-10.528-1.02-14.848-.97z" id="Path" fill="#89D6FF"/>
                <path d="M74.416 98.068c-1.907.067-4.393-3.656-1.99-4.255.912-.2 3.647 4.056 3.73 1.064 0-1.994-.083-5.053.58-6.98 0-.067-.663-7.048 2.985-4.322 1.575 1.263.083 7.446.332 8.443-.58 2.593-1.41 5.85-5.636 6.05z" id="Shape" fill="#0480C3"/>
            </g>
            <g>
                <path d="M36.66 79.014c-4.32.052-6.477 1.358-8.32 3.374-2.032 2.277-3.38 23.565 7.18 22.85 10.56-.716 9.373.24 14.798.15 4.3-.073 4.672 2.95 6.724-3.358 2.053-6.307.204-13.1 0-17.672-.204-4.572-2.276-3.554-5.072-4.334-3.875-.976-10.99-1.06-15.31-1.01z" fill="#89D6FF"/>
                <path d="M57.512 82.56c.514 3.747 1.285 11.542.643 15.228-1.093 6.043 1.5 6.256-6.404 9.035-4.497 1.57-9.57.37-14.455.25-1.028 0-6.508-.71-7.73-1.555-3.66-2.6-2.956-9.852-3.085-13.9-.257-8.098 3.256-14.852 12.895-11.71-1.196 0-2.25.005-3.185.033-2.23.07-3.783.272-4.96.868-4.69 2.297-3.342 6.83-2.506 10.817.45 1.994.257 4.29.45 6.284.257 2.235 1.67 3.202 2.57 4.29 1.735 2.114 10.86 2.054 12.98 2.235 3.535.363 7.97 0 10.86-1.692 2.442-1.45 1.736-10.756 1.414-12.87-.32-2.236.9-7.433-1.863-8.944-1.386-.742-13.29-1.096-14.202-1.212-.995-.126-4.255-.723-4.28-.722-1.61.083 20.217-1.15 20.86 3.565z" fill="#0380C3"/>
                <path d="M46.043 84.673c.432.198.432 9.682.062 13.634-.062.922-.864 0-1.728.46-1.913.99 0-5.597-2.344-5.795-2.407-.198-1.234 3.096-1.543 5.335-.185 1.12-1.542.593-2.22.725-.124 0-1.728-11.198-.37-14.425.307-.724 1.356-.79 2.097-.593.37.066-.556 5.665.308 6.72.37.394 1.05.262 1.79.46.925.263 1.79.592 1.79-1.647 0-1.12-.063-4.61.8-4.808" fill="#0480C3"/>
            </g>
        </g>
    </g>
</svg>
