<?xml version="1.0" encoding="utf-8"?>
<!-- Generator: Adobe Illustrator 15.1.0, SVG Export Plug-In . SVG Version: 6.00 Build 0)  -->
<!DOCTYPE svg PUBLIC "-//W3C//DTD SVG 1.1//EN" "http://www.w3.org/Graphics/SVG/1.1/DTD/svg11.dtd">
<svg version="1.1" id="Layer_1" xmlns="http://www.w3.org/2000/svg" xmlns:xlink="http://www.w3.org/1999/xlink" x="0px" y="0px"
	 width="184px" height="184px" viewBox="0 0 184 184" enable-background="new 0 0 184 184" xml:space="preserve">
<g>
	<g>
		<path fill="#16193E" d="M92,183.363c50.495,0,91.43-40.905,91.43-91.363S142.494,0.637,92,0.637C41.505,0.637,0.57,41.542,0.57,92
			S41.506,183.363,92,183.363z"/>
		<path fill="none" stroke="#D2CFE3" d="M128,107.616c0-7.228,0-14.455,0-21.683c4-0.025,7.098-0.748,9.29-2.478
			C139.898,93.652,140,108.416,128,107.616z"/>
		<path fill="#D2CFE3" d="M119.232,79.121c0.259,3.354-5.137,1.057-3.719,5.574c0.854,2.246,5.424,0.775,7.436,1.859
			c2.093,19.668-0.672,36.549-17.965,36.549c-7.616,0-31.387-0.23-39.647,0c-17.734,0.492-21.528-17.631-18.584-35.931
			c1.729-1.987,7.331-0.104,8.052-3.096c1.187-4.286-4.466-1.73-4.956-4.337c4.879-5.188,23.36-3.096,37.789-3.096
			C99.898,76.643,112.496,74.808,119.232,79.121z"/>
		<path fill="none" stroke="#D2CFE3" d="M126.048,80.978c-5.551-17.785-39.727-6.944-60.092-9.912
			c5.369-8.337,44.731-10.015,63.188-7.434C141.121,65.31,142.775,82.526,126.048,80.978z"/>
		<path fill="none" stroke="#D2CFE3" d="M58.522,71.066c8.44-13.036,24.548-12.391,47.703-12.391
			c16.881,0,33.428-1.702,37.168,9.913c3.278,10.169,2.428,37.194-5.576,42.125c-2.89,1.781-6.504,1.24-9.91,2.479
			c-5.705,8.93-15.202,18.067-29.734,14.248c-4.98-1.317-23.076-0.955-26.639,0c-23.954,6.479-34.795-18.146-30.354-39.029
			c0.463-2.219,2.297-4.669,3.716-8.052C47.682,73.75,47.837,70.911,58.522,71.066z"/>
		<g enable-background="new    ">
			<path fill="#16193E" d="M67.752,95.512h3.368v1.684h-1.699v3.368h-1.669v5.066h-1.699v3.368h-1.669v1.684h-1.699v-1.684h-1.699
				v-3.368h-1.668v-5.066h-1.699v-3.368H55.95v-1.684h3.368v3.367h1.668v5.067h1.699v3.367h1.699v-3.367h1.669v-5.067h1.699V95.512z
				"/>
			<path fill="#16193E" d="M86.304,108.998h1.669v1.684h-1.669h-1.699v-5.052h-1.669v-1.684H77.87v5.052h1.668v1.684h-5.036v-1.684
				h1.668v-5.052h-1.668v-1.699h1.668v-5.052h-1.668v-1.684h10.103v1.684h1.699v5.052h-1.699v1.699h1.699V108.998z M82.937,100.563
				h1.669v-1.685h-1.669v-1.684H77.87v5.052h5.066V100.563z"/>
		</g>
	</g>
</g>
</svg>
