<svg width="184" height="184" viewBox="0 0 184 184" xmlns="http://www.w3.org/2000/svg">
    <g fill="none" fill-rule="evenodd">
        <g>
            <path d="M87.343 182.93c50.444 2.627 93.464-36.108 96.088-86.516C186.055 46.006 147.29 3.014 96.845.39 46.4-2.238 3.38 36.497.756 86.904c-2.624 50.408 36.142 93.4 86.587 96.026z" fill="#FCF5C9"/>
            <g>
                <path d="M85.33 117.747c-1.523 5.4.176 10.173 3.896 11.854 3.72 1.682 14.252 1.77 13.2-9.65-1.054-11.42-15.575-7.605-17.097-2.203z" fill="#FFCE39"/>
                <path d="M120.22 103.557c-1.522 5.4.177 10.173 3.898 11.854 3.72 1.68 14.25 1.77 13.198-9.65-1.053-11.42-15.573-7.605-17.096-2.203z" id="Path-44" fill="#FFCE39"/>
                <path d="M44.617 103.597c-1.523 5.4.177 10.173 3.897 11.854 3.72 1.682 14.252 1.77 13.2-9.65-1.054-11.418-15.575-7.605-17.097-2.203z" id="Path-45" fill="#FFCE39"/>
                <path d="M84.49 66.063c-1.523 5.4.176 10.173 3.896 11.854 3.72 1.68 14.252 1.77 13.2-9.65-1.054-11.42-15.575-7.606-17.097-2.204z" fill="#FFCE39"/>
                <path d="M85.932 66.794c-1.198 4.253.14 8.01 3.07 9.333 2.928 1.323 11.22 1.393 10.39-7.598-.83-8.992-12.26-5.99-13.46-1.736z" fill="#FFE673"/>
                <path d="M121.988 104.288c-1.198 4.253.14 8.01 3.07 9.333 2.928 1.324 11.22 1.394 10.39-7.597-.83-8.99-12.26-5.988-13.46-1.735z" fill="#FFE673"/>
                <path d="M87.097 118.535c-1.2 4.253.14 8.01 3.068 9.333 2.93 1.323 11.22 1.393 10.392-7.598-.83-8.99-12.262-5.988-13.46-1.735z" fill="#FFE673"/>
                <path d="M45.903 103.945c-1.2 4.253.14 8.01 3.068 9.334 2.93 1.322 11.222 1.392 10.393-7.6-.83-8.99-12.262-5.988-13.46-1.735z" id="Path-45" fill="#FFE673"/>
                <g>
                    <path d="M133.442 79.428c.676-3.28-.364-8.235-4.786-12.962-5.03-5.38-23.356-1.76-23.45.05-.09 1.75-1.74 7.28-.3 5.77 1.44-1.51 8.51-3.49 9.314-3.592 7.418-.94 8.385 6.136 8.29 10.507-4.77.346-8.53 1.305-8.53 1.305s-.423.138 4.336 6.057c4.76 5.92 10.807 9.344 10.807 9.344s2.108-6.38 6.042-10.453c3.933-4.075 6.15-5.615 6.15-5.615l-7.873-.41z" id="Path-40" fill="#FFCE39"/>
                    <path d="M131.808 80.734c-.444-4.9-1.022-5.646-4.085-11.823-3.322-6.7-19.36-3.036-20.72-1.677-1.364 1.36-.714 2.62-.714 2.62s4.87-1.966 5.605-2.137c.268-.062.53-.117.786-.164 10.522-1.958 11.2 8.155 10.92 13.125-3.71.23-6.36.722-6.36.722s-.404.134 4.12 5.907c4.526 5.774 7.764 6.724 7.764 6.724s-.714-.66-.448-1.823c.342-1.492 1.865-3.76 3.973-6 3.75-3.983 4.65-5.08 4.65-5.08s-.705-.124-5.492-.393z" id="Path-39" fill="#FFE773"/>
                </g>
                <g>
                    <path d="M51.233 77.506c-.33-3.334 1.218-8.153 6.106-12.395 5.562-4.827 23.412.674 23.317 2.484-.09 1.75.976 7.422-.3 5.77-1.276-1.65-8.102-4.353-8.89-4.538-7.28-1.706-8.978 5.232-9.338 9.59 4.71.837 8.35 2.182 8.35 2.182s.405.18-4.943 5.574c-5.347 5.393-11.72 8.17-11.72 8.17s-1.433-6.562-4.923-11.023c-3.49-4.462-5.535-6.224-5.535-6.224l7.873.41z" fill="#FFCE39"/>
                    <path d="M52.728 78.972c.952-5.32 1.087-6.828 4.847-11.278 3.46-4.094 6.027-4.43 18.236-1.444 3.51.858 2.887.79 3.423 1.358 1.44 1.525 1.163 4.52.28 3.345-1.213-1.61-5.423-2.64-6.137-2.886-10.974-3.786-12.756 6.645-12.99 11.722 4.044.717 7.137 1.667 7.137 1.667s-.496-.16-5.596 5.113c-5.1 5.272-7.21 5.404-7.21 5.404s-1.006-4.23-4.324-8.583c-3.317-4.35-3.645-4.64-3.645-4.64s.737-.04 5.98.222z" fill="#FFE773"/>
                </g>
                <g>
                    <path d="M86.954 93.505c-.453-6.063.42-12.376.42-12.376s1.85 1.688 5.266 2.065c3.417.377 5.514-2.496 5.514-2.496l.432 10.838c.786-.083 1.23-.116 1.23-.116l5.69-.315s-1.297 4.086-3.816 8.42c-2.518 4.334-6.92 10.06-6.92 10.06L77.94 95.588l9.014-2.085z" fill="#FFCE39"/>
                    <path d="M87.68 94.79c-.35-5.826.767-12.022.767-12.022s1.537 1.64 3.768 1.842c2.232.202 4.67-1.077 4.67-1.077l.268 9.534c3.357-.346 5.74-.325 5.74-.325s.42.063-3.033 6.538c-3.453 6.474-6.477 7.973-6.477 7.973l-12.346-10.93 6.642-1.532z" fill="#FFE773"/>
                </g>
            </g>
        </g>
    </g>
</svg>
