<?xml version="1.0" encoding="UTF-8" standalone="no"?>
<svg width="184px" height="184px" viewBox="0 0 184 184" version="1.1" xmlns="http://www.w3.org/2000/svg" xmlns:xlink="http://www.w3.org/1999/xlink">
    <defs></defs>
    <g id="Page-1" stroke="none" stroke-width="1" fill="none" fill-rule="evenodd">
        <g id="Upcase---Explore" transform="translate(-96.000000, -1156.000000)">
            <g id="grid" transform="translate(99.000000, 889.000000)"></g>
            <g id="Topics" transform="translate(92.000000, 857.000000)">
                <g id="workflow" transform="translate(0.000000, 295.000000)">
                    <g transform="translate(96.493019, 95.766611) rotate(-357.000000) translate(-96.493019, -95.766611) translate(4.993019, 4.266611)">
                        <path d="M91.0950929,182.776805 C141.589699,182.776805 182.523664,141.872398 182.523664,91.4142548 C182.523664,40.9561119 141.589699,0.0517050226 91.0950929,0.0517050226 C40.6004872,0.0517050226 -0.333478519,40.9561119 -0.333478519,91.4142548 C-0.333478519,141.872398 40.6004872,182.776805 91.0950929,182.776805 Z" id="Oval-220" fill="#FCF5C9"></path>
                        <g id="icon" transform="translate(42.269903, 60.307163)">
                            <path d="M43.4273717,57.5009126 C42.1882773,62.9724949 44.1326658,67.6479306 47.9342357,69.1324358 C51.7358055,70.616941 62.2532039,70.1581136 60.6085698,58.8129158 C58.9639358,47.467718 44.6664662,52.0293304 43.4273717,57.5009126 Z" id="Path-43" fill="#FFCE39"></path>
                            <path d="M77.5220112,41.5219024 C76.2829168,46.9934847 78.2273053,51.6689204 82.0288752,53.1534256 C85.8304451,54.6379308 96.3478434,54.1791033 94.7032093,42.8339056 C93.0585753,31.4887078 78.7611057,36.0503202 77.5220112,41.5219024 Z" id="Path-44" fill="#FFCE39"></path>
                            <path d="M2.04931469,45.4907124 C0.810220241,50.9622947 2.7546088,55.6377304 6.55617866,57.1222356 C10.3577485,58.6067408 20.8751468,58.1479134 19.2305128,46.8027156 C17.5858787,35.4575178 3.28840914,40.0191302 2.04931469,45.4907124 Z" id="Path-45" fill="#FFCE39"></path>
                            <path d="M39.9031432,5.94866664 C38.6640488,11.4202489 40.6084373,16.0956846 44.4100072,17.5801898 C48.211577,19.064695 58.7289753,18.6058676 57.0843413,7.26066979 C55.4397073,-4.08452797 41.1422377,0.477084414 39.9031432,5.94866664 Z" id="Path-46" fill="#FFCE39"></path>
                            <path d="M41.3819212,6.60341864 C40.4063395,10.9113837 41.9372235,14.5925152 44.9303303,15.7613173 C47.9234372,16.9301193 56.204147,16.5688687 54.90927,7.63640389 C53.614393,-1.29606091 42.3575029,2.29545357 41.3819212,6.60341864 Z" id="Path-38" fill="#FFE673"></path>
                            <path d="M79.3248106,42.1598516 C78.3492289,46.4678167 79.8801129,50.1489482 82.8732198,51.3177502 C85.8663266,52.4865523 94.1470364,52.1253016 92.8521594,43.1928368 C91.5572824,34.2603721 80.3003923,37.8518865 79.3248106,42.1598516 Z" id="Path-41" fill="#FFE673"></path>
                            <path d="M45.2331371,58.195649 C44.2575554,62.5036141 45.7884394,66.1847456 48.7815463,67.3535477 C51.7746531,68.5223497 60.0553629,68.1610991 58.7604859,59.2286343 C57.4656089,50.2961695 46.2087188,53.887684 45.2331371,58.195649 Z" id="Path-42" fill="#FFE673"></path>
                            <path d="M3.35129542,45.771792 C2.3757137,50.079757 3.90659775,53.7608886 6.89970458,54.9296906 C9.89281142,56.0984927 18.1735212,55.737242 16.8786442,46.8047772 C15.5837672,37.8723124 4.32687714,41.4638269 3.35129542,45.771792 Z" id="Path-45" fill="#FFE673"></path>
                            <g id="right" transform="translate(60.377708, 2.109652)">
                                <path d="M29.0894503,14.6379629 C29.5932079,11.3270514 28.2976684,6.43617347 23.6379975,1.94673205 C18.3354901,-3.16206148 0.230445558,1.40208227 0.230445491,3.21431392 C0.230445428,4.96584173 -1.12874558,10.5724623 0.230445491,8.99089365 C1.58963656,7.40932502 8.54537443,5.06499745 9.34186403,4.92160799 C16.6989011,3.59714429 18.0317948,10.6113014 18.1645613,14.9795419 C13.4193579,15.5714032 9.71570191,16.72495 9.71570191,16.72495 C9.71570191,16.72495 9.30116198,16.8846549 14.3594447,22.5461035 C19.4177274,28.2075521 25.6338934,31.3125022 25.6338934,31.3125022 C25.6338934,31.3125022 27.4072361,24.8348301 31.1221863,20.5627812 C34.8371365,16.2907324 36.9713143,14.6379629 36.9713143,14.6379629 C36.9713143,14.6379629 33.558586,14.6379629 29.0894504,14.6379629 Z" id="Path-40" fill="#FFCE39"></path>
                                <path d="M27.5255274,16.0269392 C26.8278192,11.1596008 26.2121847,10.4429212 22.8337803,4.43598717 C19.1694097,-2.07940579 3.34950727,2.41045885 2.0601371,3.83780555 C0.770766934,5.26515226 1.48478553,6.49020449 1.48478553,6.49020449 C1.48478553,6.49020449 6.24471616,4.27486304 6.97018793,4.06606183 C7.23461227,3.9899567 7.49346251,3.92156232 7.7468539,3.86062354 C18.1479918,1.35922595 19.3514543,11.4198815 19.3296633,16.3959401 C15.635985,16.8178694 13.0158692,17.4472307 13.0158692,17.4472307 C13.0158692,17.4472307 12.6210832,17.6031864 17.4383249,23.1317283 C22.2555666,28.6602702 25.5375296,29.4406328 25.5375296,29.4406328 C25.5375296,29.4406328 24.7899603,28.8177474 24.9956263,27.6427349 C25.2594429,26.1354952 26.6619349,23.7911341 28.650002,21.4468947 C32.1879247,17.2751353 33.0292773,16.1332706 33.0292773,16.1332706 C33.0292773,16.1332706 32.3187564,16.0462247 27.5255274,16.0269392 Z" id="Path-39" fill="#FFE773"></path>
                            </g>
                            <g id="left" transform="translate(-0.249411, 3.776319)">
                                <path d="M29.1290722,15.3228756 C29.6328298,12.0119641 28.3372903,7.12108619 23.6776194,2.63164477 C18.375112,-2.47714876 0.270067461,2.086995 0.270067395,3.89922664 C0.270067331,5.65075446 -1.08912367,11.257375 0.270067395,9.67580637 C1.62925846,8.09423775 8.58499634,5.74991018 9.38148593,5.60652072 C16.738523,4.28205702 18.0714167,11.2962142 18.2041833,15.6644546 C13.4589798,16.256316 9.75532381,17.4098627 9.75532381,17.4098627 C9.75532381,17.4098627 9.34078389,17.5695676 14.3990666,23.2310163 C19.4573493,28.8924649 25.6735153,31.9974149 25.6735153,31.9974149 C25.6735153,31.9974149 27.446858,25.5197428 31.1618082,21.247694 C34.8767584,16.9756451 37.0109362,15.3228756 37.0109362,15.3228756 C37.0109362,15.3228756 33.5982079,15.3228756 29.1290723,15.3228756 Z" id="Path-40" fill="#FFCE39" transform="translate(18.338459, 16.142087) scale(-1, 1) translate(-18.338459, -16.142087) "></path>
                                <path d="M30.158036,16.7097439 C29.4844638,11.3506837 29.4277727,9.83753684 25.9057032,5.19971621 C22.6652298,0.932697992 20.1192225,0.464604651 7.77542607,2.81056485 C4.228245,3.48471285 4.85355248,3.44878426 4.28912356,3.98762916 C2.77229824,5.43570091 2.89275604,8.43879906 3.83613521,7.31320573 C5.13055711,5.7687656 9.3862059,4.95977576 10.1116777,4.75097455 C21.2638863,1.5412085 22.5010582,12.0470663 22.4709143,17.1271495 C18.3963599,17.6346506 15.2596391,18.4223842 15.2596391,18.4223842 C15.2596391,18.4223842 15.7625729,18.2880991 20.5798147,23.816641 C25.3970564,29.345183 27.4977659,29.586968 27.4977659,29.586968 C27.4977659,29.586968 28.7214332,25.414463 32.2593559,21.2427036 C35.7972786,17.0709443 36.1398647,16.798101 36.1398647,16.798101 C36.1398647,16.798101 35.4058458,16.7219625 30.158036,16.7097439 Z" id="Path-39" fill="#FFE773" transform="translate(19.637836, 15.497617) scale(-1, 1) translate(-19.637836, -15.497617) "></path>
                            </g>
                            <g id="midle" transform="translate(34.631945, 18.776319)">
                                <path d="M9.15820591,14.4399748 C8.39038434,8.41098015 8.93554278,2.06311534 8.93554278,2.06311534 C8.93554278,2.06311534 10.8692162,3.65323672 14.2990952,3.85239456 C17.7289743,4.0515524 19.6731216,1.0741482 19.6731216,1.0741482 L20.6678148,11.8718529 C21.4484347,11.7487733 21.889967,11.6919465 21.889967,11.6919465 L27.5552293,11.0823406 C27.5552293,11.0823406 26.4712221,15.2290621 24.1823332,19.6863775 C21.8934443,24.143693 17.7959422,30.0872912 17.7959422,30.0872912 L0.267686127,16.9892903 C0.267686127,16.9892903 2.76902297,16.2720435 9.15820591,14.4399748 Z" id="Path-45" fill="#FFCE39"></path>
                                <path d="M18.5160767,14.4836499 C17.5464526,8.7309078 15.0659773,2.9490338 15.0659773,2.9490338 C15.0659773,2.9490338 13.9378743,4.89119317 11.8104951,5.58945574 C9.68311601,6.28771832 7.02146952,5.58945581 7.02146952,5.58945581 L8.90287821,14.9342253 C5.55634952,15.3514261 3.24052789,15.9076948 3.24052789,15.9076948 C3.24052789,15.9076948 2.84574193,16.0636505 7.66298365,21.5921925 C12.4802254,27.1207344 15.7621883,27.901097 15.7621883,27.901097 L25.327828,14.4836499 C25.327828,14.4836499 23.189118,14.4836499 18.5160767,14.4836499 Z" id="Path-44" fill="#FFE773" transform="translate(14.280263, 15.425065) scale(-1, 1) rotate(16.000000) translate(-14.280263, -15.425065) "></path>
                            </g>
                        </g>
                    </g>
                </g>
            </g>
        </g>
    </g>
</svg>
